<?xml version="1.0" encoding="utf-8"?>
<!-- Generator: Adobe Illustrator 23.0.4, SVG Export Plug-In . SVG Version: 6.00 Build 0)  -->
<svg version="1.1" id="Vendor_managed_inventory" xmlns="http://www.w3.org/2000/svg" xmlns:xlink="http://www.w3.org/1999/xlink"
	 x="0px" y="0px" viewBox="0 0 229.7 231.4" style="enable-background:new 0 0 229.7 231.4;" xml:space="preserve">
<style type="text/css">
	.st0{fill:#FFFFFF;}
</style>
<g>
	<path class="st0" d="M149.9,63.9H59.5c-1.8,0-3.4-1.5-3.4-3.4c0-1.8,1.5-3.4,3.4-3.4h90.4c1.8,0,3.4,1.5,3.4,3.4
		C153.3,62.3,151.8,63.9,149.9,63.9"/>
	<path class="st0" d="M149.9,90.2H59.5c-1.8,0-3.4-1.5-3.4-3.4c0-1.8,1.5-3.4,3.4-3.4h90.4c1.8,0,3.4,1.5,3.4,3.4
		C153.3,88.6,151.8,90.2,149.9,90.2"/>
	<path class="st0" d="M149.9,115.1H59.5c-1.8,0-3.4-1.5-3.4-3.4c0-1.8,1.5-3.4,3.4-3.4h90.4c1.8,0,3.4,1.5,3.4,3.4
		C153.3,113.6,151.8,115.1,149.9,115.1"/>
	<path class="st0" d="M167.7,167.7V196c0,0.7-0.6,1.3-1.3,1.3h-123c-0.7,0-1.3-0.6-1.3-1.3V31.5c0-0.7,0.6-1.3,1.3-1.3h123
		c0.7,0,1.3,0.6,1.3,1.3v73.9l13.5-18V31.5c0-8.2-6.6-14.8-14.8-14.8h-123c-8.2,0-14.8,6.6-14.8,14.8V196c0,8.2,6.6,14.8,14.8,14.8
		h123c8.2,0,14.8-6.6,14.8-14.8v-45.4L167.7,167.7z"/>
	<path class="st0" d="M215.9,69.5c-3-2.1-6.6-3-10.3-2.3c-3.7,0.6-6.8,2.7-9,5.6l-0.3,0.5l-5.2,7.4l-2.7,4.1l-39.9,56.3l-0.8,1.2
		l-0.5,1c-0.2,0.8-5.5,19.7-6.4,26.5c0,0.4-0.2,1.3,0.1,2.8c0.2,0.8,1.4,1.6,1.4,1.6c0.6,0.4,1.2,0.6,1.8,0.6c1,0,1.9-0.5,2.7-0.8
		c5.9-3.1,21.4-14,22-14.5l0.8-0.8L212,98.8l7.3-10.3C223.6,82.4,222.2,73.9,215.9,69.5 M152.9,148.2l10.4,7.1
		c-3.1,2.1-9.6,6.7-14.7,9.9C149.8,159.6,151.7,152.3,152.9,148.2 M167.5,150.1l-11.4-7.9l37-52.3l11.4,8L167.5,150.1z"/>
</g>
</svg>
