<?xml version="1.0" encoding="utf-8"?>
<!-- Generator: Adobe Illustrator 23.0.4, SVG Export Plug-In . SVG Version: 6.00 Build 0)  -->
<svg version="1.1" id="Vendor_managed_inventory" xmlns="http://www.w3.org/2000/svg" xmlns:xlink="http://www.w3.org/1999/xlink"
	 x="0px" y="0px" viewBox="0 0 229.7 231.4" style="enable-background:new 0 0 229.7 231.4;" xml:space="preserve">
<style type="text/css">
	.st0{fill:#FFFFFF;}
</style>
<g>
	<path class="st0" d="M188,80.7c-0.2-0.2-0.2-0.5-0.5-0.6c0.2,0.2,0.2,0.2,0.2,0.3C188,80.6,188,80.7,188,80.7z"/>
	<path class="st0" d="M111.5,83c-1.2,0-2.1-1.1-2.1-2.1V68.2c0-1.2,1.1-2.1,2.1-2.1s2.1,1.1,2.1,2.1v12.7
		C113.7,82.1,112.8,83,111.5,83z"/>
	<path class="st0" d="M132.2,156.7c-7.7,0-13.9,6.3-13.9,13.9c0,7.7,6.3,13.9,13.9,13.9s13.9-6.3,13.9-13.9
		C146.2,163,140,156.7,132.2,156.7z M132.2,175.8c-2.9,0-5.2-2.3-5.2-5.2s2.3-5.2,5.2-5.2s5.2,2.3,5.2,5.2S135.1,175.8,132.2,175.8z
		"/>
	<path class="st0" d="M88.4,156.7c-7.7,0-13.9,6.3-13.9,13.9c0,7.7,6.3,13.9,13.9,13.9s13.9-6.3,13.9-13.9
		C102.4,163,96.1,156.7,88.4,156.7z M88.4,175.8c-2.9,0-5.2-2.3-5.2-5.2s2.3-5.2,5.2-5.2c2.9,0,5.2,2.3,5.2,5.2
		C93.6,173.5,91.3,175.8,88.4,175.8z"/>
	<path class="st0" d="M191,93c-0.2,0-0.5,0.2-0.6,0.2c0,0,0.2,0,0.2-0.2C190.7,93,190.9,93,191,93z"/>
	<path class="st0" d="M50.9,165.3c-1.7-3.1-3.2-6.1-4.4-9.3c0,0.2,0.2,0.2,0.2,0.3C47.8,159.3,49.4,162.3,50.9,165.3z"/>
	<path class="st0" d="M178.2,162c-8.3,17.8-23.1,31.4-41.7,38.1c-8.3,2.9-16.8,4.4-25.3,4.4c-10.6,0-21.3-2.3-31.1-6.9
		c-10.3-4.7-19.1-11.8-26-20.4c0,0,0,0-0.2,0c-1.7-2-3.2-4.1-4.6-6.3c-0.5-0.5-0.6-0.9-0.9-1.4c-0.3-0.5-0.5-0.9-0.8-1.2
		c-0.3-0.5-0.5-0.9-0.8-1.4c-1.1-2-2.1-4.1-3.1-6.3c-0.3-0.6-0.6-1.4-0.8-2c-0.2-0.3-0.3-0.8-0.5-1.1c-2.1-5.5-3.7-11.3-4.4-17.2
		c-1.8-13.9,0.3-28,6.3-40.7c17.2-36.9,61.1-52.8,98-35.7c4.7,2.3,9.3,5.1,13.5,8.1c0.9,0.8,1.2,2.1,0.5,3.1
		c-0.8,1.1-2.1,1.2-3.1,0.5c-4-3.1-8.3-5.5-12.7-7.7c-34.8-16.2-76.1-1.1-92.3,33.5c-8.1,17.5-8.6,37.1-1.8,54.2l0,0
		c1.2,3.2,2.8,6.3,4.4,9.3c0,0,0,0,0,0.2c0.5,0.9,1.1,1.8,1.7,2.8l0,0c0.5,0.8,1.1,1.7,1.5,2.5c0.2,0.3,0.5,0.6,0.8,1.1
		c0.3,0.5,0.8,1.1,1.1,1.4c0.2,0.3,0.5,0.6,0.8,1.1c6.6,8.4,15.2,15.3,25.1,19.9c16.8,7.8,35.7,8.7,53.1,2.3
		c17.5-6.3,31.2-19,39.2-35.8c4.6-10,6.7-20.5,6.6-31.2c0-1.2,0.9-2.3,2.1-2.3s2.3,0.9,2.3,2.1C185.5,140.3,183.1,151.5,178.2,162z"
		/>
	<path class="st0" d="M209.9,101.4l-15.9-8.1c-0.5-0.2-0.9-0.5-1.4-0.5c-0.2,0-0.5,0-0.6,0l0,0c-0.3,0-0.6,0-0.8,0.2
		c-0.2,0-0.5,0.2-0.6,0.2c-0.2,0-0.3,0.2-0.5,0.2c0,0-0.2,0-0.2,0.2c-0.2,0.2-0.5,0.3-0.6,0.5c-0.3,0.2-0.5,0.5-0.6,0.8
		c-0.2,0.2-0.2,0.3-0.3,0.5l-0.2,0.2l-8,15.8c-1.1,2.1-0.2,4.7,1.8,5.8c0.6,0.3,1.4,0.5,2,0.5c1.7,0,3.1-0.9,3.8-2.5l3.5-6.9
		c2.1,7.4,3.2,15.2,3.2,23c0,45.8-37.2,83-83,83c-26.2,0-51.3-12.7-66.9-33.8l0,0C34,166,28.4,149,28.4,130.9c0-45.8,37.2-83,83-83
		c25.6,0,49.5,11.6,65.1,31.5l-13.6,1.8c-1.7,0.2-2.9,1.4-3.5,2.9l-12.9,37.2h-21.1l2.6-17.9h11.9c2.5,0,4.3-2,4.3-4.3
		c0-2.5-2-4.3-4.3-4.3H64.5c-1.4,0-2.6,0.6-3.5,1.7c-0.8,1.1-1.1,2.5-0.6,3.8l11.8,40.1l0,0c0,0,0,0,0,0.2l0,0c0,0.2,0,0.3,0.2,0.5
		l2.5,8.6c0.6,1.8,2.3,3.1,4.1,3.1h62.5c1.8,0,3.5-1.2,4.1-2.9l21.1-60.2l18.2-2.5l0,0c1.1-0.2,2.1-0.8,2.8-1.5
		c0.2-0.2,0.2-0.3,0.3-0.5c0.3-0.5,0.5-1.1,0.6-1.7c0-0.2,0-0.5,0-0.6s0-0.5,0-0.6c0-0.3-0.2-0.6-0.2-0.9c0-0.2-0.2-0.5-0.2-0.5l0,0
		c-0.2-0.2-0.2-0.5-0.5-0.6c-5.5-8.3-12.3-15.5-19.8-21.4l6.3-11c0.6-1.1,0.8-2.3,0.5-3.4c-0.3-1.1-1.1-2-2-2.6l-16.4-9.5
		c-2.1-1.2-4.7-0.5-6,1.7l-6.6,11.3c-6-2.3-12.1-3.8-18.4-4.9v-6h4.1c2.5,0,4.3-2,4.3-4.3V12c0-2.5-2-4.4-4.3-4.4h-36
		c-2.5,0-4.3,2-4.3,4.3v18.4c0,2.5,2,4.3,4.3,4.3h4.1v5.8c-6.4,0.9-12.7,2.6-18.7,4.9l-6.6-11.3c-1.2-2.1-3.8-2.8-6-1.7l-16.4,9.6
		c-1.1,0.6-1.7,1.5-2,2.6c-0.3,1.1-0.2,2.3,0.5,3.4l6.3,11c-21.4,16.7-35.4,42.9-35.4,72.1c0,19.9,6.1,38.7,17.9,54.5l0,0l0,0
		c17.2,23.4,44.9,37.4,73.8,37.4c50.5,0,91.7-41.2,91.7-91.7c0-8.6-1.2-17-3.5-25.1l6.3,3.2c2.1,1.1,4.7,0.2,5.8-1.8
		C212.8,105.1,212,102.5,209.9,101.4z M75.6,121.5l-5.4-17.9H91l2.8,17.9H75.6z M82.3,144.1l-1.7-5.4c0-0.2,0-0.2-0.2-0.3l-3.7-12.6
		h17.5l2.8,18.2H82.3z M117.5,144.1h-16.1l-2.6-18.2h21.3L117.5,144.1z M98.1,121.5l-2.6-17.9h27.7l-2.5,17.9H98.1z M138.3,144.1
		H122l2.6-18.4h20.2L138.3,144.1z M155.6,42l8.7,5.1l-3.8,6.6c-2.9-1.8-5.8-3.5-8.7-5.1L155.6,42z M97.9,16.1H125v9.6h-4.1
		c-2.5,0-4.3,2-4.3,4.3v9.3c-1.7-0.2-3.5-0.2-5.4-0.2c-1.7,0-3.2,0-4.9,0.2V30c0-2.5-2-4.3-4.3-4.3h-4.1L97.9,16.1L97.9,16.1z
		 M67,42l3.8,6.6c-3.1,1.5-6,3.2-8.9,5.1L58.2,47L67,42z"/>
	<path class="st0" d="M190.4,93.1c-0.2,0-0.3,0.2-0.5,0.2c0.2,0,0.2-0.2,0.3-0.2C190.3,93.1,190.3,93.1,190.4,93.1z"/>
</g>
</svg>
