<?xml version="1.0" encoding="utf-8"?>
<!-- Generator: Adobe Illustrator 23.0.4, SVG Export Plug-In . SVG Version: 6.00 Build 0)  -->
<svg version="1.1" id="Vendor_managed_inventory" xmlns="http://www.w3.org/2000/svg" xmlns:xlink="http://www.w3.org/1999/xlink"
	 x="0px" y="0px" viewBox="0 0 229.7 231.4" style="enable-background:new 0 0 229.7 231.4;" xml:space="preserve">
<style type="text/css">
	.st0{fill:#FFFFFF;}
</style>
<g>
	<path class="st0" d="M207.6,67.8c0-1.9-1.6-3.5-3.5-3.5l-59.5-0.1c-0.1,0-0.1,0-0.2,0h-0.1L85,64.1l0,0c-0.1,0-0.1,0-0.2,0
		c0,0,0,0-0.1,0L25.3,64l0,0c-0.9,0-1.8,0.4-2.5,1c-0.6,0.7-1,1.6-1,2.5l0.1,96.2c0,1.9,1.6,3.5,3.5,3.5l59.5,0.1l0,0
		c0.1,0,0.1,0,0.2,0h0.1l59.5,0.1l0,0c0.1,0,0.1,0,0.2,0h0.1l59.5,0.1l0,0c0.9,0,1.8-0.4,2.5-1c0.7-0.7,1-1.6,1-2.5L207.6,67.8z
		 M28.9,160.2l-0.1-89.3l52.5,0.1l0.1,89.2H28.9z M88.6,160.4l-0.1-89.3l52.5,0.1l0.1,89.2L88.6,160.4z M148.2,160.4l-0.1-89.2
		l30,0.1c-1.1,2.8-3.4,4.7-5.8,6.9c-3.5,3.2-12.9,10.3-12.9,17.2v4.1h29.2v-7.1H170c1.2-2.4,5.9-5.5,9.1-8.4
		c2.7-2.5,7.6-6.8,9.2-12.6h12.3l0.1,89.2L148.2,160.4z"/>
	<path class="st0" d="M182.4,131.1c4.2-1.4,6.8-4.7,6.8-9.5c0-6.9-5.6-11.6-14.2-11.6c-7.6,0-12.4,2.9-15.4,9.7l8,2.8
		c1.5-3.2,3.5-5.7,7-5.7c3.2,0,5.1,2.4,5.1,5.6c0,5.5-3.5,6-8,6h-2.8v6.8h2.4c5.4,0,9.5,0.6,9.5,6.9c0,3.9-2.4,6.4-6.4,6.4
		c-3.6,0-5.9-1.9-7.3-6.3l-8.9,2.1c2.2,7.7,7.1,11.1,16,11.1c10.3,0,16.7-5.1,16.7-13.5C190.9,136.1,188,132.4,182.4,131.1z"/>
</g>
</svg>
