<?xml version="1.0" encoding="utf-8"?>
<!-- Generator: Adobe Illustrator 23.0.4, SVG Export Plug-In . SVG Version: 6.00 Build 0)  -->
<svg version="1.1" id="Vendor_managed_inventory" xmlns="http://www.w3.org/2000/svg" xmlns:xlink="http://www.w3.org/1999/xlink"
	 x="0px" y="0px" viewBox="0 0 229.7 231.4" style="enable-background:new 0 0 229.7 231.4;" xml:space="preserve">
<style type="text/css">
	.st0{fill:#FFFFFF;}
</style>
<g>
	<path class="st0" d="M77.4,106v5.7c0,1.1,0.9,2,2,2c1.1,0,2-0.9,2-2v-5.4c3.7-0.3,6.5-1.5,8.5-3.5c1.9-2,3-4.9,3-7.9
		c-0.3-5.8-4.2-9.1-11.5-12.5V65.7c2.7,0.1,4.6,1.4,5.8,3.7c1.1,2,1.2,4.1,1.2,4.2c0.1,1.1,1.1,2,2.2,1.9s2-1.1,1.9-2.2
		c0-0.1-0.3-2.8-1.8-5.7c-2-3.8-5.3-5.8-9.6-6v-5.6c0-1.1-0.9-2-2-2c-1.1,0-2,0.9-2,2v5.8c-7.6,1.4-10.4,7.1-10.4,10.7
		c0,3.9,1.2,8.3,10.4,12.6l0,0v16.7c-5.3-1.5-7.5-7.1-7.5-7.3c-0.4-1.1-1.6-1.6-2.6-1.2C66,93.8,65.4,95,65.9,96
		C66,96.2,69.1,104.5,77.4,106z M88.8,95c0,0.8-0.1,3.1-1.8,4.7c-1.2,1.4-3.1,2-5.6,2.3V87C86.2,89.3,88.8,91.6,88.8,95z M71,72.6
		c0-1.5,1.2-5.2,6.4-6.5v14.4C71.6,77.5,71,75.1,71,72.6z"/>
	<path class="st0" d="M158.9,128.6H70.1c-1.9,0-3.5,1.6-3.5,3.5c0,1.9,1.6,3.5,3.5,3.5h88.8c1.9,0,3.5-1.6,3.5-3.5
		C162.4,130.3,160.8,128.6,158.9,128.6z"/>
	<path class="st0" d="M158.9,150.5H70.1c-1.9,0-3.5,1.6-3.5,3.5s1.6,3.5,3.5,3.5h88.8c1.9,0,3.5-1.6,3.5-3.5
		C162.4,152.1,160.8,150.5,158.9,150.5z"/>
	<path class="st0" d="M158.9,172.4H70.1c-1.9,0-3.5,1.6-3.5,3.5s1.6,3.5,3.5,3.5h88.8c1.9,0,3.5-1.6,3.5-3.5
		C162.4,173.9,160.8,172.4,158.9,172.4z"/>
	<path class="st0" d="M191.3,66c0-0.1,0-0.1,0-0.3c0-0.3,0-0.5-0.1-0.7v-0.1c0-0.3-0.1-0.5-0.3-0.8c0-0.1,0-0.1-0.1-0.3
		c-0.1-0.3-0.1-0.4-0.3-0.7c0-0.1,0-0.1-0.1-0.3c-0.1-0.3-0.3-0.5-0.4-0.7c0-0.1-0.1-0.1-0.1-0.3c-0.1-0.1-0.3-0.3-0.4-0.5l-0.1-0.1
		l-37.4-38.4l0,0l-0.1-0.1c-0.1-0.1-0.3-0.3-0.3-0.3l-0.1-0.1c-0.1-0.1-0.3-0.1-0.4-0.3l-0.1-0.1c-0.1-0.1-0.3-0.1-0.5-0.3
		c0,0-0.1,0-0.1-0.1c-0.1-0.1-0.3-0.1-0.4-0.1c-0.1,0-0.1,0-0.3-0.1c-0.1,0-0.3-0.1-0.3-0.1c-0.1,0-0.1,0-0.3-0.1
		c-0.1,0-0.3,0-0.5,0c-0.1,0-0.1,0-0.3,0c-0.1,0-0.3,0-0.4-0.1c-0.1,0-0.1,0-0.3,0c-0.1,0-0.3,0-0.5,0h-0.1H44.6
		c-3.9,0-7.1,3.1-7.1,7.1v175.6c0,3.9,3.1,7.1,7.1,7.1h139.7c3.9,0,7.1-3.1,7.1-7.1V66.3C191.3,66.1,191.3,66.1,191.3,66z
		 M153.9,45.1l13.7,14h-13.7V45.1z M51.6,196.3V34.8h88.1v31.3c0,1.9,0.7,3.7,2,5c1.4,1.4,3.1,2,5,2l0,0h30.4v123.1H51.6z"/>
</g>
</svg>
