<?xml version="1.0" encoding="utf-8"?>
<!-- Generator: Adobe Illustrator 23.0.4, SVG Export Plug-In . SVG Version: 6.00 Build 0)  -->
<svg version="1.1" id="Vendor_managed_inventory" xmlns="http://www.w3.org/2000/svg" xmlns:xlink="http://www.w3.org/1999/xlink"
	 x="0px" y="0px" viewBox="0 0 229.7 231.4" style="enable-background:new 0 0 229.7 231.4;" xml:space="preserve">
<style type="text/css">
	.st0{fill:#FFFFFF;}
</style>
<g>
	<path class="st0" d="M122.5,90.1h-18.6c-4.1-0.5-5.7-0.5-6.9,0.9c-1.3,1.3-1.3,2.7-0.3,7.6l5.2,48.1c0.2,1.7,1.6,3,3.5,3
		c0.2,0,0.3,0,0.3,0c1.9-0.2,3.2-1.9,3-3.8l-5.2-48.3v-0.2c0-0.2,0-0.3-0.2-0.5l0,0h19.3h0.2c0.3,0,0.5,0,0.8,0
		c0,0.5-0.2,1.1-0.2,1.6l-5.1,47.5c-0.2,1.9,1.1,3.6,3,3.8c1.9,0.2,3.6-1.1,3.8-3l4.9-47.3c0.8-5.7,0.9-6.8-0.3-8.2
		C128.5,89.7,127.1,89.9,122.5,90.1z"/>
	<path class="st0" d="M63.8,57.1c0.9,0,1.7-0.3,2.5-0.9c1.3-1.4,1.3-3.5,0-4.9l-17-16.4c-1.4-1.3-3.5-1.3-4.9,0
		c-1.3,1.4-1.3,3.5,0,4.9l16.9,16.6C62,56.8,62.8,57.1,63.8,57.1z"/>
	<path class="st0" d="M114,37c1.9,0,3.5-1.6,3.5-3.5v-23c0-1.9-1.6-3.5-3.5-3.5c-1.9,0-3.5,1.6-3.5,3.5v23.2
		C110.5,35.4,111.9,37,114,37z"/>
	<path class="st0" d="M96,176.2c0,1.9,1.6,3.5,3.5,3.5h27.8c1.9,0,3.5-1.6,3.5-3.5c0-1.9-1.6-3.5-3.5-3.5H99.3
		C97.5,172.9,96,174.3,96,176.2z"/>
	<path class="st0" d="M129.3,185.2c-0.5-0.6-0.9-1.1-1.6-1.1H99c-0.6,0-1.3,0.5-1.6,1.1c-0.8,0.6-1.4,1.6-1.4,2.7
		c0,1.9,1.6,3.5,3.5,3.5h27.8c1.9,0,3.5-1.6,3.5-3.5C130.5,186.8,130.1,185.9,129.3,185.2z"/>
	<path class="st0" d="M181.4,34.8c-1.3-1.4-3.5-1.4-4.9,0l-16.7,16.6c-1.4,1.3-1.4,3.5,0,4.9c0.6,0.6,1.6,0.9,2.5,0.9
		c0.8,0,1.7-0.3,2.4-0.9l16.9-16.6C182.6,38.3,182.8,36.1,181.4,34.8z"/>
	<path class="st0" d="M112.9,54.7c-30.3,0-55.1,24.6-55.1,55.1c0,19.9,10.6,37.4,26.5,47c0,0.2,0,0.3,0,0.5v44.8
		c0,3,2.4,5.4,5.4,5.4h4.9c-0.2,0.8-0.2,1.6-0.2,2.2c0,10.6,8.7,19.1,19.4,19.1c10.4,0,19.4-9.6,19.4-20.7c0-0.3,0-0.5-0.2-0.8h3.3
		c3,0,5.4-2.4,5.4-5.4v-44.8c0-0.3,0-0.5,0-0.6c15.8-9.6,26.2-27,26.2-46.9C167.9,79.3,143.3,54.7,112.9,54.7z M126.4,208.1
		c0,7.9-6.6,13.7-12.6,13.7c-6.9,0-12.6-5.5-12.6-12.3c0-0.8,0-1.6,0.2-2.2h25.1C126.4,207.6,126.4,207.8,126.4,208.1z M135,200.5
		H98.8l0,0h-7.6v-40.4c6.6,2.8,14,4.6,21.8,4.6c7.9,0,15.3-1.6,22.1-4.6v40.4H135z M112.9,157.8c-26.7,0-48.1-21.6-48.1-48.1
		s21.6-48.1,48.1-48.1S161,83.1,161,109.6S139.5,157.8,112.9,157.8z"/>
</g>
</svg>
