<?xml version="1.0" encoding="utf-8"?>
<!-- Generator: Adobe Illustrator 23.0.4, SVG Export Plug-In . SVG Version: 6.00 Build 0)  -->
<svg version="1.1" id="Vendor_managed_inventory" xmlns="http://www.w3.org/2000/svg" xmlns:xlink="http://www.w3.org/1999/xlink"
	 x="0px" y="0px" viewBox="0 0 229.7 231.4" style="enable-background:new 0 0 229.7 231.4;" xml:space="preserve">
<style type="text/css">
	.st0{fill:#FFFFFF;}
</style>
<path class="st0" d="M184.2,221H41.7c-2.3,0-4.2-1.9-4.2-4.2V31.4c0-2.3,1.9-4.2,4.2-4.2h100.6c2.3,0,4.2,1.9,4.2,4.2
	s-1.9,4.2-4.2,4.2H45.9v177.1H180V73.2c0-2.3,1.9-4.2,4.2-4.2s4.2,1.9,4.2,4.2v143.6C188.4,219.2,186.5,221,184.2,221z M205.2,27.4
	h-18.1V10.2c0-2.3-1.9-4.2-4.2-4.2s-4.2,1.9-4.2,4.2v17.2h-18.6c-2.3,0-4.2,1.9-4.2,4.2s1.9,4.2,4.2,4.2h18.6v18.9
	c0,2.3,1.9,4.2,4.2,4.2s4.2-1.9,4.2-4.2V35.8h18.1c2.3,0,4.2-1.9,4.2-4.2C209.4,29.3,207.5,27.4,205.2,27.4z M129,169
	c2.5,3.4,7.3,4.1,10.7,1.7c1.6-1.2,2.7-3,3.1-5c0.3-2-0.2-4-1.4-5.7l0,0c-2.5-3.4-7.3-4.1-10.7-1.7c-1.7,1.2-2.7,3-3.1,5
	c0,0.1,0,0.2,0,0.3C127.3,165.5,127.8,167.4,129,169z M138.5,162.1c0.6,0.9,0.9,2,0.7,3c-0.2,1.1-0.8,2-1.6,2.7
	c-1.8,1.3-4.4,0.9-5.8-0.9c-0.7-0.9-0.9-2-0.7-3c0.2-1.1,0.8-2,1.6-2.7C134.5,159.8,137.1,160.2,138.5,162.1L138.5,162.1z
	 M152.9,167.2c-0.7,4.7-3.3,8.8-7.1,11.6c-4.9,3.6-11.3,4.4-17,2.2c-0.3-0.1-0.5-0.1-0.8-0.2c-2.9-1.3-5.4-3.3-7.3-5.9
	c-3.2-4.4-4.2-10-2.8-15.2l-23.7-32.4c-8.7,1.2-17.3-2.3-22.5-9.5c-3.6-4.8-5.1-10.8-4.4-16.6c0.3-2.4,0.9-4.7,1.9-7
	c0.5-1.1,1.6-1.9,2.8-2.1c1.2-0.1,2.5,0.4,3.2,1.4l8.8,12.1c1.4-0.7,3.4-1.7,5.6-3.3c1.5-1.1,2.7-2.1,3.6-3c0.2-0.2,0.4-0.4,0.6-0.6
	c0,0,0.1-0.1,0.1-0.1c0.2-0.2,0.4-0.4,0.6-0.6l-8.8-12c-0.5-0.7-0.8-1.6-0.7-2.5c0-0.3,0.1-0.7,0.3-1c0.5-1.2,1.6-1.9,2.8-2.1
	c8.4-0.9,16.8,2.7,21.8,9.6c5.2,7.2,6,16.4,2.2,24.3l23.7,32.4c5.6,0.2,10.6,2.8,13.8,7.3C152.5,157.8,153.7,162.5,152.9,167.2z
	 M144,158.1c-0.5-0.6-1-1.2-1.6-1.7c-0.2-0.1-0.4-0.2-0.6-0.4c-2.2-1.7-4.6-2.4-7.6-2.3c-1.2,0.1-2.3-0.5-3-1.4l-26.1-35.7
	c-0.8-1.2-0.9-2.7-0.2-3.9c3.6-5.8,3.3-13-0.7-18.5c-2.1-2.8-5-4.9-8.2-6l5.8,7.9c0,0,0,0.1,0.1,0.1c0,0.1,0.1,0.1,0.1,0.2
	c0.1,0.1,0.1,0.2,0.2,0.4c0,0.1,0.1,0.1,0.1,0.2c0.1,0.2,0.1,0.3,0.1,0.4c0,0.1,0,0.1,0,0.1c0,0.2,0.1,0.4,0.1,0.6
	c0,0.1,0,0.1,0,0.1c0,0.2,0,0.3,0,0.5c0,0.1,0,0.1,0,0.2c0,0.1-0.1,0.3-0.1,0.4c0,0.1,0,0.1-0.1,0.2c-0.1,0.2-0.2,0.4-0.3,0.6
	c0,0,0,0,0,0c0,0,0,0-0.1,0.1c0,0-0.1,0.1-0.1,0.1c0,0,0,0,0,0c-0.3,0.4-1.1,1.5-2.4,2.8c0,0,0,0-0.1,0.1c-0.4,0.4-0.8,0.8-1.3,1.3
	c0,0,0,0,0,0c-1.1,1.1-2.5,2.3-4.2,3.5c-5.4,3.9-9.8,5.2-10,5.3c-1.4,0.4-2.9-0.1-3.8-1.3l-5.8-8c0,3.4,1.1,6.8,3.2,9.7
	c4,5.5,10.9,8,17.5,6.3c1.4-0.3,2.8,0.2,3.7,1.3l26.1,35.7c0.7,1,0.9,2.3,0.4,3.4c-1.4,3.5-0.9,7.3,1.3,10.3
	c1.1,1.4,2.5,2.6,4.1,3.4c0.2,0,0.3,0.1,0.5,0.1c3.5,1.5,7.6,1.1,10.7-1.2c2.3-1.7,3.9-4.2,4.3-7C146.4,163.3,145.7,160.5,144,158.1
	z"/>
</svg>
