<?xml version="1.0" encoding="utf-8"?>
<!-- Generator: Adobe Illustrator 23.0.4, SVG Export Plug-In . SVG Version: 6.00 Build 0)  -->
<svg version="1.1" id="Vendor_managed_inventory" xmlns="http://www.w3.org/2000/svg" xmlns:xlink="http://www.w3.org/1999/xlink"
	 x="0px" y="0px" viewBox="0 0 229.7 231.4" style="enable-background:new 0 0 229.7 231.4;" xml:space="preserve">
<style type="text/css">
	.st0{fill:#FFFFFF;}
</style>
<g>
	<path class="st0" d="M199.8,190.9H37.6V29.3c0-4.4-3.6-8-8-8s-8,3.6-8,8v169.7c0,4.4,3.6,8,8,8h170.2c4.4,0,8-3.6,8-8
		C207.8,194.5,204.2,190.9,199.8,190.9z"/>
	<path class="st0" d="M200.1,94.5L167.3,105l-17.8-10.5l3.8-1c1.2-0.3,2.2-1,3-1.8L178.7,66h3.9c1.4,0,2.4-1,2.4-2.4
		c0-1.3-1-2.2-2.2-2.4L196,46.1V52c0,3.3,2.6,6,6,6l0,0c3.3,0,6-2.6,6-6V30.1c0-3.3-2.6-6-6-6h-21.9l0,0c-3.3,0-6,2.6-6,6
		c0,3.3,2.6,6,6,6h8.8l-40.3,46.3l-13.7,3.5l-32.4-19.1c-0.6-0.4-1.4-0.6-2.1-0.7h5.6c1.4,0,2.4-1,2.4-2.4c0-1.4-1-2.4-2.4-2.4h-8.5
		c-1.4,0-2.4,1-2.4,2.4c0,1.4,1,2.4,2.4,2.4h1c-0.5,0.1-1,0.2-1.4,0.4L50.1,87.2c-3,1.4-4.4,4.9-3,7.9c1.4,3,4.9,4.4,7.9,3
		l44.1-19.4L118.3,90l-26.5,6.7c-1.6,0.4-3,1.4-3.8,2.9l-40.7,72.3c-1.6,2.9-0.6,6.6,2.3,8.2c1,0.6,1.9,0.8,3,0.8
		c2.1,0,4.2-1.1,5.2-3l39.5-70.1l35.7-9.1l30.5,18c1,0.6,2,0.8,3,0.8c0.6,0,1.2-0.1,1.8-0.3l35.3-11.3c3.1-1,4.9-4.4,3.9-7.5
		C206.6,95.2,203.3,93.5,200.1,94.5z"/>
	<path class="st0" d="M49,66h6c1.4,0,2.4-1,2.4-2.4c0-1.4-1-2.4-2.4-2.4h-6c-1.4,0-2.4,1-2.4,2.4C46.6,64.9,47.6,66,49,66z"/>
	<path class="st0" d="M72,66h8.5c1.4,0,2.4-1,2.4-2.4c0-1.4-1-2.4-2.4-2.4H72c-1.4,0-2.4,1-2.4,2.4C69.6,64.9,70.7,66,72,66z"/>
	<path class="st0" d="M148.6,66h8.5c1.4,0,2.4-1,2.4-2.4c0-1.4-1-2.4-2.4-2.4h-8.5c-1.4,0-2.4,1-2.4,2.4
		C146.2,64.9,147.3,66,148.6,66z"/>
	<path class="st0" d="M123,66h8.5c1.4,0,2.4-1,2.4-2.4c0-1.4-1-2.4-2.4-2.4H123c-1.4,0-2.4,1-2.4,2.4C120.6,64.9,121.7,66,123,66z"
		/>
	<path class="st0" d="M205.7,61.2h-6c-1.4,0-2.4,1-2.4,2.4c0,1.4,1,2.4,2.4,2.4h6c1.4,0,2.4-1,2.4-2.4
		C208,62.2,206.9,61.2,205.7,61.2z"/>
</g>
</svg>
