<?xml version="1.0" encoding="utf-8"?>
<!-- Generator: Adobe Illustrator 23.0.4, SVG Export Plug-In . SVG Version: 6.00 Build 0)  -->
<svg version="1.1" id="Vendor_managed_inventory" xmlns="http://www.w3.org/2000/svg" xmlns:xlink="http://www.w3.org/1999/xlink"
	 x="0px" y="0px" viewBox="0 0 229.7 231.4" style="enable-background:new 0 0 229.7 231.4;" xml:space="preserve">
<style type="text/css">
	.st0{fill:#FFFFFF;}
</style>
<path class="st0" d="M120.7,134.7c0,5.6-4.6,10.2-10.2,10.2s-10.2-4.6-10.2-10.2c0-4.6,3.1-8.6,7.3-9.8v-31c0-1.6,1.3-2.8,2.8-2.8
	s2.8,1.3,2.8,2.8v31C117.6,126.2,120.7,130.1,120.7,134.7z M135.4,46.2c1.7,0.9,3.8,0.4,4.8-1.3l4.6-8l7.1,4.1l-4.6,8
	c-0.9,1.7-0.4,3.8,1.3,4.8c0.6,0.3,1.1,0.5,1.7,0.5c1.2,0,2.4-0.6,3-1.7l6.3-11c0.5-0.8,0.6-1.7,0.4-2.6c-0.2-0.9-0.8-1.7-1.6-2.1
	l-13.2-7.6c-1.7-0.9-3.8-0.4-4.8,1.3l-6.3,11C133.2,43.1,133.7,45.2,135.4,46.2z M65.4,52.5c0.7,1.1,1.8,1.7,3,1.7
	c0.6,0,1.2-0.1,1.7-0.5c1.7-1,2.3-3.1,1.3-4.8l-4.6-8l7.1-4.1l4.5,8c1,1.7,3.1,2.3,4.8,1.3c1.7-1,2.3-3.1,1.3-4.8l-6.3-11
	c-1-1.7-3.1-2.3-4.8-1.3l-13.1,7.5c-0.8,0.5-1.4,1.2-1.6,2.2c-0.2,0.9-0.1,1.8,0.4,2.6L65.4,52.5z M95.1,30.8h3.3V38
	c0,1.9,1.5,3.5,3.5,3.5c1.9,0,3.5-1.5,3.5-3.5V27.3c0-1.9-1.5-3.5-3.5-3.5h-3.3v-7.8h21.7v7.8H117c-1.9,0-3.5,1.5-3.5,3.5V38
	c0,1.9,1.5,3.5,3.5,3.5s3.5-1.5,3.5-3.5v-7.1h3.3c1.9,0,3.5-1.5,3.5-3.5V12.6c0-1.9-1.5-3.5-3.5-3.5H95.1c-1.9,0-3.5,1.5-3.5,3.5
	v14.7C91.6,29.2,93.2,30.8,95.1,30.8z"/>
<g>
	<path class="st0" d="M108.3,222.5c-47.3,0-85.8-38.4-85.8-85.7S61,51.2,108.3,51.2c28.5,0,55,14.1,71,37.7c1.2,1.8,0.8,4.3-1.1,5.6
		c-1.8,1.2-4.3,0.8-5.6-1.1c-14.5-21.4-38.6-34.2-64.4-34.2c-42.9,0-77.8,34.8-77.8,77.7s34.9,77.6,77.8,77.6s77.8-34.8,77.8-77.6
		c0-2.2,1.8-4,4-4s4,1.8,4,4C194,184.1,155.6,222.5,108.3,222.5z"/>
</g>
<g>
	<path class="st0" d="M178.3,86.7l0.8-6.5c0.2-1.8,1.8-3,3.5-2.8c1.8,0.2,3,1.8,2.8,3.5l-1.9,16.2c-0.1,0.8-0.5,1.6-1.2,2.1
		c-0.5,0.4-1,0.6-1.6,0.7c-0.3,0-0.5,0-0.8,0l-16.2-1.9c-1.8-0.2-3-1.8-2.8-3.5c0.2-1.8,1.8-3,3.5-2.8l6.9,0.8"/>
</g>
</svg>
