<?xml version="1.0" encoding="utf-8"?>
<!-- Generator: Adobe Illustrator 23.0.4, SVG Export Plug-In . SVG Version: 6.00 Build 0)  -->
<svg version="1.1" id="Vendor_managed_inventory" xmlns="http://www.w3.org/2000/svg" xmlns:xlink="http://www.w3.org/1999/xlink"
	 x="0px" y="0px" viewBox="0 0 229.7 231.4" style="enable-background:new 0 0 229.7 231.4;" xml:space="preserve">
<style type="text/css">
	.st0{fill:#FFFFFF;}
</style>
<g id="Artwork_1_">
	<g>
		<path class="st0" d="M197.1,99.1c0-50.1-40.8-90.9-90.8-90.9S15.4,49,15.4,99.1c0,25.4,10.5,48.4,27.3,64.9
			c-14.2,4.4-13.3,14.2-12.6,22.4c0.2,2,0.4,4,0.4,6c0,20.1,38.7,30.9,75.1,30.9s75.1-10.8,75.1-30.9c0-2,0.2-4,0.4-6
			c0.7-7.9,1.6-17.5-11.6-22C186.5,147.7,197.1,124.6,197.1,99.1z M24.9,99.1c0-44.9,36.5-81.4,81.4-81.4s81.4,36.5,81.4,81.4
			s-36.5,81.4-81.4,81.4S24.9,143.9,24.9,99.1z M171.2,176.3c1.1,2,0.8,5.2,0.5,9c-0.2,2.1-0.4,4.4-0.4,6.9c0,8.9-25,21.3-65.6,21.3
			c-40.7,0-65.6-12.5-65.6-21.3c0-2.5-0.2-4.8-0.4-6.9c-0.2-1.3-0.2-2.6-0.3-3.8c6.3,5.6,17.4,10.3,31.8,13.2
			c10.5,2.1,22.4,3.3,34.5,3.3c14.1,0,27.8-1.5,39.6-4.4c1-0.2,1.7-1.3,1.4-2.4c-0.2-1-1.3-1.7-2.4-1.4c-11.4,2.9-24.7,4.4-38.6,4.4
			c-11.8,0-23.5-1.1-33.7-3.3c-15.5-3.2-26.9-8.4-32-14.4c0.1-0.2,0.2-0.3,0.2-0.5c1.3-2.1,5.4-3.6,11.6-4.4
			c15.2,11.4,34.1,18.2,54.5,18.2c20.3,0,39.1-6.7,54.2-18.1C166.4,172.8,170,174.3,171.2,176.3z"/>
		<path class="st0" d="M128.5,38.3c13.8,5.1,25.5,14.8,33.2,27.4c0.9,1.5,2.5,2.3,4,2.3c0.9,0,1.7-0.2,2.5-0.7
			c2.2-1.3,3-4.3,1.6-6.5c-8.7-14.5-22.2-25.6-38.1-31.5c-2.5-0.9-5.2,0.4-6.1,2.9C124.8,34.7,126,37.4,128.5,38.3z"/>
		<path class="st0" d="M132.2,142.2c2.2,0,4.5-0.9,6.2-2.5c1.7-1.7,2.5-3.8,2.5-6.2c0-2.4-1-4.5-2.5-6.2l0,0c-3.4-3.4-9-3.4-12.4,0
			c-1.7,1.7-2.5,3.8-2.5,6.2c0,2.3,1,4.5,2.5,6.2C127.7,141.4,129.9,142.2,132.2,142.2z M129.1,130.4c0.9-0.9,2-1.3,3.1-1.3
			s2.2,0.4,3.1,1.3c0.8,0.8,1.3,1.9,1.3,3.1c0,1.2-0.5,2.3-1.3,3.1c-1.7,1.7-4.5,1.7-6.3,0c-0.8-0.8-1.3-1.9-1.3-3.1
			C127.7,132.3,128.3,131.3,129.1,130.4z"/>
		<path class="st0" d="M80.8,98.5l32.6,32.4c-0.8,5.9,1.1,11.7,5.4,16c2.4,2.4,5.4,4.1,8.6,4.9l0,0c1.6,0.4,3.1,0.6,4.7,0.6
			c5,0,9.8-2,13.5-5.6c3.6-3.6,5.6-8.3,5.6-13.4c0-5.1-2-9.8-5.6-13.4c-1.3-1.3-2.7-2.3-4.2-3.2l0,0l0,0c-1.3-0.7-2.7-1.3-4.1-1.7
			c-0.2-0.1-0.3-0.1-0.6-0.2c-0.2-0.1-0.5-0.1-0.6-0.2c-0.2-0.1-0.6-0.1-0.8-0.2c-0.2,0-0.2,0-0.4-0.1c-0.9-0.2-1.8-0.2-2.7-0.2
			c-0.3,0-0.6,0-0.9,0c-0.2,0-0.2,0-0.4,0c-0.5,0-0.9,0.1-1.3,0.2c0,0,0,0-0.1,0L96.9,82.2c3-9.1,0.7-19.1-6.2-26
			c-6.5-6.4-15.9-9-24.8-6.5c-1,0.3-1.8,1.1-2.1,2.1c-0.2,1,0,2.1,0.8,2.9L77,67c-1,1.5-2.6,3.8-5.2,6.3s-4.9,4.2-6.4,5.2L53.1,66.3
			c-0.7-0.7-1.8-1-2.9-0.8c-1,0.2-1.8,1-2.1,2.1c-2.5,8.8,0.1,18.3,6.6,24.7C61.6,99.2,71.7,101.5,80.8,98.5z M62.9,84.4
			c0.9,0.9,2.2,1.1,3.3,0.6c0.2-0.1,4.6-2.1,9.8-7.4c1.6-1.6,2.9-3.2,4-4.5l0,0c0.2-0.2,0.2-0.3,0.4-0.5c0.1-0.2,0.2-0.2,0.3-0.4
			c0.2-0.2,0.3-0.4,0.4-0.6c0.1-0.1,0.1-0.2,0.2-0.2c1.3-1.9,2-3.2,2.1-3.5l0,0v-0.1c0.1-0.2,0.2-0.3,0.2-0.5c0-0.1,0-0.1,0-0.2
			c0-0.2,0.1-0.2,0.1-0.4c0-0.1,0-0.1,0-0.2c0-0.2,0-0.3,0-0.4v-0.1c0-0.2-0.1-0.3-0.2-0.6c0,0,0,0,0-0.1c-0.1-0.2-0.2-0.3-0.2-0.5
			c0,0,0-0.1-0.1-0.1c-0.1-0.2-0.2-0.2-0.3-0.4c0,0,0-0.1-0.1-0.1l-0.1-0.1l-9.5-9.6c5,0.1,9.8,2.1,13.4,5.7
			c5.6,5.6,7.3,14,4.2,21.4c-0.5,1.1-0.2,2.4,0.6,3.3l35.1,34.9c0.2,0.2,0.3,0.2,0.5,0.4l0,0c0.6,0.4,1.4,0.6,2.2,0.4
			c0.4-0.1,0.9-0.2,1.3-0.2l0,0c0.4-0.1,0.7-0.1,1-0.1s0.6,0,0.9,0c0.1,0,0.2,0,0.2,0c1.1,0,2.1,0.2,3.1,0.5c0.1,0,0.2,0.1,0.2,0.1
			c0.2,0.1,0.4,0.1,0.6,0.2c0.3,0.1,0.6,0.2,1,0.4h0.1c0.3,0.2,0.6,0.3,0.9,0.4c1.1,0.6,2.1,1.3,3,2.2c2.5,2.5,3.8,5.7,3.8,9.2
			s-1.3,6.7-3.8,9.2c-3.3,3.3-8,4.5-12.5,3.4l0,0c-2.2-0.6-4.3-1.7-5.9-3.4c-3.2-3.2-4.5-7.7-3.5-12.1c0.2-1-0.1-2.1-0.8-2.8
			L83.6,92.9c-0.9-0.9-2.1-1.1-3.3-0.6c-7.4,3.1-15.9,1.5-21.5-4.2c-3.6-3.6-5.6-8.4-5.7-13.4L62.9,84.4z"/>
		<path class="st0" d="M173,31.4l7.9,0.6l3.9,6.8c0.3,0.6,1,1,1.7,1h0.1c0.8-0.1,1.4-0.5,1.7-1.2l3.1-7.2l7.7-1.6
			c0.7-0.2,1.3-0.7,1.5-1.4s-0.1-1.5-0.6-2l-5.9-5.2l0.9-7.9c0.1-0.7-0.2-1.5-0.9-1.9s-1.4-0.4-2.1,0l-6.8,4l-7.1-3.3
			c-0.7-0.3-1.5-0.2-2.1,0.2c-0.6,0.5-0.9,1.3-0.6,2l1.7,7.7l-5.3,5.8c-0.5,0.6-0.6,1.3-0.4,2.1C171.6,30.8,172.3,31.3,173,31.4z
			 M180.7,24.1c0.5-0.5,0.6-1.1,0.5-1.7l-1.1-4.8l4.4,2c0.6,0.2,1.3,0.2,1.8-0.1l4.2-2.5l-0.6,4.8c-0.1,0.6,0.2,1.3,0.6,1.7l3.7,3.2
			l-4.8,1c-0.6,0.2-1.2,0.6-1.4,1.2l-1.9,4.5l-2.4-4.2c-0.3-0.6-0.9-1-1.6-1l-4.8-0.4L180.7,24.1z"/>
		<path class="st0" d="M221.1,35.7c-0.3-0.7-1-1.2-1.7-1.3l-7.1-0.6l-3.6-6.1c-0.4-0.6-1.1-1-1.8-1c-0.7,0.1-1.4,0.6-1.7,1.2
			l-2.7,6.6l-6.9,1.5c-0.7,0.2-1.3,0.7-1.5,1.4s0.1,1.5,0.6,2l5.4,4.6l-0.7,7.1c-0.1,0.7,0.3,1.5,1,1.9c0.3,0.2,0.7,0.3,1,0.3
			c0.4,0,0.7-0.1,1-0.3l6-3.7l6.5,2.9c0.7,0.3,1.5,0.2,2.1-0.3c0.6-0.5,0.8-1.3,0.6-2l-1.7-6.9l4.8-5.3
			C221.3,37.2,221.5,36.4,221.1,35.7z M212.4,41.2c-0.4,0.5-0.6,1.2-0.5,1.8l1,4l-3.8-1.7c-0.6-0.2-1.3-0.2-1.8,0.2l-3.5,2.1l0.4-4
			c0.1-0.6-0.2-1.3-0.7-1.7l-3.1-2.6l4-0.9c0.6-0.2,1.2-0.6,1.4-1.2l1.6-3.8l2.1,3.6c0.3,0.6,1,1,1.6,1l4.1,0.3L212.4,41.2z"/>
	</g>
</g>
</svg>
