<?xml version="1.0" encoding="utf-8"?>
<!-- Generator: Adobe Illustrator 23.0.4, SVG Export Plug-In . SVG Version: 6.00 Build 0)  -->
<svg version="1.1" id="Vendor_managed_inventory" xmlns="http://www.w3.org/2000/svg" xmlns:xlink="http://www.w3.org/1999/xlink"
	 x="0px" y="0px" viewBox="0 0 229.7 231.4" style="enable-background:new 0 0 229.7 231.4;" xml:space="preserve">
<style type="text/css">
	.st0{fill:#FFFFFF;}
</style>
<g>
	<path class="st0" d="M93.9,105H48.9c-3.1,0-5.6,2.5-5.6,5.6c0,3.1,2.5,5.6,5.6,5.6h44.9c3.1,0,5.6-2.5,5.6-5.6
		C99.5,107.5,97,105,93.9,105z"/>
	<path class="st0" d="M93.9,137.1H48.9c-3.1,0-5.6,2.5-5.6,5.6s2.5,5.6,5.6,5.6h44.9c3.1,0,5.6-2.5,5.6-5.6S97,137.1,93.9,137.1z"/>
	<path class="st0" d="M204.7,113.4c-1.6-1.6-3.1-3-4.8-4.2V59.9c0-9.2-7.8-16.9-17.3-16.9H148v-2.8c0-3.1-2.5-5.6-5.6-5.6
		s-5.6,2.5-5.6,5.6v2.9h-62v-2.9c0-3.1-2.5-5.6-5.6-5.6c-3.1,0-5.6,2.5-5.6,5.6v2.9H33.2c-9.5,0-17.3,7.6-17.3,16.8v105.9
		c0,9.2,7.8,16.9,17.3,16.9h92.2v-0.2c1.4,1.9,3,3.7,4.7,5.4c10.3,10.3,23.8,15.5,37.3,15.5c13.6,0,27-5.2,37.3-15.5
		C225.3,167.4,225.3,133.9,204.7,113.4z M33.2,54.4h30.4v8.4c0,3.1,2.5,5.6,5.6,5.6s5.6-2.5,5.6-5.6v-8.4h62v8.4
		c0,3.1,2.5,5.6,5.6,5.6s5.6-2.5,5.6-5.6v-8.4h34.6c3.1,0,5.8,2.5,5.8,5.5v19.6H27.6V59.9C27.4,56.9,30,54.4,33.2,54.4z M33.2,171.5
		c-3.1,0-5.8-2.5-5.8-5.5V85.1h160.9v17.1c-19.3-8.3-42.5-4.6-58.2,11.2s-19.5,38.9-11.2,58.1H33.2L33.2,171.5z M199.9,183.1
		c-18,18-47.1,18-65.1,0s-18-47.1,0-65.1c8.9-8.9,20.7-13.4,32.5-13.4c11.8,0,23.7,4.6,32.5,13.4
		C217.9,136.1,217.9,165.2,199.9,183.1z"/>
	<path class="st0" d="M166.7,122.5c-1.9,0-3.5,1.6-3.5,3.5v24.7L146.2,169c-1.2,1.3-1.2,3.6,0.1,4.8c0.7,0.7,1.7,1,2.4,1
		c1,0,1.8-0.4,2.4-1.1l17.9-19.3c0.6-0.7,1-1.6,1-2.3V126C170.1,123.9,168.7,122.5,166.7,122.5z"/>
</g>
</svg>
