<?xml version="1.0" encoding="utf-8"?>
<!-- Generator: Adobe Illustrator 23.0.4, SVG Export Plug-In . SVG Version: 6.00 Build 0)  -->
<svg version="1.1" id="Vendor_managed_inventory" xmlns="http://www.w3.org/2000/svg" xmlns:xlink="http://www.w3.org/1999/xlink"
	 x="0px" y="0px" viewBox="0 0 229.7 231.4" style="enable-background:new 0 0 229.7 231.4;" xml:space="preserve">
<style type="text/css">
	.st0{fill:#FFFFFF;}
</style>
<path class="st0" d="M83.4,200.7c45.9,17,97.8-4.9,117.3-50.5c3.3-7.7,5.5-15.8,6.6-24c0.4-2.6-1.5-5-4.1-5.4
	c-2.6-0.4-5,1.5-5.4,4.1c-1,7.4-3,14.6-5.9,21.5c-18,42.1-66.8,61.7-108.9,43.8c-0.2-0.1-0.4-0.1-0.6-0.2c-16.9-8.1-30-21.4-38-37.1
	l-1.3-2.8c-9.6-20.6-10.7-45-1.1-67.5c0.9-2.2,2-4.4,3.1-6.5C54.8,57.8,71,43.9,90.5,36.9c19.7-7,41.1-6.3,60.4,1.9
	c6,2.6,11.6,5.8,16.8,9.7l-66.1,87.4l-21.5-20c-1.3-1.3-3.4-1.4-4.9-0.3c-1.5,1.1-2,3.1-1.2,4.8l25.3,51.8c0.6,1.3,1.9,2.1,3.3,2.1
	c0,0,0.1,0,0.1,0c1.4,0,2.6-0.7,3.3-1.9l68.1-118.5c5.7,5.2,10.7,11.2,14.8,17.9l-7.2-1.8c-1.8-0.4-3.7,0.7-4.1,2.5s0.7,3.7,2.5,4.1
	l16.9,4.2c0.3,0.1,0.6,0.1,0.8,0.1c0.6,0,1.2-0.2,1.8-0.5c0.8-0.5,1.3-1.2,1.6-2.1l4.2-16.9c0.4-1.8-0.7-3.7-2.5-4.1
	s-3.7,0.7-4.1,2.5l-1.7,6.8c-10-16.2-24.8-29-42.4-36.5c-21.5-9.2-45.4-9.9-67.4-2.1c-21.9,7.8-39.9,23.3-50.7,43.7l0,0
	c-1.2,2.3-2.4,4.8-3.5,7.2c-11.9,27.8-9,58.3,5,82.7l1.5,2.5C49.3,179.6,64.6,193.1,83.4,200.7 M103.2,162.3l-13-26.7l9.4,8.8
	c0.8,0.7,1.9,1.1,2.9,1c1.1-0.1,2.1-0.6,2.7-1.5L140.7,97L103.2,162.3z"/>
</svg>
