<?xml version="1.0" encoding="utf-8"?>
<!-- Generator: Adobe Illustrator 23.0.4, SVG Export Plug-In . SVG Version: 6.00 Build 0)  -->
<svg version="1.1" id="Vendor_managed_inventory" xmlns="http://www.w3.org/2000/svg" xmlns:xlink="http://www.w3.org/1999/xlink"
	 x="0px" y="0px" viewBox="0 0 229.7 231.4" style="enable-background:new 0 0 229.7 231.4;" xml:space="preserve">
<style type="text/css">
	.st0{fill:#FFFFFF;}
</style>
<g id="Artwork_Kopie_Kopie">
	<g>
		<path class="st0" d="M115.2,226.5c-5,0-10.1-0.4-15.1-1.1c-23.2-3.2-44.2-13.6-60.7-29.9c-2.1-2.1-2.1-5.4-0.1-7.6
			c2.1-2.1,5.4-2.1,7.6-0.1c14.9,14.7,33.8,24,54.7,26.9c53.2,7.4,102.4-29.8,109.8-82.9c2.9-20.3-0.7-40.7-10.3-58.9
			c-1.3-2.6-0.4-5.9,2.2-7.2s5.9-0.4,7.2,2.2c10.6,20.2,14.5,42.7,11.4,65.3c-4,28.5-18.8,53.9-41.8,71.3
			C161.2,218.9,138.5,226.5,115.2,226.5z"/>
	</g>
	<g>
		<path class="st0" d="M147.5,42.3c-2.2,0-4.3-1.4-5.1-3.6c-1-2.8,0.5-5.8,3.3-6.8l14.8-5.1l-5.1-14.9c-1-2.8,0.5-5.8,3.3-6.8
			s5.8,0.5,6.8,3.3l6.9,19.9c1,2.8-0.5,5.8-3.3,6.8L149.2,42C148.7,42.2,148.1,42.3,147.5,42.3z"/>
	</g>
	<g>
		<path class="st0" d="M43.1,197.1c-1.3,0-2.7-0.5-3.7-1.5C14.8,171.7,3,137.2,7.8,103.4c4-28.5,18.8-53.9,41.8-71.3
			c23-17.5,51.5-24.9,80-20.9c14.4,2.1,28.1,6.8,40.5,14.2c2.5,1.5,3.4,4.8,1.9,7.3c-1.5,2.5-4.8,3.4-7.3,1.9
			c-11.1-6.7-23.5-11-36.5-12.8c-25.8-3.6-51.4,3-72.1,18.7C35.3,56.2,22,79,18.4,104.7c-4.3,30.5,6.4,61.5,28.5,83.1
			c2.1,2.1,2.1,5.4,0.1,7.6C45.9,196.6,44.4,197.1,43.1,197.1z"/>
	</g>
	<g>
		<path class="st0" d="M116.6,128.7c-0.1,0-0.3,0-0.4,0c-2-0.1-3.7-1.1-4.9-2.6L87.1,94.4c-2.2-2.9-1.7-7.1,1.2-9.4s7.1-1.7,9.4,1.2
			l19.4,25.5l63.7-65.4c2.6-2.7,6.8-2.7,9.5-0.1c2.7,2.6,2.7,6.8,0.1,9.5l-69,70.9C120.1,128,118.5,128.7,116.6,128.7z"/>
	</g>
	<g>
		<path class="st0" d="M52.5,121.4H37.7c-1.9,0-3.4-1.5-3.4-3.4c0-1.9,1.5-3.4,3.4-3.4h14.9c1.9,0,3.4,1.5,3.4,3.4
			C55.9,119.9,54.4,121.4,52.5,121.4z"/>
	</g>
	<g>
		<path class="st0" d="M191.9,121.4H177c-1.9,0-3.4-1.5-3.4-3.4c0-1.9,1.5-3.4,3.4-3.4h14.9c1.9,0,3.4,1.5,3.4,3.4
			C195.3,119.9,193.8,121.4,191.9,121.4z"/>
	</g>
	<g>
		<path class="st0" d="M116.8,198.5c-1.9,0-3.4-1.5-3.4-3.4v-14.9c0-1.9,1.5-3.4,3.4-3.4c1.9,0,3.4,1.5,3.4,3.4v14.9
			C120.1,197,118.6,198.5,116.8,198.5z"/>
	</g>
	<g>
		<path class="st0" d="M116.8,59.2c-1.9,0-3.4-1.5-3.4-3.4V40.9c0-1.9,1.5-3.4,3.4-3.4c1.9,0,3.4,1.5,3.4,3.4v14.9
			C120.1,57.7,118.6,59.2,116.8,59.2z"/>
	</g>
</g>
</svg>
