<?xml version="1.0" encoding="utf-8"?>
<!-- Generator: Adobe Illustrator 23.0.4, SVG Export Plug-In . SVG Version: 6.00 Build 0)  -->
<svg version="1.1" id="Vendor_managed_inventory" xmlns="http://www.w3.org/2000/svg" xmlns:xlink="http://www.w3.org/1999/xlink"
	 x="0px" y="0px" viewBox="0 0 229.7 231.4" style="enable-background:new 0 0 229.7 231.4;" xml:space="preserve">
<style type="text/css">
	.st0{fill:#FFFFFF;}
</style>
<g id="Artwork_1_">
	<g>
		<path class="st0" d="M219.5,185c-0.1-1-0.5-2-1.3-2.6c-0.8-0.7-1.8-1-2.8-0.8l-3.2,0.4l-1.9-9.1c-0.1-0.6-0.6-5.3,0.8-12.2
			c1.6-8,6.7-40.1,7.2-43.4c0.5-1.9,1.7-9.4-7.4-18.1c-4.5-4.2-8.7-9.7-11.7-13.8V45.1c0-8-6.5-14.5-14.5-14.5H43.5
			c-8,0-14.5,6.5-14.5,14.5v43.7c-2.8,4.1-6.7,9.3-10.8,13.5c-8.5,8.7-7.4,16.1-6.9,18.1c0.4,3.3,5.2,35.4,6.7,43.4
			c1.4,7.4,0.7,12.3,0.7,12.3l0,0l-0.7,4.8l-3.9-0.4c-1-0.1-2,0.1-2.7,0.7c-0.7,0.6-1.3,1.5-1.4,2.5l-3,26.2c-0.2,2,1.3,3.9,3.3,4.1
			c0.1,0,0.3,0,0.4,0c1.9,0,3.5-1.4,3.7-3.3l2.5-22.4l34.6,4.1l3.3,0.4l0,0l0.3,0.1l-1.4,16.8c-0.1,2.1,1.3,3.9,3.4,4
			c2.1,0.1,3.9-1.3,4-3.4l1.6-20.4c0.1-2-1.3-3.8-3.3-4l-3.3-0.4c1.4-7.7,4.4-24.7,4.6-33.6c0.1-3.3-0.3-6.6-0.7-9.9h106.4
			c-0.3,2.3-0.4,4.6-0.4,6.9c0.2,9.1,3.3,29.8,4.7,38.3l-2,0.2c-1.9,0.2-3.4,1.9-3.3,3.9l1.1,18.9c0.1,2.1,1.9,3.6,3.9,3.5
			c2.1-0.1,3.6-1.9,3.5-3.9l-0.9-15.4l39.3-4.5l1.2,20.4c0.1,2,1.8,3.5,3.7,3.5c0.1,0,0.1,0,0.2,0c2.1-0.1,3.6-1.9,3.5-3.9
			L219.5,185z M205.8,104.5c6.2,5.9,5.5,10.2,5.4,10.9l-0.1,0.1l-0.1,0.4c-0.1,0.4-5.6,35.3-7.1,43.3c-1.8,8.8-0.9,14.6-0.9,14.9
			l1.7,8.5l-26.7,3.2c-1.3-8.2-4.5-28.8-4.7-37.4c-0.1-3.1,0.4-6.5,1-9.9c0.5-3.6,1-7,0.9-10.2c-0.4-8.6-1.8-24.5-2.2-28.8
			c0.8-1.4,2.1-3,3.5-3.2c1.7-0.1,3.7,1.4,4.8,2.5L186,132l7.4-0.4l1.7-38.7h0.4C198.4,96.6,202,100.9,205.8,104.5z M43.5,41.7
			h141.2c1.8,0,3.3,1.6,3.3,3.3v40.7l-0.4,8.8c-1.6-1.9-5.8-5.8-10.8-5.8h-0.1c-3,0-7.4,1.5-10.8,8.2l-0.4,1l0.1,1
			c0,0.2,1.9,19.9,2.2,29.5c0,0.6,0,1.3,0,1.9H59.1c0.4-10,2-28.2,2-28.5l0.1-1l-0.4-0.9c-3.1-6.7-7.2-8.2-10.1-8.3
			C46,91.7,42.2,95,40.5,97l-0.4-9.5V45.2C40.2,43.3,41.7,41.7,43.5,41.7z M18.6,118.9v-0.2l-0.1-0.4c-0.1-0.6-0.8-5,5.1-11
			c3.5-3.6,6.8-7.7,9.4-11.4l1.5,38.6l7.4,0.4l4.5-33.2c1-1,2.8-2.5,4.2-2.4c1,0.1,2.1,1.3,3.1,3.2c-0.4,4.2-1.7,20.2-2,28.8
			c-0.1,3.2,0.4,6.5,0.9,10.1c0.4,3.3,1,6.8,0.9,10c-0.2,8.5-3.2,25.6-4.5,32.9l-23.3-2.9l0.7-4.4c0-0.2,0.8-6.1-0.8-14.8
			C23.8,154.2,18.7,119.3,18.6,118.9z"/>
		<path class="st0" d="M77.6,76.7l13.1,7.7c0,0.1-0.1,0.3-0.1,0.4V96c0,7.3,9.6,13,21.8,13s21.8-5.7,21.8-13V84.6l2.9-1.6v14
			c0,1.6,1.3,2.8,2.8,2.8s2.8-1.3,2.8-2.8V80l6-3.3c0.9-0.4,1.4-1.4,1.5-2.4c0-1-0.5-1.9-1.3-2.5l-32.8-19.4
			c-0.8-0.5-1.9-0.5-2.7-0.1L77.7,71.8c-0.9,0.4-1.4,1.4-1.5,2.4C76.3,75.2,76.8,76.2,77.6,76.7z M128.7,96c0,3.5-6.9,7.4-16.3,7.4
			c-9.3,0-16.3-3.9-16.3-7.4v-8.4l14.3,8.4c0.4,0.2,0.9,0.4,1.4,0.4c0.4,0,0.9-0.1,1.3-0.4l15.5-8.4V96L128.7,96z M114.7,58.1
			l27.1,16.1l-3.1,1.7l-25-4.4c-1.5-0.2-3,0.7-3.2,2.3c-0.3,1.5,0.7,3,2.3,3.2l18.1,3.1l-19,10.3L84.8,74.4L114.7,58.1z"/>
	</g>
</g>
</svg>
