<?xml version="1.0" encoding="utf-8"?>
<!-- Generator: Adobe Illustrator 23.0.3, SVG Export Plug-In . SVG Version: 6.00 Build 0)  -->
<svg version="1.1" id="Vendor_managed_inventory" xmlns="http://www.w3.org/2000/svg" xmlns:xlink="http://www.w3.org/1999/xlink"
	 x="0px" y="0px" viewBox="0 0 229.7 231.4" style="enable-background:new 0 0 229.7 231.4;" xml:space="preserve">
<style type="text/css">
	.st0{fill:#FFFFFF;}
</style>
<g>
	<path class="st0" d="M16.2,148.7l73.3,31.1c0.8,0.4,1.7,0.5,2.6,0.5s1.7-0.2,2.5-0.5c1.7-0.7,3-2,3.7-3.6l30.9-73.4
		c0.4-1.1,0.6-2.2,0.5-3.2l12.6-8.9c2.7-1.9,3.3-5.6,1.4-8.2c-1.9-2.7-5.6-3.3-8.2-1.4l-15.2,10.7L52.3,63c-1.7-0.7-3.5-0.7-5.2,0
		s-3,2-3.7,3.6L12.5,140C11.2,143.3,12.8,147.2,16.2,148.7z M53.3,77.9l54,22.9L70.2,127l-9.1-19.9c-1.4-3-4.9-4.3-7.8-2.9
		c-3,1.4-4.3,4.9-2.9,7.8l12,26.4c0.7,1.6,2.1,2.8,3.8,3.3c0.5,0.1,1,0.2,1.5,0.2c1.2,0,2.4-0.4,3.4-1.1l39-27.5l-21.6,51.4
		l-60.9-25.8L53.3,77.9z"/>
	<path class="st0" d="M229.5,12.8c-0.9-3-4.1-4.8-7.2-3.8l-41.1,12.5c-1.7,0.5-3.1,1.8-3.7,3.5l-60.4,160.4c0,0.1-0.1,0.2-0.1,0.3
		c-5.3-1.5-10.8-1-15.8,1.2c-4.5,2-8.1,5.4-10.5,9.5L7.8,164.8c-3-1.1-6.3,0.4-7.4,3.3c-1.1,3,0.4,6.3,3.3,7.4l83.1,31.7
		c0.2,0.1,0.4,0.1,0.6,0.2c-0.3,9.7,5.6,18.9,15.1,22.5c2.7,1,5.4,1.5,8.2,1.5c9.4,0,18.3-5.8,21.8-15.1c2.2-5.8,2-12.2-0.6-17.8
		c-1.3-2.8-3-5.3-5.2-7.3c0.4-0.5,0.8-1.1,1.1-1.8l59.4-157.8L225.7,20C228.7,19.1,230.4,15.8,229.5,12.8z M126.9,214.2
		c-3.3,8.9-13.3,13.4-22.2,10.1c-8-3-12.5-11.4-10.8-19.6c0.1-0.2,0.2-0.5,0.3-0.7c0.2-0.6,0.3-1.2,0.4-1.8c0,0,0,0,0-0.1
		c1.6-4.3,4.8-7.7,9-9.6c2.3-1,4.7-1.6,7.1-1.6c2,0,4.1,0.4,6.1,1.1C125.7,195.3,130.2,205.3,126.9,214.2z"/>
	<path class="st0" d="M64.4,61.1l51.9,22c0.6,0.3,1.2,0.4,1.9,0.4c0.6,0,1.2-0.1,1.8-0.4c1.2-0.5,2.1-1.4,2.6-2.6l21.7-51.7
		l15.8-11.7c2.1-1.6,2.6-4.6,1-6.7s-4.6-2.6-6.7-1L138.7,21L90,0.4c-1.2-0.5-2.5-0.5-3.7,0S84.2,1.8,83.7,3L61.9,55
		C60.9,57.3,62,60.1,64.4,61.1z M90.7,11l39.2,16.6L103.6,47l-8.3-19.2c-1-2.4-3.8-3.5-6.3-2.5c-2.4,1-3.5,3.8-2.5,6.3l10.6,24.7
		c0.6,1.3,1.7,2.3,3.1,2.7c0.4,0.1,0.8,0.2,1.2,0.2c1,0,2-0.3,2.8-0.9L129.3,40l-13.7,32.5L72.5,54.2L90.7,11z"/>
</g>
</svg>
