<?xml version="1.0" encoding="utf-8"?>
<!-- Generator: Adobe Illustrator 21.1.0, SVG Export Plug-In . SVG Version: 6.00 Build 0)  -->
<svg version="1.1" id="Ebene_1" xmlns="http://www.w3.org/2000/svg" xmlns:xlink="http://www.w3.org/1999/xlink" x="0px" y="0px"
	 viewBox="0 0 43.6 29.5" style="enable-background:new 0 0 43.6 29.5;" xml:space="preserve">
<style type="text/css">
	.st0{fill:#FFFFFF;}
	.st1{fill:none;stroke:#004077;stroke-width:10;stroke-linecap:round;stroke-linejoin:bevel;}
</style>
<path class="st0" d="M40.4,0H3.2C1.4,0,0,1.4,0,3.2v23.2c0,1.8,1.4,3.2,3.2,3.2h37.2c1.8,0,3.2-1.4,3.2-3.2V3.2
	C43.6,1.4,42.2,0,40.4,0z M40.7,20.5L30.2,13l10.5-5.9V20.5z M3.2,2.9h37.2c0.2,0,0.3,0.1,0.3,0.3v2.2L21.5,16.3L2.9,5.4V3.2
	C2.9,3,3,2.9,3.2,2.9z M2.9,7.1l10.6,6.2L2.9,20.5V7.1z M40.4,26.6H3.2c-0.2,0-0.3-0.1-0.3-0.3v-4l11.9-8.2c0,0,0,0,0,0l6.2,3.6
	c0.2,0.1,0.3,0.2,0.5,0.2l0,0c0.2,0,0.3-0.1,0.5-0.2l6.9-3.9l11.9,8.4v4.1C40.7,26.5,40.6,26.6,40.4,26.6z"/>
<g>
	<path class="st1" d="M22,15.6"/>
</g>
</svg>
