<?xml version="1.0" encoding="utf-8"?>
<!-- Generator: Adobe Illustrator 21.1.0, SVG Export Plug-In . SVG Version: 6.00 Build 0)  -->
<svg version="1.1" id="Ebene_1" xmlns="http://www.w3.org/2000/svg" xmlns:xlink="http://www.w3.org/1999/xlink" x="0px" y="0px"
	 viewBox="0 0 50 50" style="enable-background:new 0 0 50 50;" xml:space="preserve">
<style type="text/css">
	.st0{fill:none;stroke:#004077;stroke-width:10;stroke-linecap:round;stroke-linejoin:bevel;}
	.st1{fill:#004077;}
	.st2{fill:none;stroke:#004077;stroke-width:20;stroke-linecap:round;stroke-linejoin:round;}
</style>
<g>
	<path class="st0" d="M24.85,31.99"/>
</g>
<g>
	<path class="st0" d="M44.97,21.86"/>
</g>
<g>
	<path class="st0" d="M45.46,21.43"/>
</g>
<path class="st1" d="M44.77,16.04c-4.81-3.06-19.1-12.69-19.25-12.79c-0.5-0.34-1.16-0.34-1.67-0.01L4.59,16.06
	c-0.05,0.03-0.09,0.07-0.14,0.1c-0.11,0.09-0.23,0.18-0.34,0.27c-0.83,0.65-2.08,1.64-2,4.03v22.62c0,1.82,1.48,3.31,3.31,3.31
	h38.55c1.82,0,3.31-1.48,3.31-3.3l0.08-22.66C47.35,18.66,46.44,17.1,44.77,16.04z M44.29,37.13l-11.43-7.58l11.48-6.68L44.29,37.13
	z M5.97,18.79c0.11-0.09,0.23-0.18,0.34-0.28L24.68,6.31C27.83,8.43,39,15.93,43.16,18.58c0.79,0.5,1.19,1.13,1.19,1.85l0,0.7
	l-13.12,7.63l-13.56,0.08L5.23,21.22c-0.04-0.02-0.07-0.04-0.11-0.05v-0.73c0-0.02,0-0.04,0-0.06C5.08,19.5,5.29,19.33,5.97,18.79z
	 M5.12,22.91l10.91,6.68L5.12,37.08V22.91z M43.96,43.38H5.42c-0.16,0-0.3-0.14-0.3-0.3v-4.18l12.33-8.46
	c0.04-0.03,0.08-0.06,0.11-0.1l13.65-0.08l13.07,8.66l-0.02,4.15C44.26,43.25,44.13,43.38,43.96,43.38z"/>
<g>
	<path class="st2" d="M25.22,17.31"/>
</g>
<g>
	<path class="st2" d="M25.22,17.31"/>
</g>
</svg>
