<?xml version="1.0" encoding="utf-8"?>
<!-- Generator: Adobe Illustrator 21.1.0, SVG Export Plug-In . SVG Version: 6.00 Build 0)  -->
<svg version="1.1" id="Ebene_1" xmlns="http://www.w3.org/2000/svg" xmlns:xlink="http://www.w3.org/1999/xlink" x="0px" y="0px"
	 viewBox="0 0 50 50" style="enable-background:new 0 0 50 50;" xml:space="preserve">
<style type="text/css">
	.st0{fill:none;stroke:#004077;stroke-width:10;stroke-linecap:round;stroke-linejoin:bevel;}
	.st1{fill:#FFFFFF;}
	.st2{fill:none;stroke:#004077;stroke-width:20;stroke-linecap:round;stroke-linejoin:round;}
</style>
<g>
	<path class="st0" d="M24.9,32"/>
</g>
<g>
	<path class="st0" d="M45,21.9"/>
</g>
<g>
	<path class="st0" d="M45.5,21.4"/>
</g>
<path class="st1" d="M44.8,16C40,13,25.7,3.3,25.5,3.2c-0.5-0.3-1.2-0.3-1.7,0L4.6,16.1c-0.1,0-0.1,0.1-0.1,0.1
	c-0.1,0.1-0.2,0.2-0.3,0.3c-0.8,0.6-2.1,1.6-2,4v22.6c0,1.8,1.5,3.3,3.3,3.3H44c1.8,0,3.3-1.5,3.3-3.3l0.1-22.7
	C47.3,18.7,46.4,17.1,44.8,16z M44.3,37.1l-11.4-7.6l11.5-6.7L44.3,37.1z M6,18.8c0.1-0.1,0.2-0.2,0.3-0.3L24.7,6.3
	c3.1,2.1,14.3,9.6,18.5,12.3c0.8,0.5,1.2,1.1,1.2,1.9v0.7l-13.1,7.6l-13.6,0.1L5.2,21.2c0,0-0.1,0-0.1,0v-0.7c0,0,0,0,0-0.1
	C5.1,19.5,5.3,19.3,6,18.8z M5.1,22.9L16,29.6L5.1,37.1V22.9z M44,43.4H5.4c-0.2,0-0.3-0.1-0.3-0.3v-4.2l12.3-8.5
	c0,0,0.1-0.1,0.1-0.1l13.6-0.1l13.1,8.7l0,4.2C44.3,43.2,44.1,43.4,44,43.4z"/>
<g>
	<path class="st2" d="M25.2,17.3"/>
</g>
<g>
	<path class="st2" d="M25.2,17.3"/>
</g>
</svg>
