<?xml version="1.0" encoding="utf-8"?>
<!-- Generator: Adobe Illustrator 21.1.0, SVG Export Plug-In . SVG Version: 6.00 Build 0)  -->
<svg version="1.1" id="Ebene_1" xmlns="http://www.w3.org/2000/svg" xmlns:xlink="http://www.w3.org/1999/xlink" x="0px" y="0px"
	 viewBox="0 0 41.99 40.08" style="enable-background:new 0 0 41.99 40.08;" xml:space="preserve">
<style type="text/css">
	.st0{fill:#FDC603;}
</style>
<g>
	<path class="st0" d="M8.96,40.08c-0.36,0-0.67-0.12-0.9-0.29c-0.45-0.33-0.83-1.01-0.53-1.93l4.18-12.85L0.78,17.07
		C0,16.5-0.1,15.73,0.07,15.2s0.7-1.1,1.67-1.1h13.5l4.19-12.85c0.3-0.92,1-1.25,1.56-1.25h0c0.56,0,1.26,0.33,1.56,1.25l4.19,12.89
		h13.5c0.97,0,1.5,0.56,1.67,1.09c0.17,0.53,0.08,1.3-0.7,1.87l-10.94,7.91l4.18,12.85c0.3,0.93-0.08,1.61-0.54,1.93
		c-0.46,0.33-1.22,0.47-2.01-0.12l-10.91-7.93L10.06,39.7C9.68,39.97,9.3,40.08,8.96,40.08z M10.22,38.74L10.22,38.74
		C10.22,38.74,10.22,38.74,10.22,38.74z M31.76,38.73C31.76,38.73,31.76,38.73,31.76,38.73L31.76,38.73z M33.57,37.4l0.01,0.01
		C33.58,37.4,33.57,37.4,33.57,37.4z"/>
</g>
</svg>
