<?xml version="1.0" encoding="utf-8"?>
<!-- Generator: Adobe Illustrator 21.1.0, SVG Export Plug-In . SVG Version: 6.00 Build 0)  -->
<svg version="1.1" id="Ebene_1" xmlns="http://www.w3.org/2000/svg" xmlns:xlink="http://www.w3.org/1999/xlink" x="0px" y="0px"
	 viewBox="0 0 41.79 40" style="enable-background:new 0 0 41.79 40;" xml:space="preserve">
<style type="text/css">
	.st0{fill:#FDC603;}
</style>
<g>
	<path class="st0" d="M9.54,40c-0.53,0-1.06-0.17-1.49-0.48c-0.7-0.51-1.35-1.61-0.89-3.03l3.7-11.39l-9.68-7.04
		c-1.21-0.88-1.33-2.15-1.06-2.97c0.27-0.82,1.11-1.78,2.6-1.78h11.96L18.4,1.92C18.86,0.5,20.03,0,20.89,0
		c0.86,0,2.03,0.5,2.5,1.92l3.71,11.43h11.96c1.49,0,2.34,0.96,2.6,1.78l0,0c0.27,0.82,0.15,2.09-1.05,2.97l-9.7,7.01l3.7,11.38
		c0.47,1.43-0.19,2.53-0.9,3.04c-0.71,0.51-1.97,0.78-3.17-0.12l-9.65-7.01l-9.69,7.04C10.69,39.8,10.12,40,9.54,40z M2.72,15.47
		c-0.4,0-0.51,0.18-0.55,0.29c-0.04,0.11-0.05,0.32,0.28,0.56l10.95,7.96L9.22,37.16c-0.12,0.38,0.01,0.55,0.1,0.61
		c0.03,0.02,0.11,0.07,0.22,0.07c0.12,0,0.25-0.05,0.4-0.16l10.96-7.96l10.94,7.94c0.33,0.25,0.54,0.17,0.63,0.11
		c0.09-0.07,0.23-0.24,0.11-0.61l-4.19-12.88l10.97-7.93c0.33-0.24,0.3-0.47,0.27-0.56l0,0c-0.03-0.09-0.14-0.29-0.55-0.29H25.54
		l-4.2-12.92c-0.12-0.37-0.33-0.43-0.45-0.43c-0.11,0-0.32,0.06-0.45,0.43l-4.2,12.88H2.72z"/>
</g>
</svg>
