<?xml version="1.0" encoding="utf-8"?>
<!-- Generator: Adobe Illustrator 21.1.0, SVG Export Plug-In . SVG Version: 6.00 Build 0)  -->
<svg version="1.1" id="Ebene_1" xmlns="http://www.w3.org/2000/svg" xmlns:xlink="http://www.w3.org/1999/xlink" x="0px" y="0px"
	 viewBox="0 0 31.3 31.3" style="enable-background:new 0 0 31.3 31.3;" xml:space="preserve">
<style type="text/css">
	.st0{fill:#004077;}
</style>
<path class="st0" d="M17,14.4v-13C17,0.6,16.4,0,15.7,0s-1.3,0.6-1.3,1.3v13h-13c-0.7,0-1.3,0.6-1.3,1.3C0,16.4,0.6,17,1.3,17h13v13
	c0,0.7,0.6,1.3,1.3,1.3c0.4,0,0.7-0.1,0.9-0.4S17,30.4,17,30V17h13c0.4,0,0.7-0.1,0.9-0.4s0.4-0.6,0.4-0.9c0-0.7-0.6-1.3-1.3-1.3H17
	z"/>
</svg>
