<?xml version="1.0" encoding="utf-8"?>
<!-- Generator: Adobe Illustrator 21.1.0, SVG Export Plug-In . SVG Version: 6.00 Build 0)  -->
<svg version="1.1" id="Ebene_1" xmlns="http://www.w3.org/2000/svg" xmlns:xlink="http://www.w3.org/1999/xlink" x="0px" y="0px"
	 viewBox="0 0 36.8 36.8" style="enable-background:new 0 0 36.8 36.8;" xml:space="preserve">
<style type="text/css">
	.st0{fill:#CC3333;}
</style>
<g>
	<path class="st0" d="M18.4,36.8C8.2,36.8,0,28.5,0,18.4C0,8.2,8.2,0,18.4,0c10.1,0,18.4,8.2,18.4,18.4
		C36.8,28.5,28.5,36.8,18.4,36.8z M18.4,3.1C9.9,3.1,3.1,9.9,3.1,18.4S10,33.7,18.4,33.7c8.5,0,15.3-6.9,15.3-15.3
		C33.7,9.9,26.8,3.1,18.4,3.1z"/>
</g>
<g>
	<polygon class="st0" points="11.2,22.5 18.6,15.2 13.2,15.2 13.2,11.1 25.3,11.1 25.3,23.2 21.3,23.2 21.3,17.9 13.9,25.2 	"/>
</g>
</svg>
