<?xml version="1.0" encoding="utf-8"?>
<!-- Generator: Adobe Illustrator 21.1.0, SVG Export Plug-In . SVG Version: 6.00 Build 0)  -->
<svg version="1.1" id="Ebene_1" xmlns="http://www.w3.org/2000/svg" xmlns:xlink="http://www.w3.org/1999/xlink" x="0px" y="0px"
	 viewBox="0 0 36.8 36.8" style="enable-background:new 0 0 36.8 36.8;" xml:space="preserve">
<style type="text/css">
	.st0{fill:#CC3333;}
</style>
<g>
	<path class="st0" d="M18.4,36.8C8.3,36.8,0,28.5,0,18.4C0,8.3,8.3,0,18.4,0c10.1,0,18.4,8.3,18.4,18.4
		C36.8,28.5,28.5,36.8,18.4,36.8z M18.4,3.1C9.9,3.1,3.1,9.9,3.1,18.4c0,8.5,6.9,15.3,15.3,15.3c8.5,0,15.3-6.9,15.3-15.3
		C33.7,9.9,26.9,3.1,18.4,3.1z"/>
</g>
<polygon class="st0" points="25.8,14.9 23.5,12.6 21.6,19.4 13.2,11.1 11,13.4 19.3,21.7 12.5,23.6 14.8,25.9 24.5,24.6 "/>
</svg>
