<?xml version="1.0" encoding="utf-8"?>
<!-- Generator: Adobe Illustrator 21.1.0, SVG Export Plug-In . SVG Version: 6.00 Build 0)  -->
<svg version="1.1" id="Ebene_1" xmlns="http://www.w3.org/2000/svg" xmlns:xlink="http://www.w3.org/1999/xlink" x="0px" y="0px"
	 viewBox="0 0 41.6 45.5" style="enable-background:new 0 0 41.6 45.5;" xml:space="preserve">
<style type="text/css">
	.st0{fill:#FFFFFF;}
</style>
<g>
	<path class="st0" d="M11.3,45.4c-2.6,0-4.9-1-7-3c-3-2.9-4.4-6-4.4-9c0.1-2.2,0.9-4.3,2.6-6.2C8.5,20.2,20.1,9,28,2.1
		c2.3-2,7.3-3.7,11.2,0.4c3.2,3.3,3.3,7.3,0.3,10.7c-5.1,5.7-21,21.4-22.4,22.7c-0.4,0.5-2.3,2.7-4.7,2.8c-0.9,0-2.2-0.2-3.5-1.4
		c-1-1-1.5-2.3-1.5-3.6c0.1-2.3,1.9-4.1,2.3-4.4L21.8,17c0.6-0.6,1.6-0.6,2.2,0c0.6,0.6,0.6,1.6,0,2.2L11.9,31.4l-0.1,0.1
		c-0.3,0.3-1.2,1.3-1.3,2.3c0,0.3,0,0.7,0.6,1.3c0.5,0.5,0.8,0.5,1.1,0.5c0.9,0,2.1-1.2,2.5-1.7l0.1-0.2
		c0.2-0.2,17.1-16.8,22.3-22.6C39,8.9,39,6.8,36.9,4.6C35.8,3.4,34.5,3,33,3.2c-1.4,0.2-2.5,0.9-3,1.3c-7.8,6.8-19.3,17.9-25.1,24.8
		c-2.9,3.4-2.3,7.1,1.6,11c1.8,1.8,3.9,2.4,6.3,1.9c1.9-0.4,3.6-1.5,4.5-2.3c5.5-4.9,20.2-20.2,20.4-20.4c0.6-0.6,1.6-0.6,2.2,0
		c0.6,0.6,0.6,1.6,0,2.2c-0.6,0.6-15,15.5-20.5,20.5c-1.2,1.1-3.5,2.5-6,3C12.7,45.4,12,45.4,11.3,45.4z"/>
</g>
</svg>
