<?xml version="1.0" encoding="utf-8"?>
<!-- Generator: Adobe Illustrator 21.1.0, SVG Export Plug-In . SVG Version: 6.00 Build 0)  -->
<svg version="1.1" id="Ebene_1" xmlns="http://www.w3.org/2000/svg" xmlns:xlink="http://www.w3.org/1999/xlink" x="0px" y="0px"
	 viewBox="0 0 41.64 45.45" style="enable-background:new 0 0 41.64 45.45;" xml:space="preserve">
<style type="text/css">
	.st0{fill:#004077;}
</style>
<g>
	<path class="st0" d="M11.33,45.45c-2.57,0-4.95-1.01-6.96-2.98C1.39,39.54-0.08,36.52,0,33.48c0.06-2.2,0.92-4.3,2.57-6.24
		C8.47,20.25,20.14,8.97,28.01,2.1c2.28-1.99,7.33-3.65,11.17,0.36c3.19,3.33,3.28,7.33,0.27,10.69
		c-5.13,5.71-21.03,21.36-22.38,22.68c-0.43,0.53-2.31,2.67-4.72,2.81c-0.89,0.05-2.22-0.16-3.47-1.44
		c-1.02-1.05-1.53-2.3-1.48-3.63c0.1-2.34,1.92-4.09,2.3-4.44l12.05-12.12c0.61-0.61,1.59-0.61,2.2-0.01
		c0.61,0.61,0.61,1.59,0.01,2.2L11.88,31.37l-0.08,0.08c-0.34,0.3-1.24,1.31-1.28,2.27c-0.01,0.29,0.04,0.74,0.6,1.31
		c0.46,0.47,0.81,0.52,1.05,0.5c0.94-0.05,2.11-1.18,2.5-1.69l0.14-0.16c0.17-0.17,17.13-16.84,22.32-22.61
		c1.92-2.14,1.85-4.31-0.2-6.46c-1.1-1.16-2.42-1.64-3.9-1.45c-1.39,0.18-2.52,0.89-2.97,1.28c-7.78,6.79-19.3,17.93-25.11,24.81
		c-2.89,3.42-2.35,7.11,1.6,10.98c1.8,1.77,3.91,2.42,6.26,1.94c1.91-0.39,3.64-1.47,4.53-2.27c5.46-4.91,20.22-20.22,20.36-20.37
		c0.6-0.62,1.58-0.64,2.2-0.04c0.62,0.6,0.64,1.58,0.04,2.2c-0.61,0.63-14.98,15.54-20.53,20.53c-1.24,1.11-3.46,2.49-5.99,3.01
		C12.73,45.37,12.02,45.45,11.33,45.45z"/>
</g>
</svg>
