<?xml version="1.0" encoding="utf-8"?>
<!-- Generator: Adobe Illustrator 19.2.1, SVG Export Plug-In . SVG Version: 6.00 Build 0)  -->
<svg version="1.1" id="Layer_1" xmlns="http://www.w3.org/2000/svg" xmlns:xlink="http://www.w3.org/1999/xlink" x="0px" y="0px"
	 viewBox="0 0 175.1 175.1" style="enable-background:new 0 0 175.1 175.1;" xml:space="preserve">
<style type="text/css">
	.st0{fill:white;}
</style>
<path class="st0" d="M76.8,83.8c-0.5,0-1-0.2-1.4-0.6L53.2,61c-0.8-0.8-0.8-2,0-2.8s2-0.8,2.8,0l20.8,20.8l3.9-3.9
	c0.8-0.8,2-0.8,2.8,0s0.8,2,0,2.8l-5.3,5.3C77.9,83.6,77.4,83.8,76.8,83.8z"/>
<path class="st0" d="M126.9,128.7c0,0.6-0.5,1-1,1s-1-0.4-1-1c0-13-10.6-23.5-23.5-23.5c-13,0-23.5,10.6-23.5,23.5c0,0.6-0.5,1-1,1
	s-1-0.4-1-1c0-11.4,7.5-21.1,17.9-24.4c-6.8-1.7-12.9-6.1-16.7-12.6c-0.2-0.3-0.4-0.7-0.6-1.1l-0.7-1.5H74c-0.6,0-1-0.5-1-1
	s0.4-1,1-1h8.1c0.5,0,1,0.5,1,1s-0.5,1-1,1h-2c0.1,0.2,0.2,0.4,0.4,0.6c5.8,10.1,18.1,14.1,28.7,9.4c5.5-2.5,9.7-6.9,11.9-12.5
	c2.2-5.6,2-11.7-0.4-17.2c-5-11.4-18.4-16.5-29.8-11.5c-4.7,2.1-8.4,5.5-10.7,10h2c0.5,0,1,0.5,1,1s-0.5,1-1,1H74c-0.6,0-1-0.5-1-1
	s0.4-1,1-1h1.6l0.8-1.6c2.8-5.4,7.2-9.6,12.8-12.1c13.4-5.9,29.1,0.1,35,13.5c2.9,6.5,3.1,13.7,0.5,20.3c-2.6,6.6-7.5,11.8-14,14.7
	c-1,0.5-2.1,0.8-3.2,1.2C118.7,106.8,126.9,116.8,126.9,128.7z"/>
</svg>
