<?xml version="1.0" encoding="utf-8"?>
<!-- Generator: Adobe Illustrator 21.1.0, SVG Export Plug-In . SVG Version: 6.00 Build 0)  -->
<svg version="1.1" id="Ebene_1" xmlns="http://www.w3.org/2000/svg" xmlns:xlink="http://www.w3.org/1999/xlink" x="0px" y="0px"
	 viewBox="0 0 44.67 38.25" style="enable-background:new 0 0 44.67 38.25;" xml:space="preserve">
<style type="text/css">
	.st0{fill:#004077;}
</style>
<g>
	<path class="st0" d="M40.71,3.39h-7.72l-0.04-1.63C32.92,0.76,32.09-0.03,31.1,0c-0.99,0.03-1.78,0.85-1.75,1.85l0.04,1.54H14.95
		V1.8c0-0.99-0.81-1.8-1.8-1.8s-1.8,0.81-1.8,1.8v1.59H3.96C1.78,3.39,0,5.16,0,7.35v26.95c0,2.18,1.78,3.96,3.96,3.96h36.75
		c2.18,0,3.96-1.78,3.96-3.96V7.35C44.67,5.16,42.89,3.39,40.71,3.39z M41.07,34.29c0,0.2-0.16,0.36-0.36,0.36H3.96
		c-0.2,0-0.36-0.16-0.36-0.36V7.35c0-0.2,0.16-0.36,0.36-0.36h7.39v1.65c0,0.99,0.81,1.8,1.8,1.8s1.8-0.81,1.8-1.8V6.99h14.54
		l0.04,1.7c0.03,0.98,0.83,1.75,1.8,1.75c0.02,0,0.03,0,0.05,0c0.99-0.03,1.78-0.85,1.75-1.85l-0.04-1.61h7.62
		c0.2,0,0.36,0.16,0.36,0.36V34.29z"/>
	<path class="st0" d="M19.68,27.6H7.17c-0.5,0-0.9,0.4-0.9,0.9s0.4,0.9,0.9,0.9h12.51c0.5,0,0.9-0.4,0.9-0.9S20.18,27.6,19.68,27.6z
		"/>
	<path class="st0" d="M36.93,27.6H24.42c-0.5,0-0.9,0.4-0.9,0.9s0.4,0.9,0.9,0.9h12.51c0.5,0,0.9-0.4,0.9-0.9S37.42,27.6,36.93,27.6
		z"/>
	<path class="st0" d="M19.68,18.18H7.17c-0.5,0-0.9,0.4-0.9,0.9s0.4,0.9,0.9,0.9h12.51c0.5,0,0.9-0.4,0.9-0.9
		S20.18,18.18,19.68,18.18z"/>
	<path class="st0" d="M36.93,18.18H24.42c-0.5,0-0.9,0.4-0.9,0.9s0.4,0.9,0.9,0.9h12.51c0.5,0,0.9-0.4,0.9-0.9
		S37.42,18.18,36.93,18.18z"/>
</g>
</svg>
