<?xml version="1.0" encoding="utf-8"?>
<!-- Generator: Adobe Illustrator 21.1.0, SVG Export Plug-In . SVG Version: 6.00 Build 0)  -->
<svg version="1.1" id="Ebene_1" xmlns="http://www.w3.org/2000/svg" xmlns:xlink="http://www.w3.org/1999/xlink" x="0px" y="0px"
	 viewBox="0 0 44.7 38.2" style="enable-background:new 0 0 44.7 38.2;" xml:space="preserve">
<style type="text/css">
	.st0{fill:#FFFFFF;}
</style>
<g>
	<path class="st0" d="M40.7,3.4H33l0-1.6c0-1-0.9-1.8-1.8-1.8s-1.8,0.9-1.8,1.9l0,1.5H14.9V1.8c0-1-0.8-1.8-1.8-1.8
		s-1.8,0.8-1.8,1.8v1.6H4c-2.2,0-4,1.8-4,4v27c0,2.2,1.8,4,4,4h36.8c2.2,0,4-1.8,4-4v-27C44.7,5.2,42.9,3.4,40.7,3.4z M41.1,34.3
		c0,0.2-0.2,0.4-0.4,0.4H4c-0.2,0-0.4-0.2-0.4-0.4V7.3C3.6,7.1,3.8,7,4,7h7.4v1.6c0,1,0.8,1.8,1.8,1.8S15,9.6,15,8.6V7h14.5l0,1.7
		c0,1,0.8,1.8,1.8,1.8c0,0,0,0,0,0c1,0,1.8-0.9,1.8-1.9l0-1.6h7.6c0.2,0,0.4,0.2,0.4,0.4V34.3z"/>
	<path class="st0" d="M19.7,27.6H7.2c-0.5,0-0.9,0.4-0.9,0.9s0.4,0.9,0.9,0.9h12.5c0.5,0,0.9-0.4,0.9-0.9S20.2,27.6,19.7,27.6z"/>
	<path class="st0" d="M36.9,27.6H24.4c-0.5,0-0.9,0.4-0.9,0.9s0.4,0.9,0.9,0.9h12.5c0.5,0,0.9-0.4,0.9-0.9S37.4,27.6,36.9,27.6z"/>
	<path class="st0" d="M19.7,18.2H7.2c-0.5,0-0.9,0.4-0.9,0.9S6.7,20,7.2,20h12.5c0.5,0,0.9-0.4,0.9-0.9S20.2,18.2,19.7,18.2z"/>
	<path class="st0" d="M36.9,18.2H24.4c-0.5,0-0.9,0.4-0.9,0.9s0.4,0.9,0.9,0.9h12.5c0.5,0,0.9-0.4,0.9-0.9S37.4,18.2,36.9,18.2z"/>
</g>
</svg>
