<?xml version="1.0" encoding="utf-8"?>
<!-- Generator: Adobe Illustrator 21.1.0, SVG Export Plug-In . SVG Version: 6.00 Build 0)  -->
<svg version="1.1" id="Ebene_1" xmlns="http://www.w3.org/2000/svg" xmlns:xlink="http://www.w3.org/1999/xlink" x="0px" y="0px"
	 viewBox="0 0 40.8 30.1" style="enable-background:new 0 0 40.8 30.1;" xml:space="preserve">
<style type="text/css">
	.st0{fill:#FFFFFF;}
</style>
<g>
	<path class="st0" d="M20.4,24.9c-4.6,0-8.3-3.7-8.3-8.3s3.7-8.3,8.3-8.3s8.3,3.7,8.3,8.3S25,24.9,20.4,24.9z M20.4,9.7
		c-3.8,0-6.9,3.1-6.9,6.9s3.1,6.9,6.9,6.9s6.9-3.1,6.9-6.9S24.2,9.7,20.4,9.7z"/>
</g>
<g>
	<path class="st0" d="M37.5,30.1H3.5c0,0,0,0-0.1,0c-1.1-0.1-3.2-1-3.4-4C-0.1,23.6,0.1,9,0.1,8c0-0.4,0-1.7,0.9-2.6
		C1.4,4.9,2,4.6,2.8,4.6h8.2l1.9-3.8c0.1-0.4,0.4-0.6,0.6-0.7C13.6,0.1,13.9,0,14.3,0H27c0.4,0,0.6,0.1,0.8,0.2
		c0.2,0.1,0.4,0.3,0.6,0.6l2.1,3.8h6.6c0.4,0,1.7,0,2.7,0.9c0.5,0.5,1,1.3,1,2.7c-0.1,2.3,0,17.8,0,18.3c0,1.2-0.8,3.2-3.1,3.5
		C37.6,30.1,37.5,30.1,37.5,30.1z M3.6,27.3h33.8c0.2,0,0.6-0.2,0.7-0.7l0,0l0,0v0l0,0c0-0.6-0.1-16,0-18.5c0-0.3,0-0.5-0.1-0.6
		c-0.1-0.1-0.4-0.2-0.6-0.2c0,0-0.1,0-0.1,0H30c-0.4,0-0.7,0-1-0.2c-0.3-0.2-0.5-0.4-0.6-0.8l-2-3.7H15l-1.9,3.7
		c-0.1,0.4-0.4,0.6-0.6,0.7c-0.2,0.1-0.5,0.2-0.8,0.2H2.9C2.8,7.6,2.8,7.8,2.8,7.9c0,0,0,0.1,0,0.1c0,0.2-0.1,15.6,0,18
		C2.9,27.1,3.4,27.3,3.6,27.3z M38,26.6L38,26.6L38,26.6z M38,26.6C38,26.6,38,26.6,38,26.6C38,26.6,38,26.6,38,26.6z M25.9,1.9
		C25.9,1.9,25.9,1.9,25.9,1.9C25.9,1.9,25.9,1.9,25.9,1.9z"/>
</g>
</svg>
