<?xml version="1.0" encoding="utf-8"?>
<!-- Generator: Adobe Illustrator 21.1.0, SVG Export Plug-In . SVG Version: 6.00 Build 0)  -->
<svg version="1.1" id="Ebene_1" xmlns="http://www.w3.org/2000/svg" xmlns:xlink="http://www.w3.org/1999/xlink" x="0px" y="0px"
	 viewBox="0 0 40.8 30.1" style="enable-background:new 0 0 40.8 30.1;" xml:space="preserve">
<style type="text/css">
	.st0{fill:#004077;}
</style>
<g>
	<path class="st0" d="M20.4,24.88c-4.56,0-8.27-3.71-8.27-8.27s3.71-8.27,8.27-8.27s8.27,3.71,8.27,8.27S24.96,24.88,20.4,24.88z
		 M20.4,9.72c-3.8,0-6.89,3.09-6.89,6.89s3.09,6.89,6.89,6.89s6.89-3.09,6.89-6.89S24.2,9.72,20.4,9.72z"/>
</g>
<g>
	<path class="st0" d="M37.47,30.1H3.53c-0.02,0-0.05,0-0.07,0c-1.1-0.06-3.22-0.96-3.39-3.97c-0.14-2.48-0.01-17.16,0-18.14
		C0.05,7.63,0.08,6.3,0.93,5.41c0.48-0.5,1.1-0.76,1.82-0.76h8.18l1.91-3.77c0.15-0.35,0.38-0.55,0.57-0.66
		c0.19-0.12,0.48-0.23,0.88-0.21h12.74c0.37-0.02,0.65,0.09,0.83,0.19c0.18,0.11,0.42,0.3,0.58,0.65l2.11,3.8h6.62
		c0.37-0.02,1.71-0.01,2.69,0.94c0.48,0.46,1.03,1.32,0.95,2.74c-0.13,2.33,0,17.76,0,18.26c0.03,1.25-0.78,3.2-3.14,3.51
		C37.59,30.1,37.53,30.1,37.47,30.1z M3.61,27.33h33.76c0.22-0.04,0.63-0.16,0.65-0.7c0,0,0,0,0,0s0,0,0,0c0,0,0-0.01,0-0.01
		c0,0,0,0,0,0c-0.01-0.65-0.14-16.01,0-18.45c0.02-0.29-0.02-0.51-0.11-0.59c-0.12-0.12-0.43-0.17-0.61-0.16
		c-0.05,0.01-0.06,0-0.11,0h-7.18c-0.38,0.04-0.71-0.02-1-0.19c-0.28-0.17-0.49-0.41-0.63-0.75l-2.05-3.7H14.98l-1.91,3.75
		c-0.15,0.36-0.39,0.57-0.58,0.68c-0.18,0.11-0.47,0.23-0.84,0.2H2.9C2.85,7.56,2.83,7.79,2.83,7.91c0,0.03,0,0.05,0,0.08
		c0,0.16-0.14,15.57,0,17.99C2.89,27.06,3.37,27.29,3.61,27.33z M38.03,26.64L38.03,26.64L38.03,26.64z M38.02,26.62
		C38.02,26.62,38.02,26.63,38.02,26.62C38.03,26.63,38.03,26.62,38.02,26.62z M25.87,1.92C25.87,1.92,25.87,1.93,25.87,1.92
		C25.87,1.93,25.87,1.92,25.87,1.92z"/>
</g>
</svg>
