<?xml version="1.0" encoding="utf-8"?>
<!-- Generator: Adobe Illustrator 21.1.0, SVG Export Plug-In . SVG Version: 6.00 Build 0)  -->
<svg version="1.1" id="Ebene_1" xmlns="http://www.w3.org/2000/svg" xmlns:xlink="http://www.w3.org/1999/xlink" x="0px" y="0px"
	 viewBox="0 0 24.6 24.8" style="enable-background:new 0 0 24.6 24.8;" xml:space="preserve">
<style type="text/css">
	.st0{fill:#004077;}
	.st1{fill:none;stroke:#004077;stroke-width:10;stroke-linecap:round;stroke-linejoin:bevel;}
</style>
<g>
	<path class="st0" d="M15.51,6.95H6.64c-0.18,0-0.33-0.15-0.33-0.33c0-0.18,0.15-0.33,0.33-0.33h8.87c0.18,0,0.33,0.15,0.33,0.33
		C15.84,6.8,15.7,6.95,15.51,6.95z"/>
</g>
<g>
	<path class="st0" d="M15.51,9.53H6.64c-0.18,0-0.33-0.15-0.33-0.33s0.15-0.33,0.33-0.33h8.87c0.18,0,0.33,0.15,0.33,0.33
		S15.7,9.53,15.51,9.53z"/>
</g>
<g>
	<path class="st0" d="M15.51,11.98H6.64c-0.18,0-0.33-0.15-0.33-0.33s0.15-0.33,0.33-0.33h8.87c0.18,0,0.33,0.15,0.33,0.33
		S15.7,11.98,15.51,11.98z"/>
</g>
<path class="st1" d="M19.01,9.05"/>
<path class="st0" d="M17.26,17.13v2.78c0,0.07-0.06,0.13-0.13,0.13H5.07c-0.07,0-0.13-0.06-0.13-0.13V3.78
	c0-0.07,0.06-0.13,0.13-0.13h12.06c0.07,0,0.13,0.06,0.13,0.13v7.25l1.32-1.77V3.78c0-0.8-0.65-1.45-1.45-1.45H5.07
	c-0.8,0-1.45,0.65-1.45,1.45v16.13c0,0.8,0.65,1.45,1.45,1.45h12.06c0.8,0,1.45-0.65,1.45-1.45v-4.45L17.26,17.13z"/>
<path class="st0" d="M21.98,7.5c-0.29-0.21-0.65-0.29-1.01-0.23c-0.36,0.06-0.67,0.26-0.88,0.55l-0.03,0.05L19.55,8.6L19.29,9l0,0
	l-3.91,5.52c0,0,0,0,0,0c0,0,0,0,0,0l-0.08,0.12l-0.05,0.1c-0.02,0.08-0.54,1.93-0.63,2.6c0,0.04-0.02,0.13,0.01,0.27
	c0.02,0.08,0.14,0.16,0.14,0.16c0.06,0.04,0.12,0.06,0.18,0.06c0.1,0,0.19-0.05,0.26-0.08c0.58-0.3,2.1-1.37,2.16-1.42l0.08-0.08
	l4.15-5.87l0,0l0.72-1.01C22.74,8.77,22.6,7.93,21.98,7.5z M15.8,15.22l1.02,0.7c-0.3,0.21-0.94,0.66-1.44,0.97
	C15.5,16.34,15.69,15.62,15.8,15.22z M17.24,15.41l-1.12-0.77l3.63-5.13l1.12,0.78L17.24,15.41z"/>
</svg>
