<?xml version="1.0" encoding="utf-8"?>
<!-- Generator: Adobe Illustrator 21.1.0, SVG Export Plug-In . SVG Version: 6.00 Build 0)  -->
<svg version="1.1" id="Ebene_1" xmlns="http://www.w3.org/2000/svg" xmlns:xlink="http://www.w3.org/1999/xlink" x="0px" y="0px"
	 viewBox="0 0 24.6 24.8" style="enable-background:new 0 0 24.6 24.8;" xml:space="preserve">
<style type="text/css">
	.st0{fill:#FFFFFF;}
	.st1{fill:#FFFFFF;stroke:#004077;stroke-width:10;stroke-linecap:round;stroke-linejoin:bevel;}
</style>
<g>
	<path class="st0" d="M15.5,6.9H6.6c-0.2,0-0.3-0.2-0.3-0.3s0.2-0.3,0.3-0.3h8.9c0.2,0,0.3,0.2,0.3,0.3C15.8,6.8,15.7,6.9,15.5,6.9z
		"/>
</g>
<g>
	<path class="st0" d="M15.5,9.5H6.6c-0.2,0-0.3-0.1-0.3-0.3s0.2-0.3,0.3-0.3h8.9c0.2,0,0.3,0.1,0.3,0.3S15.7,9.5,15.5,9.5z"/>
</g>
<g>
	<path class="st0" d="M15.5,12H6.6c-0.2,0-0.3-0.1-0.3-0.3s0.2-0.3,0.3-0.3h8.9c0.2,0,0.3,0.1,0.3,0.3S15.7,12,15.5,12z"/>
</g>
<path class="st1" d="M19,9"/>
<path class="st0" d="M17.3,17.1v2.8c0,0.1-0.1,0.1-0.1,0.1H5.1C5,20,4.9,20,4.9,19.9V3.8c0-0.1,0.1-0.1,0.1-0.1h12.1
	c0.1,0,0.1,0.1,0.1,0.1V11l1.3-1.8V3.8c0-0.8-0.6-1.5-1.5-1.5H5.1C4.3,2.3,3.6,3,3.6,3.8v16.1c0,0.8,0.6,1.5,1.5,1.5h12.1
	c0.8,0,1.5-0.6,1.5-1.5v-4.5L17.3,17.1z"/>
<path class="st0" d="M22,7.5c-0.3-0.2-0.6-0.3-1-0.2s-0.7,0.3-0.9,0.6l0,0.1l-0.5,0.7L19.3,9l0,0l-3.9,5.5l0,0l0,0l-0.1,0.1
	l-0.1,0.1c0,0.1-0.5,1.9-0.6,2.6c0,0,0,0.1,0,0.3c0,0.1,0.1,0.2,0.1,0.2c0.1,0,0.1,0.1,0.2,0.1c0.1,0,0.2,0,0.3-0.1
	c0.6-0.3,2.1-1.4,2.2-1.4l0.1-0.1l4.1-5.9l0,0l0.7-1C22.7,8.8,22.6,7.9,22,7.5z M15.8,15.2l1,0.7c-0.3,0.2-0.9,0.7-1.4,1
	C15.5,16.3,15.7,15.6,15.8,15.2z M17.2,15.4l-1.1-0.8l3.6-5.1l1.1,0.8L17.2,15.4z"/>
</svg>
