<?xml version="1.0" encoding="utf-8"?>
<!-- Generator: Adobe Illustrator 21.1.0, SVG Export Plug-In . SVG Version: 6.00 Build 0)  -->
<svg version="1.1" id="Ebene_1" xmlns="http://www.w3.org/2000/svg" xmlns:xlink="http://www.w3.org/1999/xlink" x="0px" y="0px"
	 viewBox="0 0 42.19 23.91" style="enable-background:new 0 0 42.19 23.91;" xml:space="preserve">
<style type="text/css">
	.st0{fill:#004077;}
</style>
<path class="st0" d="M42.19,20.64c-0.04-0.79-0.13-1.57-0.25-2.33c-0.54-4.72-2.66-9.05-6.1-12.38c-3.4-3.28-7.77-5.3-12.51-5.8
	C22.59,0.04,21.86,0,21.11,0c-0.03,0-0.05,0-0.07,0c-0.03,0-0.05,0-0.07,0c-0.02,0-0.03,0-0.05,0C15.36,0.05,10.15,2.15,6.24,5.93
	C6.22,5.95,6.2,5.97,6.18,5.99c0,0-0.01,0-0.01,0.01c0,0-0.01,0.01-0.01,0.01c-3.93,3.84-6.12,9-6.16,14.55
	C0,20.67-0.01,20.95,0.1,21.26c0.13,0.35,0.43,0.79,1.17,0.96l0.33,0.04l5.51-0.06c0.78-0.01,1.41-0.65,1.4-1.43
	c-0.01-0.78-0.64-1.4-1.42-1.4c-0.01,0-0.01,0-0.02,0l-4.19,0.05c0.27-3.87,1.77-7.47,4.3-10.36l2.46,2.52
	C9.92,11.86,10.29,12,10.66,12c0.36,0,0.71-0.13,0.99-0.4c0.56-0.55,0.57-1.44,0.02-2L9.21,7.07c2.92-2.43,6.53-3.88,10.4-4.18
	l-0.04,3.39c-0.01,0.78,0.62,1.42,1.4,1.43c0.01,0,0.01,0,0.02,0c0.77,0,1.41-0.62,1.42-1.4l0.04-3.43
	c0.22,0.02,0.44,0.04,0.65,0.06c3.65,0.43,7.03,2.03,9.75,4.43L21.86,18.1c-0.28-0.09-0.57-0.13-0.88-0.13
	c-1.64,0-2.97,1.33-2.97,2.97c0,1.64,1.33,2.97,2.97,2.97c1.64,0,2.97-1.33,2.97-2.97c0-0.28-0.04-0.56-0.12-0.81L34.82,9.4
	c2.19,2.59,3.72,5.78,4.31,9.28c0.03,0.24,0.05,0.48,0.07,0.72L35,19.36c-0.01,0-0.01,0-0.02,0c-0.77,0-1.41,0.62-1.42,1.4
	c-0.01,0.78,0.62,1.42,1.4,1.43l5.51,0.06l0.33-0.04c0.22-0.05,0.4-0.13,0.55-0.21C41.87,21.77,42.22,21.24,42.19,20.64z"/>
</svg>
