<?xml version="1.0" encoding="UTF-8"?>
<svg width="37px" height="25px" viewBox="0 0 37 25" version="1.1" xmlns="http://www.w3.org/2000/svg" xmlns:xlink="http://www.w3.org/1999/xlink">
    <!-- Generator: Sketch 51.2 (57519) - http://www.bohemiancoding.com/sketch -->
    <title>Group 5</title>
    <desc>Created with Sketch.</desc>
    <defs></defs>
    <g id="mockups_HDA" stroke="none" stroke-width="1" fill="none" fill-rule="evenodd">
        <g id="dashboard-v1-copy-7" transform="translate(-260.000000, -86.000000)">
            <g id="Group-5" transform="translate(260.000000, 86.000000)">
                <g id="Group-2" transform="translate(0.000000, 9.000000)" fill="#004077" fill-rule="nonzero">
                    <g id="dashboard_hda">
                        <path d="M27.9988125,13.8117942 C27.9722672,13.2831451 27.9125402,12.7611878 27.8329043,12.252614 C27.4745428,9.09410289 26.0676419,6.19657047 23.7847461,3.96821414 C21.5283955,1.7733166 18.6283215,0.421580928 15.4827034,0.08699289 C14.9916154,0.0267670431 14.5071636,0 14.0094393,0 C13.9895303,0 13.9762576,0 13.962985,0 C13.943076,0 13.9298034,0 13.9165307,0 C13.9032581,0 13.8966217,0 13.8833491,0 C10.1935524,0.0334588038 6.736027,1.43872857 4.1412239,3.96821414 C4.12795125,3.98159766 4.1146786,3.99498118 4.10140595,4.0083647 C4.10140595,4.0083647 4.09476963,4.0083647 4.09476963,4.01505646 C4.09476963,4.01505646 4.0881333,4.02174822 4.0881333,4.02174822 C1.48005756,6.59138436 0.026702373,10.0443329 0.000157072782,13.7582601 C0.000157072782,13.8318695 -0.00647925227,14.0192388 0.0665203233,14.2266834 C0.152792549,14.460895 0.3518823,14.7553325 0.842970354,14.8690924 L1.06196908,14.8958595 L4.71858418,14.8557089 C5.23621754,14.8490171 5.65430602,14.4207445 5.64766969,13.8987871 C5.64103337,13.3768298 5.22294489,12.9619406 4.70531153,12.9619406 C4.69867521,12.9619406 4.69867521,12.9619406 4.69203888,12.9619406 L1.91141869,12.9953994 C2.09059946,10.405688 3.08604822,7.99665412 4.76503846,6.06273526 L6.39757442,7.74905897 C6.58339152,7.93642827 6.82893555,8.03011292 7.07447958,8.03011292 C7.31338728,8.03011292 7.54565866,7.94312003 7.73147576,7.76244249 C8.10310996,7.39439565 8.10974629,6.79882894 7.74474841,6.42409034 L6.11221244,4.73107486 C8.05001936,3.104977 10.4457327,2.13467169 13.0139905,1.93391886 L12.9874452,4.20242576 C12.9808089,4.7243831 13.3988974,5.15265579 13.9165307,5.15934755 C13.923167,5.15934755 13.923167,5.15934755 13.9298034,5.15934755 C14.4408004,5.15934755 14.8655252,4.74445839 14.8721615,4.22250105 L14.8987068,1.9272271 C15.044706,1.94061062 15.1907051,1.95399414 15.3300679,1.96737767 C17.7523266,2.25512338 19.9954045,3.3258051 21.8004849,4.93182769 L14.5071636,12.112087 C14.3213465,12.0518611 14.1288931,12.0250941 13.923167,12.0250941 C12.8348097,12.0250941 11.9521785,12.9150983 11.9521785,14.0125471 C11.9521785,15.1099958 12.8348097,16 13.923167,16 C15.0115243,16 15.8941556,15.1099958 15.8941556,14.0125471 C15.8941556,13.8251777 15.8676103,13.6378084 15.8145197,13.4705144 L23.1078409,6.29025512 C24.5611961,8.02342116 25.5765538,10.1580928 25.968097,12.5002091 C25.988006,12.6608114 26.0012786,12.8214136 26.0145513,12.9820159 L23.2272948,12.9552488 C23.2206584,12.9552488 23.2206584,12.9552488 23.2140221,12.9552488 C22.7030251,12.9552488 22.2783003,13.370138 22.2716639,13.8920954 C22.2650276,14.4140527 22.6831161,14.8423254 23.2007495,14.8490171 L26.8573646,14.8891677 L27.0763633,14.8624007 C27.2223624,14.8289419 27.3418163,14.7754078 27.4413612,14.7218737 C27.7864501,14.5679632 28.0187214,14.2132999 27.9988125,13.8117942 Z" id="Shape"></path>
                    </g>
                </g>
                <g id="Group-4" transform="translate(19.000000, 0.000000)">
                    <circle id="Oval-3" fill="#8B3C45" cx="9" cy="9" r="9"></circle>
                    <text id="i" font-family="HeidelbgGothicWebMl-Bold, HeidelbgGothicWebMl" font-size="14" font-weight="bold" fill="#FFFFFF">
                        <tspan x="7" y="14">i</tspan>
                    </text>
                </g>
            </g>
        </g>
    </g>
</svg>