<?xml version="1.0" encoding="utf-8"?>
<!-- Generator: Adobe Illustrator 21.1.0, SVG Export Plug-In . SVG Version: 6.00 Build 0)  -->
<svg version="1.1" id="Ebene_1" xmlns="http://www.w3.org/2000/svg" xmlns:xlink="http://www.w3.org/1999/xlink" x="0px" y="0px"
	 viewBox="0 0 42.2 23.9" style="enable-background:new 0 0 42.2 23.9;" xml:space="preserve">
<style type="text/css">
	.st0{fill:#FFFFFF;}
</style>
<path class="st0" d="M42.2,20.6c0-0.8-0.1-1.6-0.2-2.3c-0.5-4.7-2.7-9.1-6.1-12.4c-3.4-3.3-7.8-5.3-12.5-5.8C22.6,0,21.9,0,21.1,0
	c0,0,0,0-0.1,0c0,0,0,0-0.1,0s0,0,0,0C15.4,0,10.1,2.1,6.2,5.9c0,0,0,0-0.1,0.1c0,0,0,0,0,0l0,0C2.2,9.8,0,15,0,20.6
	c0,0.1,0,0.4,0.1,0.7c0.1,0.4,0.4,0.8,1.2,1l0.3,0l5.5-0.1c0.8,0,1.4-0.6,1.4-1.4s-0.6-1.4-1.4-1.4c0,0,0,0,0,0l-4.2,0
	c0.3-3.9,1.8-7.5,4.3-10.4l2.5,2.5c0.3,0.3,0.6,0.4,1,0.4c0.4,0,0.7-0.1,1-0.4c0.6-0.6,0.6-1.4,0-2L9.2,7.1
	c2.9-2.4,6.5-3.9,10.4-4.2l0,3.4c0,0.8,0.6,1.4,1.4,1.4c0,0,0,0,0,0c0.8,0,1.4-0.6,1.4-1.4l0-3.4c0.2,0,0.4,0,0.6,0.1
	c3.6,0.4,7,2,9.7,4.4l-11,10.7C21.6,18,21.3,18,21,18c-1.6,0-3,1.3-3,3s1.3,3,3,3s3-1.3,3-3c0-0.3,0-0.6-0.1-0.8l11-10.7
	c2.2,2.6,3.7,5.8,4.3,9.3c0,0.2,0,0.5,0.1,0.7l-4.2,0c0,0,0,0,0,0c-0.8,0-1.4,0.6-1.4,1.4c0,0.8,0.6,1.4,1.4,1.4l5.5,0.1l0.3,0
	c0.2,0,0.4-0.1,0.5-0.2C41.9,21.8,42.2,21.2,42.2,20.6z"/>
</svg>
