<?xml version="1.0" encoding="utf-8"?>
<!-- Generator: Adobe Illustrator 23.0.3, SVG Export Plug-In . SVG Version: 6.00 Build 0)  -->
<svg version="1.1" id="Ebene_1" xmlns="http://www.w3.org/2000/svg" xmlns:xlink="http://www.w3.org/1999/xlink" x="0px" y="0px"
	 viewBox="0 0 439 580.6" style="enable-background:new 0 0 439 580.6;" xml:space="preserve">
<style type="text/css">
	.st0{fill:#0E4583;}
	.st1{fill:#024A8B;}
	.st2{fill:#04993A;}
	.st3{fill:#FBC401;}
	.st4{fill:#1C9AD5;}
</style>
<path class="st0" d="M252,104.3c-1.9-1.8-4.4-2.8-7-2.8h0c-2.7,0-5.1,1.1-6.9,2.9c-1.8,1.9-2.8,4.4-2.7,7.1c0.1,5.4,4.4,9.6,9.7,9.7
	c0,0,0.1,0,0.1,0c2.6,0,5-1,6.9-2.9c1.9-1.9,2.9-4.4,2.9-7.1C254.9,108.6,253.8,106.1,252,104.3z"/>
<g>
	<path class="st0" d="M272.1,502.3c-20.4-2-38.3,10.5-42.7,29.7c-1.5,6.5-1.6,13.2-1.8,19.8c-0.1,2.9-0.2,5.9-0.4,8.8l-0.2,2.5h80.5
		v-2.4c0-2.3,0-4.7,0.1-6.9c0.1-5,0.2-9.8-0.2-14.7C306.2,520,291,504.2,272.1,502.3z M295.9,551.5L295.9,551.5c0,0.1,0,0.1,0,0.2
		c-0.1,0-0.1,0-0.2,0c-16.7,0-34.9,0-55.6,0c-0.1,0-0.2,0-0.3,0c0-0.1,0-0.2,0-0.2c0-0.7,0-1.3,0-1.8c0-0.6,0-1.2,0-1.6
		c0.3,0,0.6,0,0.9,0c0.7,0,1.5,0,2.4,0c5.9,0,11.9,0,17.6,0c4.8,0,9.6,0,14.5,0c6.6,0,13.4,0,20.1-0.1c0.3,0,0.5,0,0.6,0
		c0,0.1,0,0.2,0,0.3C295.8,549.3,295.8,550.4,295.9,551.5z M294.5,536.1c-5.6,0-11.2,0-16.9,0c-12,0-24.4,0-36.6,0.1
		c-0.3,0-0.5,0-0.7,0c0-0.2,0.1-0.4,0.1-0.6c2.9-12.4,14.5-21.5,27.3-21.5c0.2,0,0.4,0,0.6,0c13.2,0.3,24.4,9.5,26.9,22
		C295,536.1,294.7,536.1,294.5,536.1z"/>
	<path class="st0" d="M426.2,115.4L426.2,115.4c-0.1-11-6.7-20.1-16.7-23.3c-4.2-1.3-8.7-1.5-12.7-1.5c-13.8,0-24.5,10.5-24.7,24.2
		c-0.2,10.7-0.2,22.2,0,37c0.1,10.6,6.7,19.7,16.4,22.6c3.8,1.2,7.9,1.4,11.9,1.4c0.7,0,1.4,0,2,0c11.8-0.2,21.5-8.5,23.1-19.6
		l0.8-22.8c0-2.1,0-4.2,0-6.4C426.2,123.2,426.2,119.3,426.2,115.4z M385,127.6c0-3.8,0-7.8,0-11.7c0.1-7.4,4.9-12.2,12.3-12.3
		c0.2,0,0.4,0,0.6,0c2.4,0,5,0.1,7.2,0.7c4.6,1.3,7.8,5.8,7.8,10.9c0.2,13.1,0.2,24.7,0,35.7l0,0c-0.1,6.9-5.1,11.7-12.2,11.8
		c-0.4,0-0.9,0-1.3,0c-1.9,0-3.6,0.1-5.2-0.3c-5.4-1.1-9.1-5.7-9.2-11.6c-0.1-4.1,0-8.3,0-12.4c0-1.9,0-3.7,0-5.6
		C385.1,131.3,385,129.5,385,127.6z"/>
	<path class="st0" d="M158.7,534.9c-2.9-19.6-20.3-33.3-41.4-32.6l0,0c-19.1,0.6-35.5,16.2-37.2,35.4c-0.4,4.1-0.4,8.3-0.4,12.3
		c0,2.6,0,5.3-0.1,8c0,1.2,0,3,1.3,4.3c1.2,1.2,2.9,1.4,4.3,1.4c0,0,0.1,0,0.1,0c8.3-0.1,16.8-0.1,25-0.1c3.1,0,6.1,0,9.2,0h8.7
		c8.7,0,17.4,0,26.1,0c0.1,0,0.3,0,0.4,0c1,0,2.6,0.1,3.8-1.1c0.8-0.8,1.2-1.9,1.1-3.3c-0.1-2.5-0.1-5.1-0.1-7.5
		C159.5,546.1,159.5,540.4,158.7,534.9z M91.7,551.5c0-1.1,0-2.2,0.2-3.5c0.2,0,0.5,0,0.7,0c6.8,0,13.7,0,20.5,0h6.9
		c2.5,0,5,0,7.5,0c6.3,0,12.9,0,19.4-0.1c0.5,0,0.7,0,0.9,0.1c0,0.2,0.1,0.4,0,0.9l0,0.3c0,0.9,0,1.9-0.1,2.4
		c-0.6,0.1-1.7,0.1-2.7,0.1h-9.7c-14,0-28.5,0-42.8,0C92.3,551.6,92,551.6,91.7,551.5z M146.1,536.1h-2.3c-16.9,0-33.9,0-50.8,0
		c-0.3,0-0.6,0-0.9,0c0.1-0.3,0.1-0.6,0.2-1c3.1-12.6,14.8-21.4,27.8-21.1c13,0.3,24.2,9.6,26.8,22
		C146.7,536.1,146.4,536.1,146.1,536.1z"/>
	<path class="st0" d="M252.3,68.7L252.3,68.7c-19.1-3.1-36.7,5.3-45.8,21.8l-0.4,0.8c-9.3-6.6-18-6.8-26.5-0.7
		c-0.2-0.3-0.4-0.7-0.6-1c-8.3-13.7-20.4-21-36-21.6c-13.3-0.5-25.9,5-34.5,15.2c-8.8,10.4-12.1,24.1-9.3,37.6
		c2.3,10.9,9.2,20.8,19,27.1c7.1,4.5,15.2,6.9,23.3,6.9c3,0,6.1-0.3,9-1c22.2-5.1,35.9-24.1,34.1-47.2c-0.1-1.5,0-2,0.1-2.2
		c1.4-2.5,3.3-4.1,5.5-4.6c2.3-0.5,4.7,0.1,7.2,1.7c1.2,0.8,2.4,1.7,3.1,2.6c0.6,0.9,1,1.9,1,2.4c-1.3,12.2,2.3,24,10.2,33.2
		c7.7,9,18.6,14.3,30.6,15c13.4,0.7,26.1-4.7,34.9-14.7c8.8-10,12.4-23.2,10-36.3C283.8,85.8,269.5,71.4,252.3,68.7z M274.6,111.4
		c-0.1,16.5-13.5,30-30.1,30c0,0,0,0,0,0c-16.6,0-30.1-13.5-30.1-30c0-8,3.2-15.6,9-21.4c5.8-5.8,13.4-8.9,21.3-8.9
		C261.2,81.2,274.6,94.8,274.6,111.4z M171.7,111.6c-0.1,16.5-13.6,29.9-30.2,29.9c0,0-0.1,0-0.1,0c-16.6-0.1-30-13.6-30-30.1
		c0-16.3,13.8-30.2,30.1-30.2c8,0,15.5,3.2,21.2,8.9C168.5,95.8,171.7,103.5,171.7,111.6z"/>
	<path class="st0" d="M141.7,101.5L141.7,101.5c-2.7,0-5.2,0.9-7,2.7c-1.8,1.8-2.9,4.3-2.9,7c0,2.7,1,5.3,2.9,7.1
		c1.8,1.8,4.2,2.8,6.8,2.8c0,0,0,0,0,0c2.6,0,5.1-1,6.9-2.9c1.9-1.9,2.9-4.4,2.8-7.1C151.3,105.8,147.1,101.6,141.7,101.5z"/>
	<path class="st0" d="M399.2,176.5L399.2,176.5c-3.8-0.1-6.5,2.4-6.8,6.6c0,0.2,0,0.4,0,0.6c0,0.1,0,0.2,0,0.3
		c-1,15.9-8.4,27.2-22.5,34.6c-7.5,3.9-15.6,4-24.8,3.9h-0.2c-0.7,0-1.4,0-1.9-0.1c0-0.5,0-1.3,0-2.1v-29c0-43.8,0-89,0-133.5
		c0-2.9-1-5.1-3.1-7c-4.8-4.4-9.6-8.8-14.3-13.2c-6.4-5.9-12.9-11.9-19.5-17.8c-1.8-1.6-4.6-2.7-6.9-2.8C221,17,143.2,17,63.7,17
		c-1.6,0-3.5,0-5.4,0.4c-9.4,2.1-15.2,9.7-15.2,19.9l0,47.7c0,46.7,0,95.1-0.1,142.6c0,1.2-0.5,2.8-1.3,3.9
		c-2.8,3.8-5.7,7.6-8.5,11.2c-3.3,4.3-6.8,8.8-10.1,13.4c-16.2,22.4-12.7,52.9,8.2,71.1c6,5.2,9.6,2.9,11.3,1c0,0,0,0,0,0
		c-0.3,0.9-0.8,1.7-1.4,2.6c-6.2,8.5-6,20.8,0.4,29.1c1.2,1.5,1.7,2.9,1.6,5c0,11.8,0,23.6,0,35.4c0,23.2,0.1,47.2-0.2,70.9
		c-0.1,6.3,2.1,11.9,6,15.9c3.9,4,9.4,6.1,15.7,6.1c0,0,0.1,0,0.1,0c52.9-0.2,106.8-0.2,158.9-0.2c17.6,0,35.2,0,52.8,0l12.7,0
		c11.4,0,23.1,0,34.7,0c8.5,0,15.7-5.4,18.1-13.3c0.9-3,1-6.1,1-9.1c0-66.4,0-132.8,0-199.2v-32.7c0-0.3,0-0.6,0-0.9
		c0-0.7,0-1.3,0-1.9c0,0,0-0.1,0-0.1c0.1,0,0.1,0,0.2,0c2.3,0,4.7,0,7,0c1.1,0,2.1,0,3.2,0c11.3,0,21.5-3.4,30.4-10
		c14.1-10.5,21.4-24.6,21.7-42.1C405.6,179.3,403.2,176.6,399.2,176.5z M304.4,40c0-1.3,0-2.6,0-3.9c6.1,5.6,11.9,11,17.7,16.4
		c-1.5,0-3,0-4.5,0c-4.2,0-8.5,0-12.7,0c-0.3,0-0.5,0-0.6,0c0-0.1,0-0.3,0-0.5C304.5,48,304.4,44,304.4,40z M329.8,237.6
		c0,0.1,0,0.3,0,0.4c0,77.6,0,155.2,0,232.8c0,1.3,0,2.5-0.2,3.7c-0.4,2.9-2.7,5-5.7,5.2c-0.6,0-1.3,0-2,0c-0.3,0-0.6,0-0.9,0h-256
		c-7,0-8.9-1.9-8.9-8.9c0-32.8,0-65.7,0-98.5c4.2,3.2,8.3,6.4,12.5,9.6l4.5,3.5c12.9,9.8,27.1,8,37.3-4.8c7.6-9.6,8.9-19.5,3.8-29.2
		c-1.9-3.7-5.1-6.7-7.3-8.5c-4.8-3.9-9.8-7.7-14.6-11.3c-3.8-2.9-7.7-5.9-11.5-8.8c-7.7-6.1-16-7.7-24.7-5c0-0.2,0-0.3,0-0.5
		c0-8.1,0-16.2,0-24.2c0-18.3,0-37.2-0.1-55.8c0-0.8,0.1-1.2,0.1-1.3c0.1,0,0.5-0.1,1.4-0.1c17.8,0.1,36.4,0.1,56.8,0
		c0.6,0,1,0,1.2,0.1l0.3,0.1h12.3l0.3-0.1c0,0,0.2,0,0.6,0c2.3,0.1,4.7,0,6.9,0c1.1,0,2.1,0,3.2,0h117.3c1.1,0,2,0,2.5,0.1l12.4,0
		l0.3-0.1c0.2-0.1,0.5-0.1,0.8-0.1c16.5,0.1,33.9,0.1,56.5,0c0.3,0,0.6,0,0.7,0.1c0,0.1,0,0.2,0,0.3
		C329.7,236.8,329.7,237.2,329.8,237.6z M292.6,64.4c1.3,1.3,3.1,1.4,4.3,1.4c5.3-0.1,10.7-0.1,15.9-0.1c5.2,0,10.6,0,15.9,0
		c0.6,0,1,0,1.1,0.1c0,0.2,0.1,0.4,0.1,1c-0.1,57.1-0.1,107.7,0,154.9c0,0.5,0,0.7-0.1,0.9c-0.4,0.1-1.1,0.1-1.5,0.1
		c-25.1,0-50.2,0-75.3,0c-10,0-20,0-30,0H58.3c-0.8,0-1.5,0-2,0c0-0.5,0-1.4,0-2.2V39.2c0-7.2,1.9-9.1,9-9.1h224.2
		c0.6,0,1.4,0,1.8,0c0,0.5,0,1.2,0,1.9l0,6.5c0,7.1,0,14.4-0.1,21.6C291.2,61.4,291.3,63.1,292.6,64.4z M67.7,330.3
		c1.3,0.4,2.7,1.3,4.3,2.5c8.4,6.4,16.6,12.7,26.4,20.2c7,5.4,7.8,11.4,2.5,18.5c-4.7,6.3-8.8,8.2-14.2,6.5c-1.4-0.4-3-1.3-4.4-2.3
		c-7.5-5.7-15.1-11.5-22.5-17.2l-5.2-4c-3.1-2.4-4.9-5.5-4.9-8.4c0-5.3,2.8-10.6,7.2-13.8C60.4,330,64.3,329.2,67.7,330.3z
		 M40,317.3c-12.2-11.1-16.4-24.6-12.5-39.9c1.3-5.2,4.3-10.2,6.7-14c2.5-3.9,5.5-7.6,8.3-11.2c0.2-0.2,0.3-0.4,0.5-0.6
		c0,6.3,0,12.5,0,18.8c0,16.7,0,33.8,0,50.8C42.5,319.9,41.4,318.6,40,317.3z"/>
	<path class="st0" d="M226.7,175.9c-0.7,0.6-1.5,1.2-2.2,1.8c-2.9,2.3-5.9,4.7-9,6.6c-10.3,6.3-21.1,8.5-32,6.5
		c-7.5-1.4-14.5-4.8-22-10.8c-3.1-2.5-6.5-2.3-8.7,0.5c-2.2,2.8-1.8,6.3,1.2,8.7c11.7,9.5,23.8,14,38.4,14.1h0h0
		c14.7-0.5,29.3-7,42.3-18.7c1.5-1.4,2.4-3,2.4-4.6c0-1-0.2-2.6-1.7-4.1C234.1,174.4,231.1,172.4,226.7,175.9z"/>
</g>
<path class="st1" d="M222.3,434.7c0-23.2,0.1-45.9-0.1-68.6c0-4,1.7-5.2,5.4-5.2c21.3,0.1,42.6,0.1,63.9,0c4.6,0,6,1.9,5.9,6.3
	c-0.1,21,0,42.1-0.2,63.2c0,1.9-2.6,5.3-4,5.4c-22.9,0.3-45.8,0.1-68.7,0C223.9,435.8,223.3,435.2,222.3,434.7z"/>
<path class="st2" d="M222.5,344.1c0-23,0.1-45.4-0.1-67.8c0-3.9,1.5-5.3,5.3-5.2c21.3,0.1,42.6,0.1,63.9,0c4.2,0,5.6,1.6,5.6,5.8
	c-0.1,21.1-0.1,42.1,0,63.2c0,3.1-0.4,5.5-4.4,5.5c-22.7-0.1-45.4-0.1-68-0.2C224.1,345.2,223.5,344.7,222.5,344.1z"/>
<path class="st3" d="M131.5,434.7c0-23.2,0.1-45.9-0.1-68.6c0-4,1.7-5.2,5.4-5.2c21.3,0.1,42.6,0.1,63.9,0c4.6,0,6,1.9,5.9,6.3
	c-0.1,21,0,42.1-0.2,63.2c0,1.9-2.6,5.3-4,5.4c-22.9,0.3-45.8,0.1-68.7,0C133.1,435.8,132.5,435.2,131.5,434.7z"/>
<path class="st4" d="M131.6,344.1c0-23,0.1-45.4-0.1-67.8c0-3.9,1.5-5.3,5.3-5.2c21.3,0.1,42.6,0.1,63.9,0c4.2,0,5.6,1.6,5.6,5.8
	c-0.1,21.1-0.1,42.1,0,63.2c0,3.1-0.4,5.5-4.4,5.5c-22.7-0.1-45.4-0.1-68-0.2C133.3,345.2,132.7,344.7,131.6,344.1z"/>
</svg>
