<?xml version="1.0" encoding="utf-8"?>
<!-- Generator: Adobe Illustrator 21.1.0, SVG Export Plug-In . SVG Version: 6.00 Build 0)  -->
<svg version="1.1" id="Ebene_1" xmlns="http://www.w3.org/2000/svg" xmlns:xlink="http://www.w3.org/1999/xlink" x="0px" y="0px"
	 viewBox="0 0 39.2 22.8" style="enable-background:new 0 0 39.2 22.8;" xml:space="preserve">
<style type="text/css">
	.st0{fill:#FFFFFF;}
</style>
<g>
	<g>
		<path class="st0" d="M14.6,4.1c0-0.6,0-0.6-0.6-0.6c0,0,0.1,0-0.3,0c-0.3,0-1.3,0.6-2.7,2.4h3.6V4.1z M13.4,7.2h-1.7
			c-2.2,0.1-4.8,3.9-6.3,5.4C5,13,3.7,13.3,3.7,13.3c-2.1,0.4-3.6,1-3.6,2.4v2.4c0,1.1,1,1.3,1.2,1.2l0,0c0.3-2.1,2.1-3.6,4.2-3.6
			s3.9,1.6,4.2,3.6h4.9v-4.9c0,0,0-4.8,0-4.9C14.5,7.2,14.3,7.2,13.4,7.2z M2.7,15.7c-0.6,0.8-2.3,1.2-2.3,1.2s0-1.1,0.1-1.3
			c0-0.2-0.1-1.1,2.3-1.1C2.9,14.5,3.3,14.9,2.7,15.7z M13.4,13.2H6.5c2.5-3.6,4.2-4.8,4.7-4.9c0.4,0,1.5,0,1.5,0
			c0.6,0,0.6,0.3,0.7,1.3C13.4,9.6,13.4,13.2,13.4,13.2z M15.8,14.5v4.9h9.8c0.3-2.1,2.1-3.6,4.2-3.6s3.9,1.5,4.2,3.6
			c1.2-0.2,1.8-0.6,2.1-1.2c-0.5-0.1-0.9-0.4-0.9-0.8v-0.8c0-0.4,0.5-0.8,1.2-0.8v-1.2C34.8,14.5,20.2,14.5,15.8,14.5z"/>
	</g>
	<g>
		<path class="st0" d="M5.4,22.8c-1.6,0-2.9-1.3-2.9-2.9S3.8,17,5.4,17s2.9,1.3,2.9,2.9S7.1,22.8,5.4,22.8z M5.4,18.2
			c-0.9,0-1.7,0.7-1.7,1.7s0.7,1.7,1.7,1.7s1.7-0.7,1.7-1.7S6.3,18.2,5.4,18.2z"/>
	</g>
	<g>
		<path class="st0" d="M29.7,22.8c-1.6,0-2.9-1.3-2.9-2.9s1.3-2.9,2.9-2.9s2.9,1.3,2.9,2.9S31.3,22.8,29.7,22.8z M29.7,18.2
			c-0.9,0-1.7,0.7-1.7,1.7s0.7,1.7,1.7,1.7s1.7-0.7,1.7-1.7S30.6,18.2,29.7,18.2z"/>
	</g>
	<g>
		<path class="st0" d="M29.6,3.6C29.2,3.6,29,3.3,29,3c0-0.4,0.3-0.6,0.6-0.6h5.1l0,0c0.4,0,0.6,0.3,0.6,0.6c0,0.4-0.3,0.6-0.6,0.6
			H29.6L29.6,3.6z"/>
	</g>
	<g>
		<path class="st0" d="M34,6c-0.4,0-0.6-0.3-0.6-0.6c0-0.4,0.3-0.6,0.6-0.6h4.6l0,0c0.4,0,0.6,0.3,0.6,0.6c0,0.4-0.3,0.6-0.6,0.6H34
			L34,6z"/>
	</g>
	<g>
		<path class="st0" d="M32.1,9.6c-0.4,0-0.6-0.3-0.6-0.6c0-0.4,0.3-0.6,0.6-0.6h4.4l0,0c0.4,0,0.6,0.3,0.6,0.6
			c0,0.4-0.3,0.6-0.6,0.6H32.1L32.1,9.6z"/>
	</g>
	<g>
		<path class="st0" d="M34.7,13.3H18c-1.2,0-2.2-1-2.2-2.2V2.2C15.9,1,16.8,0,18,0h8.3C26.7,0,27,0.3,27,0.6s-0.3,0.6-0.6,0.6H18
			c-0.5,0-0.9,0.4-0.9,0.9V11c0,0.5,0.4,0.9,0.9,0.9h16.7c0.4,0,0.6,0.3,0.6,0.6S35.1,13.3,34.7,13.3z"/>
	</g>
</g>
</svg>
