<?xml version="1.0" encoding="utf-8"?>
<!-- Generator: Adobe Illustrator 23.0.3, SVG Export Plug-In . SVG Version: 6.00 Build 0)  -->
<svg version="1.1" id="Ebene_1" xmlns="http://www.w3.org/2000/svg" xmlns:xlink="http://www.w3.org/1999/xlink" x="0px" y="0px"
	 viewBox="0 0 73.6 56.6" style="enable-background:new 0 0 73.6 56.6;" xml:space="preserve">
<style type="text/css">
	.st0{fill:#164274;}
</style>
<g>
	<path class="st0" d="M1.4,24.4l13,7.7c0,0.2,0,0.3,0,0.5v11.1c0,7.3,9.5,13,21.7,13c12.2,0,21.7-5.7,21.7-13V32.3l2.9-1.5v13.9
		c0,1.5,1.2,2.8,2.8,2.8c1.5,0,2.8-1.2,2.8-2.8V27.8l6.1-3.3c0.9-0.5,1.4-1.4,1.4-2.4c0-1-0.5-1.9-1.4-2.4L39.7,0.4
		c-0.8-0.5-1.9-0.5-2.7-0.1L1.5,19.6C0.6,20.1,0,21,0,22C0,23,0.5,23.9,1.4,24.4z M52.1,43.6c0,3.5-6.9,7.4-16.2,7.4
		c-9.2,0-16.2-3.9-16.2-7.4v-8.3l14.1,8.3c0.4,0.3,0.9,0.4,1.4,0.4c0.5,0,0.9-0.1,1.3-0.3l15.5-8.4V43.6z M38.2,6l27,16l-3.1,1.7
		l-24.9-4.3c-1.5-0.3-2.9,0.8-3.2,2.3c-0.3,1.5,0.8,2.9,2.3,3.2l18,3.1L35.4,38.1l-27-16L38.2,6z"/>
</g>
</svg>
