<?xml version="1.0" encoding="utf-8"?>
<!-- Generator: Adobe Illustrator 23.0.4, SVG Export Plug-In . SVG Version: 6.00 Build 0)  -->
<svg version="1.1" id="Ebene_1" xmlns="http://www.w3.org/2000/svg" xmlns:xlink="http://www.w3.org/1999/xlink" x="0px" y="0px"
	 viewBox="0 0 73.6 56.6" style="enable-background:new 0 0 73.6 56.6;" xml:space="preserve">
<style type="text/css">
	.st0{fill:#C9D3DE;}
</style>
<g>
	<path class="st0" d="M2,24.5L14.8,32c0,0.2,0,0.3,0,0.5v10.9c0,7.2,9.3,12.8,21.3,12.8s21.3-5.6,21.3-12.8V32.2l2.9-1.5v13.7
		c0,1.5,1.2,2.8,2.8,2.8c1.5,0,2.8-1.2,2.8-2.8V27.8l6-3.2c0.9-0.5,1.4-1.4,1.4-2.4c0-1-0.5-1.9-1.4-2.4l-32.2-19
		c-0.8-0.5-1.9-0.5-2.7-0.1l-34.9,19c-0.9,0.5-1.5,1.4-1.5,2.4C0.6,23.1,1.1,24,2,24.5z M51.8,43.3c0,3.4-6.8,7.3-15.9,7.3
		c-9,0-15.9-3.8-15.9-7.3v-8.2l13.9,8.2c0.4,0.3,0.9,0.4,1.4,0.4c0.5,0,0.9-0.1,1.3-0.3l15.2-8.3L51.8,43.3L51.8,43.3z M38.2,6.4
		l26.6,15.7l-3,1.7l-24.5-4.2c-1.5-0.3-2.9,0.8-3.1,2.3c-0.3,1.5,0.8,2.9,2.3,3.1L54,28l-18.6,9.9L8.9,22.2L38.2,6.4z"/>
</g>
</svg>
