<?xml version="1.0" encoding="utf-8"?>
<!-- Generator: Adobe Illustrator 19.2.1, SVG Export Plug-In . SVG Version: 6.00 Build 0)  -->
<svg version="1.1" id="Layer_1" xmlns="http://www.w3.org/2000/svg" xmlns:xlink="http://www.w3.org/1999/xlink" x="0px" y="0px"
	 viewBox="0 0 175.1 175.1" style="enable-background:new 0 0 175.1 175.1;" xml:space="preserve">
<style type="text/css">
	.st0{fill:white;}
</style>
<g>
	<path class="st0" d="M59.6,117.5c-0.6,0-1.2-0.3-1.6-0.8c-4.9-6.5-7.5-14.4-7.5-22.6c0-20.9,17-38,38-38c12.8,0,24.7,6.4,31.7,17.1
		c0.6,0.9,0.4,2.2-0.6,2.8c-0.9,0.6-2.2,0.4-2.8-0.6c-6.3-9.6-16.9-15.3-28.4-15.3c-18.7,0-34,15.2-34,34c0,7.4,2.3,14.4,6.7,20.2
		c0.7,0.9,0.5,2.1-0.4,2.8C60.4,117.4,60,117.5,59.6,117.5z"/>
	<path class="st0" d="M88.6,74.5c-0.6,0-1-0.4-1-1v-5.2c0-0.6,0.4-1,1-1s1,0.4,1,1v5.2C89.6,74,89.2,74.5,88.6,74.5z"/>
	<path class="st0" d="M97.2,116.4c-3.3,0-5.9-2.7-5.9-5.9s2.7-5.9,5.9-5.9c3.3,0,5.9,2.7,5.9,5.9S100.5,116.4,97.2,116.4z
		 M97.2,108.5c-1.1,0-1.9,0.9-1.9,1.9s0.9,1.9,1.9,1.9c1.1,0,1.9-0.9,1.9-1.9S98.3,108.5,97.2,108.5z"/>
	<path class="st0" d="M79.1,116.4c-3.3,0-5.9-2.7-5.9-5.9s2.7-5.9,5.9-5.9s5.9,2.7,5.9,5.9S82.4,116.4,79.1,116.4z M79.1,108.5
		c-1.1,0-1.9,0.9-1.9,1.9s0.9,1.9,1.9,1.9s1.9-0.9,1.9-1.9S80.2,108.5,79.1,108.5z"/>
	<path class="st0" d="M71.3,92.1c-0.6,0-1-0.4-1-1c0-0.6,0.4-1,1-1l34.1,0c0.6,0,1,0.4,1,1c0,0.6-0.4,1-1,1L71.3,92.1z"/>
	<path class="st0" d="M75.2,103.3c-0.9,0-1.7-0.6-1.9-1.4l-6-20.3c-0.2-0.6-0.1-1.3,0.3-1.8c0.4-0.5,1-0.8,1.6-0.8h31
		c1.1,0,2,0.9,2,2s-0.9,2-2,2H71.9l5.2,17.7c0.3,1.1-0.3,2.2-1.4,2.5C75.6,103.3,75.4,103.3,75.2,103.3z"/>
	<path class="st0" d="M83.9,103.2c-0.5,0-0.9-0.4-1-0.9l-3.2-22.1c-0.1-0.5,0.3-1.1,0.8-1.1c0.6-0.1,1.1,0.3,1.1,0.8l3.2,22.1
		c0.1,0.5-0.3,1.1-0.8,1.1C84,103.2,84,103.2,83.9,103.2z"/>
	<path class="st0" d="M91.6,103.2c0,0-0.1,0-0.1,0c-0.5-0.1-0.9-0.6-0.8-1.1L93.8,80c0.1-0.5,0.6-0.9,1.1-0.8
		c0.5,0.1,0.9,0.6,0.8,1.1l-3.2,22.1C92.5,102.8,92.1,103.2,91.6,103.2z"/>
	<path class="st0" d="M118.4,88.8c-0.3,0-0.6-0.1-0.9-0.2c-1-0.5-1.4-1.7-0.9-2.7l3.3-6.6c0.2-0.5,0.7-0.8,1.2-1
		c0.5-0.2,1.1-0.1,1.5,0.1l6.6,3.3c1,0.5,1.4,1.7,0.9,2.7s-1.7,1.4-2.7,0.9l-4.8-2.4l-2.4,4.8C119.8,88.4,119.1,88.8,118.4,88.8z"/>
	<path class="st0" d="M88.5,124.6c-4.4,0-8.8-1-12.9-2.9c-7.1-3.3-12.7-9.2-15.5-16.5c-0.2-0.5,0.1-1.1,0.6-1.3
		c0.5-0.2,1.1,0.1,1.3,0.6c2.7,6.9,7.8,12.3,14.5,15.5c6.9,3.2,14.6,3.6,21.8,1c7.2-2.6,12.9-7.8,16.1-14.7
		c1.9-4.1,2.8-8.4,2.7-12.9c0-0.6,0.4-1,1-1c0,0,0,0,0,0c0.5,0,1,0.4,1,1c0.1,4.8-0.8,9.4-2.9,13.8c-3.4,7.4-9.6,13-17.2,15.8
		C95.6,124,92.1,124.6,88.5,124.6z"/>
	<path class="st0" d="M65.6,113.6c-0.3,0-0.6-0.1-0.8-0.4c-7.4-9.1-8.9-21.4-3.9-32.1c7.1-15.2,25.3-21.9,40.5-14.8
		c2,0.9,3.9,2.1,5.6,3.4c0.4,0.3,0.5,1,0.2,1.4s-1,0.5-1.4,0.2c-1.6-1.2-3.4-2.3-5.2-3.2C86.4,61.6,69.4,67.8,62.7,82
		c-4.6,10-3.2,21.4,3.7,30c0.3,0.4,0.3,1.1-0.1,1.4C66.1,113.6,65.8,113.6,65.6,113.6z"/>
	<path class="st0" d="M109.6,66.5c-0.3,0-0.7-0.1-1-0.3c-1-0.6-1.3-1.8-0.7-2.7l2.3-3.9l-3.3-1.9l-2.3,3.9c-0.6,1-1.8,1.3-2.7,0.7
		c-1-0.6-1.3-1.8-0.7-2.7l3.3-5.7c0.6-1,1.8-1.3,2.7-0.7l6.7,3.9c0.5,0.3,0.8,0.7,0.9,1.2c0.1,0.5,0.1,1.1-0.2,1.5l-3.3,5.7
		C111,66.2,110.3,66.5,109.6,66.5z"/>
	<path class="st0" d="M67.5,66.5c-0.7,0-1.4-0.4-1.7-1l-3.3-5.7c-0.3-0.5-0.3-1-0.2-1.5c0.1-0.5,0.5-0.9,0.9-1.2l6.7-3.9
		c1-0.6,2.2-0.2,2.7,0.7l3.3,5.7c0.6,1,0.2,2.2-0.7,2.7c-1,0.6-2.2,0.2-2.7-0.7l-2.3-3.9L67,59.6l2.3,3.9c0.6,1,0.2,2.2-0.7,2.7
		C68.2,66.5,67.9,66.5,67.5,66.5z"/>
	<path class="st0" d="M92.5,60c-1.1,0-2-0.9-2-2v-5.5c0-1.1,0.9-2,2-2H94v-3.6H83.2v3.6h1.5c1.1,0,2,0.9,2,2V58c0,1.1-0.9,2-2,2
		s-2-0.9-2-2v-3.5h-1.5c-1.1,0-2-0.9-2-2v-7.6c0-1.1,0.9-2,2-2H96c1.1,0,2,0.9,2,2v7.6c0,1.1-0.9,2-2,2h-1.5V58
		C94.5,59.1,93.6,60,92.5,60z"/>
	<path class="st0" d="M88.6,132.2c-12,0-23.5-5.8-30.6-15.5c-0.7-0.9-0.5-2.1,0.4-2.8c0.9-0.7,2.1-0.5,2.8,0.4
		c6.4,8.7,16.6,13.8,27.4,13.8c18.7,0,34-15.2,34-34c0-4.6-0.9-9-2.7-13.2c-0.4-1,0-2.2,1.1-2.6c1-0.4,2.2,0,2.6,1.1
		c2,4.7,3,9.7,3,14.8C126.6,115.1,109.5,132.2,88.6,132.2z"/>
	<path class="st0" d="M101,103.3H75.2c-0.9,0-1.7-0.6-1.9-1.4l-1-3.5c-0.3-1.1,0.3-2.2,1.4-2.5c1.1-0.3,2.2,0.3,2.5,1.4l0.6,2.1
		h22.8l8.6-24.5c0.2-0.7,0.9-1.2,1.6-1.3l8.6-1.2c1.1-0.1,2.1,0.6,2.3,1.7c0.2,1.1-0.6,2.1-1.7,2.3l-7.4,1l-8.6,24.7
		C102.6,102.8,101.8,103.3,101,103.3z"/>
</g>
</svg>
