<?xml version="1.0" encoding="utf-8"?>
<!-- Generator: Adobe Illustrator 21.1.0, SVG Export Plug-In . SVG Version: 6.00 Build 0)  -->
<svg version="1.1" id="Ebene_1" xmlns="http://www.w3.org/2000/svg" xmlns:xlink="http://www.w3.org/1999/xlink" x="0px" y="0px"
	 viewBox="0 0 39.9 31.2" style="enable-background:new 0 0 39.9 31.2;" xml:space="preserve">
<style type="text/css">
	.st0{fill:#FFFFFF;}
</style>
<g>
	<path class="st0" d="M28.2,13.4H11.6c-0.4,0-0.7,0.3-0.7,0.7s0.3,0.7,0.7,0.7h16.6c0.4,0,0.7-0.3,0.7-0.7
		C28.9,13.7,28.6,13.4,28.2,13.4z"/>
	<path class="st0" d="M28.2,9.3H11.6C11.3,9.3,11,9.6,11,10s0.3,0.7,0.7,0.7h16.6c0.4,0,0.7-0.3,0.7-0.7S28.6,9.3,28.2,9.3z"/>
	<path class="st0" d="M28.2,17.7H11.6c-0.4,0-0.7,0.3-0.7,0.7s0.3,0.7,0.7,0.7h16.6c0.4,0,0.7-0.3,0.7-0.7S28.6,17.7,28.2,17.7z"/>
	<path class="st0" d="M36.8,6.6C33.1,2.5,26.8,0,19.9,0C14.7,0,9.8,1.4,6,4c-3.9,2.7-6,6.4-6,10.3c0,5,3.5,9.5,9.3,12.2
		c3.2,1.4,6.8,2.2,10.6,2.2c3.7,0,7.2-0.7,10.3-2.1l6,4.3c0.2,0.2,0.5,0.3,0.8,0.3c0.3,0,0.5-0.1,0.7-0.2c0.5-0.3,0.7-0.9,0.6-1.4
		l-1.8-7.3c1.8-2,2.9-4.2,3.2-6.6C40.2,12.4,39.1,9.3,36.8,6.6z M37.1,15.3c-0.2,2-1.3,3.9-3,5.6c-0.3,0.3-0.5,0.8-0.4,1.3l1.1,4.5
		L31.2,24c-0.2-0.2-0.5-0.3-0.8-0.3c-0.2,0-0.4,0-0.6,0.1c-2.9,1.4-6.4,2.1-9.9,2.1c-3.4,0-6.7-0.7-9.5-1.9
		c-4.9-2.2-7.8-5.8-7.8-9.7c0-3,1.7-5.9,4.9-8.1c3.3-2.3,7.7-3.6,12.4-3.6c6,0,11.7,2.2,14.8,5.7C36.6,10.5,37.4,12.9,37.1,15.3z"/>
</g>
</svg>
