<?xml version="1.0" encoding="utf-8"?>
<!-- Generator: Adobe Illustrator 21.1.0, SVG Export Plug-In . SVG Version: 6.00 Build 0)  -->
<svg version="1.1" id="Ebene_1" xmlns="http://www.w3.org/2000/svg" xmlns:xlink="http://www.w3.org/1999/xlink" x="0px" y="0px"
	 viewBox="0 0 39.86 31.21" style="enable-background:new 0 0 39.86 31.21;" xml:space="preserve">
<style type="text/css">
	.st0{fill:#004077;}
</style>
<g>
	<path class="st0" d="M28.22,13.41H11.64c-0.37,0-0.67,0.3-0.67,0.67c0,0.37,0.3,0.67,0.67,0.67h16.58c0.37,0,0.67-0.3,0.67-0.67
		C28.89,13.71,28.59,13.41,28.22,13.41z"/>
	<path class="st0" d="M28.22,9.35H11.64c-0.37,0-0.67,0.3-0.67,0.67s0.3,0.67,0.67,0.67h16.58c0.37,0,0.67-0.3,0.67-0.67
		S28.59,9.35,28.22,9.35z"/>
	<path class="st0" d="M28.22,17.69H11.64c-0.37,0-0.67,0.3-0.67,0.67s0.3,0.67,0.67,0.67h16.58c0.37,0,0.67-0.3,0.67-0.67
		S28.59,17.69,28.22,17.69z"/>
	<path class="st0" d="M36.76,6.63C33.1,2.48,26.81,0,19.93,0C14.69,0,9.75,1.44,6.02,4.05C2.14,6.76,0,10.42,0,14.34
		c0,4.99,3.49,9.54,9.34,12.17c3.16,1.42,6.83,2.18,10.59,2.18c3.68,0,7.23-0.71,10.34-2.07l5.97,4.34
		c0.23,0.17,0.51,0.26,0.79,0.26c0.26,0,0.52-0.08,0.74-0.23c0.47-0.31,0.69-0.88,0.56-1.43l-1.75-7.3
		c1.79-1.96,2.89-4.22,3.19-6.58C40.18,12.45,39.14,9.32,36.76,6.63z M37.12,15.34c-0.25,1.98-1.27,3.9-2.95,5.56
		c-0.33,0.33-0.47,0.81-0.36,1.27l1.08,4.49l-3.66-2.66c-0.23-0.17-0.51-0.26-0.79-0.26c-0.2,0-0.4,0.04-0.58,0.13
		C26.93,25.27,23.5,26,19.93,26c-3.39,0-6.67-0.67-9.49-1.94c-4.86-2.18-7.76-5.82-7.76-9.72c0-3.02,1.73-5.9,4.87-8.1
		c3.29-2.3,7.68-3.57,12.38-3.57c6.03,0,11.71,2.19,14.82,5.73C36.61,10.5,37.42,12.9,37.12,15.34z"/>
</g>
</svg>
