<?xml version="1.0" encoding="utf-8"?>
<!-- Generator: Adobe Illustrator 21.1.0, SVG Export Plug-In . SVG Version: 6.00 Build 0)  -->
<svg version="1.1" id="Ebene_1" xmlns="http://www.w3.org/2000/svg" xmlns:xlink="http://www.w3.org/1999/xlink" x="0px" y="0px"
	 viewBox="0 0 43.1 27.8" style="enable-background:new 0 0 43.1 27.8;" xml:space="preserve">
<style type="text/css">
	.st0{fill:#FFFFFF;}
</style>
<g>
	<path class="st0" d="M35.2,24.3c-3.7-1.6-8-1.9-12.3-0.8c-1.6,0.4-3,0.9-3.9,1.4V4.6c4.6-2.3,8.4-2.6,10.9-2.3
		c1.8,0.2,3.1,0.6,3.8,0.8v3.2c0,0.6,0.5,1.1,1.1,1.1s1.1-0.5,1.1-1.1v-4c0-0.4-0.2-0.8-0.6-1C35,1.3,28-2.4,17.9,2.7
		c-0.8-0.5-2.3-1.2-4.4-1.8C10.7,0.1,6.2-0.5,0.8,1.3C0.3,1.5,0,1.9,0,2.4V25c0,0.4,0.2,0.7,0.5,0.9c0.3,0.2,0.7,0.2,1,0.1
		c0,0,1.7-0.6,4.5-0.8c2.5-0.1,6.4,0.2,11.1,2.2c0.2,0.2,0.5,0.3,0.7,0.3c0,0,0,0,0.1,0c0,0,0,0,0.1,0c0.2,0,0.4-0.1,0.6-0.2
		c0,0,2-1.2,4.9-1.9c3.9-1,7.5-0.7,10.8,0.7c0.6,0.2,1.2,0,1.5-0.6C36,25.2,35.7,24.5,35.2,24.3z M2.2,23.6V3.2
		C5.8,2.1,9.4,2,12.8,3c1.9,0.5,3.2,1.2,3.9,1.6v20.4C9.9,22.4,4.7,23,2.2,23.6z"/>
	<path class="st0" d="M43.1,22c0-0.4-0.2-0.7-0.5-0.9l-4.1-2.6c0.7-1,1-2.1,1-3.4c0-3.4-2.8-6.2-6.2-6.2s-6.2,2.8-6.2,6.2
		s2.8,6.2,6.2,6.2c1.4,0,2.7-0.5,3.7-1.3l3.3,3.6c0.2,0.3,0.6,0.4,1,0.4h0c0.4,0,0.7-0.2,1-0.5l0.4-0.5C43,22.7,43.1,22.3,43.1,22z
		 M28.4,15c0-2.8,2.3-5,5-5s5,2.3,5,5s-2.3,5-5,5C30.6,20,28.4,17.8,28.4,15z"/>
	<path class="st0" d="M13.6,5.6H4.5C4.2,5.6,4,5.8,4,6.2s0.2,0.6,0.6,0.6h9.1c0.3,0,0.6-0.2,0.6-0.6S13.9,5.6,13.6,5.6z"/>
	<path class="st0" d="M10.5,8.7h-6C4.2,8.7,4,8.9,4,9.3s0.2,0.6,0.6,0.6h6c0.3,0,0.6-0.2,0.6-0.6C11,8.9,10.8,8.7,10.5,8.7z"/>
	<path class="st0" d="M10.5,11.8h-6C4.2,11.8,4,12,4,12.3s0.2,0.6,0.6,0.6h6c0.3,0,0.6-0.2,0.6-0.6C11,12,10.8,11.8,10.5,11.8z"/>
</g>
</svg>
