<?xml version="1.0" encoding="utf-8"?>
<!-- Generator: Adobe Illustrator 21.1.0, SVG Export Plug-In . SVG Version: 6.00 Build 0)  -->
<svg version="1.1" id="Ebene_1" xmlns="http://www.w3.org/2000/svg" xmlns:xlink="http://www.w3.org/1999/xlink" x="0px" y="0px"
	 viewBox="0 0 43.11 27.75" style="enable-background:new 0 0 43.11 27.75;" xml:space="preserve">
<style type="text/css">
	.st0{fill:#004077;}
</style>
<g>
	<path class="st0" d="M35.16,24.29c-3.74-1.61-8.01-1.88-12.34-0.78c-1.62,0.41-2.96,0.94-3.91,1.37V4.65
		c4.6-2.31,8.44-2.56,10.88-2.35c1.79,0.16,3.11,0.57,3.81,0.85V6.4c0,0.62,0.5,1.12,1.12,1.12s1.12-0.5,1.12-1.12V2.43
		c0-0.41-0.22-0.78-0.58-0.98c-0.3-0.16-7.29-3.85-17.36,1.22c-0.78-0.46-2.29-1.24-4.4-1.82C10.66,0.06,6.15-0.49,0.76,1.3
		C0.31,1.46,0,1.88,0,2.36v22.69c0,0.37,0.18,0.71,0.49,0.92c0.3,0.21,0.69,0.25,1.04,0.12c0.02-0.01,1.68-0.65,4.46-0.77
		c2.49-0.11,6.41,0.18,11.08,2.17c0.2,0.17,0.45,0.27,0.73,0.27c0.02,0,0.04,0,0.07,0c0.02,0,0.04,0,0.06,0
		c0.2,0,0.4-0.06,0.58-0.16c0.02-0.01,2-1.2,4.94-1.94c3.88-0.97,7.53-0.74,10.84,0.69c0.57,0.24,1.22-0.02,1.47-0.58
		C35.99,25.19,35.73,24.53,35.16,24.29z M2.23,23.56V3.18c3.6-1.06,7.16-1.14,10.57-0.22c1.85,0.5,3.19,1.18,3.87,1.57v20.38
		C9.93,22.37,4.69,22.99,2.23,23.56z"/>
	<path class="st0" d="M43.1,21.98c-0.04-0.37-0.23-0.71-0.53-0.93l-4.06-2.63c0.65-0.98,1.04-2.15,1.04-3.42
		c0-3.39-2.76-6.16-6.16-6.16s-6.16,2.76-6.16,6.16s2.76,6.16,6.16,6.16c1.4,0,2.69-0.47,3.73-1.26l3.27,3.6
		c0.25,0.27,0.6,0.42,0.97,0.42h0.02c0.37,0,0.73-0.17,0.97-0.45L42.78,23C43.02,22.72,43.14,22.35,43.1,21.98z M28.35,15.01
		c0-2.78,2.26-5.04,5.04-5.04c2.78,0,5.04,2.26,5.04,5.04s-2.26,5.04-5.04,5.04C30.62,20.05,28.35,17.79,28.35,15.01z"/>
	<path class="st0" d="M13.62,5.6H4.51c-0.31,0-0.56,0.25-0.56,0.56c0,0.31,0.25,0.56,0.56,0.56h9.11c0.31,0,0.56-0.25,0.56-0.56
		C14.18,5.85,13.93,5.6,13.62,5.6z"/>
	<path class="st0" d="M10.47,8.7H4.51c-0.31,0-0.56,0.25-0.56,0.56c0,0.31,0.25,0.56,0.56,0.56h5.96c0.31,0,0.56-0.25,0.56-0.56
		C11.03,8.95,10.78,8.7,10.47,8.7z"/>
	<path class="st0" d="M10.47,11.77H4.51c-0.31,0-0.56,0.25-0.56,0.56c0,0.31,0.25,0.56,0.56,0.56h5.96c0.31,0,0.56-0.25,0.56-0.56
		C11.03,12.02,10.78,11.77,10.47,11.77z"/>
</g>
</svg>
