<?xml version="1.0" encoding="utf-8"?>
<!-- Generator: Adobe Illustrator 21.1.0, SVG Export Plug-In . SVG Version: 6.00 Build 0)  -->
<svg version="1.1" id="Ebene_1" xmlns="http://www.w3.org/2000/svg" xmlns:xlink="http://www.w3.org/1999/xlink" x="0px" y="0px"
	 viewBox="0 0 19.3 18.6" style="enable-background:new 0 0 19.3 18.6;" xml:space="preserve">
<style type="text/css">
	.st0{fill:#004178;}
</style>
<g>
	<path class="st0" d="M10,18.6c-2.6,0-5.2-1.1-6.9-3.1c-0.2-0.3-0.2-0.7,0.1-0.9s0.7-0.2,0.9,0.1c1.5,1.7,3.7,2.7,6,2.7
		c4.4,0,8-3.6,8-8s-3.6-8-8-8C7.4,1.4,4.9,2.8,3.4,5c-0.3,0.2-0.7,0.3-1,0.1C2.1,4.9,2,4.5,2.2,4.2C4,1.6,6.9,0,10,0
		c5.1,0,9.3,4.2,9.3,9.3S15.2,18.6,10,18.6z"/>
</g>
<polygon class="st0" points="9.8,6.4 8.5,6.4 9.9,8.8 0,8.8 0,10.1 9.9,10.1 8.5,12.6 9.8,12.6 12.2,9.5 "/>
</svg>
