<?xml version="1.0" encoding="utf-8"?>
<!-- Generator: Adobe Illustrator 21.1.0, SVG Export Plug-In . SVG Version: 6.00 Build 0)  -->
<svg version="1.1" id="Ebene_1" xmlns="http://www.w3.org/2000/svg" xmlns:xlink="http://www.w3.org/1999/xlink" x="0px" y="0px"
	 viewBox="0 0 24.6 29.3" style="enable-background:new 0 0 24.6 29.3;" xml:space="preserve">
<style type="text/css">
	.st0{fill:#FFFFFF;}
</style>
<g>
	<path class="st0" d="M22.5,8.6h-2.9l-0.8,2.2h3.6v12.7H2.2V10.8h3.5L5,8.6H2.1C0.9,8.6,0,9.5,0,10.7v12.9c0,1.1,0.9,2.1,2.1,2.1
		h6.2v2.2H5.1c-0.4,0-0.7,0.3-0.7,0.7c0,0.4,0.3,0.7,0.7,0.7h14.3c0.4,0,0.7-0.3,0.7-0.7c0-0.4-0.3-0.7-0.7-0.7h-3.1v-2.2h6.2
		c1.1,0,2.1-0.9,2.1-2.1V10.7C24.6,9.5,23.7,8.6,22.5,8.6z"/>
	<path class="st0" d="M12.3,3.4C10.5,3.4,9,4.9,9,6.7s1.5,3.3,3.3,3.3s3.3-1.5,3.3-3.3S14.1,3.4,12.3,3.4z M14,6.7
		c0,1-0.8,1.7-1.7,1.7c-1,0-1.7-0.8-1.7-1.7S11.4,5,12.3,5C13.3,5,14,5.7,14,6.7z"/>
	<path class="st0" d="M11.6,18.7l0.7,0.8l0.6-0.7v-0.1c0.7-0.8,2-2.5,3.2-4.5c1.9-3,2.8-5.5,2.8-7.5C19,3,16,0,12.3,0S5.6,3,5.6,6.7
		c0,1.9,0.9,4.5,2.8,7.5C9.7,16.2,11,17.8,11.6,18.7z M7.2,6.7c0-2.8,2.3-5.1,5.1-5.1s5.1,2.3,5.1,5.1c0,3.4-3.9,8.6-5.1,10.2
		C11.1,15.3,7.2,10.1,7.2,6.7z"/>
</g>
</svg>
