<?xml version="1.0" encoding="utf-8"?>
<!-- Generator: Adobe Illustrator 21.1.0, SVG Export Plug-In . SVG Version: 6.00 Build 0)  -->
<svg version="1.1" id="Ebene_1" xmlns="http://www.w3.org/2000/svg" xmlns:xlink="http://www.w3.org/1999/xlink" x="0px" y="0px"
	 viewBox="0 0 43.24 24.93" style="enable-background:new 0 0 43.24 24.93;" xml:space="preserve">
<style type="text/css">
	.st0{fill:#134174;}
	.st1{fill:#004077;}
</style>
<path class="st0" d="M26.17,11.69H24.8c-0.11,0-0.19,0.09-0.19,0.19v2.68h-2.92V12.4l0,0c0-0.48-0.39-0.88-0.88-0.88
	c-0.48,0-0.88,0.39-0.88,0.88c0,0,0,1.08,0,2.17l0,0l0,0h-2.16l0,0c-0.48,0-0.88,0.39-0.88,0.88c0,0.48,0.39,0.88,0.88,0.88
	c0,0,0.02,0,0.05,0l0,0h2.12c0,0.25,0,0.4,0,0.4l0,0V19c0,0.11,0.09,0.19,0.19,0.19h1.37c0.11,0,0.19-0.09,0.19-0.19v-2.68l0,0l0,0
	h2.92V19c0,0.11,0.09,0.19,0.19,0.19h1.37c0.1,0,0.19-0.09,0.19-0.19v-7.11C26.36,11.78,26.27,11.69,26.17,11.69z"/>
<g>
	<path class="st1" d="M36.06,24.93H7.1c-0.14-0.01-3.56-0.39-5.61-3.07c-1.32-1.72-1.76-3.96-1.32-6.66
		c0.03-0.22,0.29-1.66,1.6-3.06c1.16-1.24,3.38-2.67,7.48-2.6c0.66-0.92,2.37-2.69,5.58-2.55c0.16-0.71,0.48-1.74,1.12-2.78
		c1.05-1.73,3.18-3.85,7.37-4.17c2.19-0.17,4.07,0.4,5.57,1.7c2.19,1.89,2.98,4.82,3.26,6.39c0.87-0.15,2.2-0.28,3.65-0.08
		c2.38,0.32,5.53,1.57,7.08,5.74c0.26,0.69,0.95,4.14-0.68,7.09c-1.16,2.1-3.2,3.47-6.04,4.06L36.06,24.93z M7.25,23.07h28.61
		c2.24-0.48,3.81-1.52,4.69-3.11c1.28-2.31,0.73-5.12,0.57-5.54c-0.99-2.65-2.86-4.18-5.58-4.54c-2.1-0.28-3.91,0.25-3.92,0.25
		l-1.12,0.33L30.42,9.3c0-0.04-0.33-4.07-2.77-6.17c-1.11-0.95-2.52-1.37-4.2-1.25c-2.73,0.21-4.72,1.31-5.92,3.28
		c-0.88,1.45-1,2.87-1,2.89l-0.07,1.01l-1-0.14C13.97,8.7,12.7,8.97,11.69,9.7c-0.77,0.56-1.11,1.2-1.11,1.21l-0.27,0.54l-0.6-0.04
		c-6.9-0.33-7.66,3.89-7.69,4.07v0.01c-0.36,2.16-0.04,3.92,0.95,5.21C4.41,22.62,6.91,23.02,7.25,23.07z"/>
</g>
</svg>
