<?xml version="1.0" encoding="utf-8"?>
<!-- Generator: Adobe Illustrator 21.1.0, SVG Export Plug-In . SVG Version: 6.00 Build 0)  -->
<svg version="1.1" id="Ebene_1" xmlns="http://www.w3.org/2000/svg" xmlns:xlink="http://www.w3.org/1999/xlink" x="0px" y="0px"
	 viewBox="0 0 43.2 24.9" style="enable-background:new 0 0 43.2 24.9;" xml:space="preserve">
<style type="text/css">
	.st0{fill:#FFFFFF;}
</style>
<path class="st0" d="M26.2,11.7h-1.4c-0.1,0-0.2,0.1-0.2,0.2v2.7h-2.9v-2.2l0,0c0-0.5-0.4-0.9-0.9-0.9c-0.5,0-0.9,0.4-0.9,0.9
	c0,0,0,1.1,0,2.2l0,0l0,0h-2.2l0,0c-0.5,0-0.9,0.4-0.9,0.9c0,0.5,0.4,0.9,0.9,0.9c0,0,0,0,0,0l0,0h2.1c0,0.2,0,0.4,0,0.4l0,0V19
	c0,0.1,0.1,0.2,0.2,0.2h1.4c0.1,0,0.2-0.1,0.2-0.2v-2.7l0,0l0,0h2.9V19c0,0.1,0.1,0.2,0.2,0.2h1.4c0.1,0,0.2-0.1,0.2-0.2v-7.1
	C26.4,11.8,26.3,11.7,26.2,11.7z"/>
<g>
	<path class="st0" d="M36.1,24.9h-29c-0.1,0-3.6-0.4-5.6-3.1c-1.3-1.7-1.8-4-1.3-6.7c0-0.2,0.3-1.7,1.6-3.1c1.2-1.2,3.4-2.7,7.5-2.6
		c0.7-0.9,2.4-2.7,5.6-2.6c0.2-0.7,0.5-1.7,1.1-2.8C17,2.5,19.1,0.4,23.3,0c2.2-0.2,4.1,0.4,5.6,1.7c2.2,1.9,3,4.8,3.3,6.4
		C33,8,34.3,7.8,35.8,8c2.4,0.3,5.5,1.6,7.1,5.7c0.3,0.7,1,4.1-0.7,7.1C41,23,39,24.3,36.1,24.9L36.1,24.9z M7.2,23.1h28.6
		c2.2-0.5,3.8-1.5,4.7-3.1c1.3-2.3,0.7-5.1,0.6-5.5c-1-2.7-2.9-4.2-5.6-4.5c-2.1-0.3-3.9,0.2-3.9,0.2l-1.1,0.3l-0.1-1.2
		c0,0-0.3-4.1-2.8-6.2c-1.1-1-2.5-1.4-4.2-1.2c-2.7,0.2-4.7,1.3-5.9,3.3c-0.9,1.4-1,2.9-1,2.9l-0.1,1l-1-0.1C14,8.7,12.7,9,11.7,9.7
		c-0.8,0.6-1.1,1.2-1.1,1.2l-0.3,0.5l-0.6,0C2.8,11.1,2,15.3,2,15.5v0c-0.4,2.2,0,3.9,1,5.2C4.4,22.6,6.9,23,7.2,23.1z"/>
</g>
</svg>
