<?xml version="1.0" encoding="utf-8"?>
<!-- Generator: Adobe Illustrator 21.1.0, SVG Export Plug-In . SVG Version: 6.00 Build 0)  -->
<svg version="1.1" id="Ebene_1" xmlns="http://www.w3.org/2000/svg" xmlns:xlink="http://www.w3.org/1999/xlink" x="0px" y="0px"
	 viewBox="0 0 43.1 27.6" style="enable-background:new 0 0 43.1 27.6;" xml:space="preserve">
<style type="text/css">
	.st0{fill:#FFFFFF;}
</style>
<g>
	<path class="st0" d="M26.1,11.5h-1.4c-0.1,0-0.2,0.1-0.2,0.2v2.7h-2.9v-2.2l0,0c0-0.5-0.4-0.9-0.9-0.9c-0.5,0-0.9,0.4-0.9,0.9
		c0,0,0,1.1,0,2.2l0,0l0,0h-2.2l0,0c-0.5,0-0.9,0.4-0.9,0.9s0.4,0.9,0.9,0.9c0,0,0,0,0,0l0,0h2.1c0,0.2,0,0.4,0,0.4l0,0v2.3
		c0,0.1,0.1,0.2,0.2,0.2h1.4c0.1,0,0.2-0.1,0.2-0.2v-2.7l0,0l0,0h2.9v2.7c0,0.1,0.1,0.2,0.2,0.2h1.4c0.1,0,0.2-0.1,0.2-0.2v-7.1
		C26.3,11.6,26.2,11.5,26.1,11.5z"/>
</g>
<g>
	<path class="st0" d="M42.8,13.7c-1.5-4.2-4.7-5.4-7.1-5.7c-1.5-0.2-2.8-0.1-3.6,0.1c-0.3-1.6-1.1-4.5-3.2-6.4
		c-1.5-1.3-3.4-1.9-5.5-1.7c-4.2,0.3-6.3,2.4-7.4,4.2c-0.6,1-1,2.1-1.1,2.8C11.7,6.8,10,8.5,9.3,9.4C8.4,9.3,7.5,9.5,6.8,10l1.4,1.4
		c0.3-0.1,0.7-0.2,1.3,0l0.7,0.2l0.4-0.7c0,0,0.3-0.6,1.1-1.2c1-0.7,2.3-1,3.8-0.8l1,0.1l0.1-1c0-0.2,0.5-5.7,6.9-6.1
		c1.7-0.1,3.1,0.3,4.2,1.2c2.4,2.1,2.8,6.1,2.8,6.1l0.1,1.2l1.1-0.3c0,0,1.8-0.5,3.9-0.2c2.7,0.4,4.6,1.9,5.6,4.5
		c0.2,0.4,0.7,3.2-0.6,5.5c-0.9,1.6-2.5,2.6-4.7,3.1h-16l1.9,1.9h14.3l0.1,0c2.8-0.6,4.9-2,6-4C43.7,17.9,43,14.4,42.8,13.7z"/>
	<path class="st0" d="M2.7,7.3C2.3,7,1.7,7,1.4,7.3C1,7.7,1,8.3,1.4,8.6l2.1,2.1c-2.8,1.6-3.3,4.1-3.3,4.4c-0.4,2.7,0,4.9,1.3,6.6
		c2.1,2.7,5.4,3,5.6,3.1h10.5l2.5,2.5c0.2,0.2,0.4,0.3,0.7,0.3s0.5-0.1,0.7-0.3c0.4-0.4,0.4-1,0-1.3L2.7,7.3z M7.2,23
		c-0.3,0-2.8-0.4-4.3-2.3c-1-1.3-1.3-3-1-5.2v0c0,0,0.3-2.1,2.9-3.3L15.7,23H7.2z"/>
</g>
</svg>
