<?xml version="1.0" encoding="utf-8"?>
<!-- Generator: Adobe Illustrator 21.1.0, SVG Export Plug-In . SVG Version: 6.00 Build 0)  -->
<svg version="1.1" id="Ebene_1" xmlns="http://www.w3.org/2000/svg" xmlns:xlink="http://www.w3.org/1999/xlink" x="0px" y="0px"
	 viewBox="0 0 43.12 27.6" style="enable-background:new 0 0 43.12 27.6;" xml:space="preserve">
<style type="text/css">
	.st0{fill:#A8B1B6;}
</style>
<g>
	<path class="st0" d="M26.09,11.47h-1.37c-0.11,0-0.19,0.09-0.19,0.19v2.67h-2.91v-2.16l0,0c0-0.48-0.39-0.87-0.87-0.87
		c-0.48,0-0.87,0.39-0.87,0.87c0,0,0,1.08,0,2.16l0,0l0,0h-2.16l0,0c-0.48,0-0.87,0.39-0.87,0.87s0.39,0.87,0.87,0.87
		c0,0,0.02,0,0.05,0l0,0h2.11c0,0.25,0,0.4,0,0.4l0,0v2.27c0,0.1,0.09,0.19,0.19,0.19h1.37c0.1,0,0.19-0.09,0.19-0.19v-2.67l0,0l0,0
		h2.91v2.67c0,0.1,0.09,0.19,0.19,0.19h1.37c0.1,0,0.19-0.09,0.19-0.19v-7.09C26.29,11.56,26.2,11.47,26.09,11.47z"/>
</g>
<g>
	<path class="st0" d="M42.76,13.73c-1.55-4.16-4.7-5.41-7.07-5.72c-1.45-0.19-2.77-0.07-3.64,0.08c-0.28-1.56-1.07-4.49-3.25-6.37
		c-1.5-1.29-3.37-1.86-5.55-1.7c-4.18,0.32-6.31,2.44-7.35,4.16c-0.64,1.04-0.96,2.07-1.11,2.78c-3.1-0.12-4.79,1.51-5.5,2.45
		C8.37,9.28,7.53,9.47,6.76,9.99l1.37,1.37c0.32-0.13,0.73-0.18,1.33-0.01l0.74,0.23l0.35-0.7c0-0.01,0.34-0.65,1.11-1.2
		c1.01-0.73,2.28-1,3.76-0.78l0.99,0.14l0.07-0.99c0.02-0.23,0.5-5.67,6.9-6.15c1.67-0.13,3.08,0.29,4.19,1.24
		c2.44,2.1,2.76,6.11,2.76,6.15l0.08,1.16l1.11-0.33c0.02-0.01,1.82-0.53,3.91-0.25c2.71,0.36,4.58,1.89,5.57,4.53
		c0.15,0.42,0.71,3.22-0.57,5.52c-0.88,1.58-2.45,2.62-4.68,3.1h-16l1.86,1.86h14.33l0.09-0.02c2.84-0.59,4.86-1.95,6.03-4.05
		C43.7,17.86,43.02,14.43,42.76,13.73z"/>
	<path class="st0" d="M2.68,7.32c-0.36-0.36-0.95-0.36-1.32,0C1,7.68,1,8.27,1.37,8.63l2.12,2.12c-2.81,1.59-3.28,4.15-3.32,4.4
		c-0.44,2.69,0,4.92,1.32,6.64c2.05,2.68,5.45,3.05,5.6,3.06h10.52l2.46,2.46c0.18,0.18,0.42,0.27,0.66,0.27s0.48-0.09,0.66-0.27
		c0.36-0.36,0.36-0.95,0-1.32L2.68,7.32z M7.23,23c-0.34-0.04-2.8-0.43-4.27-2.33c-0.99-1.3-1.31-3.05-0.96-5.21v-0.02
		c0-0.02,0.34-2.13,2.86-3.3L15.73,23H7.23z"/>
</g>
</svg>
