<?xml version="1.0" encoding="utf-8"?>
<!-- Generator: Adobe Illustrator 21.1.0, SVG Export Plug-In . SVG Version: 6.00 Build 0)  -->
<svg version="1.1" id="Ebene_1" xmlns="http://www.w3.org/2000/svg" xmlns:xlink="http://www.w3.org/1999/xlink" x="0px" y="0px"
	 viewBox="0 0 34.6 38.7" style="enable-background:new 0 0 34.6 38.7;" xml:space="preserve">
<style type="text/css">
	.st0{fill:#FFFFFF;}
</style>
<g>
	<path class="st0" d="M30.2,13.2c0,0,0-0.1-0.1-0.1C30.2,13.1,30.2,13.1,30.2,13.2C30.2,13.1,30.2,13.2,30.2,13.2z"/>
	<path class="st0" d="M16.5,13.6c-0.2,0-0.4-0.2-0.4-0.4v-2.3c0-0.2,0.2-0.4,0.4-0.4s0.4,0.2,0.4,0.4v2.3
		C16.9,13.4,16.7,13.6,16.5,13.6z"/>
	<path class="st0" d="M20.2,26.8c-1.4,0-2.5,1.1-2.5,2.5s1.1,2.5,2.5,2.5s2.5-1.1,2.5-2.5C22.7,27.9,21.6,26.8,20.2,26.8z
		 M20.2,30.3c-0.5,0-0.9-0.4-0.9-0.9s0.4-0.9,0.9-0.9s0.9,0.4,0.9,0.9S20.8,30.3,20.2,30.3z"/>
	<path class="st0" d="M12.4,26.8c-1.4,0-2.5,1.1-2.5,2.5s1.1,2.5,2.5,2.5s2.5-1.1,2.5-2.5C14.9,27.9,13.7,26.8,12.4,26.8z
		 M12.4,30.3c-0.5,0-0.9-0.4-0.9-0.9s0.4-0.9,0.9-0.9s0.9,0.4,0.9,0.9S12.9,30.3,12.4,30.3z"/>
	<path class="st0" d="M30.8,15.4c0,0-0.1,0-0.1,0C30.7,15.4,30.7,15.4,30.8,15.4C30.7,15.4,30.8,15.4,30.8,15.4z"/>
	<path class="st0" d="M5.6,28.3c-0.3-0.5-0.6-1.1-0.8-1.7c0,0,0,0,0,0C5.1,27.3,5.3,27.8,5.6,28.3z"/>
	<path class="st0" d="M28.5,27.8C27,31,24.3,33.4,21,34.6c-1.5,0.5-3,0.8-4.5,0.8c-1.9,0-3.8-0.4-5.6-1.2c-1.8-0.9-3.4-2.1-4.7-3.6
		c0,0,0,0,0,0c-0.3-0.4-0.6-0.8-0.8-1.1c-0.1-0.1-0.1-0.2-0.2-0.3S5.1,29,5.1,28.9C5,28.8,5,28.7,4.9,28.7c-0.2-0.4-0.4-0.7-0.6-1.1
		c-0.1-0.1-0.1-0.2-0.2-0.4c0-0.1-0.1-0.1-0.1-0.2c-0.4-1-0.7-2-0.8-3.1c-0.3-2.5,0.1-5,1.1-7.3c3.1-6.6,11-9.5,17.6-6.4
		c0.9,0.4,1.7,0.9,2.4,1.5c0.2,0.1,0.2,0.4,0.1,0.6c-0.1,0.2-0.4,0.2-0.5,0.1c-0.7-0.5-1.5-1-2.3-1.4c-6.2-2.9-13.7-0.2-16.6,6
		c-1.5,3.1-1.5,6.6-0.3,9.7l0,0c0.2,0.6,0.5,1.1,0.8,1.7c0,0,0,0,0,0c0.1,0.2,0.2,0.3,0.3,0.5c0,0,0,0,0,0C6,29,6.1,29.2,6.2,29.3
		c0,0.1,0.1,0.1,0.1,0.2c0.1,0.1,0.1,0.2,0.2,0.3c0,0.1,0.1,0.1,0.1,0.2c1.2,1.5,2.7,2.7,4.5,3.6c3,1.4,6.4,1.6,9.5,0.4
		c3.1-1.1,5.6-3.4,7-6.4c0.8-1.8,1.2-3.7,1.2-5.6c0-0.2,0.2-0.4,0.4-0.4c0.2,0,0.4,0.2,0.4,0.4C29.8,23.9,29.4,25.9,28.5,27.8z"/>
	<path class="st0" d="M34.2,16.9l-2.9-1.5c-0.1,0-0.2-0.1-0.2-0.1c0,0-0.1,0-0.1,0h0c0,0-0.1,0-0.1,0c0,0-0.1,0-0.1,0c0,0,0,0-0.1,0
		c0,0,0,0,0,0c0,0-0.1,0.1-0.1,0.1c0,0-0.1,0.1-0.1,0.1c0,0,0,0.1-0.1,0.1c0,0,0,0,0,0l-1.4,2.8c-0.2,0.4,0,0.9,0.3,1
		c0.1,0.1,0.2,0.1,0.4,0.1c0.3,0,0.6-0.2,0.7-0.4l0.6-1.2c0.4,1.3,0.6,2.7,0.6,4.1c0,8.2-6.7,14.9-14.9,14.9c-4.7,0-9.2-2.3-12-6.1
		c0,0,0,0,0,0c-1.9-2.6-2.9-5.6-2.9-8.9C1.6,14,8.3,7.3,16.5,7.3c4.6,0,8.9,2.1,11.7,5.7l-2.4,0.3c-0.3,0-0.5,0.2-0.6,0.5l-2.3,6.7
		H19l0.5-3.2h2.1c0.4,0,0.8-0.4,0.8-0.8s-0.4-0.8-0.8-0.8H8.1c-0.2,0-0.5,0.1-0.6,0.3c-0.2,0.2-0.2,0.5-0.1,0.7l2.1,7.2v0
		c0,0,0,0,0,0l0,0c0,0,0,0,0,0.1l0.4,1.5c0.1,0.3,0.4,0.6,0.8,0.6h11.2c0.3,0,0.6-0.2,0.7-0.5l3.8-10.8l3.3-0.4l0,0
		c0.2,0,0.4-0.1,0.5-0.3c0,0,0-0.1,0.1-0.1c0-0.1,0.1-0.2,0.1-0.3c0,0,0-0.1,0-0.1s0-0.1,0-0.1c0-0.1,0-0.1,0-0.2c0,0,0-0.1,0-0.1
		c0,0,0,0,0,0c0,0,0-0.1-0.1-0.1c-1-1.5-2.2-2.8-3.5-3.8l1.1-2c0.1-0.2,0.1-0.4,0.1-0.6c-0.1-0.2-0.2-0.4-0.4-0.5l-2.9-1.7
		c-0.4-0.2-0.9-0.1-1.1,0.3l-1.2,2c-1.1-0.4-2.2-0.7-3.3-0.9V4.9h0.7c0.4,0,0.8-0.3,0.8-0.8V0.8c0-0.4-0.4-0.8-0.8-0.8h-6.4
		c-0.4,0-0.8,0.3-0.8,0.8v3.3c0,0.4,0.4,0.8,0.8,0.8H14v1.1c-1.2,0.2-2.3,0.5-3.4,0.9l-1.2-2C9.3,4.4,8.8,4.3,8.4,4.5L5.5,6.2
		C5.3,6.3,5.2,6.5,5.1,6.7c-0.1,0.2,0,0.4,0.1,0.6l1.1,2c-3.9,3-6.3,7.7-6.3,13c0,3.6,1.1,7,3.2,9.8c0,0,0,0,0,0l0,0
		c3.1,4.2,8.1,6.7,13.3,6.7c9.1,0,16.5-7.4,16.5-16.5c0-1.5-0.2-3.1-0.6-4.5l1.1,0.6c0.4,0.2,0.9,0,1-0.3
		C34.7,17.6,34.5,17.1,34.2,16.9z M10.1,20.5l-0.9-3.2h3.8l0.5,3.2H10.1z M11.3,24.5l-0.3-1c0,0,0,0,0-0.1l-0.7-2.2h3.1l0.5,3.3
		C13.9,24.5,11.3,24.5,11.3,24.5z M17.6,24.5h-2.9l-0.5-3.3h3.8L17.6,24.5z M14.1,20.5l-0.5-3.2h5l-0.5,3.2H14.1z M21.3,24.5h-3
		l0.5-3.3h3.6L21.3,24.5z M24.4,6.2L26,7.1l-0.7,1.2c-0.5-0.3-1-0.6-1.6-0.9L24.4,6.2z M14.1,1.6h4.9v1.7h-0.7
		c-0.4,0-0.8,0.3-0.8,0.8v1.7c-0.3,0-0.6,0-1,0c-0.3,0-0.6,0-0.9,0V4.1c0-0.4-0.4-0.8-0.8-0.8h-0.7L14.1,1.6L14.1,1.6z M8.5,6.2
		l0.7,1.2C8.7,7.7,8.1,8,7.6,8.3L7,7.1L8.5,6.2z"/>
	<path class="st0" d="M30.7,15.4C30.6,15.4,30.6,15.4,30.7,15.4C30.6,15.4,30.6,15.4,30.7,15.4C30.6,15.4,30.6,15.4,30.7,15.4z"/>
</g>
</svg>
