<?xml version="1.0" encoding="utf-8"?>
<!-- Generator: Adobe Illustrator 21.1.0, SVG Export Plug-In . SVG Version: 6.00 Build 0)  -->
<svg version="1.1" id="Ebene_1" xmlns="http://www.w3.org/2000/svg" xmlns:xlink="http://www.w3.org/1999/xlink" x="0px" y="0px"
	 viewBox="0 0 20.5 23" style="enable-background:new 0 0 20.5 23;" xml:space="preserve">
<style type="text/css">
	.st0{fill:#004077;}
</style>
<g>
	<path class="st0" d="M18,7.8C17.9,7.8,17.9,7.8,18,7.8C17.9,7.8,17.9,7.8,18,7.8C18,7.8,18,7.8,18,7.8z"/>
	<path class="st0" d="M9.8,8.1C9.7,8.1,9.6,8,9.6,7.8V6.5c0-0.1,0.1-0.2,0.2-0.2c0.1,0,0.2,0.1,0.2,0.2v1.3C10,8,9.9,8.1,9.8,8.1z"
		/>
	<path class="st0" d="M12,15.9c-0.8,0-1.5,0.7-1.5,1.5s0.7,1.5,1.5,1.5c0.8,0,1.5-0.7,1.5-1.5C13.5,16.6,12.8,15.9,12,15.9z M12,18
		c-0.3,0-0.6-0.2-0.6-0.6s0.2-0.6,0.6-0.6c0.3,0,0.6,0.2,0.6,0.6S12.3,18,12,18z"/>
	<path class="st0" d="M7.3,15.9c-0.8,0-1.5,0.7-1.5,1.5s0.7,1.5,1.5,1.5s1.5-0.7,1.5-1.5C8.8,16.6,8.2,15.9,7.3,15.9z M7.3,18
		c-0.3,0-0.6-0.2-0.6-0.6s0.2-0.6,0.6-0.6c0.3,0,0.6,0.2,0.6,0.6S7.7,18,7.3,18z"/>
	<path class="st0" d="M18.3,9.1C18.3,9.1,18.2,9.1,18.3,9.1C18.2,9.1,18.2,9.1,18.3,9.1C18.2,9.1,18.3,9.1,18.3,9.1z"/>
	<path class="st0" d="M3.4,16.8c-0.2-0.3-0.3-0.7-0.5-1c0,0,0,0,0,0C3,16.2,3.2,16.5,3.4,16.8z"/>
	<path class="st0" d="M16.9,16.5c-0.9,1.9-2.5,3.4-4.4,4.1c-0.9,0.3-1.8,0.5-2.7,0.5c-1.1,0-2.3-0.2-3.3-0.7c-1.1-0.5-2-1.3-2.8-2.2
		c0,0,0,0,0,0c-0.2-0.2-0.3-0.4-0.5-0.7c0,0-0.1-0.1-0.1-0.1c0,0-0.1-0.1-0.1-0.1c0,0-0.1-0.1-0.1-0.1c-0.1-0.2-0.2-0.4-0.3-0.7
		c0-0.1-0.1-0.1-0.1-0.2c0,0,0-0.1,0-0.1c-0.2-0.6-0.4-1.2-0.5-1.8c-0.2-1.5,0-3,0.7-4.3c1.8-3.9,6.5-5.6,10.5-3.8
		c0.5,0.2,1,0.5,1.4,0.9c0.1,0.1,0.1,0.2,0,0.3c-0.1,0.1-0.2,0.1-0.3,0c-0.4-0.3-0.9-0.6-1.4-0.8c-3.7-1.7-8.1-0.1-9.8,3.6
		c-0.9,1.9-0.9,3.9-0.2,5.8l0,0c0.1,0.3,0.3,0.7,0.5,1c0,0,0,0,0,0C3.4,17,3.5,17,3.5,17.1c0,0,0,0,0,0c0.1,0.1,0.1,0.2,0.2,0.3
		c0,0,0,0.1,0.1,0.1c0,0.1,0.1,0.1,0.1,0.2c0,0,0.1,0.1,0.1,0.1c0.7,0.9,1.6,1.6,2.7,2.1c1.8,0.8,3.8,0.9,5.7,0.2
		c1.9-0.7,3.3-2,4.2-3.8c0.5-1.1,0.7-2.2,0.7-3.3c0-0.1,0.1-0.2,0.2-0.2c0.1,0,0.2,0.1,0.2,0.2C17.7,14.2,17.4,15.4,16.9,16.5z"/>
	<path class="st0" d="M20.3,10l-1.7-0.9c0,0-0.1,0-0.1,0c0,0,0,0-0.1,0h0c0,0-0.1,0-0.1,0c0,0,0,0-0.1,0c0,0,0,0,0,0c0,0,0,0,0,0
		c0,0,0,0-0.1,0c0,0-0.1,0.1-0.1,0.1c0,0,0,0,0,0.1c0,0,0,0,0,0l-0.9,1.7c-0.1,0.2,0,0.5,0.2,0.6c0.1,0,0.1,0.1,0.2,0.1
		c0.2,0,0.3-0.1,0.4-0.3l0.4-0.7c0.2,0.8,0.3,1.6,0.3,2.4c0,4.9-4,8.9-8.8,8.9c-2.8,0-5.5-1.3-7.1-3.6c0,0,0,0,0,0
		c-1.1-1.5-1.7-3.3-1.7-5.3c0-4.9,4-8.8,8.9-8.8c2.7,0,5.3,1.2,6.9,3.4l-1.4,0.2c-0.2,0-0.3,0.1-0.4,0.3l-1.4,4h-2.2l0.3-1.9h1.3
		c0.3,0,0.5-0.2,0.5-0.5s-0.2-0.5-0.5-0.5h-8c-0.1,0-0.3,0.1-0.4,0.2C4.3,9.6,4.3,9.8,4.4,9.9l1.3,4.3v0c0,0,0,0,0,0l0,0
		c0,0,0,0,0,0l0.3,0.9c0.1,0.2,0.2,0.3,0.4,0.3H13c0.2,0,0.4-0.1,0.4-0.3l2.2-6.4l1.9-0.3l0,0c0.1,0,0.2-0.1,0.3-0.2c0,0,0,0,0,0
		C18,8.3,18,8.2,18,8.1c0,0,0,0,0-0.1c0,0,0,0,0-0.1c0,0,0-0.1,0-0.1c0,0,0,0,0-0.1c0,0,0,0,0,0c0,0,0,0,0-0.1
		c-0.6-0.9-1.3-1.6-2.1-2.3l0.7-1.2c0.1-0.1,0.1-0.2,0-0.4c0-0.1-0.1-0.2-0.2-0.3l-1.7-1c-0.2-0.1-0.5-0.1-0.6,0.2L13.2,4
		c-0.6-0.2-1.3-0.4-2-0.5V2.9h0.4c0.3,0,0.5-0.2,0.5-0.5v-2C12.2,0.2,12,0,11.7,0H7.9C7.6,0,7.4,0.2,7.4,0.5v2
		c0,0.3,0.2,0.5,0.5,0.5h0.4v0.6C7.6,3.6,7,3.8,6.3,4L5.6,2.8C5.5,2.6,5.2,2.5,5,2.7l-1.7,1C3.2,3.7,3.1,3.8,3,4c0,0.1,0,0.2,0,0.4
		l0.7,1.2C1.5,7.3,0,10.1,0,13.2c0,2.1,0.7,4.1,1.9,5.8c0,0,0,0,0,0l0,0c1.8,2.5,4.8,4,7.9,4c5.4,0,9.8-4.4,9.8-9.8
		c0-0.9-0.1-1.8-0.4-2.7l0.7,0.3c0.2,0.1,0.5,0,0.6-0.2C20.6,10.4,20.5,10.2,20.3,10z M6,12.2l-0.6-1.9h2.2l0.3,1.9H6z M6.7,14.6
		L6.5,14c0,0,0,0,0,0l-0.4-1.3H8l0.3,1.9C8.3,14.6,6.7,14.6,6.7,14.6z M10.4,14.6H8.7l-0.3-1.9h2.3L10.4,14.6z M8.4,12.2l-0.3-1.9h3
		l-0.3,1.9H8.4z M12.7,14.6h-1.8l0.3-1.9h2.2L12.7,14.6z M14.5,3.7l0.9,0.5L15,4.9c-0.3-0.2-0.6-0.4-0.9-0.5L14.5,3.7z M8.4,0.9h2.9
		v1h-0.4c-0.3,0-0.5,0.2-0.5,0.5v1c-0.2,0-0.4,0-0.6,0c-0.2,0-0.3,0-0.5,0v-1C9.3,2.2,9.1,2,8.8,2H8.4L8.4,0.9L8.4,0.9z M5.1,3.7
		l0.4,0.7C5.2,4.6,4.8,4.7,4.5,4.9L4.1,4.2L5.1,3.7z"/>
	<path class="st0" d="M18.2,9.2C18.2,9.2,18.2,9.2,18.2,9.2C18.2,9.2,18.2,9.2,18.2,9.2C18.2,9.2,18.2,9.2,18.2,9.2z"/>
</g>
</svg>
