<?xml version="1.0" encoding="utf-8"?>
<!-- Generator: Adobe Illustrator 23.0.3, SVG Export Plug-In . SVG Version: 6.00 Build 0)  -->
<svg version="1.1" xmlns="http://www.w3.org/2000/svg" xmlns:xlink="http://www.w3.org/1999/xlink" x="0px" y="0px"
	 viewBox="0 0 242.5 248.6" style="enable-background:new 0 0 242.5 248.6;" xml:space="preserve">
<style type="text/css">
	.st0{fill:none;stroke:#FFFFFF;stroke-width:12;stroke-linecap:round;stroke-linejoin:round;}
	.st1{fill:none;stroke:#FFFFFF;stroke-width:15;stroke-linecap:round;stroke-linejoin:round;}
	.st2{fill:none;stroke:#FFFFFF;stroke-width:7.5;stroke-linecap:round;stroke-linejoin:round;}
	.st3{fill:#FFFFFF;}
</style>
<g id="White_BG_1_">
	<path class="st0" d="M223.2,73.7c10.9,20.6,15.6,44.7,12.2,69.6c-8.8,63-66.9,106.9-129.9,98.2c-25.5-3.6-47.7-15-64.7-31.8"/>
	<polyline class="st0" points="172.5,6 180.2,28.3 157.9,36 	"/>
	<path class="st0" d="M40.8,209.6C15.5,184.9,1.9,149,7.1,111.3C15.9,48.3,74,4.4,137,13.1c15.8,2.2,30.3,7.5,43.2,15.1"/>
	<polyline class="st1" points="200.7,52 123.2,131.4 96.1,95.9 	"/>
	<line class="st2" x1="34.7" y1="127" x2="51.4" y2="127"/>
	<line class="st2" x1="191" y1="127" x2="207.7" y2="127"/>
	<line class="st2" x1="123.4" y1="196.8" x2="123.4" y2="213.5"/>
	<line class="st2" x1="123.4" y1="40.5" x2="123.4" y2="57.2"/>
</g>
<g id="Artwork_Kopie_Kopie">
	<g>
		<path class="st3" d="M121.6,248.6c-5.6,0-11.3-0.4-16.9-1.2c-26-3.6-49.6-15.2-68.1-33.5c-2.4-2.3-2.4-6.1-0.1-8.5
			c2.3-2.4,6.1-2.4,8.5-0.1c16.7,16.5,37.9,26.9,61.3,30.2c59.6,8.3,114.8-33.4,123.1-93c3.2-22.8-0.8-45.6-11.5-66
			c-1.5-2.9-0.4-6.6,2.5-8.1c2.9-1.5,6.6-0.4,8.1,2.5c11.9,22.6,16.3,47.9,12.8,73.2c-4.5,32-21.1,60.4-46.9,79.9
			C173.2,240.1,147.8,248.6,121.6,248.6z"/>
	</g>
	<g>
		<path class="st3" d="M157.9,42c-2.5,0-4.8-1.6-5.7-4c-1.1-3.1,0.6-6.5,3.7-7.6l16.6-5.7L166.8,8c-1.1-3.1,0.6-6.5,3.7-7.6
			c3.1-1.1,6.5,0.6,7.6,3.7l7.7,22.3c1.1,3.1-0.6,6.5-3.7,7.6l-22.3,7.7C159.2,41.9,158.5,42,157.9,42z"/>
	</g>
	<g>
		<path class="st3" d="M40.8,215.6c-1.5,0-3-0.6-4.2-1.7C9.1,187.1-4.1,148.4,1.2,110.5c4.5-32,21.1-60.4,46.9-79.9
			C73.9,11,105.8,2.7,137.8,7.2c16.2,2.3,31.5,7.6,45.4,15.9c2.8,1.7,3.8,5.4,2.1,8.2c-1.7,2.8-5.4,3.8-8.2,2.1
			c-12.5-7.5-26.3-12.3-40.9-14.4c-28.9-4-57.6,3.4-80.8,21c-23.3,17.6-38.3,43.2-42.3,72c-4.8,34.2,7.2,69,31.9,93.2
			c2.4,2.3,2.4,6.1,0.1,8.5C43.9,215,42.3,215.6,40.8,215.6z"/>
	</g>
	<g>
		<path class="st3" d="M123.2,138.9c-0.1,0-0.3,0-0.5,0c-2.2-0.1-4.2-1.2-5.5-2.9l-27.1-35.5c-2.5-3.3-1.9-8,1.4-10.5
			c3.3-2.5,8-1.9,10.5,1.4l21.8,28.6l71.4-73.3c2.9-3,7.6-3,10.6-0.1s3,7.6,0.1,10.6l-77.4,79.5
			C127.2,138.1,125.3,138.9,123.2,138.9z"/>
	</g>
	<g>
		<path class="st3" d="M51.4,130.7H34.7c-2.1,0-3.8-1.7-3.8-3.8s1.7-3.8,3.8-3.8h16.7c2.1,0,3.8,1.7,3.8,3.8S53.5,130.7,51.4,130.7z
			"/>
	</g>
	<g>
		<path class="st3" d="M207.7,130.7H191c-2.1,0-3.8-1.7-3.8-3.8s1.7-3.8,3.8-3.8h16.7c2.1,0,3.8,1.7,3.8,3.8
			S209.8,130.7,207.7,130.7z"/>
	</g>
	<g>
		<path class="st3" d="M123.4,217.2c-2.1,0-3.8-1.7-3.8-3.8v-16.7c0-2.1,1.7-3.8,3.8-3.8s3.8,1.7,3.8,3.8v16.7
			C127.2,215.5,125.5,217.2,123.4,217.2z"/>
	</g>
	<g>
		<path class="st3" d="M123.4,61c-2.1,0-3.8-1.7-3.8-3.8V40.5c0-2.1,1.7-3.8,3.8-3.8s3.8,1.7,3.8,3.8v16.7
			C127.2,59.3,125.5,61,123.4,61z"/>
	</g>
</g>
</svg>
