<?xml version="1.0" encoding="utf-8"?>
<!-- Generator: Adobe Illustrator 21.1.0, SVG Export Plug-In . SVG Version: 6.00 Build 0)  -->
<svg version="1.1" id="Ebene_1" xmlns="http://www.w3.org/2000/svg" xmlns:xlink="http://www.w3.org/1999/xlink" x="0px" y="0px"
	 viewBox="0 0 38.02 46.31" style="enable-background:new 0 0 38.02 46.31;" xml:space="preserve">
<style type="text/css">
	.st0{fill:#FEC700;}
	.st1{fill:#52AE32;}
	.st2{fill:#009FE3;}
	.st3{fill:#FDC600;}
	.st4{fill:url(#SVGID_1_);}
</style>
<g>
	<g>
		<path class="st0" d="M4.25,39.28c-0.26,0-0.52-0.12-0.69-0.35C1.23,35.82,0,32.1,0,28.17c0-9.98,8.12-18.1,18.1-18.1
			c6.1,0,11.74,3.04,15.11,8.13c0.26,0.4,0.15,0.93-0.24,1.19c-0.4,0.26-0.93,0.15-1.19-0.24c-3.05-4.61-8.16-7.35-13.67-7.35
			c-9.03,0-16.37,7.35-16.37,16.37c0,3.55,1.11,6.92,3.21,9.74c0.28,0.38,0.21,0.92-0.18,1.2C4.6,39.23,4.42,39.28,4.25,39.28z"/>
	</g>
	<g>
		<path class="st0" d="M18.15,14.95c-0.24,0-0.43-0.19-0.43-0.43v-2.49c0-0.24,0.19-0.43,0.43-0.43s0.43,0.19,0.43,0.43v2.49
			C18.58,14.76,18.39,14.95,18.15,14.95z"/>
	</g>
	<g>
		<path class="st1" d="M22.25,38.74c-1.51,0-2.75-1.23-2.75-2.75s1.23-2.75,2.75-2.75c1.51,0,2.75,1.23,2.75,2.75
			S23.77,38.74,22.25,38.74z M22.25,34.97c-0.56,0-1.02,0.46-1.02,1.02s0.46,1.02,1.02,1.02c0.56,0,1.02-0.46,1.02-1.02
			C23.28,35.43,22.82,34.97,22.25,34.97z"/>
	</g>
	<g>
		<path class="st1" d="M13.59,38.74c-1.51,0-2.75-1.23-2.75-2.75s1.23-2.75,2.75-2.75c1.51,0,2.75,1.23,2.75,2.75
			S15.11,38.74,13.59,38.74z M13.59,34.97c-0.56,0-1.02,0.46-1.02,1.02s0.46,1.02,1.02,1.02s1.02-0.46,1.02-1.02
			C14.62,35.43,14.16,34.97,13.59,34.97z"/>
	</g>
	<g>
		<path class="st2" d="M9.86,27.14c-0.24,0-0.43-0.19-0.43-0.43s0.19-0.43,0.43-0.43H26.2c0.24,0,0.43,0.19,0.43,0.43
			s-0.19,0.43-0.43,0.43H9.86z"/>
	</g>
	<g>
		<path class="st1" d="M11.74,32.46c-0.37,0-0.71-0.24-0.82-0.61l-2.87-9.73c-0.08-0.26-0.03-0.54,0.13-0.75
			c0.16-0.22,0.41-0.34,0.68-0.34h14.85c0.47,0,0.85,0.38,0.85,0.85c0,0.47-0.38,0.85-0.85,0.85h-13.7l2.55,8.63
			c0.13,0.45-0.13,0.93-0.58,1.06C11.9,32.45,11.82,32.46,11.74,32.46z"/>
	</g>
	<g>
		<path class="st1" d="M15.91,32.47c-0.21,0-0.39-0.15-0.43-0.37l-1.52-10.58c-0.03-0.24,0.13-0.45,0.36-0.49
			c0.23-0.03,0.45,0.13,0.49,0.36l1.52,10.58c0.03,0.24-0.13,0.45-0.36,0.49C15.95,32.47,15.93,32.47,15.91,32.47z"/>
	</g>
	<g>
		<path class="st1" d="M19.58,32.47c-0.02,0-0.04,0-0.06,0c-0.24-0.03-0.4-0.25-0.36-0.49l1.52-10.58c0.03-0.24,0.25-0.4,0.49-0.36
			c0.24,0.03,0.4,0.25,0.36,0.49L20.01,32.1C19.98,32.32,19.8,32.47,19.58,32.47z"/>
	</g>
	<g>
		<path class="st2" d="M32.41,25.5c-0.13,0-0.26-0.03-0.39-0.09c-0.42-0.22-0.59-0.73-0.38-1.16l1.6-3.15
			c0.1-0.2,0.28-0.36,0.5-0.43s0.45-0.05,0.66,0.05l3.15,1.6c0.42,0.22,0.59,0.73,0.38,1.16c-0.22,0.42-0.73,0.59-1.16,0.38
			l-2.38-1.21l-1.21,2.38C33.02,25.33,32.72,25.5,32.41,25.5z"/>
	</g>
	<g>
		<path class="st2" d="M18.1,42.71c-2.1,0-4.19-0.46-6.14-1.37c-3.41-1.59-6.03-4.42-7.41-7.9c-0.09-0.22,0.02-0.47,0.24-0.56
			s0.47,0.02,0.56,0.24c1.29,3.3,3.76,5.93,6.97,7.43c3.32,1.55,7.04,1.71,10.47,0.46c3.44-1.25,6.18-3.77,7.73-7.08
			c0.91-1.96,1.34-4.04,1.28-6.18c-0.01-0.24,0.18-0.44,0.42-0.44c0.24-0.01,0.44,0.18,0.44,0.42c0.07,2.28-0.39,4.49-1.36,6.57
			c-1.64,3.52-4.56,6.2-8.22,7.53C21.47,42.42,19.78,42.71,18.1,42.71z"/>
	</g>
	<g>
		<path class="st0" d="M7.13,37.47c-0.13,0-0.25-0.05-0.33-0.16c-1.69-2.09-2.77-4.61-3.12-7.27C3.31,27.29,3.74,24.51,4.92,22
			c3.39-7.28,12.07-10.43,19.35-7.04c0.95,0.44,1.85,0.99,2.68,1.61c0.19,0.14,0.23,0.41,0.08,0.6c-0.14,0.19-0.41,0.23-0.6,0.08
			c-0.78-0.59-1.63-1.1-2.52-1.52c-6.85-3.19-15.01-0.22-18.2,6.63c-2.23,4.78-1.55,10.31,1.77,14.41c0.15,0.18,0.12,0.46-0.06,0.61
			C7.32,37.44,7.23,37.47,7.13,37.47z"/>
	</g>
	<g>
		<path class="st0" d="M28.2,11.11c-0.15,0-0.29-0.04-0.43-0.12c-0.41-0.24-0.55-0.76-0.32-1.18l1.13-1.96l-1.74-1l-1.13,1.96
			c-0.24,0.41-0.76,0.55-1.18,0.32c-0.41-0.24-0.55-0.76-0.32-1.18l1.56-2.71c0.24-0.41,0.76-0.55,1.18-0.32L30.2,6.8
			c0.2,0.11,0.34,0.3,0.4,0.52s0.03,0.46-0.09,0.65l-1.56,2.71C28.79,10.96,28.5,11.11,28.2,11.11z"/>
	</g>
	<g>
		<path class="st3" d="M8.04,11.11c-0.3,0-0.59-0.15-0.75-0.43l-1.56-2.7c-0.11-0.2-0.15-0.43-0.09-0.65C5.7,7.1,5.85,6.91,6.04,6.8
			l3.23-1.86c0.41-0.24,0.94-0.1,1.18,0.32l1.56,2.71c0.24,0.41,0.1,0.94-0.32,1.18c-0.41,0.24-0.94,0.1-1.18-0.32L9.39,6.86
			l-1.74,1l1.13,1.96c0.24,0.41,0.1,0.94-0.32,1.18C8.33,11.08,8.18,11.11,8.04,11.11z"/>
	</g>
	<g>
		<path class="st0" d="M20,7.97c-0.48,0-0.86-0.39-0.86-0.86V4.49c0-0.48,0.39-0.86,0.86-0.86h0.81V1.72h-5.35v1.91h0.81
			c0.48,0,0.86,0.39,0.86,0.86v2.62c0,0.48-0.39,0.86-0.86,0.86c-0.48,0-0.86-0.39-0.86-0.86V5.35H14.6c-0.48,0-0.86-0.39-0.86-0.86
			V0.86C13.74,0.38,14.13,0,14.6,0h7.07c0.48,0,0.86,0.39,0.86,0.86v3.63c0,0.48-0.39,0.86-0.86,0.86h-0.81v1.76
			C20.87,7.59,20.48,7.97,20,7.97z"/>
	</g>
	<g>
		
			<linearGradient id="SVGID_1_" gradientUnits="userSpaceOnUse" x1="36.21" y1="14.5251" x2="3.383" y2="14.5251" gradientTransform="matrix(1 0 0 -1 0 48)">
			<stop  offset="0" style="stop-color:#009FE3"/>
			<stop  offset="1" style="stop-color:#004077"/>
		</linearGradient>
		<path class="st4" d="M18.13,46.31c-5.73,0-11.18-2.76-14.58-7.37c-0.28-0.38-0.2-0.92,0.18-1.2c0.38-0.28,0.92-0.2,1.2,0.18
			c3.08,4.18,8.01,6.67,13.19,6.67c9.03,0,16.37-7.35,16.37-16.37c0-2.21-0.43-4.36-1.29-6.38c-0.19-0.44,0.02-0.94,0.46-1.13
			c0.44-0.19,0.94,0.02,1.13,0.46c0.94,2.23,1.42,4.6,1.42,7.05C36.23,38.19,28.11,46.31,18.13,46.31z"/>
	</g>
	<g>
		<path class="st1" d="M24.06,32.47H11.74c-0.38,0-0.72-0.25-0.83-0.62l-0.5-1.68c-0.13-0.46,0.13-0.93,0.58-1.07
			c0.46-0.13,0.93,0.13,1.07,0.58l0.31,1.06h11.06l4.12-11.79c0.11-0.3,0.37-0.52,0.69-0.57l4.11-0.57
			c0.47-0.07,0.91,0.26,0.97,0.73c0.07,0.47-0.26,0.91-0.73,0.97L29,20.01l-4.15,11.87C24.75,32.24,24.42,32.47,24.06,32.47z"/>
	</g>
</g>
</svg>
