<?xml version="1.0" encoding="utf-8"?>
<!-- Generator: Adobe Illustrator 21.1.0, SVG Export Plug-In . SVG Version: 6.00 Build 0)  -->
<svg version="1.1" id="Ebene_1" xmlns="http://www.w3.org/2000/svg" xmlns:xlink="http://www.w3.org/1999/xlink" x="0px" y="0px"
	 viewBox="0 0 34.58 38.7" style="enable-background:new 0 0 34.58 38.7;" xml:space="preserve">
<style type="text/css">
	.st0{fill:#004077;}
</style>
<g>
	<path class="st0" d="M30.23,13.18c-0.02-0.04-0.04-0.07-0.07-0.11c0.02,0.02,0.03,0.04,0.04,0.06
		C30.22,13.15,30.22,13.17,30.23,13.18z"/>
	<path class="st0" d="M16.51,13.6c-0.22,0-0.39-0.18-0.39-0.39v-2.27c0-0.22,0.18-0.39,0.39-0.39s0.39,0.18,0.39,0.39v2.27
		C16.9,13.43,16.73,13.6,16.51,13.6z"/>
	<path class="st0" d="M20.24,26.82c-1.38,0-2.5,1.12-2.5,2.5c0,1.38,1.12,2.5,2.5,2.5c1.38,0,2.5-1.12,2.5-2.5
		C22.74,27.95,21.62,26.82,20.24,26.82z M20.24,30.26c-0.51,0-0.93-0.42-0.93-0.93c0-0.51,0.42-0.93,0.93-0.93
		c0.51,0,0.93,0.42,0.93,0.93C21.17,29.84,20.75,30.26,20.24,30.26z"/>
	<path class="st0" d="M12.36,26.82c-1.38,0-2.5,1.12-2.5,2.5c0,1.38,1.12,2.5,2.5,2.5c1.38,0,2.5-1.12,2.5-2.5
		C14.86,27.95,13.74,26.82,12.36,26.82z M12.36,30.26c-0.51,0-0.93-0.42-0.93-0.93c0-0.51,0.42-0.93,0.93-0.93s0.93,0.42,0.93,0.93
		C13.29,29.84,12.88,30.26,12.36,30.26z"/>
	<path class="st0" d="M30.78,15.37c-0.04,0.01-0.08,0.02-0.12,0.04c0.01-0.01,0.02-0.01,0.04-0.02
		C30.72,15.38,30.75,15.37,30.78,15.37z"/>
	<path class="st0" d="M5.64,28.34c-0.31-0.54-0.58-1.1-0.8-1.67c0.01,0.02,0.02,0.04,0.03,0.05C5.09,27.28,5.35,27.82,5.64,28.34z"
		/>
	<path class="st0" d="M28.48,27.78c-1.49,3.2-4.15,5.64-7.47,6.85c-1.48,0.53-3.01,0.8-4.53,0.8c-1.91,0-3.81-0.42-5.59-1.25
		c-1.84-0.86-3.44-2.11-4.68-3.65c-0.01,0-0.01-0.01-0.02-0.01c-0.29-0.37-0.57-0.75-0.82-1.14C5.3,29.3,5.25,29.21,5.2,29.13
		c-0.05-0.08-0.09-0.16-0.14-0.23c-0.05-0.08-0.09-0.16-0.14-0.24c-0.2-0.36-0.39-0.74-0.56-1.12c-0.05-0.12-0.11-0.24-0.15-0.36
		c-0.03-0.06-0.05-0.13-0.08-0.19C3.75,26,3.48,24.96,3.34,23.91c-0.33-2.49,0.06-5.02,1.13-7.31c3.09-6.62,10.98-9.49,17.6-6.41
		c0.86,0.4,1.68,0.9,2.43,1.47c0.17,0.13,0.21,0.38,0.07,0.55c-0.13,0.18-0.38,0.21-0.55,0.08c-0.71-0.54-1.48-1-2.29-1.38
		c-6.23-2.9-13.66-0.2-16.56,6.03c-1.47,3.14-1.55,6.64-0.34,9.74v0c0.22,0.57,0.49,1.13,0.8,1.67c0,0.01,0,0.01,0.01,0.02
		c0.09,0.17,0.19,0.33,0.29,0.49c0,0,0,0,0,0.01c0.09,0.14,0.18,0.29,0.28,0.43c0.04,0.06,0.08,0.12,0.13,0.18
		c0.06,0.09,0.13,0.18,0.19,0.26c0.04,0.06,0.09,0.12,0.14,0.18c1.19,1.52,2.73,2.74,4.52,3.58c3.02,1.41,6.4,1.56,9.53,0.42
		c3.13-1.13,5.62-3.42,7.03-6.44c0.83-1.78,1.22-3.67,1.17-5.62c-0.01-0.22,0.16-0.4,0.38-0.4c0.21-0.01,0.4,0.16,0.4,0.38
		C29.78,23.88,29.36,25.89,28.48,27.78z"/>
	<path class="st0" d="M34.15,16.9l-2.86-1.46c-0.08-0.04-0.16-0.07-0.24-0.08c-0.03,0-0.07-0.01-0.1-0.01h-0.01
		c-0.05,0-0.1,0-0.15,0.02c-0.04,0.01-0.08,0.02-0.12,0.04c-0.03,0.01-0.05,0.02-0.08,0.03c-0.01,0-0.02,0.01-0.04,0.02
		c-0.04,0.02-0.08,0.05-0.11,0.08c-0.05,0.04-0.09,0.09-0.12,0.14c-0.02,0.03-0.04,0.06-0.06,0.09c-0.01,0.01-0.02,0.02-0.02,0.04
		l-1.44,2.84c-0.2,0.38-0.04,0.85,0.34,1.05c0.11,0.06,0.24,0.09,0.36,0.09c0.29,0,0.56-0.16,0.7-0.43l0.63-1.24
		c0.39,1.33,0.58,2.71,0.58,4.12c0,8.22-6.68,14.9-14.89,14.9c-4.71,0-9.2-2.27-12-6.07c0,0,0,0-0.01-0.01
		c-1.91-2.56-2.92-5.62-2.92-8.86c0-8.21,6.69-14.89,14.9-14.89c4.59,0,8.87,2.09,11.69,5.66l-2.44,0.34
		c-0.29,0.04-0.53,0.24-0.63,0.52l-2.33,6.66h-3.78l0.46-3.22h2.15c0.43,0,0.78-0.35,0.78-0.78c0-0.43-0.35-0.78-0.78-0.78H8.07
		c-0.24,0-0.48,0.12-0.62,0.31c-0.15,0.2-0.19,0.45-0.12,0.68l2.13,7.21c0,0,0,0.01,0,0.01c0,0,0,0.01,0,0.02v0
		c0,0.03,0.01,0.05,0.02,0.08l0.45,1.53c0.1,0.33,0.4,0.56,0.75,0.56h11.2c0.33,0,0.63-0.21,0.74-0.52l3.78-10.8l3.26-0.45h0
		c0.2-0.03,0.38-0.13,0.49-0.28c0.02-0.02,0.04-0.05,0.06-0.08c0.05-0.09,0.09-0.18,0.11-0.29c0.01-0.04,0.01-0.08,0.01-0.12
		c0-0.04,0-0.07-0.01-0.11c-0.01-0.06-0.02-0.12-0.04-0.17c-0.01-0.03-0.02-0.07-0.04-0.09c0,0,0-0.01-0.01-0.01
		c-0.02-0.04-0.04-0.07-0.07-0.11c-0.99-1.48-2.19-2.77-3.55-3.84l1.14-1.98c0.11-0.18,0.13-0.4,0.08-0.6
		c-0.06-0.2-0.19-0.37-0.37-0.47l-2.93-1.7c-0.38-0.21-0.85-0.09-1.07,0.29l-1.17,2.03c-1.06-0.4-2.17-0.7-3.31-0.87V4.87h0.74
		c0.43,0,0.78-0.35,0.78-0.78v-3.3C20.5,0.35,20.15,0,19.72,0h-6.43c-0.43,0-0.78,0.35-0.78,0.78v3.3c0,0.43,0.35,0.78,0.78,0.78
		h0.74v1.06c-1.16,0.17-2.29,0.47-3.36,0.87L9.5,4.78C9.29,4.4,8.8,4.28,8.43,4.49L5.5,6.19c-0.18,0.1-0.31,0.27-0.37,0.47
		c-0.05,0.2-0.02,0.42,0.08,0.6l1.14,1.97C2.49,12.24,0,16.94,0,22.2c0,3.57,1.11,6.95,3.22,9.78c0,0,0,0,0,0.01c0,0,0,0,0,0
		c3.09,4.2,8.05,6.71,13.26,6.71c9.08,0,16.46-7.39,16.46-16.46c0-1.54-0.21-3.06-0.63-4.52l1.12,0.57c0.38,0.2,0.86,0.04,1.05-0.34
		C34.69,17.56,34.54,17.09,34.15,16.9z M10.06,20.49l-0.95-3.22h3.75l0.47,3.22H10.06z M11.26,24.55l-0.29-0.97
		c-0.01-0.02-0.01-0.04-0.02-0.06l-0.66-2.25h3.14l0.47,3.28H11.26z M17.59,24.55h-2.89l-0.47-3.28l3.83,0L17.59,24.55z
		 M14.11,20.49l-0.46-3.22h4.98l-0.46,3.22L14.11,20.49z M21.33,24.55h-2.95l0.47-3.28h3.62L21.33,24.55z M24.42,6.24L26,7.15
		l-0.68,1.18C24.81,8,24.28,7.7,23.74,7.43L24.42,6.24z M14.07,1.57h4.87V3.3H18.2c-0.43,0-0.78,0.35-0.78,0.78v1.69
		c-0.31-0.02-0.63-0.03-0.95-0.03c-0.29,0-0.58,0.01-0.87,0.02V4.09c0-0.43-0.35-0.78-0.78-0.78h-0.74V1.57z M8.53,6.24l0.69,1.18
		C8.67,7.69,8.14,7.99,7.63,8.32L6.96,7.15L8.53,6.24z"/>
	<path class="st0" d="M30.66,15.41c-0.03,0.01-0.05,0.02-0.08,0.03c0.02-0.01,0.03-0.02,0.05-0.02
		C30.64,15.41,30.65,15.41,30.66,15.41z"/>
</g>
</svg>
