<?xml version="1.0" encoding="utf-8"?>
<!-- Generator: Adobe Illustrator 21.1.0, SVG Export Plug-In . SVG Version: 6.00 Build 0)  -->
<svg version="1.1" id="Ebene_1" xmlns="http://www.w3.org/2000/svg" xmlns:xlink="http://www.w3.org/1999/xlink" x="0px" y="0px"
	 viewBox="0 0 272.8 29.6" style="enable-background:new 0 0 272.8 29.6;" xml:space="preserve">
<style type="text/css">
	.st0{fill:#004077;}
	.st1{fill:#009E3D;}
	.st2{fill:#009FE3;}
	.st3{fill:#003330;}
	.st4{fill:#FEC700;}
	.st5{display:none;}
	.st6{display:inline;}
	.st7{fill:#E6007E;}
</style>
<g id="HD_x5F_Logo_x5F_color_x5F_4C">
	<g>
		<path class="st0" d="M35.8,1.3c0-0.4-0.3-0.7-0.7-0.7h-5.2c-0.4,0-0.7,0.3-0.7,0.7v10.1h-11V18h11.1v10.1c0,0.4,0.3,0.7,0.7,0.7
			h5.2c0.4,0,0.7-0.3,0.7-0.7L35.8,1.3z"/>
		<path class="st1" d="M18.2,11.5h-6.6V3.3c0-1.8,1.5-3.3,3.3-3.3s3.3,1.5,3.3,3.3l0,0C18.2,3.3,18.2,11.5,18.2,11.5z"/>
		<path class="st2" d="M18.2,18.1h-6.6v10.1c0,0.4,0.3,0.7,0.7,0.7h5.1c0.4,0,0.7-0.3,0.7-0.7L18.2,18.1L18.2,18.1z"/>
		<path class="st0" d="M158.8,23.3c0-0.4-0.3-0.7-0.7-0.7h-12.6V1.3c0-0.4-0.3-0.7-0.7-0.7h-5.2c-0.4,0-0.7,0.3-0.7,0.7v26.9
			c0,0.4,0.3,0.7,0.7,0.7h18.5c0.4,0,0.7-0.3,0.7-0.7V23.3z"/>
		<path class="st0" d="M92.5,0.6h-11c-0.4,0-0.7,0.3-0.7,0.7v26.9c0,0.4,0.3,0.7,0.7,0.7h10.8c8.7,0,14.6-6,14.6-14.2
			C107,6.4,101.1,0.6,92.5,0.6 M100,14.9c0,4.8-3.3,8.1-8.1,8.1l-4.5-0.1V6.7h4.5C96.6,6.7,100,9.8,100,14.9"/>
		<path class="st0" d="M75.5,1.3c0-0.4-0.3-0.7-0.7-0.7h-5.2c-0.4,0-0.7,0.3-0.7,0.7v26.9c0,0.4,0.3,0.7,0.7,0.7h5.2
			c0.4,0,0.7-0.3,0.7-0.7V1.3z"/>
		<path class="st0" d="M63,0.6H41.7c-0.4,0-0.7,0.3-0.7,0.7v5C41,6.7,41.3,7,41.7,7h21.2c0.4,0,0.7-0.3,0.7-0.7v-5
			C63.7,1,63.4,0.6,63,0.6"/>
		<path class="st0" d="M63,11.6H41.7c-0.4,0-0.7,0.3-0.7,0.7v5c0,0.4,0.3,0.7,0.7,0.7h21.2c0.4,0,0.7-0.3,0.7-0.7v-5
			C63.7,11.9,63.4,11.6,63,11.6"/>
		<path class="st0" d="M63.7,23.3c0-0.4-0.3-0.7-0.7-0.7H41.7c-0.4,0-0.7,0.3-0.7,0.7v5c0,0.4,0.3,0.7,0.7,0.7h21.2
			c0.4,0,0.7-0.3,0.7-0.7v-5H63.7z"/>
		<path class="st0" d="M133.1,0.6h-21.2c-0.4,0-0.7,0.3-0.7,0.7v5c0,0.4,0.3,0.7,0.7,0.7h21.2c0.4,0,0.7-0.3,0.7-0.7v-5
			C133.8,1,133.5,0.6,133.1,0.6"/>
		<path class="st0" d="M133.1,11.6h-21.2c-0.4,0-0.7,0.3-0.7,0.7v5c0,0.4,0.3,0.7,0.7,0.7h21.2c0.4,0,0.7-0.3,0.7-0.7v-5
			C133.8,11.9,133.5,11.6,133.1,11.6"/>
		<path class="st0" d="M133.8,23.3c0-0.4-0.3-0.7-0.7-0.7h-21.2c-0.4,0-0.7,0.3-0.7,0.7v5c0,0.4,0.3,0.7,0.7,0.7h21.2
			c0.4,0,0.7-0.3,0.7-0.7V23.3z"/>
		<path class="st0" d="M182.9,14.1c2.2-1.4,3.3-3.4,3.3-6c0-3.6-2.8-7.5-9.4-7.5H164c-0.4,0-0.7,0.3-0.7,0.7v26.9
			c0,0.4,0.3,0.7,0.7,0.7h14c5.1,0,9.5-3,9.5-8C187.5,17.9,186.3,15.5,182.9,14.1 M169.6,6.5h7.1c1.7,0,3,1.2,3,2.7s-1.2,2.7-3,2.7
			h-7.1V6.5z M177.6,23h-8v-5.6h8c2.1,0,3.2,1.5,3.2,2.8C180.8,21.6,179.6,23,177.6,23"/>
		<path class="st0" d="M272.8,12.9c0-0.4-0.3-0.7-0.7-0.7h-11.8c-0.4,0-0.7,0.3-0.7,0.7v4.4c0,0.4,0.3,0.7,0.7,0.7h6v3.9
			c-1.2,0.9-3.4,1.6-5.5,1.6c-4.7,0-8.4-3.6-8.4-8.6c0-4.9,3.9-8.5,8-8.5c2.6,0,4.6,0.5,6.8,2.3c0.1,0.1,0.3,0.2,0.5,0.2
			s0.4-0.1,0.5-0.3l3.1-4c0.2-0.2,0.2-0.4,0.2-0.5c0-0.2-0.2-0.4-0.3-0.5c-3.1-2.5-6.1-3.3-10.6-3.3c-8.1,0-14.9,6.2-14.9,14.7
			s6.2,14.6,14.9,14.6c6.3,0,10.3-3,11.4-3.9c0.5-0.4,0.8-1,0.8-1.7V12.9z"/>
		<path class="st0" d="M214.2,1.3c0-0.4-0.3-0.7-0.7-0.7h-21.2c-0.4,0-0.7,0.3-0.7,0.7v5c0,0.4,0.3,0.7,0.7,0.7h21.2
			c0.4,0,0.7-0.3,0.7-0.7V1.3z"/>
		<path class="st0" d="M214.2,12.3c0-0.4-0.3-0.7-0.7-0.7h-21.2c-0.4,0-0.7,0.3-0.7,0.7v5c0,0.4,0.3,0.7,0.7,0.7h21.2
			c0.4,0,0.7-0.3,0.7-0.7V12.3z"/>
		<path class="st0" d="M214.2,23.3c0-0.4-0.3-0.7-0.7-0.7h-21.2c-0.4,0-0.7,0.3-0.7,0.7v5c0,0.4,0.3,0.7,0.7,0.7h21.2
			c0.4,0,0.7-0.3,0.7-0.7V23.3z"/>
		<path class="st0" d="M243.7,29c0.2,0,0.5-0.1,0.6-0.3s0.1-0.5,0-0.7L237,17.6c3.7-1.3,5.6-4.3,5.6-8c0-3.6-2.2-9-8.9-9h-13.6
			c-0.4,0-0.7,0.3-0.7,0.7v26.9c0,0.4,0.3,0.7,0.7,0.7h5.2c0.4,0,0.7-0.3,0.7-0.7V18h3.6l7,10.2c0.3,0.5,0.9,0.8,1.4,0.8H243.7z
			 M226,6.5h7.4c1.7,0,2.9,1.5,2.9,3s-1.1,2.9-2.9,2.9H226V6.5z"/>
		<rect x="11.5" y="11.5" class="st3" width="6.6" height="6.6"/>
		<path class="st4" d="M11.5,11.5v6.6H3.3c-1.8,0-3.3-1.5-3.3-3.3s1.5-3.3,3.3-3.3l0,0C3.3,11.5,11.5,11.5,11.5,11.5z"/>
	</g>
</g>
<g id="protection_zone" class="st5">
	<g class="st6">
		<path class="st7" d="M289.1-27.7h-8v0.5h8V-27.7L289.1-27.7z M277.2-27.7h-8v0.5h8V-27.7L277.2-27.7z M265.2-27.7h-8v0.5h8V-27.7
			L265.2-27.7z M253.2-27.7h-8v0.5h8V-27.7L253.2-27.7z M241.2-27.7h-8v0.5h8V-27.7L241.2-27.7z M229.2-27.7h-8v0.5h8V-27.7
			L229.2-27.7z M217.3-27.7h-8v0.5h8V-27.7L217.3-27.7z M205.3-27.7h-8v0.5h8V-27.7L205.3-27.7z M193.3-27.7h-8v0.5h8V-27.7
			L193.3-27.7z M181.3-27.7h-8v0.5h8V-27.7L181.3-27.7z M169.4-27.7h-8v0.5h8V-27.7L169.4-27.7z M157.4-27.7h-8v0.5h8V-27.7
			L157.4-27.7z M145.4-27.7h-8v0.5h8V-27.7L145.4-27.7z M133.4-27.7h-8v0.5h8V-27.7L133.4-27.7z M121.5-27.7h-8v0.5h8V-27.7
			L121.5-27.7z M109.5-27.7h-8v0.5h8V-27.7L109.5-27.7z M97.5-27.7h-8v0.5h8V-27.7L97.5-27.7z M85.5-27.7h-8v0.5h8V-27.7L85.5-27.7z
			 M73.5-27.7h-8v0.5h8V-27.7L73.5-27.7z M61.6-27.7h-8v0.5h8V-27.7L61.6-27.7z M49.6-27.7h-8v0.5h8V-27.7L49.6-27.7z M37.6-27.7h-8
			v0.5h8V-27.7L37.6-27.7z M25.6-27.7h-8v0.5h8V-27.7L25.6-27.7z M13.7-27.7h-8v0.5h8V-27.7L13.7-27.7z M1.7-27.7h-8v0.5h8V-27.7
			L1.7-27.7z M-10.3-27.7h-8v0.5h8V-27.7L-10.3-27.7z M-22.3-27.7h-5.4v0.5l0,0c0,0.7,0,2,0,2h0.5v-2h4.9L-22.3-27.7L-22.3-27.7z
			 M-27.2-21.2h-0.5v8h0.5V-21.2L-27.2-21.2z M-27.2-9.2h-0.5v8h0.5V-9.2L-27.2-9.2z M-27.2,2.8h-0.5v8h0.5V2.8L-27.2,2.8z
			 M-27.2,14.8h-0.5v8h0.5V14.8L-27.2,14.8z M-27.2,26.7h-0.5v8h0.5V26.7L-27.2,26.7z M-27.2,38.7h-0.5v8h0.5V38.7L-27.2,38.7z
			 M-27.2,50.7h-0.5v6.6h0.5l0,0l0,0l0,0l0,0c0.4,0,0.8,0,0.8,0v-0.5h-0.8V50.7L-27.2,50.7z M-14.4,56.8h-8v0.5h8V56.8L-14.4,56.8z
			 M-2.4,56.8h-8v0.5h8V56.8L-2.4,56.8z M9.6,56.8h-8v0.5h8V56.8L9.6,56.8z M21.5,56.8h-8v0.5h8V56.8L21.5,56.8z M33.5,56.8h-8v0.5
			h8V56.8L33.5,56.8z M45.5,56.8h-8v0.5h8V56.8L45.5,56.8z M57.5,56.8h-8v0.5h8V56.8L57.5,56.8z M69.5,56.8h-8v0.5h8V56.8L69.5,56.8
			z M81.4,56.8h-8v0.5h8V56.8L81.4,56.8z M93.4,56.8h-8v0.5h8V56.8L93.4,56.8z M105.4,56.8h-8v0.5h8V56.8L105.4,56.8z M117.4,56.8
			h-8v0.5h8V56.8L117.4,56.8z M129.3,56.8h-8v0.5h8V56.8L129.3,56.8z M141.3,56.8h-8v0.5h8V56.8L141.3,56.8z M153.3,56.8h-8v0.5h8
			V56.8L153.3,56.8z M165.3,56.8h-8v0.5h8V56.8L165.3,56.8z M177.2,56.8h-8v0.5h8V56.8L177.2,56.8z M189.2,56.8h-8v0.5h8V56.8
			L189.2,56.8z M201.2,56.8h-8v0.5h8V56.8L201.2,56.8z M213.2,56.8h-8v0.5h8V56.8L213.2,56.8z M225.2,56.8h-8v0.5h8V56.8L225.2,56.8
			z M237.1,56.8h-8v0.5h8V56.8L237.1,56.8z M249.1,56.8h-8v0.5h8V56.8L249.1,56.8z M261.1,56.8h-8v0.5h8V56.8L261.1,56.8z
			 M273.1,56.8h-8v0.5h8V56.8L273.1,56.8z M285,56.8h-8v0.5h8V56.8L285,56.8z M297,56.8h-8v0.5h8V56.8L297,56.8z M301.1,49.4h-0.5
			v7.9h0.4l0,0h-0.4h0.4l0,0h0.1V49.4L301.1,49.4z M301.1,37.5h-0.5v8h0.5V37.5L301.1,37.5z M301.1,25.5h-0.5v8h0.5V25.5L301.1,25.5
			z M301.1,13.5h-0.5v8h0.5V13.5L301.1,13.5z M301.1,1.5h-0.5v8h0.5V1.5L301.1,1.5z M301.1-10.5h-0.5v8h0.5V-10.5L301.1-10.5z
			 M301.1-22.4h-0.5v8h0.5V-22.4L301.1-22.4z M301.1-27.7h-8v0.5h7.5v0.8h0.5V-27.7L301.1-27.7z"/>
	</g>
</g>
</svg>
