<?xml version="1.0" encoding="utf-8"?>
<!-- Generator: Adobe Illustrator 21.1.0, SVG Export Plug-In . SVG Version: 6.00 Build 0)  -->
<svg version="1.1" id="Ebene_1" xmlns="http://www.w3.org/2000/svg" xmlns:xlink="http://www.w3.org/1999/xlink" x="0px" y="0px"
	 viewBox="0 0 35.7 35.7" style="enable-background:new 0 0 35.7 35.7;" xml:space="preserve">
<style type="text/css">
	.st0{fill:#FFFFFF;}
</style>
<path class="st0" d="M17.9,0C8,0,0,8,0,17.8s8,17.9,17.9,17.9s17.9-8,17.9-17.9S27.7,0,17.9,0z M19.1,26c-0.4,0.4-0.8,0.5-1.3,0.5
	s-1-0.2-1.3-0.5c-0.4-0.4-0.5-0.8-0.5-1.3s0.2-1,0.5-1.3c0.4-0.4,0.8-0.5,1.3-0.5s1,0.2,1.3,0.5c0.4,0.4,0.5,0.8,0.5,1.3
	C19.6,25.2,19.5,25.6,19.1,26z M22.3,14.4c-0.1,0.4-0.2,0.7-0.4,1c-0.2,0.3-0.4,0.6-0.6,0.8c-0.2,0.2-0.4,0.5-0.6,0.7
	c-0.2,0.2-0.4,0.4-0.6,0.7c-0.2,0.2-0.3,0.5-0.4,0.8c-0.1,0.3-0.2,0.6-0.2,1c-0.1,0.4-0.1,0.8-0.1,1.3V21h-3v-0.5
	c0-1,0.1-1.9,0.3-2.5c0.2-0.6,0.5-1.2,0.9-1.7c0.4-0.5,0.8-1,1.1-1.5c0.4-0.5,0.5-1,0.5-1.5c0-0.4-0.1-0.8-0.4-1.1
	c-0.3-0.3-0.6-0.4-1-0.4c-0.2,0-0.5,0.1-0.7,0.2c-0.2,0.1-0.4,0.3-0.6,0.4c-0.2,0.2-0.3,0.4-0.4,0.6c-0.1,0.2-0.2,0.4-0.3,0.7
	l-2.6-1.4c0.4-1.1,1.1-1.9,1.9-2.4c0.9-0.5,1.8-0.7,3-0.7c0.6,0,1.2,0.1,1.7,0.2c0.5,0.2,1,0.4,1.4,0.7c0.4,0.3,0.7,0.7,0.9,1.2
	c0.2,0.5,0.3,1.1,0.3,1.7C22.5,13.6,22.4,14,22.3,14.4z"/>
</svg>
