<?xml version="1.0" encoding="utf-8"?>
<!-- Generator: Adobe Illustrator 21.1.0, SVG Export Plug-In . SVG Version: 6.00 Build 0)  -->
<svg version="1.1" id="Ebene_1" xmlns="http://www.w3.org/2000/svg" xmlns:xlink="http://www.w3.org/1999/xlink" x="0px" y="0px"
	 viewBox="0 0 35.71 35.71" style="enable-background:new 0 0 35.71 35.71;" xml:space="preserve">
<style type="text/css">
	.st0{fill:#A8B1B7;}
</style>
<path class="st0" d="M17.85,0C7.99,0,0,7.99,0,17.85s7.99,17.85,17.85,17.85s17.85-7.99,17.85-17.85S27.71,0,17.85,0z M19.09,25.97
	c-0.36,0.36-0.8,0.53-1.34,0.53c-0.54,0-0.99-0.18-1.34-0.53c-0.36-0.36-0.54-0.8-0.54-1.34c0-0.54,0.18-0.99,0.54-1.34
	c0.36-0.36,0.8-0.53,1.34-0.53c0.54,0,0.99,0.18,1.34,0.53c0.36,0.36,0.54,0.8,0.54,1.34C19.62,25.16,19.45,25.61,19.09,25.97z
	 M22.32,14.41c-0.1,0.38-0.24,0.73-0.4,1.03c-0.17,0.31-0.36,0.59-0.57,0.83c-0.21,0.25-0.43,0.48-0.65,0.7
	c-0.22,0.22-0.42,0.44-0.58,0.67c-0.17,0.22-0.3,0.48-0.4,0.76c-0.1,0.29-0.18,0.61-0.24,0.99c-0.06,0.37-0.08,0.81-0.08,1.32v0.26
	h-3.04v-0.45c0-1.05,0.09-1.89,0.29-2.53c0.19-0.64,0.5-1.22,0.93-1.72c0.41-0.49,0.79-0.98,1.14-1.47c0.35-0.49,0.52-1,0.52-1.52
	c0-0.41-0.13-0.76-0.39-1.06c-0.26-0.29-0.61-0.44-1.03-0.44c-0.25,0-0.49,0.06-0.7,0.17c-0.21,0.11-0.4,0.26-0.57,0.44
	c-0.17,0.18-0.31,0.38-0.43,0.61c-0.12,0.22-0.21,0.45-0.27,0.69l-2.59-1.38c0.41-1.09,1.05-1.88,1.9-2.36
	c0.86-0.48,1.84-0.73,2.95-0.73c0.62,0,1.2,0.08,1.73,0.24c0.54,0.16,1.01,0.4,1.4,0.72c0.4,0.32,0.71,0.73,0.93,1.22
	c0.22,0.49,0.33,1.07,0.33,1.73C22.47,13.6,22.42,14.03,22.32,14.41z"/>
</svg>
