<?xml version="1.0" encoding="utf-8"?>
<!-- Generator: Adobe Illustrator 21.1.0, SVG Export Plug-In . SVG Version: 6.00 Build 0)  -->
<svg version="1.1" id="Ebene_1" xmlns="http://www.w3.org/2000/svg" xmlns:xlink="http://www.w3.org/1999/xlink" x="0px" y="0px"
	 viewBox="0 0 27.7 44.2" style="enable-background:new 0 0 27.7 44.2;" xml:space="preserve">
<style type="text/css">
	.st0{fill:#FFFFFF;}
</style>
<g>
	<path class="st0" d="M15.7,16.5H12c-0.8-0.1-1.1-0.1-1.4,0.2c-0.2,0.3-0.2,0.5-0.1,1.5l1,9.6c0,0.4,0.3,0.6,0.7,0.6
		c0,0,0.1,0,0.1,0c0.4,0,0.6-0.4,0.6-0.8l-1-9.6V18c0,0,0-0.1,0-0.1h0h3.8h0c0.1,0,0.1,0,0.1,0c0,0.1,0,0.2,0,0.3l-1,9.5
		c0,0.4,0.2,0.7,0.6,0.8s0.7-0.2,0.8-0.6l1-9.4c0.2-1.1,0.2-1.4-0.1-1.6S16.7,16.5,15.7,16.5z"/>
	<path class="st0" d="M4,10c0.2,0,0.3-0.1,0.5-0.2c0.3-0.3,0.3-0.7,0-1L1.2,5.5c-0.3-0.3-0.7-0.3-1,0c-0.3,0.3-0.3,0.7,0,1l3.4,3.3
		C3.7,9.9,3.9,10,4,10z"/>
	<path class="st0" d="M14,6c0.4,0,0.7-0.3,0.7-0.7V0.7C14.7,0.3,14.4,0,14,0c-0.4,0-0.7,0.3-0.7,0.7v4.6C13.3,5.7,13.6,6,14,6z"/>
	<path class="st0" d="M10.4,33.7c0,0.4,0.3,0.7,0.7,0.7h5.5c0.4,0,0.7-0.3,0.7-0.7S17.1,33,16.7,33h-5.5
		C10.8,33,10.4,33.3,10.4,33.7z"/>
	<path class="st0" d="M17.1,35.5c-0.1-0.1-0.2-0.2-0.3-0.2h-5.7c-0.1,0-0.2,0.1-0.3,0.2c-0.2,0.1-0.3,0.3-0.3,0.5
		c0,0.4,0.3,0.7,0.7,0.7h5.5c0.4,0,0.7-0.3,0.7-0.7C17.4,35.8,17.2,35.6,17.1,35.5z"/>
	<path class="st0" d="M27.5,5.5c-0.3-0.3-0.7-0.3-1,0l-3.4,3.3c-0.3,0.3-0.3,0.7,0,1c0.1,0.1,0.3,0.2,0.5,0.2c0.2,0,0.3-0.1,0.5-0.2
		l3.4-3.3C27.7,6.2,27.7,5.8,27.5,5.5z"/>
	<path class="st0" d="M13.8,9.5c-6.1,0-11,4.9-11,11c0,4,2.1,7.4,5.3,9.4c0,0,0,0.1,0,0.1v8.9c0,0.6,0.5,1.1,1.1,1.1h1
		c0,0.2,0,0.3,0,0.5c0,2.1,1.7,3.8,3.9,3.8c2.1,0,3.9-1.9,3.9-4.1c0,0,0-0.1,0-0.2h0.7c0.6,0,1.1-0.5,1.1-1.1v-8.9c0,0,0-0.1,0-0.1
		c3.1-1.9,5.2-5.4,5.2-9.3C24.8,14.4,19.9,9.5,13.8,9.5z M16.5,40.1c0,1.6-1.3,2.8-2.5,2.8c-1.4,0-2.5-1.1-2.5-2.5
		c0-0.2,0-0.3,0-0.5h5C16.5,40,16.5,40,16.5,40.1z M18.2,38.6H11c0,0,0,0,0,0H9.5v-8c1.3,0.6,2.8,0.9,4.3,0.9c1.6,0,3-0.3,4.4-0.9
		V38.6z M13.8,30c-5.3,0-9.6-4.3-9.6-9.6s4.3-9.6,9.6-9.6s9.6,4.3,9.6,9.6S19.1,30,13.8,30z"/>
</g>
</svg>
