<?xml version="1.0" encoding="utf-8"?>
<!-- Generator: Adobe Illustrator 19.2.1, SVG Export Plug-In . SVG Version: 6.00 Build 0)  -->
<svg version="1.1" id="Layer_1" xmlns="http://www.w3.org/2000/svg" xmlns:xlink="http://www.w3.org/1999/xlink" x="0px" y="0px"
	 viewBox="0 0 175.1 175.1" style="enable-background:new 0 0 175.1 175.1;" xml:space="preserve">
<style type="text/css">
	.st0{fill:white;}
</style>
<g>
	<path class="st0" d="M96.4,99.1H83.6c-0.6,0-1-0.4-1-1s0.4-1,1-1h12.9c0.6,0,1,0.4,1,1S97,99.1,96.4,99.1z"/>
	<path class="st0" d="M96.5,67.1H83.7c-0.6,0-1-0.4-1-1s0.4-1,1-1h12.8c0.6,0,1,0.4,1,1S97,67.1,96.5,67.1z"/>
	<path class="st0" d="M93.8,92c0,0-0.1,0-0.1,0c-0.5-0.1-0.9-0.6-0.9-1.1L95.5,66c0.1-0.5,0.5-0.9,1.1-0.9c0.5,0.1,0.9,0.6,0.9,1.1
		l-2.7,24.9C94.7,91.6,94.3,92,93.8,92z"/>
	<path class="st0" d="M86.4,92c-0.5,0-0.9-0.4-1-0.9l-2.7-24.9c-0.1-0.5,0.3-1,0.9-1.1c0.6-0.1,1,0.3,1.1,0.9l2.7,24.9
		c0.1,0.5-0.3,1-0.9,1.1C86.5,92,86.5,92,86.4,92z"/>
	<path class="st0" d="M96.6,112H83.7c-0.6,0-1-0.4-1-1s0.4-1,1-1h12.9c0.6,0,1,0.4,1,1S97.1,112,96.6,112z"/>
	<path class="st0" d="M96.6,105.5H83.7c-0.6,0-1-0.4-1-1s0.4-1,1-1h12.9c0.6,0,1,0.4,1,1S97.1,105.5,96.6,105.5z"/>
	<path class="st0" d="M97.4,119.6H82.8c-4.3,0-5.8-3.5-5.8-5.8V97.3c0-1.1,0.9-2,2-2s2,0.9,2,2v16.6c0,0.8,0.4,1.8,1.8,1.8h14.7
		c1.2,0,1.8-0.6,1.8-1.8V97.3c0-1.1,0.9-2,2-2s2,0.9,2,2v16.6C103.3,118.1,99.8,119.6,97.4,119.6z"/>
	<path class="st0" d="M90.1,129c-5.2,0-9.4-4.3-9.4-9.5v-1.9c0-1.1,0.9-2,2-2s2,0.9,2,2v1.9c0,3,2.4,5.5,5.4,5.5s5.4-2.5,5.4-5.5
		l0-1.9c0-1.1,0.9-2,2-2h0c1.1,0,2,0.9,2,2l0,1.9C99.5,124.7,95.3,129,90.1,129z"/>
	<path class="st0" d="M101.3,99.3c-0.7,0-1.5-0.4-1.8-1.1c-0.5-1-0.1-2.2,0.9-2.7c8.2-4,13.3-12.1,13.3-21.2
		c0-11.8-8.8-21.9-20.5-23.4c-1.1-0.1-1.9-1.1-1.7-2.2s1.1-1.9,2.2-1.7c13.7,1.8,24,13.5,24,27.4c0,10.5-6.1,20.2-15.6,24.8
		C101.8,99.2,101.5,99.3,101.3,99.3z"/>
	<path class="st0" d="M79,99.3c-0.3,0-0.6-0.1-0.9-0.2c-9.4-4.6-15.6-14.3-15.6-24.8c0-15.2,12.4-27.6,27.6-27.6
		c4,0,7.8,0.8,11.4,2.5c1,0.5,1.4,1.6,1,2.6s-1.6,1.4-2.6,1c-3.1-1.4-6.3-2.1-9.7-2.1c-13,0-23.6,10.6-23.6,23.6
		c0,9.1,5.1,17.2,13.3,21.2c1,0.5,1.4,1.7,0.9,2.7C80.4,98.8,79.7,99.3,79,99.3z"/>
</g>
</svg>
