<?xml version="1.0" encoding="utf-8"?>
<!-- Generator: Adobe Illustrator 21.1.0, SVG Export Plug-In . SVG Version: 6.00 Build 0)  -->
<svg version="1.1" id="Ebene_1" xmlns="http://www.w3.org/2000/svg" xmlns:xlink="http://www.w3.org/1999/xlink" x="0px" y="0px"
	 viewBox="0 0 27.67 44.17" style="enable-background:new 0 0 27.67 44.17;" xml:space="preserve">
<style type="text/css">
	.st0{fill:#004077;}
</style>
<g>
	<path class="st0" d="M15.73,16.53h-3.71c-0.81-0.1-1.13-0.08-1.38,0.2c-0.24,0.26-0.25,0.54-0.07,1.5l1.04,9.58
		c0.04,0.35,0.33,0.61,0.68,0.61c0.02,0,0.05,0,0.07,0c0.37-0.04,0.64-0.38,0.6-0.75l-1.04-9.61L11.92,18
		c-0.01-0.04-0.01-0.07-0.02-0.11c0,0,0.01,0,0.01,0l3.84,0l0.03,0c0.05,0,0.1,0,0.15-0.01c-0.01,0.11-0.03,0.21-0.04,0.32l-1,9.47
		c-0.04,0.37,0.23,0.71,0.61,0.75c0.38,0.04,0.71-0.23,0.75-0.61l0.99-9.43c0.17-1.13,0.19-1.36-0.06-1.63
		C16.93,16.48,16.67,16.49,15.73,16.53z"/>
	<path class="st0" d="M4.04,9.98c0.18,0,0.35-0.07,0.49-0.2c0.26-0.27,0.26-0.7-0.01-0.96l-3.36-3.3c-0.27-0.26-0.7-0.26-0.96,0.01
		c-0.26,0.27-0.26,0.7,0.01,0.96l3.36,3.3C3.69,9.91,3.86,9.98,4.04,9.98z"/>
	<path class="st0" d="M14.03,5.97c0.38,0,0.68-0.3,0.68-0.68V0.68C14.71,0.3,14.4,0,14.03,0c-0.38,0-0.68,0.3-0.68,0.68v4.61
		C13.34,5.67,13.65,5.97,14.03,5.97z"/>
	<path class="st0" d="M10.45,33.72c0,0.38,0.3,0.68,0.68,0.68h5.54c0.38,0,0.68-0.3,0.68-0.68s-0.3-0.68-0.68-0.68h-5.54
		C10.76,33.04,10.45,33.34,10.45,33.72z"/>
	<path class="st0" d="M17.08,35.49c-0.08-0.13-0.2-0.21-0.33-0.21h-5.7c-0.13,0-0.25,0.08-0.32,0.21c-0.17,0.12-0.28,0.32-0.28,0.55
		c0,0.38,0.3,0.68,0.68,0.68h5.54c0.38,0,0.68-0.3,0.68-0.68C17.35,35.81,17.25,35.61,17.08,35.49z"/>
	<path class="st0" d="M27.47,5.53c-0.26-0.27-0.69-0.27-0.96-0.01l-3.36,3.3c-0.27,0.26-0.27,0.69-0.01,0.96
		c0.13,0.14,0.31,0.2,0.49,0.2c0.17,0,0.34-0.06,0.48-0.19l3.36-3.3C27.73,6.22,27.74,5.79,27.47,5.53z"/>
	<path class="st0" d="M13.84,9.48c-6.05,0-10.96,4.92-10.96,10.96c0,3.96,2.11,7.44,5.27,9.36c0,0.04-0.01,0.07-0.01,0.11v8.94
		c0,0.59,0.48,1.07,1.07,1.07h0.97c-0.02,0.15-0.03,0.3-0.03,0.45c0,2.1,1.74,3.81,3.87,3.81c2.06,0,3.87-1.92,3.87-4.11
		c0-0.05-0.01-0.1-0.02-0.15h0.66c0.59,0,1.07-0.48,1.07-1.07v-8.94c0-0.05,0-0.09-0.01-0.14c3.13-1.93,5.22-5.39,5.22-9.34
		C24.81,14.39,19.89,9.48,13.84,9.48z M16.53,40.07c0,1.57-1.32,2.75-2.51,2.75c-1.38,0-2.51-1.1-2.51-2.45
		c0-0.15,0.01-0.3,0.04-0.45h4.99C16.53,39.96,16.53,40.01,16.53,40.07z M18.23,38.56h-7.2c0,0,0,0-0.01,0H9.5v-8.05
		c1.33,0.58,2.8,0.9,4.34,0.9c1.56,0,3.05-0.33,4.39-0.92V38.56z M13.84,30.04c-5.3,0-9.6-4.31-9.6-9.6s4.31-9.6,9.6-9.6
		s9.6,4.31,9.6,9.6S19.14,30.04,13.84,30.04z"/>
</g>
</svg>
