<?xml version="1.0" encoding="utf-8"?>
<!-- Generator: Adobe Illustrator 23.0.1, SVG Export Plug-In . SVG Version: 6.00 Build 0)  -->
<svg version="1.1" id="Ebene_1" xmlns="http://www.w3.org/2000/svg" xmlns:xlink="http://www.w3.org/1999/xlink" x="0px" y="0px"
	 viewBox="0 0 354.3 354.3" style="enable-background:new 0 0 354.3 354.3;" xml:space="preserve">
<style type="text/css">
	.st0{fill:#134174;}
	.st1{clip-path:url(#SVGID_2_);}
</style>
<g>
	<path class="st0" d="M283.4,293.4H70.6c-5.5,0-10-4.5-10-10V71.3c0-5.5,4.5-10,10-10s10,4.5,10,10v202.2h202.8c5.5,0,10,4.5,10,10
		S288.9,293.4,283.4,293.4z"/>
</g>
<g>
	<path class="st0" d="M155.9,263c-2.8,0-5-2.2-5-5v-61.2c0-2.8,2.2-5,5-5s5,2.2,5,5V258C160.9,260.8,158.7,263,155.9,263z"/>
</g>
<g>
	<path class="st0" d="M106,263c-2.8,0-5-2.2-5-5v-19.6c0-2.8,2.2-5,5-5s5,2.2,5,5V258C111,260.8,108.7,263,106,263z"/>
</g>
<g>
	<path class="st0" d="M205.9,263c-2.8,0-5-2.2-5-5v-89.7c0-2.8,2.2-5,5-5s5,2.2,5,5V258C210.9,260.8,208.6,263,205.9,263z"/>
</g>
<g>
	<path class="st0" d="M255.8,263c-2.8,0-5-2.2-5-5v-120c0-2.8,2.2-5,5-5s5,2.2,5,5v120C260.8,260.8,258.6,263,255.8,263z"/>
</g>
<g>
	<path class="st0" d="M281.6,82.8c0-0.1,0-0.2,0-0.3c0-0.2,0-0.4,0-0.6c0-0.2,0-0.3-0.1-0.5c0-0.2,0-0.3-0.1-0.5
		c0-0.2-0.1-0.3-0.1-0.5c0-0.2-0.1-0.3-0.1-0.5c0-0.2-0.1-0.3-0.2-0.5c-0.1-0.2-0.1-0.3-0.2-0.5c-0.1-0.1-0.1-0.3-0.2-0.4
		c-0.1-0.2-0.1-0.3-0.2-0.5c-0.1-0.1-0.2-0.3-0.2-0.4c-0.1-0.1-0.2-0.3-0.3-0.4c-0.1-0.1-0.2-0.3-0.3-0.4c-0.1-0.1-0.2-0.2-0.3-0.4
		c-0.1-0.2-0.3-0.3-0.4-0.5c-0.1-0.1-0.1-0.2-0.2-0.2c0,0,0,0,0,0c-0.2-0.2-0.4-0.4-0.6-0.5c-0.1,0-0.1-0.1-0.2-0.2
		c-0.2-0.2-0.5-0.4-0.8-0.6c-0.1-0.1-0.3-0.2-0.4-0.2c-0.1-0.1-0.3-0.2-0.4-0.3c-0.1-0.1-0.3-0.1-0.4-0.2c-0.2-0.1-0.3-0.2-0.5-0.2
		c-0.1,0-0.2-0.1-0.4-0.1c-0.2-0.1-0.4-0.1-0.6-0.2c-0.1,0-0.2,0-0.3-0.1c-0.6-0.2-1.3-0.3-2-0.3c-0.2,0-0.4,0-0.6,0c0,0,0,0,0,0
		h-27.4c-5.5,0-10,4.5-10,10s4.5,10,10,10h3l-32.1,31.6l-68.8,29.4c-1.5,0.6-2.8,1.6-3.8,2.9L103.1,205c-3.5,4.3-2.8,10.6,1.4,14.1
		c1.9,1.5,4.1,2.2,6.3,2.2c2.9,0,5.8-1.3,7.8-3.7l37.8-46.4l68.3-29.2c1.1-0.5,2.2-1.2,3.1-2.1l33.8-33.3l0,3.5c0,5.5,4.5,10,10,10
		c5.5,0,10-4.5,10-10L281.6,82.8z"/>
</g>
<g>
	<defs>
		<rect id="SVGID_1_" x="548" y="190" width="190" height="47"/>
	</defs>
	<clipPath id="SVGID_2_">
		<use xlink:href="#SVGID_1_"  style="overflow:visible;"/>
	</clipPath>
	<g class="st1">
		<defs>
			<rect id="SVGID_3_" x="251" y="-396" width="1440" height="2198"/>
		</defs>
		<clipPath id="SVGID_4_">
			<use xlink:href="#SVGID_3_"  style="overflow:visible;"/>
		</clipPath>
	</g>
</g>
</svg>
