<?xml version="1.0" encoding="utf-8"?>
<!-- Generator: Adobe Illustrator 21.1.0, SVG Export Plug-In . SVG Version: 6.00 Build 0)  -->
<svg version="1.1" id="Ebene_1" xmlns="http://www.w3.org/2000/svg" xmlns:xlink="http://www.w3.org/1999/xlink" x="0px" y="0px"
	 viewBox="0 0 38.2 36.9" style="enable-background:new 0 0 38.2 36.9;" xml:space="preserve">
<style type="text/css">
	.st0{fill:#FFFFFF;}
</style>
<path class="st0" d="M38.2,15.8c-0.1-1-0.7-2.5-2.7-3.7c-1.2-0.8-3.3-0.6-6.3-0.2c-0.6,0-1.2,0.1-1.7,0.1c0-0.8,0.1-2.5,0.2-3.6
	c0-0.1,0.1-1.4,0.1-2.8c0-2.8-0.3-3.7-0.8-4.2c-1-1-3.6-1.9-4.9-1c-0.9,0.6-1.6,2.2-2.9,5.3c-0.9,2-1.9,4.4-2.7,5.3
	c-1,1.2-4.3,3.8-6.5,5.3c-0.5-0.6-1.3-0.9-2.1-0.9h-5c-1.6,0-2.9,1.3-2.9,2.9v14.2c0,1.6,1.3,2.9,2.9,2.9h5c1.6,0,2.2-0.7,2.2-0.7
	c2,0.5,6.8,1.8,8.8,2c1,0.1,2.4,0.2,3.8,0.2c1.1,0,2.3,0,3.5,0c2,0,3.9-0.1,5.2,0c1.9,0.1,3.8-0.9,4.5-2.5c0.3-0.6,0.7-2.1-0.5-3.8
	c0.8-0.6,1.3-1.3,1.5-2.2c0.3-1,0.1-2.1-0.6-3.3c0.6-0.4,1.3-1,1.6-2.1s0.1-2.3-0.7-3.6C38,18.4,38.4,17.1,38.2,15.8z M7.9,32.8h-5
	c-0.1,0-0.3-0.1-0.3-0.3V18.3c0-0.1,0.1-0.3,0.3-0.3h5c0.1,0,0.3,0.1,0.3,0.3v14.2C8.2,32.6,8.1,32.8,7.9,32.8z M35,17.7
	c-0.1,0.1-0.2,0.2-0.3,0.3c-0.6,0.4-0.8,0.9-0.8,1.3c-0.1,1.6,1.3,0.5,1.2,2.6c0,1-1.1,1.4-1.1,1.4c-0.4,0.2-1.1,0.4-1.1,1.3
	c0,1,0.6,1.1,0.8,1.6c0.3,0.5,0.5,1,0.4,1.5s-0.7,0.8-0.9,0.9c0,0-1,0.5-1.1,1.3l0,0c0,0.3-0.2,1.1,0.5,1.7c0.4,0.4,0.9,1.1,0.7,1.6
	c-0.3,0.6-1.1,1-1.9,1c-1.4,0-3.3-0.1-5.4,0c-2.6,0-5.3,0.1-6.9-0.1c-1.8-0.2-6.3-1.4-8.3-1.9V19c1.7-1.2,6.3-4.5,7.8-6.3
	c1.1-1.3,2.1-3.7,3.1-6c0.6-1.4,1.3-3.7,1.9-4C24,2.5,24.8,2.8,25,3.1c0.4,0.6,0.2,2.9,0,5.1l0,0c0,0.6-0.2,3.8-0.2,4.4
	c0.1,1.5,1,2.1,1.9,2.1l0,0c0.7,0,1.6-0.1,2.6-0.2c1.3-0.2,4-0.4,4.6-0.1c0.8,0.4,1.4,1,1.5,1.9C35.6,16.7,35.4,17.3,35,17.7z"/>
</svg>
