<?xml version="1.0" encoding="utf-8"?>
<!-- Generator: Adobe Illustrator 21.1.0, SVG Export Plug-In . SVG Version: 6.00 Build 0)  -->
<svg version="1.1" id="Ebene_1" xmlns="http://www.w3.org/2000/svg" xmlns:xlink="http://www.w3.org/1999/xlink" x="0px" y="0px"
	 viewBox="0 0 80 80" style="enable-background:new 0 0 80 80;" xml:space="preserve">
<style type="text/css">
	.st0{fill:#004077;}
</style>
<path class="st0" d="M30.7,1.1l-2.1,0.6l2.6,9.7c0.7-0.2,1.4-0.4,2.1-0.6L30.7,1.1z"/>
<path class="st0" d="M41.2,10V0h-2.3v10c0.4,0,0.8,0,1.1,0C40.4,10,40.8,10,41.2,10z"/>
<path class="st0" d="M20.9,4.8l-1.8,1.1l5,8.7c0.6-0.4,1.2-0.7,1.8-1.1L20.9,4.8z"/>
<path class="st0" d="M5.8,19.2l-1,1.6l8.7,5c0.3-0.6,0.6-1.1,1-1.6L5.8,19.2z"/>
<path class="st0" d="M19.5,18.1L12.4,11L11,12.4l7.1,7.1C18.6,19,19,18.6,19.5,18.1z"/>
<path class="st0" d="M78.7,29.8l-0.1-0.4L68.9,32c0,0.1,0.1,0.3,0.1,0.4L78.7,29.8z"/>
<path class="st0" d="M70,40c0,0.1,0,0.2,0,0.2h10v-0.5H70C70,39.8,70,39.9,70,40z"/>
<path class="st0" d="M60,5.4L60,5.4L55,14h0.1L60,5.4z"/>
<path class="st0" d="M78.6,50.6l0.2-0.6l-9.7-2.6c0,0.2-0.1,0.4-0.2,0.6L78.6,50.6z"/>
<path class="st0" d="M1.6,28.8l-0.5,1.7l9.7,2.6c0.1-0.6,0.3-1.2,0.5-1.7L1.6,28.8z"/>
<path class="st0" d="M61.3,18.9l7.1-7.1l-0.1-0.1l-7.1,7.1C61.2,18.8,61.2,18.8,61.3,18.9z"/>
<path class="st0" d="M74.7,20.1l-0.2-0.3l-8.7,5C66,25,66,25,66.1,25.1L74.7,20.1z"/>
<path class="st0" d="M59.6,74.9l0.8-0.4l-5-8.7c-0.3,0.2-0.5,0.3-0.8,0.4L59.6,74.9z"/>
<path class="st0" d="M49.9,78.8l1-0.3l-2.6-9.7c-0.3,0.1-0.6,0.2-1,0.3L49.9,78.8z"/>
<path class="st0" d="M60.9,61.5l7.1,7.1l0.6-0.6l-7.1-7.1C61.3,61.1,61.1,61.3,60.9,61.5z"/>
<path class="st0" d="M39.5,70v10h1.1V70c-0.2,0-0.4,0-0.5,0S39.6,70,39.5,70z"/>
<path class="st0" d="M74.5,60.3l0.3-0.6l-8.7-5c-0.1,0.2-0.2,0.4-0.3,0.6L74.5,60.3z"/>
<path class="st0" d="M29.1,78.5l1.2,0.3l2.6-9.7c-0.4-0.1-0.8-0.2-1.2-0.3L29.1,78.5z"/>
<path class="st0" d="M18.3,60.7l-7.1,7.1l1,1l7.1-7.1C19,61.4,18.6,61,18.3,60.7z"/>
<path class="st0" d="M5,59.3l0.8,1.3l8.7-5c-0.3-0.4-0.5-0.9-0.8-1.3L5,59.3z"/>
<path class="st0" d="M1.2,49.6l0.4,1.5l9.7-2.6c-0.2-0.5-0.3-1-0.4-1.5L1.2,49.6z"/>
<path class="st0" d="M10,39.2H0v1.7h10c0-0.3,0-0.6,0-0.8S10,39.4,10,39.2z"/>
<path class="st0" d="M19.4,74.3l1.1,0.7l5-8.7c-0.4-0.2-0.8-0.4-1.1-0.6L19.4,74.3z"/>
</svg>
