<?xml version="1.0" encoding="utf-8"?>
<!-- Generator: Adobe Illustrator 21.1.0, SVG Export Plug-In . SVG Version: 6.00 Build 0)  -->
<svg version="1.1" id="Ebene_1" xmlns="http://www.w3.org/2000/svg" xmlns:xlink="http://www.w3.org/1999/xlink" x="0px" y="0px"
	 viewBox="0 0 43.61 29.53" style="enable-background:new 0 0 43.61 29.53;" xml:space="preserve">
<style type="text/css">
	.st0{fill:#004178;}
.st1{fill:none;stroke:#004077;stroke-width:10;stroke-linecap:round;stroke-linejoin:bevel;}
</style>
<path class="st0" d="M40.42,0H3.19C1.43,0,0,1.43,0,3.19v23.15c0,1.76,1.43,3.19,3.19,3.19h37.22c1.76,0,3.19-1.43,3.19-3.19V3.19
	C43.61,1.43,42.18,0,40.42,0z M40.71,20.47l-10.46-7.45l10.46-5.95V20.47z M3.19,2.9h37.22c0.16,0,0.29,0.13,0.29,0.29V5.4
	L21.51,16.32L2.9,5.45V3.19C2.9,3.04,3.04,2.9,3.19,2.9z M2.9,7.13l10.56,6.17L2.9,20.55V7.13z M40.42,26.63H3.19
	c-0.16,0-0.29-0.13-0.29-0.29v-4.03l11.91-8.17c0.01-0.01,0.02-0.02,0.03-0.03l6.15,3.59c0.17,0.13,0.34,0.19,0.51,0.19c0,0,0,0,0,0
	c0.17,0,0.33-0.06,0.5-0.17l6.85-3.9l11.85,8.44v4.08C40.71,26.49,40.57,26.63,40.42,26.63z"/>
<g>
	<path class="st1" d="M21.96,15.63"/>
</g>
</svg>
