<?xml version="1.0" encoding="utf-8"?>
<!-- Generator: Adobe Illustrator 23.0.1, SVG Export Plug-In . SVG Version: 6.00 Build 0)  -->
<svg version="1.1" id="Ebene_1" xmlns="http://www.w3.org/2000/svg" xmlns:xlink="http://www.w3.org/1999/xlink" x="0px" y="0px"
	 viewBox="0 0 391 390.9" style="enable-background:new 0 0 391 390.9;" xml:space="preserve">
<style type="text/css">
	.st0{fill:#A9B2B7;}
</style>
<g>
	<g>
		<path class="st0" d="M172.1,321.8h-30.2c-6.2,0-9.3,7.4-5,11.8l53.7,55.2c2.7,2.8,7.3,2.8,10,0l53.7-55.2c4.3-4.4,1.2-11.8-5-11.8
			h-30.2v-103h103v30.2c0,6.2,7.4,9.3,11.8,5l55.2-53.7c2.8-2.7,2.8-7.3,0-10l-55.2-53.7c-4.4-4.3-11.8-1.2-11.8,5V172h-103V69.1
			h30.2c6.2,0,9.3-7.4,5-11.8L200.4,2.1c-2.7-2.8-7.3-2.8-10,0l-53.7,55.2c-4.3,4.4-1.2,11.8,5,11.8H172v103H69.1v-30.2
			c0-6.2-7.4-9.3-11.8-5L2.1,190.5c-2.8,2.7-2.8,7.3,0,10l55.2,53.7c4.4,4.3,11.8,1.2,11.8-5v-30.2h103V321.8z M172.1,321.8"/>
	</g>
</g>
</svg>
