<?xml version="1.0" encoding="utf-8"?>
<!-- Generator: Adobe Illustrator 23.0.3, SVG Export Plug-In . SVG Version: 6.00 Build 0)  -->
<svg version="1.1" id="Ebene_1" xmlns="http://www.w3.org/2000/svg" xmlns:xlink="http://www.w3.org/1999/xlink" x="0px" y="0px"
	 viewBox="0 0 314.8 283.5" style="enable-background:new 0 0 314.8 283.5;" xml:space="preserve">
<style type="text/css">
	.st0{fill:#004077;}
</style>
<path class="st0" d="M314.8,109.2c0-22.6-12.3-43.7-34.7-59.4c-7-4.9-14.7-9-22.9-12.4c0,0-0.1,0-0.1,0c-1-0.4-2.1-0.8-3.1-1.2
	c-0.8-0.3-1.7-0.6-2.5-0.9c-0.5-0.2-1.1-0.4-1.6-0.6c-0.9-0.3-1.8-0.6-2.7-0.9c-0.1,0-0.3-0.1-0.4-0.1c-2-0.6-4-1.2-6.1-1.8
	c-0.2-0.1-0.4-0.1-0.7-0.2c-3.3-0.9-6.6-1.6-10-2.3c-0.2,0-0.4-0.1-0.6-0.1c-1.1-0.2-2.2-0.4-3.3-0.6c-0.2,0-0.5-0.1-0.7-0.1
	c-1.8-0.3-3.6-0.5-5.4-0.8c-0.6-0.1-1.3-0.2-1.9-0.2c-0.8-0.1-1.6-0.2-2.5-0.3c-1.1-0.1-2.2-0.2-3.3-0.3c-0.7-0.1-1.3-0.1-2-0.1
	c-1.3-0.1-2.6-0.2-4-0.2c-0.5,0-1,0-1.5-0.1c-1.6-0.1-3.3-0.1-4.9-0.1c0,0,0,0,0,0c0,0,0,0,0,0c0,0,0,0,0,0c-8.2,0-16.2,0.6-24,1.8
	V13.8c0-7.7-5.1-13.8-11.4-13.8h-153C5.1,0,0,6.2,0,13.8v255.8c0,7.7,5.1,13.8,11.4,13.8h153c6.3,0,11.4-6.2,11.4-13.8v-79.5
	c7.8,1.2,15.9,1.8,24,1.8c0,0,0,0,0,0c0,0,0,0,0,0c0,0,0,0,0,0c0,0,0.1,0,0.1,0c1.9,0,3.9,0,5.8-0.1c0.2,0,0.5,0,0.7,0
	c1.8-0.1,3.6-0.2,5.3-0.3c0,0,0,0,0,0c25.7-1.9,49.6-9.9,68.3-22.9c0,0,0.1,0,0.1-0.1c0.1,0,0.1-0.1,0.2-0.1c1.4-1,2.7-1.9,4-2.9
	c0,0,0,0,0,0c0,0,0,0,0,0C304,150.1,314.8,130.3,314.8,109.2z M299.4,109.2c0,16.6-8.9,31.7-23.6,43.5c-0.3,0.2-0.6,0.4-0.9,0.6
	c-17.8,13.9-43,22.2-69.8,23.2c0,0,0,0,0,0c-1.8,0.1-3.6,0.1-5.4,0.1c0,0,0,0,0,0c-20.6,0-40.4-4.3-57.3-12.4
	c-2.5-1.2-5.6-0.9-7.8,0.7l-21.3,15.4l6.2-26c0.6-2.6-0.2-5.4-2.1-7.3c-11.4-11.2-17.4-24.3-17.4-37.9c0-13.5,6.1-26.5,16.9-37.4
	c0,0,0,0,0,0c0.4-0.4,0.8-0.8,1.2-1.2c0.4-0.4,0.8-0.7,1.2-1.1c0.3-0.3,0.5-0.5,0.8-0.7c18.5-16.5,47.7-26.9,79.5-26.9c0,0,0,0,0,0
	c1,0,2,0,3.1,0c0.3,0,0.5,0,0.8,0c0.9,0,1.7,0.1,2.6,0.1c0.2,0,0.3,0,0.5,0c15.7,0.7,31,4,44.5,9.6c0.3,0.1,0.5,0.2,0.8,0.3
	C280.4,63.7,299.4,85,299.4,109.2z M87.9,274.4c-5.9,0-10.7-4.8-10.7-10.7c0-5.9,4.8-10.7,10.7-10.7s10.7,4.8,10.7,10.7
	C98.5,269.7,93.8,274.4,87.9,274.4z M154.4,247.5H21.3V21.3h133.1V33c-33,10.1-58.3,30.9-66.7,57.4c-0.1,0.3-0.2,0.5-0.2,0.8
	c-1.8,5.8-2.8,11.9-2.8,18c0,16.4,6.5,32.1,18.9,45.7L93.5,197c-0.8,3.1,0.5,6.4,3.2,8.2c1.3,0.9,2.8,1.3,4.3,1.3
	c1.6,0,3.2-0.5,4.5-1.5l34.5-25c4.6,2,9.5,3.8,14.4,5.3V247.5z"/>
</svg>
