<?xml version="1.0" encoding="utf-8"?>
<!-- Generator: Adobe Illustrator 22.0.1, SVG Export Plug-In . SVG Version: 6.00 Build 0)  -->
<svg version="1.1" id="Ebene_1" xmlns="http://www.w3.org/2000/svg" xmlns:xlink="http://www.w3.org/1999/xlink" x="0px" y="0px"
	 viewBox="0 0 28.4 28.4" style="enable-background:new 0 0 28.4 28.4;" xml:space="preserve">
<style type="text/css">
	.st0{fill:#9D9D9C;}
	.st1{fill:#FFFFFF;}
</style>
<g>
	<circle class="st0" cx="14.2" cy="14.1" r="3.8"/>
	<circle class="st1" cx="14.2" cy="14.1" r="2.9"/>
</g>
<path class="st0" d="M14.2,0C6.4,0,0,6.4,0,14.2s6.4,14.2,14.2,14.2S28.4,22,28.4,14.2S22,0,14.2,0z M14.2,1c3.4,0,6.4,1.3,8.8,3.4
	l-4.5,4.5l-0.7-1.5c-0.1-0.1-0.2-0.2-0.4-0.2H11c0,0,0,0,0,0c-0.1,0-0.3,0.1-0.3,0.2L9.7,9.3H6.4C5.6,9.3,5,10,5,10.8v6.7v1.7
	c0,0,0,0,0,0c0,0.8,0.7,1.5,1.5,1.5h0.3L4.4,23C2.3,20.6,1,17.6,1,14.2C1,6.9,6.9,1,14.2,1z M18.7,10.1H22c0.3,0,0.6,0.3,0.6,0.6
	v8.4c0,0.4-0.3,0.6-0.6,0.6H9.1L18.7,10.1z M7.6,19.8H6.4c-0.3,0-0.6-0.3-0.6-0.6v-1.7c0,0,0-6.7,0-6.7c0-0.4,0.3-0.6,0.6-0.6H10
	c0.2,0,0.3-0.1,0.4-0.2l0.9-1.9h5.8l0.7,1.5L7.6,19.8z M14.2,27.4c-3.5,0-6.7-1.4-9.1-3.6c0,0,0,0,0,0l3.1-3.1H22
	c0.8,0,1.5-0.7,1.5-1.5v-8.4c0-0.8-0.7-1.5-1.5-1.5h-2.4l4.2-4.2c2.3,2.4,3.6,5.6,3.6,9.1C27.4,21.5,21.5,27.4,14.2,27.4z"/>
</svg>
