<?xml version="1.0" encoding="utf-8"?>
<!-- Generator: Adobe Illustrator 21.1.0, SVG Export Plug-In . SVG Version: 6.00 Build 0)  -->
<svg version="1.1" id="Ebene_1" xmlns="http://www.w3.org/2000/svg" xmlns:xlink="http://www.w3.org/1999/xlink" x="0px" y="0px"
	 viewBox="0 0 36.51 38.93" style="enable-background:new 0 0 36.51 38.93;" xml:space="preserve">
<style type="text/css">
	.st0{fill:#004077;}
</style>
<path class="st0" d="M35.48,28.27c-2.44-1.19-3.24-4.39-3.59-10.32c-0.42-6.92-2.4-13.24-10.48-14.52C21.22,1.03,19.71,0,18.21,0
	s-2.95,1.09-3.14,3.43C7.02,4.71,5.03,10.96,4.58,17.95c-0.35,5.54-0.99,9.1-3.59,10.35C0.03,28.78,0,28.62,0,30.42
	c0,1.63,0,1.63,1.63,1.63h33.24c1.63,0,1.63,0,1.63-1.63C36.51,28.78,36.54,28.78,35.48,28.27z M5.29,28.85
	c1.83-2.31,2.18-5.87,2.5-10.67C8.37,9.2,11.31,6.41,18.24,6.41s9.9,2.79,10.45,11.73c0.29,4.84,0.67,8.4,2.53,10.71H5.29z"/>
<path class="st0" d="M23.08,34.1c0,2.67-2.16,4.83-4.83,4.83s-4.83-2.16-4.83-4.83h4.49H23.08z"/>
</svg>
