<?xml version="1.0" encoding="utf-8"?>
<!-- Generator: Adobe Illustrator 21.1.0, SVG Export Plug-In . SVG Version: 6.00 Build 0)  -->
<svg version="1.1" id="Ebene_1" xmlns="http://www.w3.org/2000/svg" xmlns:xlink="http://www.w3.org/1999/xlink" x="0px" y="0px"
	 viewBox="0 0 36.5 38.9" style="enable-background:new 0 0 36.5 38.9;" xml:space="preserve">
<style type="text/css">
	.st0{fill:#FFFFFF;}
</style>
<path class="st0" d="M35.5,28.3c-2.4-1.2-3.2-4.4-3.6-10.3C31.5,11,29.5,4.7,21.4,3.4C21.2,1,19.7,0,18.2,0s-2.9,1.1-3.1,3.4
	C7,4.7,5,11,4.6,17.9C4.2,23.5,3.6,27,1,28.3c-1,0.5-1,0.3-1,2.1C0,32,0,32,1.6,32h33.2c1.6,0,1.6,0,1.6-1.6
	C36.5,28.8,36.5,28.8,35.5,28.3z M5.3,28.8c1.8-2.3,2.2-5.9,2.5-10.7c0.6-9,3.5-11.8,10.4-11.8s9.9,2.8,10.4,11.7
	c0.3,4.8,0.7,8.4,2.5,10.7C31.2,28.8,5.3,28.8,5.3,28.8z"/>
<path class="st0" d="M23.1,34.1c0,2.7-2.2,4.8-4.8,4.8s-4.8-2.2-4.8-4.8h4.5H23.1z"/>
</svg>
