<?xml version="1.0" encoding="utf-8"?>
<!-- Generator: Adobe Illustrator 22.1.0, SVG Export Plug-In . SVG Version: 6.00 Build 0)  -->
<svg version="1.1" id="Ebene_1" xmlns="http://www.w3.org/2000/svg" xmlns:xlink="http://www.w3.org/1999/xlink" x="0px" y="0px"
	 viewBox="0 0 28.64 30.39" style="enable-background:new 0 0 28.64 30.39;" xml:space="preserve">
<style type="text/css">
	.st0{fill:#004077;}
</style>
<g>
	<g>
		<path class="st0" d="M28.47,8.22l-7.74-8.04C20.62,0.06,20.47,0,20.31,0H8.77C7.48,0,6.43,1.05,6.43,2.34v8.18H1.75
			C0.79,10.52,0,11.3,0,12.27v8.77c0,0.97,0.79,1.75,1.75,1.75h4.68v5.26c0,1.29,1.05,2.34,2.34,2.34h17.52
			c1.29,0,2.34-1.05,2.34-2.34V8.63C28.64,8.48,28.58,8.33,28.47,8.22L28.47,8.22z M20.45,1.58l6.36,6.6h-6.36V1.58z M1.75,21.62
			c-0.32,0-0.58-0.26-0.58-0.58v-8.77c0-0.32,0.26-0.58,0.58-0.58h15.78c0.32,0,0.58,0.26,0.58,0.58v8.77
			c0,0.32-0.26,0.58-0.58,0.58H1.75z M27.47,28.05c0,0.64-0.53,1.17-1.17,1.17H8.77c-0.65,0-1.17-0.52-1.17-1.17v-5.26h9.94
			c0.97,0,1.75-0.79,1.75-1.75v-8.77c0-0.97-0.79-1.75-1.75-1.75H7.6V2.34c0-0.65,0.53-1.17,1.17-1.17h10.51v7.6
			c0,0.32,0.26,0.58,0.58,0.58h7.6V28.05z M27.47,28.05"/>
	</g>
	<path class="st0" d="M6.99,14.83c-0.19-0.25-0.43-0.42-0.72-0.49c-0.19-0.05-0.59-0.08-1.21-0.08H3.43v5.02h1.01v-1.89h0.66
		c0.46,0,0.81-0.02,1.05-0.07c0.18-0.04,0.35-0.12,0.53-0.24C6.86,16.96,7,16.8,7.11,16.59c0.11-0.21,0.17-0.47,0.17-0.78
		C7.28,15.41,7.18,15.08,6.99,14.83L6.99,14.83z M6.12,16.21c-0.08,0.11-0.18,0.19-0.32,0.25c-0.13,0.05-0.4,0.08-0.8,0.08H4.45
		v-1.42h0.49c0.37,0,0.61,0.01,0.73,0.03c0.16,0.03,0.3,0.1,0.41,0.22c0.11,0.12,0.16,0.27,0.16,0.45
		C6.23,15.97,6.19,16.1,6.12,16.21L6.12,16.21z M6.12,16.21"/>
	<path class="st0" d="M12.15,15.64c-0.11-0.32-0.27-0.59-0.48-0.81c-0.21-0.22-0.46-0.38-0.76-0.46c-0.22-0.06-0.54-0.1-0.96-0.1
		H8.11v5.02h1.91c0.37,0,0.67-0.04,0.9-0.11c0.3-0.1,0.54-0.23,0.71-0.4c0.23-0.23,0.41-0.52,0.54-0.89c0.1-0.3,0.15-0.65,0.15-1.07
		C12.31,16.35,12.26,15.96,12.15,15.64L12.15,15.64z M11.16,17.7c-0.07,0.22-0.16,0.39-0.27,0.48c-0.11,0.1-0.24,0.17-0.41,0.21
		c-0.13,0.03-0.33,0.05-0.61,0.05H9.12v-3.32h0.46c0.41,0,0.69,0.02,0.83,0.05c0.19,0.04,0.35,0.12,0.47,0.24
		c0.12,0.12,0.22,0.28,0.29,0.49c0.07,0.21,0.1,0.51,0.1,0.89C11.27,17.17,11.23,17.47,11.16,17.7L11.16,17.7z M11.16,17.7"/>
	<path class="st0" d="M16.62,15.11v-0.85h-3.44v5.02h1.01v-2.13h2.1V16.3h-2.1v-1.19H16.62z M16.62,15.11"/>
</g>
</svg>
