<?xml version="1.0" encoding="utf-8"?>
<!-- Generator: Adobe Illustrator 21.1.0, SVG Export Plug-In . SVG Version: 6.00 Build 0)  -->
<svg version="1.1" id="Ebene_1" xmlns="http://www.w3.org/2000/svg" xmlns:xlink="http://www.w3.org/1999/xlink" x="0px" y="0px"
	 viewBox="0 0 41.1 31.3" style="enable-background:new 0 0 41.1 31.3;" xml:space="preserve">
<style type="text/css">
	.st0{fill:#FFFFFF;}
</style>
<g>
	<path class="st0" d="M1.1,31.3c-0.6,0-0.7,0-0.9-0.2C0,30.8,0,30.6,0,30.2L0,0.6C0,0.3,0.3,0,0.7,0l0,0C1,0,1.3,0.3,1.3,0.6l0,29.3
		c0.2,0,0.5,0,0.8,0h0h38.3c0.3,0,0.6,0.3,0.6,0.6c0,0.4-0.3,0.6-0.6,0.6H2.1C1.6,31.3,1.3,31.3,1.1,31.3z M1.3,30.5L1.3,30.5
		L1.3,30.5z"/>
</g>
<g>
	<path class="st0" d="M9.9,15.8H4c-0.2,0-0.4,0.2-0.4,0.4v11.1c0,0.2,0.2,0.4,0.4,0.4H10c0.2,0,0.4-0.2,0.4-0.4V16.1
		C10.3,15.9,10.1,15.8,9.9,15.8z"/>
	<path class="st0" d="M28.4,11.5h-5.9c-0.2,0-0.4,0.2-0.4,0.4v15.3c0,0.2,0.2,0.4,0.4,0.4h5.9c0.2,0,0.4-0.2,0.4-0.4V11.9
		C28.7,11.7,28.6,11.5,28.4,11.5z"/>
	<path class="st0" d="M37.6,2.5h-5.9c-0.2,0-0.4,0.2-0.4,0.4v24.3c0,0.2,0.2,0.4,0.4,0.4h5.9c0.2,0,0.4-0.2,0.4-0.4V2.9
		C38,2.7,37.8,2.5,37.6,2.5z"/>
	<path class="st0" d="M19.2,7.4h-5.9c-0.2,0-0.4,0.2-0.4,0.4v19.4c0,0.2,0.2,0.4,0.4,0.4h5.9c0.2,0,0.4-0.2,0.4-0.4V7.8
		C19.5,7.6,19.4,7.4,19.2,7.4z"/>
</g>
</svg>
