<?xml version="1.0" encoding="utf-8"?>
<!-- Generator: Adobe Illustrator 23.0.3, SVG Export Plug-In . SVG Version: 6.00 Build 0)  -->
<svg version="1.1" id="Ebene_1" xmlns="http://www.w3.org/2000/svg" xmlns:xlink="http://www.w3.org/1999/xlink" x="0px" y="0px"
	 viewBox="0 0 233.1 232.2" style="enable-background:new 0 0 233.1 232.2;" xml:space="preserve">
<style type="text/css">
	.st0{fill:#004077;}
</style>
<g>
	<path class="st0" d="M222.8,212.2H20V10c0-5.5-4.5-10-10-10S0,4.5,0,10v212.2c0,5.5,4.5,10,10,10h212.8c5.5,0,10-4.5,10-10
		S228.3,212.2,222.8,212.2z"/>
	<path class="st0" d="M223.1,91.6l-41,13.1l-22.2-13.1l4.8-1.2c1.5-0.4,2.8-1.2,3.8-2.3L196.4,56h4.9c1.7,0,3-1.3,3-3
		c0-1.6-1.2-2.8-2.7-3L218,31.1v7.3c0,4.1,3.3,7.5,7.5,7.5l0,0c4.1,0,7.5-3.3,7.5-7.5V11c0-4.1-3.3-7.5-7.5-7.5h-27.4l0,0
		c-4.1,0-7.5,3.3-7.5,7.5c0,4.1,3.3,7.5,7.5,7.5h11l-50.4,57.9l-17.1,4.4l-40.5-23.9c-0.8-0.5-1.7-0.8-2.6-0.9h7c1.7,0,3-1.3,3-3
		s-1.3-3-3-3H94.9c-1.7,0-3,1.3-3,3s1.3,3,3,3h1.2c-0.6,0.1-1.2,0.3-1.8,0.5L35.6,82.4c-3.8,1.7-5.5,6.1-3.8,9.9s6.1,5.5,9.9,3.8
		l55.1-24.3L120.9,86l-33.2,8.4c-2,0.5-3.7,1.8-4.7,3.6l-50.9,90.4c-2,3.6-0.8,8.2,2.9,10.2c1.2,0.7,2.4,1,3.7,1
		c2.6,0,5.2-1.4,6.5-3.8l49.4-87.7l44.7-11.4l38.1,22.5c1.2,0.7,2.5,1,3.8,1c0.8,0,1.5-0.1,2.3-0.4l44.2-14.1
		c3.9-1.3,6.1-5.5,4.9-9.4C231.3,92.5,227.1,90.4,223.1,91.6z"/>
	<path class="st0" d="M34.2,55.9h7.5c1.7,0,3-1.3,3-3s-1.3-3-3-3h-7.5c-1.7,0-3,1.3-3,3S32.5,55.9,34.2,55.9z"/>
	<path class="st0" d="M63,55.9h10.6c1.7,0,3-1.3,3-3s-1.3-3-3-3H63c-1.7,0-3,1.3-3,3S61.3,55.9,63,55.9z"/>
	<path class="st0" d="M158.7,55.9h10.6c1.7,0,3-1.3,3-3s-1.3-3-3-3h-10.6c-1.7,0-3,1.3-3,3S157.1,55.9,158.7,55.9z"/>
	<path class="st0" d="M126.8,55.9h10.6c1.7,0,3-1.3,3-3s-1.3-3-3-3h-10.6c-1.7,0-3,1.3-3,3S125.1,55.9,126.8,55.9z"/>
	<path class="st0" d="M230.1,49.9h-7.5c-1.7,0-3,1.3-3,3s1.3,3,3,3h7.5c1.7,0,3-1.3,3-3S231.7,49.9,230.1,49.9z"/>
</g>
</svg>
