<?xml version="1.0" encoding="utf-8"?>
<!-- Generator: Adobe Illustrator 21.1.0, SVG Export Plug-In . SVG Version: 6.00 Build 0)  -->
<svg version="1.1" id="Ebene_1" xmlns="http://www.w3.org/2000/svg" xmlns:xlink="http://www.w3.org/1999/xlink" x="0px" y="0px"
	 viewBox="0 0 41.06 31.27" style="enable-background:new 0 0 41.06 31.27;" xml:space="preserve">
<style type="text/css">
	.st0{fill:#004077;}
</style>
<g>
	<path class="st0" d="M1.08,31.27c-0.63,0-0.71-0.05-0.87-0.21c-0.21-0.21-0.23-0.48-0.21-0.87L0.03,0.64C0.03,0.29,0.32,0,0.67,0
		c0,0,0,0,0,0c0.35,0,0.64,0.29,0.64,0.64L1.29,29.98c0.24,0,0.52-0.01,0.77-0.02l0.02,0h38.34c0.35,0,0.64,0.29,0.64,0.64
		c0,0.35-0.29,0.64-0.64,0.64H2.09C1.65,31.26,1.33,31.27,1.08,31.27z M1.28,30.46L1.28,30.46L1.28,30.46z"/>
</g>
<g>
	<path class="st0" d="M9.95,15.77H4.03c-0.2,0-0.36,0.16-0.36,0.36v11.06c0,0.2,0.16,0.36,0.36,0.36h5.92c0.2,0,0.36-0.16,0.36-0.36
		V16.13C10.32,15.93,10.15,15.77,9.95,15.77z"/>
	<path class="st0" d="M28.37,11.54h-5.92c-0.2,0-0.36,0.16-0.36,0.36v15.29c0,0.2,0.16,0.36,0.36,0.36h5.92
		c0.2,0,0.36-0.16,0.36-0.36V11.9C28.74,11.7,28.57,11.54,28.37,11.54z"/>
	<path class="st0" d="M37.58,2.53h-5.92c-0.2,0-0.36,0.16-0.36,0.36v24.3c0,0.2,0.16,0.36,0.36,0.36h5.92c0.2,0,0.36-0.16,0.36-0.36
		V2.89C37.95,2.69,37.78,2.53,37.58,2.53z"/>
	<path class="st0" d="M19.16,7.41h-5.92c-0.2,0-0.36,0.16-0.36,0.36v19.42c0,0.2,0.16,0.36,0.36,0.36h5.92
		c0.2,0,0.36-0.16,0.36-0.36V7.78C19.53,7.58,19.36,7.41,19.16,7.41z"/>
</g>
</svg>
