<?xml version="1.0" encoding="utf-8"?>
<!-- Generator: Adobe Illustrator 21.1.0, SVG Export Plug-In . SVG Version: 6.00 Build 0)  -->
<svg version="1.1" id="Ebene_1" xmlns="http://www.w3.org/2000/svg" xmlns:xlink="http://www.w3.org/1999/xlink" x="0px" y="0px"
	 viewBox="0 0 43.17 36.05" style="enable-background:new 0 0 43.17 36.05;" xml:space="preserve">
<style type="text/css">
	.st0{fill:#004077;}
</style>
<g>
	<path class="st0" d="M8.91,9.99L5.82,30.32c-0.01,0.04-0.01,0.09,0,0.13c0,0.03,0,0.06,0,0.1c0,0.65,0.53,1.19,1.19,1.19h21.74
		l0.3-0.04c0,0,0.17-0.05,0.23-0.06c0.03-0.01,0.13-0.04,0.35-0.13l0.18-0.1l12.83-8.41c0.55-0.36,0.7-1.09,0.34-1.64
		c-0.36-0.55-1.09-0.7-1.64-0.34l-12.74,8.35c0,0-0.01,0-0.01,0H7.16l2.88-18.94l11.04-7.8l-0.65,4.23
		c-0.05,0.32,0.17,0.63,0.5,0.68c0.32,0.05,0.63-0.17,0.68-0.5l0.83-5.39c0.09-0.38-0.08-0.64-0.28-0.76
		c-0.2-0.13-0.53-0.16-0.83,0.12L9.15,9.59L8.91,9.99z"/>
	<path class="st0" d="M18.05,10.94C18,11,17.94,11.08,17.89,11.27l-5.74,14.37c0,0.01,0,0.01-0.01,0.02
		c-0.11,0.18-0.17,0.39-0.16,0.62c0.01,0.65,0.54,1.17,1.19,1.17c0.01,0,0.01,0,0.02,0l15.47-0.2c0.28,0.02,0.44-0.02,0.55-0.05
		c0.12-0.04,0.28-0.1,0.54-0.29l12.89-8.28c0.55-0.35,0.71-1.09,0.36-1.64c-0.35-0.55-1.09-0.71-1.64-0.36L28.5,24.88l-14.85,0.2
		l5.33-13.35L31.9,3.67l-5.43,13.19c-0.14,0.27-0.14,0.54,0,0.75c0.14,0.21,0.38,0.31,0.68,0.29h10.38c0.33,0,0.59-0.27,0.59-0.59
		s-0.27-0.59-0.59-0.59h-9.73l5.79-14.06c0.06-0.1,0.12-0.25,0.11-0.42c-0.01-0.17-0.09-0.32-0.22-0.43
		c-0.23-0.2-0.56-0.2-0.84-0.01l-14.3,8.92C18.17,10.81,18.1,10.89,18.05,10.94z M32.62,2l-0.06,0.1C32.57,2.06,32.6,2.02,32.62,2z"
		/>
	<path class="st0" d="M24.87,17.87l-8.16,4.98c-0.28,0.17-0.37,0.54-0.2,0.81c0.11,0.18,0.31,0.28,0.51,0.28
		c0.11,0,0.21-0.03,0.31-0.09l8.16-4.98c0.28-0.17,0.37-0.54,0.2-0.81C25.52,17.79,25.15,17.7,24.87,17.87z"/>
	<path class="st0" d="M41.34,25.61L28.82,33.6l-0.09,0.06c0,0-0.01,0.01-0.01,0.01l-0.04,0L1.43,33.68c0,0-0.01,0-0.01,0L1.2,8.86
		l11.59-7.25v2.77c0,0.33,0.27,0.59,0.59,0.59s0.59-0.27,0.59-0.59V0.83c0.07-0.39-0.11-0.64-0.31-0.76
		c-0.18-0.1-0.41-0.1-0.62-0.01l-0.07,0.04L0.51,7.89C0.23,8.02,0.13,8.16,0.08,8.25C0.03,8.34-0.03,8.49,0.01,8.78l0.24,26.08
		c0,0,0,0,0,0c0,0,0,0,0,0c0,0.65,0.53,1.19,1.19,1.19c0,0,0,0,0,0l27.2-0.01c0.11,0.01,0.2,0.01,0.28,0.01
		c0.27,0,0.41-0.04,0.48-0.06c0.1-0.03,0.32-0.09,0.75-0.42l12.48-7.96c0.55-0.35,0.71-1.09,0.36-1.64
		C42.63,25.42,41.89,25.26,41.34,25.61z"/>
</g>
</svg>
