<?xml version="1.0" encoding="utf-8"?>
<!-- Generator: Adobe Illustrator 21.1.0, SVG Export Plug-In . SVG Version: 6.00 Build 0)  -->
<svg version="1.1" id="Ebene_1" xmlns="http://www.w3.org/2000/svg" xmlns:xlink="http://www.w3.org/1999/xlink" x="0px" y="0px"
	 viewBox="0 0 43.2 36" style="enable-background:new 0 0 43.2 36;" xml:space="preserve">
<style type="text/css">
	.st0{fill:#FFFFFF;}
</style>
<g>
	<path class="st0" d="M8.9,10L5.8,30.3c0,0,0,0.1,0,0.1c0,0,0,0.1,0,0.1c0,0.6,0.5,1.2,1.2,1.2h21.7l0.3,0c0,0,0.2,0,0.2-0.1
		c0,0,0.1,0,0.4-0.1l0.2-0.1L42.6,23c0.5-0.4,0.7-1.1,0.3-1.6s-1.1-0.7-1.6-0.3l-12.7,8.4h0H7.2L10,10.4l11-7.8l-0.6,4.2
		c0,0.3,0.2,0.6,0.5,0.7c0.3,0.1,0.6-0.2,0.7-0.5l0.8-5.4c0.1-0.4-0.1-0.6-0.3-0.8C22,0.8,21.6,0.7,21.3,1L9.1,9.6L8.9,10z"/>
	<path class="st0" d="M18,10.9c0,0.1-0.1,0.1-0.2,0.3l-5.7,14.4c0,0,0,0,0,0C12,25.8,12,26,12,26.3c0,0.6,0.5,1.2,1.2,1.2
		c0,0,0,0,0,0l15.5-0.2c0.3,0,0.4,0,0.5,0c0.1,0,0.3-0.1,0.5-0.3l12.9-8.3c0.5-0.4,0.7-1.1,0.4-1.6s-1.1-0.7-1.6-0.4l-12.9,8.2
		l-14.9,0.2L19,11.7l12.9-8.1l-5.4,13.2c-0.1,0.3-0.1,0.5,0,0.8s0.4,0.3,0.7,0.3h10.4c0.3,0,0.6-0.3,0.6-0.6s-0.3-0.6-0.6-0.6h-9.7
		l5.8-14.1c0.1-0.1,0.1-0.2,0.1-0.4s-0.1-0.3-0.2-0.4c-0.2-0.2-0.6-0.2-0.8,0l-14.3,8.9C18.2,10.8,18.1,10.9,18,10.9z M32.6,2
		L32.6,2C32.6,2.1,32.6,2,32.6,2z"/>
	<path class="st0" d="M24.9,17.9l-8.2,5c-0.3,0.2-0.4,0.5-0.2,0.8c0.1,0.2,0.3,0.3,0.5,0.3c0.1,0,0.2,0,0.3-0.1l8.2-5
		c0.3-0.2,0.4-0.5,0.2-0.8C25.5,17.8,25.1,17.7,24.9,17.9z"/>
	<path class="st0" d="M41.3,25.6l-12.5,8l-0.1,0.1l0,0h0l-27.2,0h0L1.2,8.9l11.6-7.2v2.8c0,0.3,0.3,0.6,0.6,0.6S14,4.7,14,4.4V0.8
		c0.1-0.4-0.1-0.6-0.3-0.8C13.5,0,13.2,0,13,0.1l-0.1,0L0.5,7.9C0.2,8,0.1,8.2,0.1,8.2S0,8.5,0,8.8l0.2,26.1l0,0l0,0
		c0,0.7,0.5,1.2,1.2,1.2l0,0l27.2,0c0.1,0,0.2,0,0.3,0c0.3,0,0.4,0,0.5-0.1c0.1,0,0.3-0.1,0.8-0.4l12.5-8c0.5-0.4,0.7-1.1,0.4-1.6
		C42.6,25.4,41.9,25.3,41.3,25.6z"/>
</g>
</svg>
