<?xml version="1.0" encoding="utf-8"?>
<!-- Generator: Adobe Illustrator 21.1.0, SVG Export Plug-In . SVG Version: 6.00 Build 0)  -->
<svg version="1.1" id="Ebene_1" xmlns="http://www.w3.org/2000/svg" xmlns:xlink="http://www.w3.org/1999/xlink" x="0px" y="0px"
	 viewBox="0 0 389.8 220.6" style="enable-background:new 0 0 389.8 220.6;" xml:space="preserve">
<style type="text/css">
	.st0{fill:#004077;}
</style>
<g>
	<g>
		<path class="st0" d="M277.9,160.6c-19.4,0-35.1-15.7-35.1-35.1s15.7-35.1,35.1-35.1c19.4,0,35.1,15.7,35.1,35.1
			S297.2,160.6,277.9,160.6z M277.9,96.4c-16,0-29.1,13.1-29.1,29.1c0,16,13.1,29.1,29.1,29.1s29.1-13.1,29.1-29.1
			C307,109.5,293.9,96.4,277.9,96.4z"/>
	</g>
	<g>
		<circle class="st0" cx="277.9" cy="138.4" r="3"/>
	</g>
	<g>
		<path class="st0" d="M279.7,130.4c0,1.2-0.6,1.8-1.8,1.8c-1.2,0-1.8-0.6-1.8-1.8l-1.8-17.6c0-1.8,1.2-3.6,3.6-3.6
			c2.4,0,3.6,1.8,3.6,3.6L279.7,130.4z"/>
	</g>
	<g>
		<path class="st0" d="M371.3,170.2c12.1-13.2,18.5-28.5,18.5-44.6c0-6-0.9-11.9-2.7-17.6c-0.1-0.3-0.1-0.5-0.2-0.8
			c-2.9-9-7.9-17.6-14.8-25.3c0,0,0,0-0.1-0.1c-0.6-0.7-1.2-1.4-1.9-2c-0.1-0.1-0.1-0.1-0.2-0.2c-0.6-0.6-1.3-1.3-1.9-1.9
			c-0.2-0.2-0.3-0.3-0.5-0.5c-0.6-0.6-1.2-1.1-1.8-1.7c-0.1-0.1-0.2-0.2-0.3-0.2c-0.6-0.6-1.3-1.2-2-1.7c-0.2-0.2-0.4-0.4-0.6-0.5
			c-0.7-0.6-1.4-1.1-2-1.7c-0.1-0.1-0.3-0.2-0.4-0.3c-0.6-0.5-1.2-1-1.9-1.4c-0.2-0.1-0.4-0.3-0.5-0.4c-0.7-0.6-1.5-1.1-2.3-1.6
			c-0.2-0.1-0.3-0.2-0.5-0.3c-0.7-0.5-1.5-1-2.3-1.5c-0.1-0.1-0.2-0.1-0.2-0.2c-0.8-0.5-1.7-1.1-2.6-1.6c-0.2-0.1-0.3-0.2-0.5-0.3
			c-0.9-0.5-1.7-1-2.6-1.5c0,0,0,0-0.1,0c-1.1-0.6-2.2-1.2-3.3-1.8c-0.5-0.3-1-0.5-1.6-0.8c-0.6-0.3-1.2-0.6-1.8-0.9
			c-0.7-0.4-1.5-0.7-2.2-1c-0.3-0.1-0.6-0.3-0.9-0.4c-17.8-8.1-38.2-12.3-59.7-12.3c0,0,0,0,0,0c0,0,0,0,0,0c0,0,0,0,0,0
			c0,0,0,0,0,0c-1.1,0-2.2,0-3.3,0c-0.3,0-0.6,0-0.8,0c-1,0-1.9,0.1-2.9,0.1c-0.2,0-0.3,0-0.5,0c-20.3,1-39.5,5.8-56,13.9
			c-7-20.9-25.9-38.2-50.9-48.6c0,0-0.1,0-0.1-0.1c-3.4-1.4-6.9-2.6-10.5-3.8c0,0,0,0,0,0c-1.2-0.4-2.4-0.7-3.6-1.1
			c-0.4-0.1-0.7-0.2-1.1-0.3c-0.5-0.1-1-0.3-1.5-0.4c-0.8-0.2-1.6-0.4-2.4-0.6c-0.3-0.1-0.7-0.2-1-0.2c-0.7-0.2-1.5-0.3-2.2-0.5
			c-0.3-0.1-0.6-0.1-0.9-0.2c-1-0.2-2-0.4-3-0.6c-0.1,0-0.2,0-0.2,0c-1-0.2-2-0.4-3.1-0.5c-0.1,0-0.3,0-0.4-0.1
			c-2.2-0.4-4.4-0.7-6.7-0.9c-0.1,0-0.2,0-0.3,0c-2.2-0.3-4.4-0.5-6.7-0.6c-0.2,0-0.3,0-0.5,0c-1.1-0.1-2.2-0.1-3.3-0.2
			c0,0,0,0-0.1,0c-1,0-2.1-0.1-3.1-0.1c-0.3,0-0.5,0-0.8,0c-1.1,0-2.1,0-3.2,0c0,0,0,0,0,0c0,0,0,0,0,0c0,0,0,0,0,0l0,0
			c-18.2,0-36.2,3.3-52,9.4c-0.1,0-0.1,0-0.2,0.1c-1.4,0.6-2.8,1.1-4.2,1.7c-0.1,0-0.1,0-0.2,0.1c-1.1,0.5-2.3,1-3.4,1.5
			c-0.2,0.1-0.5,0.2-0.7,0.3c-1,0.5-2,1-2.9,1.4c-0.2,0.1-0.5,0.2-0.7,0.4c-1.1,0.6-2.3,1.2-3.4,1.8c0,0-0.1,0-0.1,0.1
			c-0.8,0.4-1.6,0.9-2.3,1.4c-0.2,0.1-0.4,0.2-0.5,0.3c-0.8,0.5-1.6,1-2.4,1.5c0,0-0.1,0.1-0.1,0.1c-0.7,0.5-1.5,1-2.2,1.5
			c-0.2,0.1-0.4,0.3-0.6,0.4c-0.7,0.5-1.4,1-2.1,1.5c-0.2,0.1-0.3,0.3-0.5,0.4c-0.6,0.4-1.2,0.9-1.7,1.3c-0.2,0.1-0.4,0.3-0.6,0.4
			c-0.7,0.5-1.3,1-1.9,1.6c-0.2,0.2-0.4,0.3-0.6,0.5c-0.6,0.5-1.1,1-1.7,1.5c-0.1,0.1-0.2,0.2-0.3,0.3c-0.6,0.6-1.3,1.2-1.9,1.8
			c-0.1,0.1-0.3,0.3-0.4,0.4c-0.6,0.6-1.3,1.2-1.9,1.9l0,0c-0.7,0.7-1.3,1.4-1.9,2.1c0,0,0,0-0.1,0.1C10.3,43,5.5,51.2,2.7,59.8
			c0,0.1-0.1,0.3-0.1,0.4C0.9,65.6,0,71.3,0,77c0,15.7,6.5,30.7,18.8,43.5L8.5,163.6c-0.4,1.5,0.3,3.1,1.6,4
			c0.6,0.4,1.4,0.6,2.1,0.6c0.8,0,1.5-0.2,2.2-0.7l35.4-25.7c17.5,8,37.8,12.2,58.7,12.2c21.2,0,41.4-4.3,59-12.3
			c4,14.5,13.4,27.8,27.5,38.8c0,0,0,0,0,0c0,0,0.1,0,0.1,0.1c0.4,0.3,0.7,0.6,1.1,0.8c0.3,0.2,0.6,0.5,1,0.7
			c0.3,0.2,0.5,0.4,0.8,0.5c0.4,0.3,0.8,0.6,1.3,0.9c0,0,0,0,0,0c20.3,14.2,46.8,22.2,75.1,22.8c0.1,0,0.2,0,0.3,0
			c0.9,0,1.9,0,2.8,0c0,0,0.1,0,0.1,0c0,0,0,0,0,0c0,0,0,0,0,0c0,0,0,0,0,0c20.7,0,40.8-4,58.3-11.7l33.7,24.4
			c1.3,1,2.9,1.4,4.4,1.4c1.5,0,2.9-0.4,4.2-1.3c2.6-1.7,3.9-4.9,3.1-8L371.3,170.2z M108.5,146.5c-20.7,0-40.6-4.3-57.5-12.4
			c-1.2-0.6-2.7-0.5-3.8,0.3l-29,21l8.5-35.3c0.3-1.3-0.1-2.6-1-3.5C13.8,105,7.5,91.3,7.5,77c0-13.2,5.5-25.9,15.4-36.8
			c0.1-0.1,0.2-0.2,0.2-0.3c0.5-0.6,1.1-1.1,1.6-1.7c0.1-0.1,0.2-0.2,0.4-0.4c0.4-0.4,0.8-0.8,1.3-1.2c0.2-0.2,0.4-0.4,0.6-0.6
			c0.5-0.5,1-0.9,1.5-1.4c0.3-0.2,0.5-0.4,0.8-0.7c0.3-0.3,0.7-0.6,1-0.9c0.4-0.3,0.7-0.6,1.1-0.9c0.4-0.3,0.8-0.7,1.2-1
			c0.3-0.2,0.6-0.5,0.9-0.7c0.4-0.3,0.7-0.6,1.1-0.8c0.4-0.3,0.8-0.6,1.3-0.9c0.4-0.3,0.8-0.6,1.2-0.8c0.3-0.2,0.6-0.4,0.9-0.6
			c0.6-0.4,1.2-0.8,1.8-1.2c0.2-0.2,0.5-0.3,0.8-0.5c0.5-0.3,1-0.6,1.5-0.9c0.2-0.1,0.5-0.3,0.7-0.4c0.6-0.4,1.3-0.8,1.9-1.1
			c1.1-0.6,2.1-1.2,3.2-1.8c0,0,0.1,0,0.1-0.1c1-0.5,2.1-1.1,3.2-1.6c0.2-0.1,0.4-0.2,0.6-0.3c1-0.5,2.1-1,3.1-1.4
			c0.1,0,0.2-0.1,0.3-0.1c15.9-6.8,34.5-10.5,53.4-10.5c1.4,0,2.7,0,4.1,0.1c0.4,0,0.7,0,1.1,0c1.1,0,2.1,0.1,3.2,0.1
			c0.3,0,0.6,0,0.9,0.1c2.8,0.2,5.6,0.4,8.4,0.8c0.1,0,0.1,0,0.2,0c1.4,0.2,2.8,0.4,4.2,0.6c0,0,0,0,0,0
			c15.9,2.5,30.9,7.6,43.5,15.1c16.9,10,28.5,23.5,33.1,38.3c-2.8,1.6-5.5,3.3-8.1,5.1c-21.9,15.3-33.9,35.9-33.9,58
			c0,2.9,0.2,5.7,0.6,8.5C149,142.2,129.2,146.5,108.5,146.5z M355.8,169.7l6.1,25.4L341.1,180c-2.2-1.6-5.2-1.9-7.7-0.7
			c-16.4,7.9-35.8,12.1-55.9,12.1c-1.5,0-3,0-4.5-0.1c-0.2,0-0.4,0-0.6,0c-1.3,0-2.5-0.1-3.8-0.2c-0.5,0-1-0.1-1.5-0.1
			c-1-0.1-2-0.2-3-0.3c-16.9-1.6-32.9-6.2-46.3-13.3c-0.8-0.4-1.6-0.9-2.4-1.3c-0.3-0.2-0.7-0.4-1-0.6c-1-0.6-2-1.2-3-1.8
			c-0.1-0.1-0.2-0.1-0.3-0.2c-1.1-0.7-2.3-1.5-3.4-2.2c-0.4-0.3-0.8-0.6-1.2-0.9c-0.1-0.1-0.3-0.2-0.4-0.3c-0.3-0.2-0.6-0.4-0.8-0.6
			c-0.3-0.2-0.6-0.5-0.9-0.7c-15.6-12-24.1-27.2-24.1-43.1c0-17,9.8-33.3,27.5-45.7c5.9-4.1,12.4-7.6,19.4-10.5c0.1,0,0.1,0,0.2-0.1
			c10.2-4.2,21.4-7,33.1-8.5c0.4,0,0.7-0.1,1.1-0.1c0.8-0.1,1.6-0.2,2.5-0.3c0.8-0.1,1.7-0.1,2.5-0.2c0.7-0.1,1.5-0.1,2.2-0.2
			c1.1-0.1,2.1-0.1,3.2-0.2c0.4,0,0.9,0,1.3,0c1.4,0,2.9-0.1,4.3-0.1c30.1,0,57.9,9.6,75.9,24.9c0.3,0.2,0.6,0.5,0.8,0.7
			c0.2,0.2,0.4,0.3,0.6,0.5c12.7,11.3,19.9,25.2,19.9,39.7c0,13.2-5.9,26-17,37C356,164.5,355.2,167.2,355.8,169.7z"/>
	</g>
	<g>
		<g>
			<path class="st0" d="M144.8,102l-22.2-14.4c3.3-4.9,5.2-10.9,5.2-17.2c0-17.1-13.9-31-31-31c-17.1,0-31,13.9-31,31
				c0,17.1,13.9,31,31,31c7,0,13.4-2.3,18.6-6.2l17.9,19.7c1.3,1.4,3.2,2.2,5.1,2.2h0.1c2,0,3.8-0.9,5.1-2.3l2.2-2.5
				c1.3-1.5,1.9-3.4,1.7-5.4C147.4,104.9,146.4,103.1,144.8,102z M71.8,70.3c0-13.8,11.2-25,25-25s25,11.2,25,25s-11.2,25-25,25
				S71.8,84.1,71.8,70.3z"/>
		</g>
	</g>
	<g>
		<path class="st0" d="M85,68.9h-0.6c-1.1,0-2,0.9-2,2v6.7c0,1.1,0.9,2,2,2H85c1.1,0,2-0.9,2-2v-6.7C87,69.8,86.1,68.9,85,68.9z"/>
	</g>
	<g>
		<path class="st0" d="M96.5,61.2h-0.6c-1.1,0-2,0.9-2,2v14.4c0,1.1,0.9,2,2,2h0.6c1.1,0,2-0.9,2-2V63.2
			C98.5,62.1,97.6,61.2,96.5,61.2z"/>
	</g>
	<g>
		<path class="st0" d="M107.9,56.8h-0.6c-1.1,0-2,0.9-2,2v18.8c0,1.1,0.9,2,2,2h0.6c1.1,0,2-0.9,2-2V58.9
			C109.9,57.8,109,56.8,107.9,56.8z"/>
	</g>
</g>
</svg>
