<?xml version="1.0" encoding="utf-8"?>
<!-- Generator: Adobe Illustrator 21.1.0, SVG Export Plug-In . SVG Version: 6.00 Build 0)  -->
<svg version="1.1" id="Ebene_1" xmlns="http://www.w3.org/2000/svg" xmlns:xlink="http://www.w3.org/1999/xlink" x="0px" y="0px"
	 viewBox="0 0 33.2 33.1" style="enable-background:new 0 0 33.2 33.1;" xml:space="preserve">
<style type="text/css">
	.st0{fill:#D3D7DA;}
</style>
<path class="st0" d="M31.3,10.6h-4.9h-8.8V9.3c0-0.3-0.2-0.6-0.4-0.8L7.4,1C7.2,0.8,6.9,0.8,6.5,0.8C6.2,0.9,6,1.1,5.8,1.4l-4.9,9.8
	l0,0c0,0,0,0,0,0.1l0,0c0,0,0,0,0,0.1l0,0l0,0c0,0,0,0,0,0.1l0,0c0,0,0,0,0,0.1l0,0v19.6c0,0.6,0.5,1.1,1.1,1.1h24.6h4.9
	c0.6,0,1.1-0.5,1.1-1.1V11.7C32.4,11.1,31.9,10.6,31.3,10.6z M7.2,3.5l8.3,6.3v0.8H3.6L7.2,3.5z M2.9,12.7h22.5v17.5H2.9V12.7z
	 M30.2,30.2h-2.7V12.7h2.7V30.2z"/>
</svg>
