<?xml version="1.0" encoding="utf-8"?>
<!-- Generator: Adobe Illustrator 21.1.0, SVG Export Plug-In . SVG Version: 6.00 Build 0)  -->
<svg version="1.1" id="Ebene_1" xmlns="http://www.w3.org/2000/svg" xmlns:xlink="http://www.w3.org/1999/xlink" x="0px" y="0px"
	 viewBox="0 0 33.8 33.7" style="enable-background:new 0 0 33.8 33.7;" xml:space="preserve">
<style type="text/css">
	.st0{fill:#25407A;}
</style>
<path class="st0" d="M31.6,10.9h-4.9h-8.8V9.6c0-0.3-0.2-0.6-0.4-0.8L7.7,1.3C7.5,1.1,7.2,1.1,6.8,1.1C6.5,1.2,6.3,1.4,6.1,1.7
	l-4.9,9.8l0,0c0,0,0,0,0,0.1l0,0c0,0,0,0,0,0.1l0,0l0,0c0,0,0,0,0,0.1l0,0c0,0,0,0,0,0.1l0,0v19.6c0,0.6,0.5,1.1,1.1,1.1h24.6h4.9
	c0.6,0,1.1-0.5,1.1-1.1V12C32.7,11.4,32.2,10.9,31.6,10.9z M7.5,3.8l8.3,6.3v0.8H3.9L7.5,3.8z M3.2,13h22.5v17.5H3.2V13z M30.5,30.5
	h-2.7V13h2.7V30.5z"/>
</svg>
