<?xml version="1.0" encoding="utf-8"?>
<!-- Generator: Adobe Illustrator 21.1.0, SVG Export Plug-In . SVG Version: 6.00 Build 0)  -->
<svg version="1.1" id="Ebene_1" xmlns="http://www.w3.org/2000/svg" xmlns:xlink="http://www.w3.org/1999/xlink" x="0px" y="0px"
	 viewBox="0 0 34.7 34.5" style="enable-background:new 0 0 34.7 34.5;" xml:space="preserve">
<style type="text/css">
	.st0{fill:#FFFFFF;}
</style>
<path class="st0" d="M32,11.3h-4.9h-8.8V10c0-0.3-0.2-0.6-0.4-0.8L8.1,1.7C7.9,1.5,7.6,1.5,7.2,1.5C6.9,1.6,6.7,1.8,6.5,2.1
	l-4.9,9.8l0,0c0,0,0,0,0,0.1l0,0c0,0,0,0,0,0.1l0,0l0,0c0,0,0,0,0,0.1l0,0c0,0,0,0,0,0.1l0,0v19.6c0,0.6,0.5,1.1,1.1,1.1h24.6h4.9
	c0.6,0,1.1-0.5,1.1-1.1V12.4C33.1,11.8,32.6,11.3,32,11.3z M7.9,4.2l8.3,6.3v0.8H4.3L7.9,4.2z M3.6,13.4h22.5v17.5H3.6V13.4z
	 M30.9,30.9h-2.7V13.4h2.7V30.9z"/>
</svg>
