<?xml version="1.0" encoding="utf-8"?>
<!-- Generator: Adobe Illustrator 21.1.0, SVG Export Plug-In . SVG Version: 6.00 Build 0)  -->
<svg version="1.1" id="Ebene_1" xmlns="http://www.w3.org/2000/svg" xmlns:xlink="http://www.w3.org/1999/xlink" x="0px" y="0px"
	 viewBox="0 0 43.98 11.71" style="enable-background:new 0 0 43.98 11.71;" xml:space="preserve">
<style type="text/css">
	.st0{fill:#004077;}
</style>
<path class="st0" d="M43.77,0.39c-0.03-0.02-0.13-0.09-0.33-0.09l-6.92-0.02c-0.04,0-0.14-0.01-0.24-0.01c-0.18,0-0.6,0-0.65,0.39
	c-0.02,0.11-0.01,0.37,0,0.57v3.62l0,0c0,0.18,0,0.38,0,0.54c-0.14,0-0.3-0.01-0.45-0.01l-2.25,0c-0.01,0-0.02,0-0.03,0V0.33
	C32.9,0.15,32.75,0,32.57,0h-3.56c-0.18,0-0.33,0.15-0.33,0.33v5.06c-0.01,0-0.02,0-0.03,0h-1.11c-0.03,0-0.07,0-0.1,0.01V0.33
	C27.45,0.15,27.3,0,27.13,0h-3.56c-0.18,0-0.33,0.15-0.33,0.33v5.06c-0.01,0-0.02,0-0.03,0h-1.32c0,0-0.01,0-0.01,0V0.33
	c0-0.18-0.15-0.33-0.33-0.33H18c-0.18,0-0.33,0.15-0.33,0.33v5.06c-0.01,0-0.02,0-0.04,0h-1.1c-0.02,0-0.04,0-0.06,0V0.33
	c0-0.18-0.15-0.33-0.33-0.33h-3.56c-0.18,0-0.33,0.15-0.33,0.33v5.06c-0.02,0-0.05-0.01-0.07-0.01h-1.69L5.82,0.43L5.75,0.37
	C5.67,0.32,5.63,0.3,5.62,0.29C5.6,0.28,5.57,0.27,5.53,0.26L5.4,0.24H0.5l-0.02,0C0.38,0.25,0.25,0.28,0.14,0.38
	C0.07,0.45,0.02,0.55,0.01,0.67L0,0.73v10.49l0.01,0.1c0.03,0.1,0.07,0.18,0.13,0.25c0.09,0.09,0.21,0.13,0.3,0.14l0.06,0h43.01
	l0.12-0.02c0.09-0.03,0.16-0.07,0.22-0.12c0.09-0.09,0.13-0.21,0.13-0.29l0-0.05V0.87C43.99,0.6,43.87,0.46,43.77,0.39z M29.1,0.42
	h3.38v7.64H29.1V0.42z M27.45,6.2c0.03,0.01,0.07,0.01,0.1,0.01h1.11c0.01,0,0.02,0,0.03,0v1.84h-1.24V6.2z M23.66,0.42h3.38v7.64
	h-3.38V0.42z M21.89,6.21h1.32c0.01,0,0.02,0,0.03,0v1.84h-1.36V6.21C21.89,6.21,21.89,6.21,21.89,6.21z M18.09,0.42h3.38V5.8v2.26
	h-3.38V5.8V0.42z M16.48,6.21c0.02,0,0.04,0,0.06,0h1.1c0.01,0,0.03,0,0.04,0v1.84h-1.19V6.21z M12.68,0.42h3.38v7.64h-3.38V0.42z
	 M10.07,8.38v2.5H0.83V1.07h4.46l4.68,4.95l0.06,0.05c0.08,0.06,0.12,0.07,0.14,0.08c0.02,0.01,0.06,0.03,0.18,0.05l0.08,0.01h1.78
	c0.02,0,0.05,0,0.07-0.01v1.85h-1.88C10.21,8.05,10.07,8.2,10.07,8.38z M35.76,10.88H10.48V8.47h2.11h3.56H18h3.56h2.01h3.56h1.89
	h3.56h3.19V10.88z M43.14,10.88h-6.97v-2.5c0-0.18-0.15-0.33-0.33-0.33H32.9V6.21c0.01,0,0.02,0,0.03,0h2.23
	c0.04,0,0.23,0.01,0.43,0.01c0.13,0,0.24,0,0.31,0c0.14,0,0.47-0.01,0.54-0.35c0.01-0.05,0.02-0.1,0.01-1.04V1.22l0-0.02
	c0-0.03,0-0.06,0-0.09c0.01,0,0.03,0,0.04,0l0.02,0l6.63,0.02V10.88z M43.15,0.83C43.15,0.83,43.15,0.83,43.15,0.83L43.15,0.83
	L43.15,0.83z"/>
</svg>
