<?xml version="1.0" encoding="utf-8"?>
<!-- Generator: Adobe Illustrator 21.1.0, SVG Export Plug-In . SVG Version: 6.00 Build 0)  -->
<svg version="1.1" id="Ebene_1" xmlns="http://www.w3.org/2000/svg" xmlns:xlink="http://www.w3.org/1999/xlink" x="0px" y="0px"
	 viewBox="0 0 44 11.7" style="enable-background:new 0 0 44 11.7;" xml:space="preserve">
<style type="text/css">
	.st0{fill:#FFFFFF;}
</style>
<path class="st0" d="M43.8,0.4c0,0-0.1-0.1-0.3-0.1l-6.9,0c0,0-0.1,0-0.2,0c-0.2,0-0.6,0-0.7,0.4c0,0.1,0,0.4,0,0.6v3.6l0,0
	c0,0.2,0,0.4,0,0.5c-0.1,0-0.3,0-0.5,0h-2.2c0,0,0,0,0,0v-5c0-0.2-0.1-0.3-0.3-0.3H29c-0.2,0-0.3,0.2-0.3,0.3v5.1c0,0,0,0,0,0h-1.1
	c0,0-0.1,0-0.1,0V0.3c0-0.2-0.1-0.3-0.3-0.3h-3.6c-0.2,0-0.3,0.2-0.3,0.3v5.1c0,0,0,0,0,0h-1.3h0V0.3c0-0.2-0.1-0.3-0.3-0.3H18
	c-0.2,0-0.3,0.2-0.3,0.3v5.1c0,0,0,0,0,0h-1.1c0,0,0,0-0.1,0V0.3c0-0.2-0.1-0.3-0.3-0.3h-3.6c-0.2,0-0.3,0.2-0.3,0.3v5.1
	c0,0-0.1,0-0.1,0h-1.7L5.8,0.4L5.8,0.4C5.7,0.3,5.6,0.3,5.6,0.3c0,0,0,0-0.1,0l-0.1,0H0.5h0c-0.1,0-0.2,0-0.3,0.1
	C0.1,0.4,0,0.5,0,0.7l0,0.1v10.5l0,0.1c0,0.1,0.1,0.2,0.1,0.2c0.1,0.1,0.2,0.1,0.3,0.1h0.1h43l0.1,0c0.1,0,0.2-0.1,0.2-0.1
	c0.1-0.1,0.1-0.2,0.1-0.3v-0.1V0.9C44,0.6,43.9,0.5,43.8,0.4z M29.1,0.4h3.4v7.6h-3.4V0.4z M27.5,6.2c0,0,0.1,0,0.1,0h1.1
	c0,0,0,0,0,0V8h-1.2C27.5,8,27.5,6.2,27.5,6.2z M23.7,0.4H27v7.6h-3.4V0.4z M21.9,6.2h1.3c0,0,0,0,0,0V8h-1.4L21.9,6.2
	C21.9,6.2,21.9,6.2,21.9,6.2z M18.1,0.4h3.4v5.4v2.3h-3.4V5.8V0.4z M16.5,6.2C16.5,6.2,16.5,6.2,16.5,6.2h1.2c0,0,0,0,0,0V8h-1.2
	L16.5,6.2L16.5,6.2z M12.7,0.4h3.4v7.6h-3.4C12.7,8.1,12.7,0.4,12.7,0.4z M10.1,8.4v2.5H0.8V1.1h4.5L10,6L10,6.1
	c0.1,0.1,0.1,0.1,0.1,0.1c0,0,0.1,0,0.2,0.1l0.1,0h1.8c0,0,0.1,0,0.1,0V8h-1.9C10.2,8,10.1,8.2,10.1,8.4z M35.8,10.9H10.5V8.5h2.1
	h3.6H18h3.6h2h3.6H29h3.6h3.2L35.8,10.9L35.8,10.9z M43.1,10.9h-7V8.4C36.2,8.2,36,8,35.8,8h-2.9V6.2c0,0,0,0,0,0h2.2
	c0,0,0.2,0,0.4,0c0.1,0,0.2,0,0.3,0c0.1,0,0.5,0,0.5-0.3c0-0.1,0-0.1,0-1V1.2v0c0,0,0-0.1,0-0.1c0,0,0,0,0,0h0l6.6,0
	C43.1,1.1,43.1,10.9,43.1,10.9z M43.2,0.8L43.2,0.8L43.2,0.8L43.2,0.8z"/>
</svg>
