<?xml version="1.0" encoding="utf-8"?>
<!-- Generator: Adobe Illustrator 21.1.0, SVG Export Plug-In . SVG Version: 6.00 Build 0)  -->
<svg version="1.1" id="Ebene_1" xmlns="http://www.w3.org/2000/svg" xmlns:xlink="http://www.w3.org/1999/xlink" x="0px" y="0px"
	 viewBox="0 0 71.1 17.8" style="enable-background:new 0 0 71.1 17.8;" xml:space="preserve">
<style type="text/css">
	.st0{fill:none;stroke:#004077;stroke-width:20;stroke-linecap:round;stroke-linejoin:bevel;}
	.st1{fill:#D3D7DA;}
</style>
<g>
	<path class="st0" d="M130.3,9.8"/>
</g>
<g>
	<path class="st0" d="M98.2,9.8"/>
</g>
<g>
	<path class="st0" d="M83.9,9.8"/>
</g>
<path class="st1" d="M68.6,0.6c0,0-0.2-0.1-0.5-0.1l-10.5,0c-0.1,0-0.2,0-0.4,0c-0.3,0-0.9,0-1,0.6c0,0.2,0,0.6,0,0.9v5.5l0,0
	c0,0.3,0,0.6,0,0.8c-0.2,0-0.5,0-0.7,0l-3.4,0c0,0,0,0,0,0V0.5C52,0.2,51.8,0,51.5,0h-5.4c-0.3,0-0.5,0.2-0.5,0.5v7.7c0,0,0,0,0,0
	h-1.7c-0.1,0-0.1,0-0.2,0V0.5c0-0.3-0.2-0.5-0.5-0.5h-5.4c-0.3,0-0.5,0.2-0.5,0.5v7.7c0,0,0,0,0,0h-2c0,0,0,0,0,0V0.5
	C35.2,0.2,35,0,34.7,0h-5.4c-0.3,0-0.5,0.2-0.5,0.5v7.7c0,0,0,0-0.1,0h-1.7c0,0-0.1,0-0.1,0V0.5C27,0.2,26.8,0,26.5,0h-5.4
	c-0.3,0-0.5,0.2-0.5,0.5v7.7c0,0-0.1,0-0.1,0h-2.6l-7.1-7.5l-0.1-0.1c-0.1-0.1-0.2-0.1-0.2-0.1c0,0-0.1,0-0.1,0l-0.2,0H2.7l0,0
	c-0.1,0-0.3,0.1-0.5,0.2C2,0.7,1.9,0.8,1.9,1l0,0.1v16l0,0.2c0,0.2,0.1,0.3,0.2,0.4c0.1,0.1,0.3,0.2,0.5,0.2l0.1,0h65.5l0.2,0
	c0.1,0,0.2-0.1,0.3-0.2c0.1-0.1,0.2-0.3,0.2-0.4l0-0.1V1.3C68.9,0.9,68.7,0.7,68.6,0.6z M46.2,0.6h5.1v11.6h-5.1V0.6z M43.7,9.4
	c0,0,0.1,0,0.2,0h1.7c0,0,0,0,0,0v2.8h-1.9V9.4z M37.9,0.6h5.1v11.6h-5.1V0.6z M35.2,9.5h2c0,0,0,0,0,0v2.8h-2.1L35.2,9.5
	C35.2,9.5,35.2,9.5,35.2,9.5z M29.4,0.6h5.1v8.2v3.4h-5.1V8.8V0.6z M27,9.5C27,9.5,27.1,9.5,27,9.5l1.8,0c0,0,0,0,0.1,0v2.8H27V9.5z
	 M21.2,0.6h5.1v11.6h-5.1V0.6z M17.2,12.8v3.8H3.2V1.6h6.8l7.1,7.5l0.1,0.1c0.1,0.1,0.2,0.1,0.2,0.1c0,0,0.1,0,0.3,0.1l0.1,0h2.7
	c0,0,0.1,0,0.1,0v2.8h-2.9C17.5,12.3,17.2,12.5,17.2,12.8z M56.4,16.6H17.9v-3.7h3.2h5.4h2.8h5.4h3.1h5.4h2.9h5.4h4.9V16.6z
	 M67.6,16.6H57v-3.8c0-0.3-0.2-0.5-0.5-0.5H52V9.5c0,0,0,0,0,0h3.4c0.1,0,0.4,0,0.7,0c0.2,0,0.4,0,0.5,0c0.2,0,0.7,0,0.8-0.5
	c0-0.1,0-0.1,0-1.6V1.9l0,0c0,0,0-0.1,0-0.1c0,0,0,0,0.1,0l0,0l10.1,0V16.6z M67.6,1.3C67.6,1.3,67.6,1.3,67.6,1.3L67.6,1.3
	L67.6,1.3z"/>
</svg>
