<?xml version="1.0" encoding="utf-8"?>
<!-- Generator: Adobe Illustrator 21.1.0, SVG Export Plug-In . SVG Version: 6.00 Build 0)  -->
<svg version="1.1" id="Ebene_1" xmlns="http://www.w3.org/2000/svg" xmlns:xlink="http://www.w3.org/1999/xlink" x="0px" y="0px"
	 viewBox="0 0 43.86 44.23" style="enable-background:new 0 0 43.86 44.23;" xml:space="preserve">
<style type="text/css">
	.st0{fill:#004077;}
</style>
<g>
	<g>
		<path class="st0" d="M26.99,12.81c-0.18,0-0.35-0.1-0.44-0.27c-1.31-2.63-3.68-4.62-6.52-5.44c-0.26-0.08-0.41-0.35-0.33-0.61
			c0.07-0.26,0.35-0.41,0.61-0.33c3.1,0.9,5.69,3.07,7.12,5.95c0.12,0.24,0.02,0.54-0.22,0.66C27.13,12.79,27.06,12.81,26.99,12.81z
			"/>
		<path class="st0" d="M29.87,12.14c-0.19,0-0.37-0.11-0.45-0.3c-1.55-3.67-4.63-6.41-8.46-7.52c-0.22-0.06-0.44-0.12-0.66-0.17
			c-0.26-0.06-0.43-0.33-0.37-0.59c0.06-0.26,0.33-0.43,0.59-0.37c0.24,0.06,0.47,0.12,0.71,0.19c4.12,1.19,7.43,4.14,9.09,8.08
			c0.11,0.25-0.01,0.54-0.26,0.64C29.99,12.13,29.93,12.14,29.87,12.14z"/>
		<path class="st0" d="M32.99,11.97c-0.21,0-0.4-0.13-0.47-0.34C30.89,6.67,26.9,2.83,21.86,1.37c-0.56-0.16-1.13-0.3-1.71-0.4
			c-0.27-0.05-0.45-0.3-0.4-0.57c0.05-0.27,0.3-0.44,0.57-0.4c0.61,0.11,1.22,0.25,1.81,0.42c5.35,1.55,9.58,5.63,11.32,10.9
			c0.09,0.26-0.05,0.53-0.31,0.62C33.09,11.97,33.04,11.97,32.99,11.97z"/>
		<path class="st0" d="M13.34,28.29c-0.05,0-0.09-0.01-0.14-0.02c-3.1-0.9-5.69-3.07-7.12-5.94c-0.12-0.24-0.02-0.54,0.22-0.66
			c0.24-0.12,0.54-0.02,0.66,0.22c1.31,2.63,3.68,4.62,6.52,5.44c0.26,0.08,0.41,0.35,0.33,0.61
			C13.75,28.15,13.56,28.29,13.34,28.29z"/>
		<path class="st0" d="M13.1,31.24c-0.04,0-0.07,0-0.11-0.01c-0.24-0.06-0.47-0.12-0.71-0.19c-4.12-1.2-7.43-4.14-9.09-8.08
			c-0.11-0.25,0.01-0.54,0.26-0.64c0.25-0.11,0.54,0.01,0.64,0.26c1.55,3.67,4.63,6.41,8.46,7.52c0.22,0.06,0.44,0.12,0.66,0.17
			c0.26,0.06,0.43,0.33,0.37,0.59C13.53,31.08,13.33,31.24,13.1,31.24z"/>
		<path class="st0" d="M13.24,34.13c-0.03,0-0.06,0-0.09-0.01c-0.6-0.11-1.21-0.25-1.81-0.42C6,32.15,1.77,28.08,0.03,22.8
			c-0.09-0.26,0.05-0.53,0.31-0.62c0.26-0.09,0.53,0.05,0.62,0.31c1.64,4.97,5.63,8.81,10.66,10.27c0.57,0.16,1.14,0.3,1.71,0.4
			c0.27,0.05,0.45,0.3,0.4,0.57C13.69,33.97,13.48,34.13,13.24,34.13z"/>
	</g>
	<path class="st0" d="M37.33,40.49c-0.71,0-1.42-0.27-1.96-0.8c-0.52-0.52-0.81-1.21-0.81-1.95s0.29-1.43,0.81-1.95
		c1.08-1.07,2.83-1.07,3.91,0c0.52,0.52,0.81,1.21,0.81,1.95c0,0.74-0.29,1.43-0.81,1.95C38.75,40.22,38.04,40.49,37.33,40.49z
		 M37.33,35.96c-0.46,0-0.92,0.17-1.26,0.52c-0.34,0.33-0.52,0.78-0.52,1.25c0,0.47,0.19,0.92,0.52,1.25c0.7,0.69,1.83,0.69,2.53,0
		c0.34-0.34,0.52-0.78,0.52-1.25c0-0.47-0.19-0.92-0.52-1.25C38.25,36.13,37.79,35.96,37.33,35.96z"/>
	<path class="st0" d="M18.35,14.77c-0.01,0.02-0.03,0.05-0.05,0.08C18.32,14.82,18.33,14.79,18.35,14.77L18.35,14.77z"/>
	<path class="st0" d="M41.95,33.14c-0.4-0.4-0.84-0.74-1.31-1.01c-0.04-0.02-0.08-0.05-0.12-0.07c-0.12-0.07-0.25-0.13-0.37-0.19
		c0,0-0.01,0-0.01-0.01c-0.12-0.05-0.25-0.11-0.37-0.16c-0.13-0.05-0.26-0.1-0.38-0.14c-0.08-0.03-0.16-0.05-0.25-0.07
		c-0.37-0.1-0.74-0.17-1.12-0.21c-0.3-0.03-0.61-0.04-0.92-0.02c-0.09,0-0.19,0-0.29,0.01c-0.09,0-0.19,0.01-0.28,0.03
		c-0.03,0-0.07,0-0.1,0.01L25.11,20.06c1.06-3.14,0.27-6.6-2.11-8.98c-2.22-2.21-5.49-3.08-8.53-2.25c-0.34,0.09-0.6,0.36-0.69,0.7
		c-0.09,0.34,0.01,0.7,0.26,0.94l4.31,4.29h0c-0.01,0.02-0.03,0.05-0.05,0.08c-0.03,0.05-0.07,0.12-0.12,0.18
		c-0.04,0.06-0.09,0.13-0.14,0.2c-0.05,0.07-0.1,0.14-0.16,0.22c-0.04,0.06-0.09,0.12-0.14,0.19c-0.31,0.4-0.71,0.87-1.21,1.37
		c-0.9,0.9-1.73,1.49-2.25,1.82l-4.32-4.3c-0.25-0.25-0.61-0.34-0.94-0.26c-0.34,0.09-0.6,0.35-0.7,0.69
		c-0.83,3.03,0.03,6.29,2.26,8.51c2.38,2.37,5.86,3.17,9.01,2.1l11.3,11.25c-0.29,2.03,0.37,4.06,1.84,5.51
		c0.82,0.82,1.85,1.41,2.98,1.7c0.53,0.14,1.08,0.21,1.62,0.21c1.71,0,3.38-0.67,4.62-1.9c1.23-1.23,1.91-2.86,1.91-4.6
		C43.86,36,43.18,34.37,41.95,33.14z M40.57,40.94c-1.14,1.13-2.81,1.58-4.37,1.19c-0.78-0.2-1.51-0.61-2.08-1.19
		c-1.11-1.11-1.56-2.69-1.21-4.23c0.07-0.33-0.02-0.68-0.26-0.91L20.53,23.72c-0.28-0.28-0.71-0.36-1.07-0.21
		c-2.57,1.08-5.51,0.52-7.49-1.45c-1.29-1.28-1.98-3-1.99-4.77l3.45,3.43c0.29,0.29,0.73,0.37,1.1,0.2
		c0.06-0.03,1.59-0.75,3.39-2.54c0.56-0.56,1.02-1.09,1.37-1.56c0.2-0.26,0.37-0.5,0.52-0.71c0.07-0.11,0.13-0.21,0.19-0.29
		c0.3-0.47,0.44-0.77,0.47-0.82c0.06-0.13,0.09-0.27,0.09-0.41c0-0.06,0-0.12-0.02-0.18c0-0.01,0-0.02,0-0.03
		c-0.01-0.05-0.02-0.11-0.05-0.16c-0.02-0.05-0.04-0.1-0.07-0.15c-0.01-0.02-0.02-0.03-0.04-0.05c-0.02-0.04-0.06-0.09-0.1-0.13
		l-0.04-0.04l-3.39-3.38c1.77,0.01,3.5,0.71,4.79,1.98c1.97,1.97,2.54,4.89,1.45,7.45c-0.16,0.37-0.07,0.8,0.21,1.08L35.4,33.07
		c0.02,0.02,0.05,0.04,0.07,0.06c0,0.01,0,0.01,0.01,0.01c0.04,0.03,0.08,0.06,0.12,0.08c0.07,0.04,0.14,0.07,0.21,0.09
		c0.03,0.01,0.07,0.02,0.11,0.02c0.12,0.02,0.25,0.02,0.37,0c0.09-0.02,0.18-0.03,0.27-0.05c0,0,0,0,0.01,0
		c0.09-0.01,0.19-0.02,0.28-0.03c0.09-0.01,0.18-0.01,0.27-0.02c0.24-0.01,0.47-0.01,0.7,0.01c0.14,0.01,0.28,0.03,0.43,0.06
		c0.07,0.01,0.14,0.03,0.22,0.05c0.07,0.01,0.14,0.03,0.22,0.06c0.14,0.04,0.27,0.09,0.41,0.14c0.16,0.07,0.32,0.14,0.48,0.23
		c0,0,0,0,0.01,0c0.36,0.2,0.69,0.45,0.99,0.75c0.86,0.86,1.33,2,1.33,3.2C41.9,38.94,41.43,40.08,40.57,40.94z"/>
	<path class="st0" d="M36.56,33.28c-0.09,0.02-0.18,0.03-0.27,0.05c-0.12,0.02-0.25,0.02-0.37,0c0.12,0.02,0.25,0.02,0.37,0
		C36.38,33.31,36.47,33.29,36.56,33.28z"/>
	<path class="st0" d="M39.13,31.49c-0.37-0.1-0.74-0.17-1.12-0.21C38.39,31.31,38.77,31.38,39.13,31.49z"/>
</g>
</svg>
