<?xml version="1.0" encoding="utf-8"?>
<!-- Generator: Adobe Illustrator 21.1.0, SVG Export Plug-In . SVG Version: 6.00 Build 0)  -->
<svg version="1.1" id="Ebene_1" xmlns="http://www.w3.org/2000/svg" xmlns:xlink="http://www.w3.org/1999/xlink" x="0px" y="0px"
	 viewBox="0 0 43.9 44.2" style="enable-background:new 0 0 43.9 44.2;" xml:space="preserve">
<style type="text/css">
	.st0{fill:#FFFFFF;}
</style>
<g>
	<g>
		<path class="st0" d="M27,12.8c-0.2,0-0.4-0.1-0.4-0.3c-1.3-2.6-3.7-4.6-6.5-5.4c-0.3-0.1-0.4-0.3-0.3-0.6c0.1-0.3,0.4-0.4,0.6-0.3
			c3.1,0.9,5.7,3.1,7.1,5.9c0.1,0.2,0,0.5-0.2,0.7C27.1,12.8,27.1,12.8,27,12.8z"/>
		<path class="st0" d="M29.9,12.1c-0.2,0-0.4-0.1-0.5-0.3c-1.5-3.7-4.6-6.4-8.5-7.5c-0.2-0.1-0.4-0.1-0.7-0.2
			c-0.3-0.1-0.4-0.3-0.4-0.6s0.3-0.4,0.6-0.4c0.2,0.1,0.5,0.1,0.7,0.2c4.1,1.2,7.4,4.1,9.1,8.1c0.1,0.2,0,0.5-0.3,0.6
			C30,12.1,29.9,12.1,29.9,12.1z"/>
		<path class="st0" d="M33,12c-0.2,0-0.4-0.1-0.5-0.3c-1.6-5-5.6-8.8-10.7-10.3c-0.6-0.2-1.1-0.3-1.7-0.4c-0.3-0.1-0.5-0.3-0.4-0.6
			c0-0.3,0.3-0.4,0.6-0.4c0.6,0.1,1.2,0.2,1.8,0.4C27.5,2,31.7,6,33.5,11.3c0.1,0.3,0,0.5-0.3,0.6C33.1,12,33,12,33,12z"/>
		<path class="st0" d="M13.3,28.3c-0.1,0-0.1,0-0.1,0c-3.1-0.9-5.7-3.1-7.1-5.9c-0.1-0.2,0-0.5,0.2-0.7c0.2-0.1,0.5,0,0.7,0.2
			c1.3,2.6,3.7,4.6,6.5,5.4c0.3,0.1,0.4,0.4,0.3,0.6C13.8,28.1,13.6,28.3,13.3,28.3z"/>
		<path class="st0" d="M13.1,31.2c0,0-0.1,0-0.1,0c-0.2-0.1-0.5-0.1-0.7-0.2c-4.1-1.2-7.4-4.1-9.1-8.1c-0.1-0.2,0-0.5,0.3-0.6
			c0.2-0.1,0.5,0,0.6,0.3c1.5,3.7,4.6,6.4,8.5,7.5c0.2,0.1,0.4,0.1,0.7,0.2c0.3,0.1,0.4,0.3,0.4,0.6C13.5,31.1,13.3,31.2,13.1,31.2z
			"/>
		<path class="st0" d="M13.2,34.1C13.2,34.1,13.2,34.1,13.2,34.1c-0.7-0.1-1.3-0.3-1.9-0.4C6,32.1,1.8,28.1,0,22.8
			c-0.1-0.3,0-0.5,0.3-0.6s0.5,0,0.6,0.3c1.6,5,5.6,8.8,10.7,10.3c0.6,0.2,1.1,0.3,1.7,0.4c0.3,0,0.4,0.3,0.4,0.6
			C13.7,34,13.5,34.1,13.2,34.1z"/>
	</g>
	<path class="st0" d="M37.3,40.5c-0.7,0-1.4-0.3-2-0.8c-0.5-0.5-0.8-1.2-0.8-2s0.3-1.4,0.8-2c1.1-1.1,2.8-1.1,3.9,0
		c0.5,0.5,0.8,1.2,0.8,2s-0.3,1.4-0.8,2C38.8,40.2,38,40.5,37.3,40.5z M37.3,36c-0.5,0-0.9,0.2-1.3,0.5c-0.3,0.3-0.5,0.8-0.5,1.2
		s0.2,0.9,0.5,1.2c0.7,0.7,1.8,0.7,2.5,0c0.3-0.3,0.5-0.8,0.5-1.2s-0.2-0.9-0.5-1.2C38.2,36.1,37.8,36,37.3,36z"/>
	<path class="st0" d="M18.4,14.8C18.3,14.8,18.3,14.8,18.4,14.8C18.3,14.8,18.3,14.8,18.4,14.8L18.4,14.8z"/>
	<path class="st0" d="M42,33.1c-0.4-0.4-0.8-0.7-1.3-1c0,0-0.1,0-0.1-0.1c-0.1-0.1-0.2-0.1-0.4-0.2c0,0,0,0,0,0
		c-0.1,0-0.2-0.1-0.4-0.2c-0.1,0-0.3-0.1-0.4-0.1c-0.1,0-0.2,0-0.2-0.1c-0.4-0.1-0.7-0.2-1.1-0.2c-0.3,0-0.6,0-0.9,0
		c-0.1,0-0.2,0-0.3,0c-0.1,0-0.2,0-0.3,0c0,0-0.1,0-0.1,0L25.1,20.1c1.1-3.1,0.3-6.6-2.1-9c-2.2-2.2-5.5-3.1-8.5-2.2
		c-0.3,0.1-0.6,0.4-0.7,0.7c-0.1,0.3,0,0.7,0.3,0.9l4.3,4.3l0,0c0,0,0,0.1,0,0.1c0,0.1-0.1,0.1-0.1,0.2c0,0.1-0.1,0.1-0.1,0.2
		s-0.1,0.1-0.2,0.2c0,0.1-0.1,0.1-0.1,0.2C17.4,16,17,16.5,16.5,17c-0.9,0.9-1.7,1.5-2.2,1.8L10,14.5c-0.2-0.2-0.6-0.3-0.9-0.3
		c-0.3,0.1-0.6,0.4-0.7,0.7c-0.8,3,0,6.3,2.3,8.5c2.4,2.4,5.9,3.2,9,2.1l11.3,11.2c-0.3,2,0.4,4.1,1.8,5.5c0.8,0.8,1.8,1.4,3,1.7
		c0.5,0.1,1.1,0.2,1.6,0.2c1.7,0,3.4-0.7,4.6-1.9c1.2-1.2,1.9-2.9,1.9-4.6C43.9,36,43.2,34.4,42,33.1z M40.6,40.9
		c-1.1,1.1-2.8,1.6-4.4,1.2c-0.8-0.2-1.5-0.6-2.1-1.2c-1.1-1.1-1.6-2.7-1.2-4.2c0.1-0.3,0-0.7-0.3-0.9L20.5,23.7
		c-0.3-0.3-0.7-0.4-1.1-0.2C16.9,24.6,14,24,12,22.1c-1.3-1.3-2-3-2-4.8l3.4,3.4c0.3,0.3,0.7,0.4,1.1,0.2c0.1,0,1.6-0.8,3.4-2.5
		c0.6-0.6,1-1.1,1.4-1.6c0.2-0.3,0.4-0.5,0.5-0.7c0.1-0.1,0.1-0.2,0.2-0.3c0.3-0.5,0.4-0.8,0.5-0.8c0.1-0.1,0.1-0.3,0.1-0.4
		c0-0.1,0-0.1,0-0.2c0,0,0,0,0,0c0-0.1,0-0.1,0-0.2c0-0.1,0-0.1-0.1-0.1c0,0,0,0,0-0.1c0,0-0.1-0.1-0.1-0.1l0,0l-3.4-3.4
		c1.8,0,3.5,0.7,4.8,2c2,2,2.5,4.9,1.5,7.4c-0.2,0.4-0.1,0.8,0.2,1.1l12.1,12.1c0,0,0,0,0.1,0.1c0,0,0,0,0,0c0,0,0.1,0.1,0.1,0.1
		c0.1,0,0.1,0.1,0.2,0.1c0,0,0.1,0,0.1,0c0.1,0,0.2,0,0.4,0c0.1,0,0.2,0,0.3,0c0,0,0,0,0,0c0.1,0,0.2,0,0.3,0s0.2,0,0.3,0
		c0.2,0,0.5,0,0.7,0c0.1,0,0.3,0,0.4,0.1c0.1,0,0.1,0,0.2,0c0.1,0,0.1,0,0.2,0.1c0.1,0,0.3,0.1,0.4,0.1c0.2,0.1,0.3,0.1,0.5,0.2
		c0,0,0,0,0,0c0.4,0.2,0.7,0.5,1,0.8c0.9,0.9,1.3,2,1.3,3.2C41.9,38.9,41.4,40.1,40.6,40.9z"/>
	<path class="st0" d="M36.6,33.3c-0.1,0-0.2,0-0.3,0c-0.1,0-0.2,0-0.4,0c0.1,0,0.2,0,0.4,0C36.4,33.3,36.5,33.3,36.6,33.3z"/>
	<path class="st0" d="M39.1,31.5c-0.4-0.1-0.7-0.2-1.1-0.2C38.4,31.3,38.8,31.4,39.1,31.5z"/>
</g>
</svg>
