<?xml version="1.0" encoding="utf-8"?>
<!-- Generator: Adobe Illustrator 21.1.0, SVG Export Plug-In . SVG Version: 6.00 Build 0)  -->
<svg version="1.1" id="Ebene_1" xmlns="http://www.w3.org/2000/svg" xmlns:xlink="http://www.w3.org/1999/xlink" x="0px" y="0px"
	 viewBox="0 0 41.55 34.35" style="enable-background:new 0 0 41.55 34.35;" xml:space="preserve">
<style type="text/css">
	.st0{fill:#004077;}
</style>
<g>
	<path class="st0" d="M15.86,14.32H6.72c-0.64,0-1.15,0.52-1.15,1.15s0.52,1.15,1.15,1.15h9.14c0.64,0,1.15-0.52,1.15-1.15
		S16.49,14.32,15.86,14.32z"/>
	<path class="st0" d="M15.86,20.87H6.72c-0.64,0-1.15,0.52-1.15,1.15c0,0.64,0.52,1.15,1.15,1.15h9.14c0.64,0,1.15-0.52,1.15-1.15
		C17.01,21.39,16.49,20.87,15.86,20.87z"/>
	<path class="st0" d="M38.41,16.02c-0.31-0.31-0.64-0.6-0.98-0.86V5.17c0-1.89-1.58-3.44-3.52-3.44h-7.04V1.15
		c0-0.64-0.52-1.15-1.15-1.15s-1.15,0.52-1.15,1.15v0.59H11.99V1.15c0-0.64-0.52-1.15-1.15-1.15C10.2,0,9.69,0.52,9.69,1.15v0.59
		H3.52C1.58,1.74,0,3.28,0,5.17v21.54c0,1.89,1.58,3.44,3.52,3.44h18.75V30.1c0.29,0.38,0.61,0.75,0.96,1.1
		c2.09,2.09,4.83,3.15,7.59,3.15c2.76,0,5.5-1.06,7.59-3.15C42.6,27.01,42.6,20.2,38.41,16.02z M3.52,4.04h6.17v1.72
		c0,0.64,0.52,1.15,1.15,1.15c0.64,0,1.15-0.52,1.15-1.15V4.04h12.59v1.72c0,0.64,0.52,1.15,1.15,1.15s1.15-0.52,1.15-1.15V4.04
		h7.04c0.64,0,1.16,0.51,1.16,1.13v3.97H2.36V5.17C2.36,4.55,2.88,4.04,3.52,4.04z M3.52,27.84c-0.64,0-1.16-0.51-1.16-1.13V10.3
		h32.72v3.46c-3.92-1.69-8.65-0.94-11.85,2.26c-3.19,3.19-3.95,7.91-2.27,11.83H3.52z M37.43,30.22c-3.66,3.66-9.57,3.66-13.23,0
		s-3.66-9.57,0-13.23c1.81-1.81,4.21-2.74,6.61-2.74c2.4,0,4.8,0.92,6.61,2.74C41.09,20.65,41.09,26.57,37.43,30.22z"/>
	<path class="st0" d="M30.68,17.89c-0.39,0-0.7,0.31-0.7,0.7v5.02l-3.46,3.71c-0.25,0.28-0.25,0.73,0.03,0.98
		c0.14,0.14,0.33,0.2,0.5,0.2c0.2,0,0.36-0.08,0.5-0.22l3.63-3.94c0.11-0.14,0.2-0.31,0.2-0.47v-5.27
		C31.38,18.19,31.07,17.89,30.68,17.89z"/>
</g>
</svg>
