<?xml version="1.0" encoding="utf-8"?>
<!-- Generator: Adobe Illustrator 21.1.0, SVG Export Plug-In . SVG Version: 6.00 Build 0)  -->
<svg version="1.1" id="Ebene_1" xmlns="http://www.w3.org/2000/svg" xmlns:xlink="http://www.w3.org/1999/xlink" x="0px" y="0px"
	 viewBox="0 0 41.5 34.3" style="enable-background:new 0 0 41.5 34.3;" xml:space="preserve">
<style type="text/css">
	.st0{fill:#FFFFFF;}
</style>
<g>
	<path class="st0" d="M15.9,14.3H6.7c-0.6,0-1.2,0.5-1.2,1.1c0,0.6,0.5,1.2,1.2,1.2h9.1c0.6,0,1.1-0.5,1.1-1.2
		C17,14.8,16.5,14.3,15.9,14.3z"/>
	<path class="st0" d="M15.9,20.9H6.7c-0.6,0-1.2,0.5-1.2,1.1c0,0.6,0.5,1.1,1.2,1.1h9.1c0.6,0,1.1-0.5,1.1-1.1
		C17,21.4,16.5,20.9,15.9,20.9z"/>
	<path class="st0" d="M38.4,16c-0.3-0.3-0.6-0.6-1-0.9v-10c0-1.9-1.6-3.4-3.5-3.4h-7V1.1c0-0.6-0.5-1.1-1.1-1.1s-1.1,0.5-1.1,1.1
		v0.6H12V1.1C12,0.5,11.5,0,10.8,0c-0.6,0-1.2,0.5-1.2,1.1v0.6H3.5C1.6,1.7,0,3.3,0,5.2v21.5c0,1.9,1.6,3.4,3.5,3.4h18.8v-0.1
		c0.3,0.4,0.6,0.8,1,1.1c2.1,2.1,4.8,3.2,7.6,3.2s5.5-1.1,7.6-3.1C42.6,27,42.6,20.2,38.4,16z M3.5,4h6.2v1.7c0,0.6,0.5,1.2,1.1,1.2
		c0.6,0,1.1-0.5,1.1-1.2V4h12.6v1.7c0,0.6,0.5,1.2,1.1,1.2s1.1-0.5,1.1-1.2V4h7c0.6,0,1.2,0.5,1.2,1.1v4H2.4v-4C2.4,4.5,2.9,4,3.5,4
		z M3.5,27.8c-0.6,0-1.2-0.5-1.2-1.1V10.3h32.7v3.5c-3.9-1.7-8.6-0.9-11.9,2.3c-3.2,3.2-4,7.9-2.3,11.8L3.5,27.8L3.5,27.8z
		 M37.4,30.2c-3.7,3.7-9.6,3.7-13.2,0s-3.7-9.6,0-13.2c1.8-1.8,4.2-2.7,6.6-2.7s4.8,0.9,6.6,2.7C41.1,20.6,41.1,26.6,37.4,30.2z"/>
	<path class="st0" d="M30.7,17.9c-0.4,0-0.7,0.3-0.7,0.7v5l-3.5,3.7c-0.2,0.3-0.2,0.7,0,1c0.1,0.1,0.3,0.2,0.5,0.2
		c0.2,0,0.4-0.1,0.5-0.2l3.6-3.9c0.1-0.1,0.2-0.3,0.2-0.5v-5.3C31.4,18.2,31.1,17.9,30.7,17.9z"/>
</g>
</svg>
