<?xml version="1.0" encoding="utf-8"?>
<!-- Generator: Adobe Illustrator 21.1.0, SVG Export Plug-In . SVG Version: 6.00 Build 0)  -->
<svg version="1.1" id="Ebene_1" xmlns="http://www.w3.org/2000/svg" xmlns:xlink="http://www.w3.org/1999/xlink" x="0px" y="0px"
	 viewBox="0 0 43.55 41.31" style="enable-background:new 0 0 43.55 41.31;" xml:space="preserve">
<style type="text/css">
	.st0{fill:#004077;}
</style>
<path class="st0" d="M43.53,35.91c-0.1-1.03-0.64-1.97-1.48-2.58l-11.93-7.74c1.75-2.61,2.78-5.76,2.78-9.14
	C32.9,7.38,25.52,0,16.45,0S0,7.38,0,16.45S7.38,32.9,16.45,32.9c3.72,0,7.16-1.24,9.92-3.34l9.62,10.58
	c0.69,0.74,1.68,1.17,2.7,1.17h0.05c1.03-0.01,2.03-0.47,2.72-1.24l1.18-1.33C43.31,37.97,43.64,36.94,43.53,35.91z M1.67,16.45
	C1.67,8.3,8.3,1.67,16.45,1.67c8.15,0,14.78,6.63,14.78,14.78c0,3.35-1.12,6.44-3,8.92l-1.78,1.96c-2.63,2.42-6.15,3.9-10,3.9
	C8.3,31.23,1.67,24.6,1.67,16.45z"/>
</svg>
