<?xml version="1.0" encoding="utf-8"?>
<!-- Generator: Adobe Illustrator 21.1.0, SVG Export Plug-In . SVG Version: 6.00 Build 0)  -->
<svg version="1.1" id="Ebene_1" xmlns="http://www.w3.org/2000/svg" xmlns:xlink="http://www.w3.org/1999/xlink" x="0px" y="0px"
	 viewBox="0 0 43.5 41.3" style="enable-background:new 0 0 43.5 41.3;" xml:space="preserve">
<style type="text/css">
	.st0{fill:#FFFFFF;}
</style>
<path class="st0" d="M43.5,35.9c-0.1-1-0.6-2-1.5-2.6l-11.9-7.7c1.8-2.6,2.8-5.8,2.8-9.1C32.9,7.4,25.5,0,16.5,0S0,7.4,0,16.4
	s7.4,16.5,16.5,16.5c3.7,0,7.2-1.2,9.9-3.3L36,40.1c0.7,0.7,1.7,1.2,2.7,1.2h0c1,0,2-0.5,2.7-1.2l1.2-1.3
	C43.3,38,43.6,36.9,43.5,35.9z M1.7,16.4c0-8.2,6.6-14.8,14.8-14.8s14.8,6.6,14.8,14.8c0,3.4-1.1,6.4-3,8.9l-1.8,2
	c-2.6,2.4-6.1,3.9-10,3.9C8.3,31.2,1.7,24.6,1.7,16.4z"/>
</svg>
