<?xml version="1.0" encoding="utf-8"?>
<!-- Generator: Adobe Illustrator 21.1.0, SVG Export Plug-In . SVG Version: 6.00 Build 0)  -->
<svg version="1.1" id="Ebene_1" xmlns="http://www.w3.org/2000/svg" xmlns:xlink="http://www.w3.org/1999/xlink" x="0px" y="0px"
	 viewBox="0 0 17.94 14" style="enable-background:new 0 0 17.94 14;" xml:space="preserve">
<style type="text/css">
	.st0{fill:#004077;}
</style>
<g>
	<g>
		<path class="st0" d="M1.19,14c-0.1,0-0.2-0.03-0.29-0.09c-0.18-0.12-0.26-0.34-0.21-0.55L1.5,10C0.68,9.11,0.17,8.09,0.04,7.02
			c-0.18-1.44,0.29-2.84,1.35-4.04C3.03,1.12,5.87,0,8.97,0c2.36,0,4.59,0.65,6.27,1.83c1.74,1.22,2.7,2.85,2.7,4.6
			c0,2.23-1.57,4.27-4.19,5.45l0,0c-1.43,0.64-3.08,0.98-4.78,0.98c-1.68,0-3.3-0.33-4.72-0.95l-2.76,2C1.4,13.97,1.3,14,1.19,14z
			 M8.97,1.03c-1.4,0-2.78,0.25-3.99,0.74c-1.16,0.46-2.13,1.12-2.82,1.9C1.29,4.64,0.91,5.76,1.06,6.9
			c0.12,0.92,0.59,1.81,1.37,2.58C2.55,9.6,2.61,9.79,2.56,9.96l-0.55,2.29l1.88-1.36c0.15-0.11,0.35-0.13,0.52-0.05
			c1.34,0.64,2.91,0.98,4.55,0.98c1.55,0,3.06-0.31,4.36-0.89l0,0c2.25-1.01,3.59-2.7,3.59-4.51c0-1.41-0.8-2.74-2.26-3.76
			C13.14,1.61,11.12,1.03,8.97,1.03z M13.54,11.41L13.54,11.41L13.54,11.41z"/>
	</g>
</g>
<g>
	<path class="st0" d="M11.39,9.35c-0.15,0-0.3-0.06-0.41-0.17c-0.11-0.11-0.17-0.26-0.17-0.41s0.06-0.3,0.17-0.41
		c0.23-0.23,0.6-0.23,0.83,0c0.11,0.11,0.17,0.26,0.17,0.41c0,0.16-0.06,0.3-0.17,0.41C11.69,9.29,11.54,9.35,11.39,9.35z
		 M11.39,8.39c-0.1,0-0.19,0.04-0.27,0.11c-0.07,0.07-0.11,0.17-0.11,0.27c0,0.1,0.04,0.19,0.11,0.27c0.15,0.15,0.39,0.15,0.54,0
		c0.07-0.07,0.11-0.17,0.11-0.27c0-0.1-0.04-0.19-0.11-0.27C11.58,8.42,11.49,8.39,11.39,8.39z"/>
	<path class="st0" d="M7.36,3.89c0,0.01-0.01,0.01-0.01,0.02C7.35,3.9,7.36,3.9,7.36,3.89L7.36,3.89z"/>
	<path class="st0" d="M12.37,7.79c-0.09-0.08-0.18-0.16-0.28-0.21c-0.01-0.01-0.02-0.01-0.02-0.02c-0.03-0.01-0.05-0.03-0.08-0.04
		c0,0,0,0,0,0c-0.03-0.01-0.05-0.02-0.08-0.03c-0.03-0.01-0.05-0.02-0.08-0.03c-0.02-0.01-0.03-0.01-0.05-0.02
		c-0.08-0.02-0.16-0.04-0.24-0.04c-0.06-0.01-0.13-0.01-0.19,0c-0.02,0-0.04,0-0.06,0c-0.02,0-0.04,0-0.06,0.01
		c-0.01,0-0.01,0-0.02,0L8.8,5.01c0.23-0.67,0.06-1.4-0.45-1.9C7.88,2.64,7.18,2.46,6.54,2.63C6.46,2.65,6.41,2.71,6.39,2.78
		c-0.02,0.07,0,0.15,0.05,0.2l0.91,0.91h0c0,0.01-0.01,0.01-0.01,0.02C7.34,3.92,7.33,3.93,7.32,3.95C7.32,3.96,7.3,3.97,7.29,3.99
		C7.28,4,7.27,4.02,7.26,4.03C7.25,4.05,7.24,4.06,7.23,4.07C7.17,4.16,7.08,4.26,6.97,4.36C6.78,4.56,6.61,4.68,6.5,4.75L5.58,3.84
		c-0.05-0.05-0.13-0.07-0.2-0.05C5.31,3.8,5.25,3.86,5.23,3.93c-0.18,0.64,0.01,1.34,0.48,1.8c0.51,0.5,1.24,0.67,1.91,0.45
		l2.4,2.39C9.96,9,10.1,9.43,10.41,9.74c0.17,0.17,0.39,0.3,0.63,0.36c0.11,0.03,0.23,0.04,0.34,0.04c0.36,0,0.72-0.14,0.98-0.4
		c0.26-0.26,0.41-0.61,0.41-0.98C12.77,8.39,12.63,8.05,12.37,7.79z M12.07,9.44c-0.24,0.24-0.6,0.34-0.93,0.25
		c-0.17-0.04-0.32-0.13-0.44-0.25c-0.24-0.24-0.33-0.57-0.26-0.9c0.02-0.07-0.01-0.14-0.06-0.19L7.82,5.79
		C7.76,5.73,7.67,5.71,7.59,5.75C7.05,5.98,6.43,5.86,6.01,5.44C5.73,5.17,5.59,4.8,5.58,4.43l0.73,0.73
		C6.38,5.22,6.47,5.23,6.55,5.2c0.01-0.01,0.34-0.16,0.72-0.54c0.12-0.12,0.22-0.23,0.29-0.33C7.6,4.28,7.64,4.22,7.67,4.18
		C7.68,4.16,7.7,4.14,7.71,4.12c0.06-0.1,0.09-0.16,0.1-0.17c0.01-0.03,0.02-0.06,0.02-0.09c0-0.01,0-0.02,0-0.04c0,0,0-0.01,0-0.01
		c0-0.01-0.01-0.02-0.01-0.03c0-0.01-0.01-0.02-0.02-0.03c0,0-0.01-0.01-0.01-0.01C7.78,3.73,7.77,3.72,7.77,3.71L7.76,3.7
		L7.04,2.98c0.38,0,0.74,0.15,1.02,0.42c0.42,0.42,0.54,1.04,0.31,1.58C8.33,5.06,8.35,5.15,8.41,5.21l2.57,2.56
		c0.01,0.01,0.01,0.01,0.02,0.01c0,0,0,0,0,0C11,7.79,11.01,7.8,11.02,7.81c0.01,0.01,0.03,0.01,0.04,0.02c0.01,0,0.02,0,0.02,0.01
		c0.03,0.01,0.05,0,0.08,0c0.02,0,0.04-0.01,0.06-0.01c0,0,0,0,0,0c0.02,0,0.04-0.01,0.06-0.01c0.02,0,0.04,0,0.06-0.01
		c0.05,0,0.1,0,0.15,0c0.03,0,0.06,0.01,0.09,0.01c0.02,0,0.03,0.01,0.05,0.01c0.02,0,0.03,0.01,0.05,0.01
		c0.03,0.01,0.06,0.02,0.09,0.03c0.03,0.01,0.07,0.03,0.1,0.05c0,0,0,0,0,0c0.08,0.04,0.15,0.09,0.21,0.16
		c0.18,0.18,0.28,0.42,0.28,0.68C12.36,9.02,12.26,9.26,12.07,9.44z"/>
	<path class="st0" d="M11.22,7.82c-0.02,0-0.04,0.01-0.06,0.01c-0.03,0.01-0.05,0.01-0.08,0c0.03,0.01,0.05,0,0.08,0
		C11.19,7.82,11.2,7.82,11.22,7.82z"/>
	<path class="st0" d="M11.77,7.44c-0.08-0.02-0.16-0.04-0.24-0.04C11.61,7.4,11.69,7.42,11.77,7.44z"/>
</g>
</svg>
