<?xml version="1.0" encoding="utf-8"?>
<!-- Generator: Adobe Illustrator 19.2.1, SVG Export Plug-In . SVG Version: 6.00 Build 0)  -->
<svg version="1.1" id="Layer_1" xmlns="http://www.w3.org/2000/svg" xmlns:xlink="http://www.w3.org/1999/xlink" x="0px" y="0px"
	 viewBox="0 0 175.1 175.1" style="enable-background:new 0 0 175.1 175.1;" xml:space="preserve">
<style type="text/css">
	.st0{fill:white;}
</style>
<g>
	<path class="st0" d="M103.5,107.1c-1.9,0-3.8-0.7-5.3-2.2c-1.7-1.7-2.5-4-2.1-6.4L82.8,85.3c-3.6,1.2-7.6,0.3-10.3-2.4
		c-2.5-2.5-3.5-6.2-2.6-9.7c0.1-0.3,0.4-0.6,0.7-0.7c0.3-0.1,0.7,0,1,0.3l5,5c0.6-0.3,1.6-1,2.8-2.2c1.2-1.2,1.9-2.2,2.2-2.8l-5-5
		c-0.3-0.3-0.4-0.6-0.3-1c0.1-0.3,0.4-0.6,0.7-0.7c3.5-0.9,7.2,0.1,9.7,2.6c2.7,2.7,3.6,6.7,2.4,10.3l13.3,13.3
		c2.3-0.3,4.7,0.4,6.4,2.1l0,0l0,0c1.4,1.4,2.2,3.3,2.2,5.3c0,2-0.8,3.9-2.2,5.3C107.4,106.4,105.5,107.1,103.5,107.1z M83.1,83.1
		c0.3,0,0.5,0.1,0.7,0.3l14.1,14.1c0.2,0.2,0.3,0.6,0.3,0.9c-0.4,1.8,0.1,3.7,1.5,5.1c2.1,2.1,5.6,2.1,7.8,0c1-1,1.6-2.4,1.6-3.9
		c0-1.5-0.6-2.9-1.6-3.9l0,0c-1.3-1.3-3.2-1.9-5.1-1.5c-0.3,0.1-0.7,0-0.9-0.3L87.3,79.9c-0.3-0.3-0.4-0.7-0.2-1.1
		c1.2-3,0.5-6.4-1.8-8.7c-1.6-1.6-3.7-2.4-5.9-2.3l4.1,4.1c0.3,0.3,0.4,0.7,0.2,1c-0.1,0.2-0.7,1.8-2.9,4.1c-2.3,2.3-3.9,2.9-4,2.9
		c-0.4,0.1-0.8,0-1-0.2l-4.1-4.1c-0.1,2.2,0.8,4.3,2.3,5.9c2.3,2.3,5.7,3,8.7,1.8C82.8,83.1,83,83.1,83.1,83.1z"/>
	<path class="st0" d="M103.6,103.4c-0.9,0-1.9-0.4-2.6-1.1c-1.4-1.4-1.4-3.8,0-5.2c1.4-1.4,3.8-1.4,5.2,0c1.4,1.4,1.4,3.8,0,5.2
		C105.5,103,104.5,103.4,103.6,103.4z M103.6,98c-0.4,0-0.9,0.2-1.2,0.5c-0.7,0.7-0.7,1.7,0,2.4s1.7,0.7,2.4,0
		c0.7-0.7,0.7-1.7,0-2.4C104.5,98.1,104,98,103.6,98z"/>
	<path class="st0" d="M53.1,122.3c-0.4,0-0.8-0.1-1.1-0.3c-0.7-0.5-1-1.4-0.8-2.2l3.6-13.3c-6-4.3-9.6-11.8-9.6-20.5
		C45.2,67.2,67,57.3,73,55.7l0.3-0.1c1.7-0.6,7.8-2.5,17-2.5c0,0,0.1,0,0.1,0c24.9,0.1,45.1,14.8,45.1,32.9
		c0,15.2-13.9,28.1-33.7,31.8c-3.7,0.7-7.5,1.1-11.4,1.1c-9.2,0-17.8-1.9-24.9-5.4l-11.1,8.5C53.9,122.1,53.5,122.3,53.1,122.3z
		 M90.2,57.1c-8.5,0-14.1,1.7-15.6,2.2l-0.3,0.1c0,0-0.1,0-0.2,0C69.2,60.8,49.2,69.8,49.2,86c0,7.9,3.3,14.6,8.9,17.9
		c0.8,0.5,1.1,1.4,0.9,2.2l-2.4,9l7.4-5.7c0.6-0.5,1.5-0.5,2.2-0.2c6.8,3.6,15.1,5.5,24.2,5.5c2.3,0,4.5-0.1,6.7-0.4
		c0,0,0.1,0,0.1,0c19.6-2.3,34.4-14.5,34.4-28.5c0-15.9-18.5-28.8-41.1-28.9C90.3,57.1,90.2,57.1,90.2,57.1z"/>
</g>
</svg>
