<?xml version="1.0" encoding="utf-8"?>
<!-- Generator: Adobe Illustrator 23.0.4, SVG Export Plug-In . SVG Version: 6.00 Build 0)  -->
<svg version="1.1" id="Vendor_managed_inventory" xmlns="http://www.w3.org/2000/svg" xmlns:xlink="http://www.w3.org/1999/xlink"
	 x="0px" y="0px" viewBox="0 0 229.7 231.4" style="enable-background:new 0 0 229.7 231.4;" xml:space="preserve">
<style type="text/css">
	.st0{fill:#FFFFFF;}
</style>
<g>
	<g>
		<g>
			<path class="st0" d="M32.6,193.9c-1,0-2.1-0.3-3-0.9c-1.9-1.3-2.7-3.6-2.2-5.8l8.6-35.6c-8.8-9.4-14.2-20.3-15.5-31.6
				c-1.9-15.2,3-30,14.3-42.7C52,57.6,82.1,45.8,114.8,45.8c25,0,48.6,6.9,66.3,19.3c18.4,12.9,28.5,30.1,28.5,48.6
				c0,23.6-16.6,45.1-44.3,57.6l0,0c-15.1,6.8-32.5,10.4-50.6,10.4c-17.7,0-35-3.5-50-10.1l-29.2,21.2
				C34.8,193.6,33.7,193.9,32.6,193.9z M114.8,56.6c-14.8,0-29.4,2.6-42.2,7.9c-12.3,4.8-22.6,11.9-29.8,20.2
				c-9.2,10.3-13.2,22.1-11.7,34.2c1.3,9.8,6.2,19.1,14.5,27.3c1.3,1.3,1.9,3.3,1.4,5l-5.8,24.2L61.2,161c1.6-1.2,3.7-1.4,5.5-0.5
				c14.2,6.8,30.8,10.4,48.2,10.4c16.4,0,32.3-3.3,46.2-9.4l0,0c23.8-10.7,38-28.5,38-47.8c0-14.9-8.5-29-23.9-39.8
				C158.9,62.8,137.6,56.6,114.8,56.6z M163.2,166.5L163.2,166.5L163.2,166.5z"/>
		</g>
	</g>
	<g>
		<path class="st0" d="M140.4,144.7c-1.6,0-3.1-0.6-4.3-1.8c-1.2-1.2-1.8-2.7-1.8-4.3s0.6-3.1,1.8-4.3c2.4-2.4,6.3-2.4,8.8,0
			c1.2,1.2,1.8,2.7,1.8,4.3c0,1.7-0.6,3.1-1.8,4.3C143.6,144,142,144.7,140.4,144.7z M140.4,134.5c-1,0-2,0.4-2.8,1.2
			c-0.7,0.7-1.2,1.8-1.2,2.8c0,1,0.4,2,1.2,2.8c1.6,1.6,4.1,1.6,5.7,0c0.7-0.7,1.2-1.8,1.2-2.8c0-1-0.4-2-1.2-2.8
			C142.4,134.8,141.5,134.5,140.4,134.5z"/>
		<path class="st0" d="M97.7,86.8c0,0.1-0.1,0.1-0.1,0.2C97.6,86.9,97.7,86.9,97.7,86.8L97.7,86.8z"/>
		<path class="st0" d="M150.8,128.2c-0.9-0.8-1.9-1.7-2.9-2.2c-0.1-0.1-0.2-0.1-0.2-0.2c-0.3-0.1-0.5-0.3-0.8-0.4l0,0
			c-0.3-0.1-0.5-0.2-0.8-0.3c-0.3-0.1-0.5-0.2-0.8-0.3c-0.2-0.1-0.3-0.1-0.5-0.2c-0.8-0.2-1.7-0.4-2.5-0.4c-0.6-0.1-1.4-0.1-2,0
			c-0.2,0-0.4,0-0.6,0c-0.2,0-0.4,0-0.6,0.1c-0.1,0-0.1,0-0.2,0l-25.6-25.5c2.4-7.1,0.6-14.8-4.7-20.2c-4.9-4.9-12.4-6.9-19.1-5
			c-0.8,0.2-1.4,0.8-1.6,1.6s0,1.6,0.5,2.1l9.7,9.7l0,0c0,0.1-0.1,0.1-0.1,0.2s-0.1,0.2-0.2,0.4c0,0.1-0.2,0.2-0.3,0.4
			c-0.1,0.1-0.2,0.3-0.3,0.4c-0.1,0.2-0.2,0.3-0.3,0.4c-0.6,0.9-1.6,2-2.7,3c-2,2.1-3.8,3.4-4.9,4.1l-9.8-9.7
			c-0.5-0.5-1.4-0.7-2.1-0.5c-0.7,0.1-1.4,0.7-1.6,1.5c-1.9,6.8,0.1,14.2,5,19c5.4,5.2,13.1,7.1,20.3,4.7l25.4,25.3
			c-0.6,4.5,0.8,9.1,4.1,12.4c1.8,1.8,4.1,3.1,6.7,3.8c1.2,0.3,2.4,0.4,3.6,0.4c3.8,0,7.7-1.5,10.4-4.2c2.7-2.7,4.3-6.4,4.3-10.4
			C155,134.5,153.6,130.9,150.8,128.2z M147.6,145.6c-2.5,2.5-6.3,3.6-9.9,2.6c-1.8-0.4-3.4-1.4-4.6-2.6c-2.5-2.5-3.5-6-2.7-9.6
			c0.2-0.7-0.1-1.5-0.6-2L102.7,107c-0.6-0.6-1.6-0.8-2.4-0.4c-5.8,2.4-12.3,1.2-16.8-3.3c-2.9-2.8-4.4-6.8-4.5-10.7l7.8,7.8
			c0.7,0.6,1.7,0.7,2.5,0.4c0.1-0.1,3.6-1.7,7.7-5.7c1.3-1.3,2.3-2.4,3-3.5c0.4-0.5,0.8-1.2,1.2-1.6c0.1-0.2,0.3-0.4,0.4-0.6
			c0.6-1,0.9-1.7,1-1.8c0.1-0.3,0.2-0.6,0.2-0.9c0-0.1,0-0.2,0-0.4v-0.1c0-0.1-0.1-0.2-0.1-0.3c0-0.1-0.1-0.2-0.2-0.3l-0.1-0.1
			c-0.1-0.1-0.2-0.2-0.2-0.3l-0.1-0.1l-7.7-7.7c4,0,7.9,1.6,10.8,4.4c4.4,4.4,5.7,11,3.3,16.7c-0.4,0.8-0.2,1.8,0.4,2.4L136,128
			c0.1,0.1,0.1,0.1,0.2,0.1l0,0c0,0.1,0.1,0.2,0.2,0.3c0.1,0.1,0.3,0.1,0.4,0.2c0.1,0,0.2,0,0.2,0.1c0.3,0.1,0.5,0,0.8,0
			c0.2,0,0.4-0.1,0.6-0.1l0,0c0.2,0,0.4-0.1,0.6-0.1c0.2,0,0.4,0,0.6-0.1c0.5,0,1,0,1.6,0c0.3,0,0.6,0.1,0.9,0.1
			c0.2,0,0.3,0.1,0.5,0.1c0.2,0,0.3,0.1,0.5,0.1c0.3,0.1,0.6,0.2,0.9,0.3c0.3,0.1,0.7,0.3,1,0.5l0,0c0.8,0.4,1.6,0.9,2.2,1.7
			c1.9,1.9,2.9,4.4,2.9,7.2C150.7,141.2,149.6,143.7,147.6,145.6z"/>
		<path class="st0" d="M138.7,128.5c-0.2,0-0.4,0.1-0.6,0.1c-0.3,0.1-0.5,0.1-0.8,0c0.3,0.1,0.5,0,0.8,0
			C138.3,128.5,138.5,128.5,138.7,128.5z"/>
		<path class="st0" d="M144.4,124.4c-0.8-0.2-1.7-0.4-2.5-0.4C142.8,124,143.6,124.2,144.4,124.4z"/>
	</g>
</g>
</svg>
