<?xml version="1.0" encoding="utf-8"?>
<!-- Generator: Adobe Illustrator 21.1.0, SVG Export Plug-In . SVG Version: 6.00 Build 0)  -->
<svg version="1.1" id="Ebene_1" xmlns="http://www.w3.org/2000/svg" xmlns:xlink="http://www.w3.org/1999/xlink" x="0px" y="0px"
	 viewBox="0 0 50 50" style="enable-background:new 0 0 50 50;" xml:space="preserve">
<style type="text/css">
	.st0{fill:#A8B1B7;}
</style>
<path class="st0" d="M41.63,22.24H38.8c-0.33-1.28-0.84-2.51-1.52-3.65l1.98-2.01c0.93-0.92,0.93-2.42,0-3.35c0,0,0,0,0,0
	l-1.65-1.65c-0.92-0.93-2.42-0.93-3.35,0c0,0,0,0,0,0l-2,2c-1.14-0.68-2.37-1.2-3.65-1.53V9.22c0-1.31-1.06-2.37-2.37-2.37h-2.37
	c-1.31,0-2.37,1.06-2.37,2.37v2.84c-1.28,0.33-2.51,0.84-3.65,1.52l-2.01-1.98c-0.92-0.93-2.42-0.93-3.35,0c0,0,0,0,0,0l-1.65,1.65
	c-0.93,0.92-0.93,2.42,0,3.35c0,0,0,0,0,0l2,2c-0.68,1.14-1.2,2.37-1.53,3.65H8.48c-1.31,0-2.37,1.06-2.37,2.37v2.37
	c0,1.31,1.06,2.37,2.37,2.37h2.84c0.33,1.28,0.84,2.51,1.52,3.65l-1.98,2.01c-0.93,0.92-0.93,2.42,0,3.35c0,0,0,0,0,0L12.5,40
	c0.92,0.93,2.42,0.93,3.35,0l0,0l2-2c1.14,0.68,2.37,1.2,3.65,1.53v2.84c0,1.31,1.06,2.37,2.37,2.37h2.37
	c1.31,0,2.37-1.06,2.37-2.37v-2.84c1.28-0.33,2.51-0.84,3.65-1.52L34.27,40c0.92,0.93,2.42,0.93,3.35,0l0,0l1.65-1.65
	c0.93-0.92,0.93-2.42,0-3.35l0,0l-2-2c0.68-1.14,1.2-2.37,1.53-3.65h2.84c1.31,0,2.37-1.06,2.37-2.37v-2.37
	C44,23.3,42.94,22.24,41.63,22.24z M25.05,31.71c-3.27,0-5.92-2.65-5.92-5.92s2.65-5.92,5.92-5.92s5.92,2.65,5.92,5.92
	S28.32,31.71,25.05,31.71z"/>
</svg>
