<?xml version="1.0" encoding="utf-8"?>
<!-- Generator: Adobe Illustrator 21.1.0, SVG Export Plug-In . SVG Version: 6.00 Build 0)  -->
<svg version="1.1" id="Ebene_1" xmlns="http://www.w3.org/2000/svg" xmlns:xlink="http://www.w3.org/1999/xlink" x="0px" y="0px"
	 viewBox="0 0 50 50" style="enable-background:new 0 0 50 50;" xml:space="preserve">
<style type="text/css">
	.st0{fill:#FFFFFF;}
</style>
<path class="st0" d="M41.6,22.2h-2.8c-0.3-1.3-0.8-2.5-1.5-3.6l2-2c0.9-0.9,0.9-2.4,0-3.4l0,0l-1.7-1.6c-0.9-0.9-2.4-0.9-3.3,0l0,0
	l-2,2c-1.1-0.7-2.4-1.2-3.6-1.5V9.2c0-1.3-1.1-2.4-2.4-2.4h-2.4c-1.3,0-2.4,1.1-2.4,2.4v2.8c-1.3,0.3-2.5,0.8-3.6,1.5l-2-2
	c-0.9-0.9-2.4-0.9-3.4,0l0,0l-1.6,1.6c-0.9,0.9-0.9,2.4,0,3.4l0,0l2,2c-0.7,1.1-1.2,2.4-1.5,3.6H8.5c-1.3,0-2.4,1.1-2.4,2.4V27
	c0,1.3,1.1,2.4,2.4,2.4h2.8c0.3,1.3,0.8,2.5,1.5,3.7l-2,2c-0.9,0.9-0.9,2.4,0,3.3l0,0l1.6,1.6c0.9,0.9,2.4,0.9,3.4,0l0,0l2-2
	c1.1,0.7,2.4,1.2,3.6,1.5v2.8c0,1.3,1.1,2.4,2.4,2.4h2.4c1.3,0,2.4-1.1,2.4-2.4v-2.8c1.3-0.3,2.5-0.8,3.7-1.5l2,2
	c0.9,0.9,2.4,0.9,3.3,0l0,0l1.7-1.7c0.9-0.9,0.9-2.4,0-3.3l0,0l-2-2c0.7-1.1,1.2-2.4,1.5-3.6h2.8c1.3,0,2.4-1.1,2.4-2.4v-2.4
	C44,23.3,42.9,22.2,41.6,22.2z M25,31.7c-3.3,0-5.9-2.6-5.9-5.9s2.6-5.9,5.9-5.9s5.9,2.6,5.9,5.9S28.3,31.7,25,31.7z"/>
</svg>
