<?xml version="1.0" encoding="utf-8"?>
<!-- Generator: Adobe Illustrator 21.1.0, SVG Export Plug-In . SVG Version: 6.00 Build 0)  -->
<svg version="1.1" id="Ebene_1" xmlns="http://www.w3.org/2000/svg" xmlns:xlink="http://www.w3.org/1999/xlink" x="0px" y="0px"
	 viewBox="0 0 42 40.1" style="enable-background:new 0 0 42 40.1;" xml:space="preserve">
<style type="text/css">
	.st0{fill:#FFFFFF;}
</style>
<g>
	<path class="st0" d="M9,40.1c-0.4,0-0.7-0.1-0.9-0.3c-0.4-0.3-0.8-1-0.5-1.9L11.7,25L0.8,17.1c-0.8-0.6-0.9-1.3-0.7-1.9
		s0.7-1.1,1.7-1.1h13.5l4.2-12.9C19.7,0.3,20.4,0,21,0l0,0c0.6,0,1.3,0.3,1.6,1.2l4.2,12.9h13.5c1,0,1.5,0.6,1.7,1.1
		s0.1,1.3-0.7,1.9L30.3,25l4.2,12.9c0.3,0.9-0.1,1.6-0.5,1.9c-0.5,0.3-1.2,0.5-2-0.1L21,31.7l-10.9,8C9.7,40,9.3,40.1,9,40.1z
		 M10.2,38.7L10.2,38.7L10.2,38.7z M31.8,38.7L31.8,38.7L31.8,38.7z M33.6,37.4L33.6,37.4C33.6,37.4,33.6,37.4,33.6,37.4z"/>
</g>
</svg>
