<?xml version="1.0" encoding="utf-8"?>
<!-- Generator: Adobe Illustrator 21.1.0, SVG Export Plug-In . SVG Version: 6.00 Build 0)  -->
<svg version="1.1" id="Ebene_1" xmlns="http://www.w3.org/2000/svg" xmlns:xlink="http://www.w3.org/1999/xlink" x="0px" y="0px"
	 viewBox="0 0 41.36 41.25" style="enable-background:new 0 0 41.36 41.25;" xml:space="preserve">
<style type="text/css">
	.st0{fill:#004077;}
</style>
<g>
	<path class="st0" d="M33.66,25.85c-0.07,0-0.14,0-0.19,0c-0.34,0-0.54,0-0.89,0.07L19.95,13.38c0.48-1.63,1.22-5.71-1.79-9.54
		C15.24,0.1,10.49-0.24,8.39,0.1C7.82,0.2,6.95,0.34,6.7,1.2C6.46,2.01,7.03,2.54,7.52,2.96l4.44,4.56
		c-1.12,1.61-2.64,3.04-4.38,4.11L3.21,7.44C2.99,7.19,2.61,6.79,1.99,6.81C1.23,6.85,0.89,7.45,0.77,7.67l0,0
		c-0.86,1.22-1,2.93-0.39,4.96c0.51,1.7,1.4,3.17,2.01,3.92c2.51,3.06,5.24,3.8,7.08,3.89c1.66,0.08,3.05-0.34,3.91-0.7l12.65,12.57
		c-0.07,0.4-0.07,0.77-0.07,1.24c0,4.25,3.45,7.7,7.7,7.7s7.7-3.45,7.7-7.7S37.9,25.85,33.66,25.85z M33.66,38.73
		c-2.86,0-5.18-2.32-5.18-5.18c0-0.63,0.01-0.84,0.14-1.26c0,0,0,0,0-0.01c0.01-0.03,0.01-0.05,0.02-0.08
		c0-0.01,0.01-0.03,0.01-0.04c0-0.02,0.01-0.04,0.01-0.06c0-0.02,0.01-0.04,0.01-0.07c0-0.01,0-0.01,0-0.02
		c0.01-0.15,0-0.3-0.04-0.44c-0.03-0.11-0.08-0.22-0.14-0.32c-0.01-0.01-0.01-0.02-0.02-0.03c-0.01-0.01-0.02-0.03-0.03-0.04
		c-0.01-0.02-0.03-0.04-0.04-0.06c-0.01-0.01-0.02-0.02-0.02-0.03c-0.02-0.02-0.04-0.05-0.06-0.07c0,0,0,0,0,0L14.87,17.67
		c-0.25-0.29-0.56-0.63-1.07-0.69c-0.46-0.06-0.8,0.14-1,0.26c-0.02,0.01-0.05,0.03-0.07,0.04c-1.4,0.67-5.02,1.8-8.4-2.32
		c-0.81-0.98-1.83-3.15-1.82-4.68l3.83,3.67c0.24,0.28,0.53,0.45,0.85,0.5c0.24,0.04,0.61,0.02,0.99-0.24
		c2.5-1.38,4.69-3.41,6.16-5.72l0.02-0.02c0.18-0.22,0.51-0.64,0.44-1.23c-0.06-0.49-0.34-0.79-0.75-1.15l-3.42-3.51
		c1.7,0.16,3.98,0.84,5.54,2.83c2.49,3.18,1.6,6.58,1.27,7.54c-0.01,0.03-0.02,0.05-0.03,0.08c-0.09,0.21-0.23,0.54-0.14,0.96
		c0.09,0.43,0.35,0.7,0.74,1.04l13.26,13.17c0,0,0.01,0.01,0.01,0.01c0.02,0.02,0.03,0.03,0.05,0.05c0.01,0.01,0.03,0.03,0.04,0.04
		c0.01,0.01,0.03,0.02,0.04,0.03c0.02,0.01,0.04,0.03,0.06,0.04c0.01,0.01,0.02,0.01,0.03,0.02c0.03,0.02,0.05,0.03,0.08,0.05
		c0,0,0.01,0,0.01,0.01c0.03,0.02,0.07,0.03,0.1,0.04c0,0,0.01,0,0.01,0c0.03,0.01,0.07,0.02,0.1,0.03c0.01,0,0.02,0,0.03,0.01
		c0.03,0.01,0.06,0.02,0.09,0.02c0.01,0,0.03,0,0.05,0.01c0.02,0,0.05,0.01,0.07,0.01c0.02,0,0.03,0,0.05,0c0.02,0,0.05,0,0.07,0
		c0.02,0,0.03,0,0.05,0c0.03,0,0.05,0,0.08-0.01c0.02,0,0.03,0,0.05-0.01c0.03,0,0.05-0.01,0.08-0.01c0,0,0.01,0,0.01,0
		c0.67-0.15,0.7-0.15,1-0.15c0.06,0,0.13,0,0.22,0c2.86,0,5.18,2.32,5.18,5.18S36.51,38.73,33.66,38.73z"/>
	<path class="st0" d="M33.57,30.23c-1.67,0-3.03,1.36-3.03,3.03s1.36,3.03,3.03,3.03c1.67,0,3.03-1.36,3.03-3.03
		S35.24,30.23,33.57,30.23z M33.57,35.03c-0.97,0-1.77-0.79-1.77-1.77s0.79-1.77,1.77-1.77s1.77,0.79,1.77,1.77
		S34.55,35.03,33.57,35.03z"/>
</g>
</svg>
