<?xml version="1.0" encoding="utf-8"?>
<!-- Generator: Adobe Illustrator 22.1.0, SVG Export Plug-In . SVG Version: 6.00 Build 0)  -->
<svg version="1.1" id="Ebene_1" xmlns="http://www.w3.org/2000/svg" xmlns:xlink="http://www.w3.org/1999/xlink" x="0px" y="0px"
	 viewBox="0 0 41.4 41.2" style="enable-background:new 0 0 41.4 41.2;" xml:space="preserve">
<style type="text/css">
	.st0{fill:#FFFFFF;}
</style>
<g>
	<path class="st0" d="M33.7,25.9c-0.1,0-0.1,0-0.2,0c-0.3,0-0.5,0-0.9,0.1L20,13.4c0.5-1.6,1.2-5.7-1.8-9.5
		c-2.9-3.7-7.7-4.1-9.8-3.7C7.8,0.2,6.9,0.3,6.7,1.2C6.5,2,7,2.5,7.5,3L12,7.5c-1.1,1.6-2.6,3-4.4,4.1L3.2,7.4C3,7.2,2.6,6.8,2,6.8
		c-0.8,0-1.1,0.6-1.2,0.9l0,0c-0.9,1.2-1,2.9-0.4,5c0.5,1.7,1.4,3.2,2,3.9c2.5,3.1,5.2,3.8,7.1,3.9c1.7,0.1,3.1-0.3,3.9-0.7L26,32.3
		C26,32.7,26,33.1,26,33.5c0,4.2,3.5,7.7,7.7,7.7s7.7-3.5,7.7-7.7S37.9,25.9,33.7,25.9z M33.7,38.7c-2.9,0-5.2-2.3-5.2-5.2
		c0-0.6,0-0.8,0.1-1.3c0,0,0,0,0,0c0,0,0,0,0-0.1c0,0,0,0,0,0c0,0,0,0,0-0.1s0,0,0-0.1c0,0,0,0,0,0c0-0.1,0-0.3,0-0.4
		c0-0.1-0.1-0.2-0.1-0.3c0,0,0,0,0,0s0,0,0,0c0,0,0,0,0-0.1c0,0,0,0,0,0c0,0,0,0-0.1-0.1l0,0L14.9,17.7c-0.2-0.3-0.6-0.6-1.1-0.7
		c-0.5-0.1-0.8,0.1-1,0.3c0,0-0.1,0-0.1,0c-1.4,0.7-5,1.8-8.4-2.3c-0.8-1-1.8-3.1-1.8-4.7L6.3,14c0.2,0.3,0.5,0.4,0.8,0.5
		c0.2,0,0.6,0,1-0.2c2.5-1.4,4.7-3.4,6.2-5.7l0,0c0.2-0.2,0.5-0.6,0.4-1.2c-0.1-0.5-0.3-0.8-0.8-1.2l-3.4-3.5c1.7,0.2,4,0.8,5.5,2.8
		c2.5,3.2,1.6,6.6,1.3,7.5c0,0,0,0.1,0,0.1c-0.1,0.2-0.2,0.5-0.1,1c0.1,0.4,0.4,0.7,0.7,1l13.3,13.2l0,0c0,0,0,0,0,0c0,0,0,0,0,0
		s0,0,0,0c0,0,0,0,0.1,0c0,0,0,0,0,0c0,0,0,0,0.1,0c0,0,0,0,0,0c0,0,0.1,0,0.1,0h0c0,0,0.1,0,0.1,0c0,0,0,0,0,0c0,0,0.1,0,0.1,0
		c0,0,0,0,0,0c0,0,0.1,0,0.1,0s0,0,0,0s0,0,0.1,0s0,0,0,0c0,0,0,0,0.1,0c0,0,0,0,0,0c0,0,0,0,0.1,0h0c0.7-0.1,0.7-0.1,1-0.1
		c0.1,0,0.1,0,0.2,0c2.9,0,5.2,2.3,5.2,5.2S36.5,38.7,33.7,38.7z"/>
	<path class="st0" d="M33.6,30.2c-1.7,0-3,1.4-3,3s1.4,3,3,3c1.7,0,3-1.4,3-3S35.2,30.2,33.6,30.2z M33.6,35c-1,0-1.8-0.8-1.8-1.8
		s0.8-1.8,1.8-1.8s1.8,0.8,1.8,1.8S34.5,35,33.6,35z"/>
</g>
</svg>
