<?xml version="1.0" encoding="utf-8"?>
<!-- Generator: Adobe Illustrator 21.1.0, SVG Export Plug-In . SVG Version: 6.00 Build 0)  -->
<svg version="1.1" id="Ebene_1" xmlns="http://www.w3.org/2000/svg" xmlns:xlink="http://www.w3.org/1999/xlink" x="0px" y="0px"
	 viewBox="0 0 30.6 34.5" style="enable-background:new 0 0 30.6 34.5;" xml:space="preserve">
<style type="text/css">
	.st0{fill:#FFFFFF;}
</style>
<path class="st0" d="M29.6,4.8h-2.8H22c0-0.4,0-1.1,0-1.8c-0.1-2.2-1.7-3-2.8-3h-7.9c-1.1,0-1.7,0.5-2,0.8C8.6,1.6,8.6,2.7,8.6,3.1
	l0,1.7H3.9H1.1C0.5,4.8,0,5.3,0,5.9S0.5,7,1.1,7h1.7l0.9,24c0,1,0.6,3,2.9,3.4l0.2,0h16.4c0,0,0.1,0,0.2,0c1.4,0,3.2-0.9,3.4-3.4v0
	l1-24h1.7c0.6,0,1.1-0.5,1.1-1.1S30.2,4.8,29.6,4.8z M19.2,2.2C19.2,2.2,19.2,2.2,19.2,2.2L19.2,2.2z M10.8,2.9c0-0.1,0-0.5,0.1-0.6
	c0.1-0.1,0.3-0.1,0.4-0.1h7.9c0.6,0,0.6,0.7,0.6,0.9c0,0.7,0,1.3,0,1.7h-9l0-1.7L10.8,2.9z M24.6,30.9c-0.1,0.9-0.5,1.1-0.6,1.2
	c-0.3,0.2-0.7,0.2-0.7,0.2h0h-0.1H7c-0.9-0.2-1-0.9-1-1.2v0V31L5,7h20.6L24.6,30.9z"/>
<g>
	<g>
		<path class="st0" d="M18.9,27V12.3c0-0.3,0.2-0.6,0.5-0.6S20,12,20,12.3V27c0,0.3-0.2,0.5-0.5,0.5S18.9,27.3,18.9,27z"/>
	</g>
	<g>
		<path class="st0" d="M14.7,27V12.3c0-0.3,0.2-0.6,0.6-0.6s0.6,0.2,0.6,0.6V27c0,0.3-0.2,0.5-0.6,0.5C14.9,27.5,14.7,27.3,14.7,27z
			"/>
	</g>
	<g>
		<path class="st0" d="M10.6,27V12.3c0-0.3,0.2-0.6,0.6-0.6s0.6,0.2,0.6,0.6V27c0,0.3-0.2,0.5-0.6,0.5S10.6,27.3,10.6,27z"/>
	</g>
</g>
</svg>
