<?xml version="1.0" encoding="utf-8"?>
<!-- Generator: Adobe Illustrator 21.1.0, SVG Export Plug-In . SVG Version: 6.00 Build 0)  -->
<svg version="1.1" id="Ebene_1" xmlns="http://www.w3.org/2000/svg" xmlns:xlink="http://www.w3.org/1999/xlink" x="0px" y="0px"
	 viewBox="0 0 30.65 34.45" style="enable-background:new 0 0 30.65 34.45;" xml:space="preserve">
<style type="text/css">
	.st0{fill:#A8B1B6;}
</style>
<path class="st0" d="M29.56,4.78h-2.79h-4.74c0.01-0.45,0-1.06-0.03-1.79C21.91,0.8,20.29,0,19.22,0H11.3
	c-1.05,0-1.67,0.46-2.01,0.84c-0.71,0.81-0.68,1.9-0.65,2.24l-0.01,1.7H3.89h-2.8C0.49,4.78,0,5.27,0,5.87s0.49,1.09,1.09,1.09h1.74
	L3.73,31c-0.02,1.03,0.57,3,2.91,3.43l0.2,0.02H23.2c0.05,0,0.11,0,0.16,0c1.35,0,3.23-0.88,3.42-3.43v-0.04L27.8,6.96h1.74
	c0.6,0,1.09-0.49,1.09-1.09S30.16,4.78,29.56,4.78z M19.22,2.19c0,0-0.01,0-0.02,0H19.22z M10.82,2.89c-0.01-0.1,0-0.47,0.12-0.61
	c0.07-0.08,0.26-0.09,0.36-0.09h7.9c0.57,0.04,0.6,0.67,0.61,0.88c0.03,0.71,0.03,1.29,0.02,1.71h-9.01l0.01-1.75L10.82,2.89z
	 M24.61,30.88c-0.07,0.92-0.49,1.15-0.63,1.22c-0.32,0.17-0.67,0.16-0.68,0.16h0.02h-0.08H6.96c-0.93-0.21-1.03-0.93-1.03-1.24v0.02
	v-0.08L5.02,6.97h20.6L24.61,30.88z"/>
<g>
	<g>
		<path class="st0" d="M18.94,27V12.31c0-0.3,0.25-0.55,0.55-0.55s0.55,0.25,0.55,0.55V27c0,0.3-0.25,0.55-0.55,0.55
			S18.94,27.3,18.94,27z"/>
	</g>
	<g>
		<path class="st0" d="M14.67,27V12.31c0-0.3,0.25-0.55,0.55-0.55s0.55,0.25,0.55,0.55V27c0,0.3-0.25,0.55-0.55,0.55
			C14.91,27.54,14.67,27.3,14.67,27z"/>
	</g>
	<g>
		<path class="st0" d="M10.62,27V12.31c0-0.3,0.25-0.55,0.55-0.55s0.55,0.25,0.55,0.55V27c0,0.3-0.25,0.55-0.55,0.55
			S10.62,27.3,10.62,27z"/>
	</g>
</g>
</svg>
