<?xml version="1.0" encoding="utf-8"?>
<!-- Generator: Adobe Illustrator 21.1.0, SVG Export Plug-In . SVG Version: 6.00 Build 0)  -->
<svg version="1.1" id="Ebene_1" xmlns="http://www.w3.org/2000/svg" xmlns:xlink="http://www.w3.org/1999/xlink" x="0px" y="0px"
	 viewBox="0 0 37 9.2" style="enable-background:new 0 0 37 9.2;" xml:space="preserve">
<style type="text/css">
	.st0{fill:#FFFFFF;}
</style>
<path class="st0" d="M5.8,3.5L4.3,5L3.7,4.4c-0.2-0.2-0.4-0.2-0.6,0C3,4.6,3,4.8,3.1,5l0.8,0.8l0,0c0.1,0,0.2,0.1,0.4,0.1
	c0,0,0.1,0,0.3-0.1l0.1-0.1L6.4,4c0.2-0.2,0.2-0.4,0-0.6C6.2,3.4,5.9,3.4,5.8,3.5z"/>
<path class="st0" d="M16.6,3.5L15.1,5l-0.6-0.6c-0.2-0.2-0.4-0.2-0.6,0c-0.2,0.2-0.2,0.4,0,0.6l0.8,0.8l0,0c0.1,0.1,0.2,0.1,0.3,0.1
	c0,0,0.1,0,0.3-0.1l0.1-0.1L17.1,4c0.2-0.2,0.2-0.4,0-0.6C17,3.4,16.7,3.4,16.6,3.5z"/>
<path class="st0" d="M27.5,3.5L26.1,5l-0.6-0.6c-0.2-0.2-0.4-0.2-0.6,0s-0.2,0.4,0,0.6l0.8,0.8l0,0c0.1,0.1,0.2,0.1,0.3,0.1
	c0,0,0.1,0,0.3-0.1l0.1-0.1L28.1,4c0.2-0.2,0.2-0.4,0-0.6C27.9,3.4,27.7,3.4,27.5,3.5z"/>
<path class="st0" d="M31,4.3C30.8,1.9,28.8,0,26.4,0S22,1.9,21.8,4.3h-1.6C20,1.9,18,0,15.5,0c-2.4,0-4.4,1.9-4.6,4.3H9.2
	C9,1.9,7,0,4.6,0C2.1,0,0,2.1,0,4.6s2.1,4.6,4.6,4.6c2.4,0,4.3-1.8,4.6-4.1H11c0.2,2.3,2.2,4.1,4.6,4.1s4.3-1.8,4.6-4.1h1.7
	C22,7.4,24,9.2,26.4,9.2s4.3-1.8,4.6-4.1 M4.6,8.4c-2.1,0-3.8-1.7-3.8-3.8s1.7-3.8,3.8-3.8s3.8,1.7,3.8,3.8S6.7,8.4,4.6,8.4z
	 M15.5,8.4c-2.1,0-3.8-1.7-3.8-3.8s1.7-3.8,3.8-3.8s3.8,1.7,3.8,3.8C19.4,6.7,17.6,8.4,15.5,8.4z M26.4,8.4c-2,0-3.7-1.6-3.8-3.6
	V4.7V4.6c0-2.1,1.7-3.8,3.8-3.8s3.8,1.7,3.8,3.8C30.2,6.7,28.5,8.4,26.4,8.4z"/>
<polygon class="st0" points="35.5,2.8 34.7,2.8 35.6,4.3 30.5,4.3 30.5,5.1 35.6,5.1 34.7,6.6 35.5,6.6 37,4.7 "/>
</svg>
