<?xml version="1.0" encoding="utf-8"?>
<!-- Generator: Adobe Illustrator 21.1.0, SVG Export Plug-In . SVG Version: 6.00 Build 0)  -->
<svg version="1.1" id="Ebene_1" xmlns="http://www.w3.org/2000/svg" xmlns:xlink="http://www.w3.org/1999/xlink" x="0px" y="0px"
	 viewBox="0 0 31.3 31.3" style="enable-background:new 0 0 31.3 31.3;" xml:space="preserve">
<style type="text/css">
	.st0{fill:#004077;}
</style>
<path class="st0" d="M15.7,13.8L6.5,4.6c-0.5-0.5-1.4-0.5-1.9,0s-0.5,1.4,0,1.9l9.2,9.2l-9.2,9.2c-0.5,0.5-0.5,1.4,0,1.9
	c0.5,0.5,1.4,0.5,1.9,0l9.2-9.2l9.2,9.2c0.5,0.5,1.4,0.5,1.9,0c0.3-0.3,0.4-0.6,0.4-0.9c0-0.3-0.1-0.7-0.4-0.9l-9.2-9.2l9.2-9.2
	c0.3-0.3,0.4-0.6,0.4-0.9S27,4.8,26.8,4.6c-0.5-0.5-1.4-0.5-1.9,0L15.7,13.8z"/>
</svg>
