<?xml version="1.0" encoding="utf-8"?>
<!-- Generator: Adobe Illustrator 23.0.4, SVG Export Plug-In . SVG Version: 6.00 Build 0)  -->
<svg version="1.1" id="Ebene_1" xmlns="http://www.w3.org/2000/svg" xmlns:xlink="http://www.w3.org/1999/xlink" x="0px" y="0px"
	 viewBox="0 0 318.4 132.9" style="enable-background:new 0 0 318.4 132.9;" xml:space="preserve">
<style type="text/css">
	.st0{fill:#004177;}
	.st1{fill:#FEC700;}
	.st2{fill:#009FE3;}
	.st3{fill:#52AE32;}
	.st4{fill:#074173;}
</style>
<g>
	<g>
		<g>
			<path class="st0" d="M32.1,85.2H12.6V34.4H0V18.5h2.5c1.8,0,3.6-0.1,5.3-0.3c1.7-0.2,3.2-0.5,4.6-1.1c1.3-0.5,2.5-1.2,3.5-2
				c0.9-0.8,1.6-1.9,2.1-3.3l0.6-1.6h13.4V85.2z M17.6,80.2h9.5v-65H22c-0.7,1.5-1.7,2.7-2.8,3.7c-1.5,1.3-3.2,2.3-5,3
				c-1.8,0.7-3.7,1.1-5.8,1.3c-1.1,0.1-2.2,0.2-3.4,0.3v5.9h12.6V80.2z"/>
		</g>
	</g>
	<g>
		<path class="st1" d="M279.3,76.8c-21.6,0-39.1-16.8-39.1-37.3c0-20.6,17.5-37.3,39.1-37.3c21.6,0,39.1,16.8,39.1,37.3
			C318.4,60.1,300.9,76.8,279.3,76.8z M279.3,5.2c-19.9,0-36.1,15.4-36.1,34.3c0,18.9,16.2,34.3,36.1,34.3
			c19.9,0,36.1-15.4,36.1-34.3C315.4,20.6,299.2,5.2,279.3,5.2z"/>
	</g>
	<g>
		<path class="st2" d="M267.7,74.7c-21.6,0-39.1-16.8-39.1-37.3c0-20.6,17.5-37.3,39.1-37.3s39.1,16.8,39.1,37.3
			C306.8,57.9,289.3,74.7,267.7,74.7z M267.7,3c-19.9,0-36.1,15.4-36.1,34.3c0,18.9,16.2,34.3,36.1,34.3s36.1-15.4,36.1-34.3
			C303.8,18.4,287.6,3,267.7,3z"/>
	</g>
	<g>
		<path class="st3" d="M274.5,90.3c-21.6,0-39.1-16.8-39.1-37.3c0-20.6,17.5-37.3,39.1-37.3s39.1,16.8,39.1,37.3
			C313.6,73.5,296.1,90.3,274.5,90.3z M274.5,18.6c-19.9,0-36.1,15.4-36.1,34.3c0,18.9,16.2,34.3,36.1,34.3s36.1-15.4,36.1-34.3
			C310.6,34,294.4,18.6,274.5,18.6z"/>
	</g>
	<g>
		<path class="st0" d="M265.7,85.4c-20.6,0-37.3-16.7-37.3-37.3s16.7-37.3,37.3-37.3S303,27.6,303,48.1S286.2,85.4,265.7,85.4z
			 M265.7,13.9c-18.9,0-34.3,15.4-34.3,34.3s15.4,34.3,34.3,34.3S300,67,300,48.1S284.6,13.9,265.7,13.9z"/>
	</g>
	<g>
		<path class="st0" d="M265.7,73.9c-14.2,0-25.8-11.6-25.8-25.8s11.6-25.8,25.8-25.8s25.8,11.6,25.8,25.8S279.9,73.9,265.7,73.9z
			 M265.7,25.4c-12.6,0-22.8,10.2-22.8,22.8s10.2,22.8,22.8,22.8s22.8-10.2,22.8-22.8S278.2,25.4,265.7,25.4z"/>
	</g>
	<g>
		<path class="st1" d="M188,76.8c-21.6,0-39.1-16.8-39.1-37.3c0-20.6,17.5-37.3,39.1-37.3s39.1,16.8,39.1,37.3
			C227.1,60.1,209.6,76.8,188,76.8z M188,5.2c-19.9,0-36.1,15.4-36.1,34.3c0,18.9,16.2,34.3,36.1,34.3s36.1-15.4,36.1-34.3
			C224.1,20.6,207.9,5.2,188,5.2z"/>
	</g>
	<g>
		<path class="st2" d="M176.4,74.7c-21.6,0-39.1-16.8-39.1-37.3c0-20.6,17.5-37.3,39.1-37.3c21.6,0,39.1,16.8,39.1,37.3
			C215.5,57.9,198,74.7,176.4,74.7z M176.4,3c-19.9,0-36.1,15.4-36.1,34.3c0,18.9,16.2,34.3,36.1,34.3c19.9,0,36.1-15.4,36.1-34.3
			C212.5,18.4,196.3,3,176.4,3z"/>
	</g>
	<g>
		<path class="st3" d="M183.2,90.3c-21.6,0-39.1-16.8-39.1-37.3c0-20.6,17.5-37.3,39.1-37.3s39.1,16.8,39.1,37.3
			C222.3,73.5,204.8,90.3,183.2,90.3z M183.2,18.6c-19.9,0-36.1,15.4-36.1,34.3c0,18.9,16.2,34.3,36.1,34.3s36.1-15.4,36.1-34.3
			C219.3,34,203.1,18.6,183.2,18.6z"/>
	</g>
	<g>
		<path class="st0" d="M174.4,85.4c-20.6,0-37.3-16.7-37.3-37.3s16.7-37.3,37.3-37.3s37.3,16.7,37.3,37.3S194.9,85.4,174.4,85.4z
			 M174.4,13.9c-18.9,0-34.3,15.4-34.3,34.3s15.4,34.3,34.3,34.3s34.3-15.4,34.3-34.3S193.3,13.9,174.4,13.9z"/>
	</g>
	<g>
		<path class="st0" d="M174.4,73.9c-14.2,0-25.8-11.6-25.8-25.8s11.6-25.8,25.8-25.8s25.8,11.6,25.8,25.8S188.6,73.9,174.4,73.9z
			 M174.4,25.4c-12.6,0-22.8,10.2-22.8,22.8s10.2,22.8,22.8,22.8s22.8-10.2,22.8-22.8S186.9,25.4,174.4,25.4z"/>
	</g>
	<g>
		<path class="st1" d="M98,76.8c-21.6,0-39.1-16.8-39.1-37.3C58.9,18.9,76.5,2.2,98,2.2s39.1,16.8,39.1,37.3
			C137.1,60.1,119.6,76.8,98,76.8z M98,5.2c-19.9,0-36.1,15.4-36.1,34.3c0,18.9,16.2,34.3,36.1,34.3s36.1-15.4,36.1-34.3
			C134.1,20.6,117.9,5.2,98,5.2z"/>
	</g>
	<g>
		<path class="st2" d="M86.4,74.7c-21.6,0-39.1-16.8-39.1-37.3C47.3,16.8,64.8,0,86.4,0c21.6,0,39.1,16.8,39.1,37.3
			C125.5,57.9,108,74.7,86.4,74.7z M86.4,3C66.5,3,50.3,18.4,50.3,37.3c0,18.9,16.2,34.3,36.1,34.3c19.9,0,36.1-15.4,36.1-34.3
			C122.5,18.4,106.3,3,86.4,3z"/>
	</g>
	<g>
		<path class="st3" d="M93.2,90.3c-21.6,0-39.1-16.8-39.1-37.3c0-20.6,17.5-37.3,39.1-37.3s39.1,16.8,39.1,37.3
			C132.3,73.5,114.8,90.3,93.2,90.3z M93.2,18.6c-19.9,0-36.1,15.4-36.1,34.3c0,18.9,16.2,34.3,36.1,34.3s36.1-15.4,36.1-34.3
			C129.3,34,113.1,18.6,93.2,18.6z"/>
	</g>
	<g>
		<path class="st0" d="M84.4,85.4c-20.6,0-37.3-16.7-37.3-37.3s16.7-37.3,37.3-37.3s37.3,16.7,37.3,37.3S104.9,85.4,84.4,85.4z
			 M84.4,13.9c-18.9,0-34.3,15.4-34.3,34.3s15.4,34.3,34.3,34.3s34.3-15.4,34.3-34.3S103.3,13.9,84.4,13.9z"/>
	</g>
	<g>
		<path class="st0" d="M84.4,73.9c-14.2,0-25.8-11.6-25.8-25.8s11.6-25.8,25.8-25.8s25.8,11.6,25.8,25.8S98.6,73.9,84.4,73.9z
			 M84.4,25.4c-12.6,0-22.8,10.2-22.8,22.8s10.2,22.8,22.8,22.8s22.8-10.2,22.8-22.8S96.9,25.4,84.4,25.4z"/>
	</g>
	<g>
		<g>
			<path class="st4" d="M35.1,125.6c-0.3,2.4-1.2,4.2-2.6,5.4s-3.3,1.9-5.6,1.9c-1.6,0-3-0.3-4.1-0.9c-1.1-0.6-2-1.4-2.7-2.5
				c-0.7-1-1.2-2.2-1.5-3.6c-0.3-1.3-0.5-2.8-0.5-4.2c0-1.5,0.2-2.9,0.5-4.3c0.3-1.4,0.8-2.6,1.5-3.6c0.7-1.1,1.6-1.9,2.8-2.5
				c1.1-0.6,2.5-0.9,4.2-0.9c2.3,0,4,0.6,5.3,1.8c1.3,1.2,2.1,2.9,2.6,5.1l-4.6,0.8c-0.1-0.5-0.2-1-0.3-1.6c-0.1-0.5-0.3-1-0.6-1.4
				c-0.2-0.4-0.6-0.8-1-1c-0.4-0.3-0.9-0.4-1.5-0.4c-0.7,0-1.3,0.2-1.8,0.6c-0.5,0.4-0.9,1-1.2,1.7c-0.3,0.7-0.6,1.6-0.7,2.7
				c-0.1,1-0.2,2.2-0.2,3.5c0,1.1,0.1,2.2,0.2,3.1s0.4,1.7,0.7,2.4c0.3,0.7,0.7,1.2,1.2,1.5c0.5,0.4,1.1,0.5,1.8,0.5
				c0.6,0,1.2-0.1,1.6-0.4c0.4-0.3,0.8-0.7,1.1-1.1c0.3-0.5,0.5-1,0.7-1.5c0.2-0.6,0.3-1.1,0.3-1.6L35.1,125.6z"/>
		</g>
		<g>
			<path class="st4" d="M53.6,124.4c0,1.4-0.1,2.6-0.4,3.7c-0.2,1.1-0.7,1.9-1.3,2.7c-0.6,0.7-1.4,1.3-2.3,1.6
				c-1,0.4-2.2,0.6-3.6,0.6c-1.4,0-2.6-0.2-3.6-0.6s-1.7-0.9-2.3-1.6c-0.6-0.7-1-1.6-1.2-2.7c-0.2-1.1-0.4-2.3-0.4-3.7v-13.6h4.6
				v14.1c0,0.6,0,1.1,0.1,1.7c0,0.5,0.2,1,0.4,1.5c0.2,0.4,0.5,0.8,0.9,1.1c0.4,0.3,1,0.4,1.7,0.4s1.3-0.1,1.7-0.4
				c0.4-0.3,0.7-0.6,0.9-1.1c0.2-0.4,0.3-0.9,0.4-1.5c0-0.5,0.1-1.1,0.1-1.7v-14.1h4.6V124.4z"/>
		</g>
		<g>
			<path class="st4" d="M72.3,126c0,1.2-0.2,2.2-0.5,3.1c-0.4,0.9-0.8,1.6-1.5,2.1c-0.6,0.6-1.4,1-2.3,1.3s-1.9,0.4-3,0.4
				c-1,0-2-0.1-2.9-0.3s-1.7-0.5-2.3-1s-1.2-1.1-1.7-1.8c-0.5-0.8-0.8-1.7-1-2.8l4.4-0.9c0.1,0.5,0.2,1,0.4,1.4
				c0.2,0.4,0.4,0.8,0.7,1.1c0.3,0.3,0.6,0.6,1,0.7c0.4,0.2,0.9,0.3,1.4,0.3c0.8,0,1.5-0.3,2-0.8c0.5-0.5,0.8-1.2,0.8-2.1
				c0-0.7-0.2-1.3-0.7-1.7c-0.5-0.4-1-0.8-1.8-1l-2.4-0.9c-0.6-0.2-1.3-0.5-1.9-0.8c-0.6-0.3-1.1-0.7-1.6-1.2
				c-0.5-0.5-0.9-1-1.1-1.7s-0.4-1.5-0.4-2.4c0-1.1,0.2-2,0.5-2.9c0.3-0.8,0.8-1.6,1.4-2.1c0.6-0.6,1.3-1,2.2-1.3
				c0.8-0.3,1.7-0.4,2.7-0.4c1,0,1.8,0.1,2.7,0.3c0.8,0.2,1.5,0.6,2.2,1c0.6,0.5,1.2,1,1.6,1.7c0.4,0.7,0.7,1.5,0.9,2.5l-4.3,0.6
				c-0.2-0.9-0.4-1.6-0.9-2.1c-0.4-0.5-1.1-0.8-2-0.8c-0.7,0-1.3,0.3-1.8,0.8c-0.5,0.5-0.7,1.1-0.7,1.9c0,0.7,0.2,1.2,0.6,1.6
				c0.4,0.4,1,0.7,1.7,1l2.4,0.9c0.6,0.2,1.3,0.5,1.9,0.8c0.6,0.3,1.2,0.7,1.7,1.2c0.5,0.5,0.9,1.1,1.2,1.7
				C72.1,124.2,72.3,125,72.3,126z"/>
		</g>
		<g>
			<path class="st4" d="M84.5,114.7v17.8h-4.6v-17.8h-5.2v-3.9h14.9v3.9H84.5z"/>
		</g>
		<g>
			<path class="st4" d="M109.6,121.4c0,1.5-0.1,3-0.4,4.4c-0.3,1.4-0.8,2.6-1.5,3.7c-0.7,1.1-1.6,1.9-2.7,2.5
				c-1.1,0.6-2.6,0.9-4.3,0.9c-1.5,0-2.8-0.3-3.9-0.9s-2-1.4-2.7-2.4c-0.7-1-1.2-2.2-1.5-3.5c-0.3-1.3-0.5-2.8-0.5-4.3
				c0-1.5,0.2-3,0.5-4.4c0.3-1.4,0.8-2.6,1.5-3.7c0.7-1.1,1.6-1.9,2.7-2.5c1.1-0.6,2.4-0.9,4-0.9c1.5,0,2.9,0.3,4,0.9
				c1.1,0.6,2,1.4,2.7,2.4s1.2,2.2,1.6,3.5C109.4,118.4,109.6,119.9,109.6,121.4z M104.6,121.5c0-0.4,0-0.9,0-1.5s-0.1-1.1-0.2-1.7
				c-0.1-0.6-0.2-1.2-0.4-1.7s-0.4-1.1-0.7-1.5s-0.6-0.8-1-1.1c-0.4-0.3-0.9-0.4-1.5-0.4c-0.9,0-1.6,0.3-2.1,0.9
				c-0.5,0.6-0.9,1.3-1.1,2.1c-0.2,0.8-0.4,1.7-0.5,2.7c-0.1,0.9-0.1,1.7-0.1,2.4c0,0.7,0,1.4,0.1,2.3c0,0.9,0.2,1.8,0.4,2.6
				c0.2,0.8,0.6,1.5,1.1,2.1c0.5,0.6,1.2,0.9,2.1,0.9c0.8,0,1.5-0.3,2-0.8c0.5-0.5,0.9-1.2,1.2-2.1c0.3-0.8,0.4-1.7,0.5-2.6
				S104.6,122.3,104.6,121.5z"/>
		</g>
		<g>
			<path class="st4" d="M130.3,132.5v-18.2l-4.4,18.2h-3.7l-4.3-18.2v18.2h-4.1v-21.7h6.8l3.7,15.6l3.3-15.6h6.8v21.7H130.3z"/>
		</g>
		<g>
			<path class="st4" d="M139.3,132.5v-21.7H152v3.6h-8.1v5.3h6.8v3.6h-6.8v5.7h8.4v3.6H139.3z"/>
		</g>
		<g>
			<path class="st4" d="M166.3,132.5l-4.1-9.3h-1.5v9.3h-4.6v-21.7h6.8c1,0,1.9,0.1,2.8,0.3s1.7,0.5,2.4,1s1.2,1.1,1.6,1.8
				s0.6,1.7,0.6,2.9c0,1.4-0.3,2.6-0.9,3.6s-1.6,1.6-2.9,2l4.6,10.2H166.3z M165.8,117c0-0.6-0.1-1.1-0.3-1.5
				c-0.2-0.4-0.5-0.6-0.8-0.8c-0.3-0.2-0.7-0.3-1.2-0.4c-0.4-0.1-0.9-0.1-1.4-0.1h-1.4v5.5h1.7c0.5,0,0.9,0,1.4-0.1
				c0.4-0.1,0.8-0.2,1.1-0.4c0.3-0.2,0.5-0.5,0.7-0.9S165.8,117.5,165.8,117z"/>
		</g>
		<g>
			<path class="st4" d="M188.4,126c0,1.2-0.2,2.2-0.5,3.1c-0.3,0.9-0.8,1.6-1.5,2.1c-0.6,0.6-1.4,1-2.3,1.3c-0.9,0.3-1.9,0.4-3,0.4
				c-1,0-2-0.1-2.8-0.3c-0.9-0.2-1.7-0.5-2.3-1c-0.7-0.5-1.2-1.1-1.7-1.8c-0.5-0.8-0.8-1.7-1-2.8l4.4-0.9c0.1,0.5,0.2,1,0.4,1.4
				c0.2,0.4,0.4,0.8,0.7,1.1c0.3,0.3,0.6,0.6,1,0.7c0.4,0.2,0.9,0.3,1.4,0.3c0.8,0,1.5-0.3,2-0.8c0.5-0.5,0.8-1.2,0.8-2.1
				c0-0.7-0.2-1.3-0.7-1.7c-0.5-0.4-1-0.8-1.8-1l-2.4-0.9c-0.6-0.2-1.3-0.5-1.9-0.8c-0.6-0.3-1.1-0.7-1.6-1.2s-0.9-1-1.1-1.7
				c-0.3-0.7-0.4-1.5-0.4-2.4c0-1.1,0.2-2,0.5-2.9c0.3-0.8,0.8-1.6,1.4-2.1s1.3-1,2.2-1.3c0.8-0.3,1.7-0.4,2.7-0.4
				c1,0,1.8,0.1,2.7,0.3c0.8,0.2,1.5,0.6,2.2,1c0.6,0.5,1.1,1,1.6,1.7s0.7,1.5,0.9,2.5l-4.3,0.6c-0.2-0.9-0.4-1.6-0.9-2.1
				c-0.4-0.5-1.1-0.8-2-0.8c-0.7,0-1.3,0.3-1.8,0.8c-0.5,0.5-0.7,1.1-0.7,1.9c0,0.7,0.2,1.2,0.6,1.6s1,0.7,1.7,1l2.4,0.9
				c0.6,0.2,1.3,0.5,1.9,0.8c0.6,0.3,1.2,0.7,1.7,1.2c0.5,0.5,0.9,1.1,1.2,1.7S188.4,125,188.4,126z"/>
		</g>
		<g>
			<path class="st4" d="M218,121.4c0,1.5-0.1,3-0.4,4.4c-0.3,1.4-0.8,2.6-1.5,3.7c-0.7,1.1-1.6,1.9-2.7,2.5
				c-1.1,0.6-2.6,0.9-4.3,0.9c-1.5,0-2.8-0.3-3.9-0.9s-2-1.4-2.7-2.4c-0.7-1-1.2-2.2-1.5-3.5c-0.3-1.3-0.5-2.8-0.5-4.3
				c0-1.5,0.2-3,0.5-4.4c0.3-1.4,0.8-2.6,1.5-3.7c0.7-1.1,1.6-1.9,2.7-2.5c1.1-0.6,2.4-0.9,4-0.9c1.5,0,2.9,0.3,4,0.9
				c1.1,0.6,2,1.4,2.7,2.4s1.2,2.2,1.6,3.5C217.8,118.4,218,119.9,218,121.4z M213,121.5c0-0.4,0-0.9,0-1.5s-0.1-1.1-0.2-1.7
				c-0.1-0.6-0.2-1.2-0.4-1.7s-0.4-1.1-0.7-1.5s-0.6-0.8-1-1.1c-0.4-0.3-0.9-0.4-1.5-0.4c-0.9,0-1.6,0.3-2.1,0.9
				c-0.5,0.6-0.9,1.3-1.1,2.1c-0.2,0.8-0.4,1.7-0.5,2.7c-0.1,0.9-0.1,1.7-0.1,2.4c0,0.7,0,1.4,0.1,2.3c0,0.9,0.2,1.8,0.4,2.6
				c0.2,0.8,0.6,1.5,1.1,2.1c0.5,0.6,1.2,0.9,2.1,0.9c0.8,0,1.5-0.3,2-0.8c0.5-0.5,0.9-1.2,1.2-2.1c0.3-0.8,0.4-1.7,0.5-2.6
				S213,122.3,213,121.5z"/>
		</g>
		<g>
			<path class="st4" d="M233.9,132.5l-7.4-16.3v16.3h-4.3v-21.7h6l6,13.4v-13.4h4.4v21.7H233.9z"/>
		</g>
		<g>
			<path class="st4" d="M243.5,132.5v-21.7h4.6v18.2h8v3.6H243.5z"/>
		</g>
		<g>
			<path class="st4" d="M259.7,132.5v-21.7h4.6v21.7H259.7z"/>
		</g>
		<g>
			<path class="st4" d="M280.9,132.5l-7.3-16.3v16.3h-4.4v-21.7h6l6,13.4v-13.4h4.4v21.7H280.9z"/>
		</g>
		<g>
			<path class="st4" d="M290.5,132.5v-21.7h12.7v3.6h-8.1v5.3h6.8v3.6h-6.8v5.7h8.4v3.6H290.5z"/>
		</g>
	</g>
</g>
</svg>
